<svg width="20" height="20" viewBox="0 0 20 20" fill="none" xmlns="http://www.w3.org/2000/svg">
<path fill-rule="evenodd" clip-rule="evenodd" d="M9.64286 0.0912863C9.03393 0.355494 0.372143 4.3729 0.277411 4.43504C0.218929 4.47337 0.133036 4.58859 0.0865178 4.69112C0.0104464 4.85883 0.00187497 4.99625 0.000982114 6.06309C4.46143e-05 7.20534 0.00366072 7.25591 0.100446 7.44605C0.253705 7.7472 0.482813 7.84839 1.01147 7.84839H1.42857V11.7798V15.7112H1.01393C0.481875 15.7112 0.25125 15.8123 0.100446 16.1116C0.00205357 16.3068 0 16.3425 0 17.8556C0 19.3692 0.00200893 19.4043 0.100446 19.5977C0.17183 19.7379 0.257857 19.8247 0.397634 19.8975L0.59442 20H9.99755H19.4007L19.5999 19.8995C19.7454 19.826 19.8262 19.7453 19.8996 19.5996C19.9979 19.4044 20 19.3687 20 17.8556C20 16.3425 19.9979 16.3068 19.8996 16.1116C19.7488 15.8123 19.5181 15.7112 18.9861 15.7112H18.5714V11.7798V7.84839H18.9861C19.5181 7.84839 19.7488 7.74734 19.8996 7.44801C19.9963 7.25609 20 7.20476 19.999 6.06309C19.9981 4.99625 19.9896 4.85883 19.9135 4.69112C19.867 4.58859 19.781 4.47333 19.7225 4.43495C19.4684 4.26836 10.1919 0.0179299 10.048 0.00220427C9.94549 -0.00900916 9.80054 0.0228441 9.64286 0.0912863ZM14.3085 3.46336L18.5491 5.42213L18.5617 5.92048L18.5744 6.41879H10H1.42562L1.43826 5.92267L1.45089 5.42656L5.66964 3.47006C7.98996 2.39402 9.92879 1.51155 9.97817 1.50905C10.0276 1.50659 11.9762 2.38597 14.3085 3.46336ZM4.28571 11.7798V15.7112H3.57143H2.85714V11.7798V7.84839H3.57143H4.28571V11.7798ZM7.85714 11.7798V15.7112H6.78571H5.71429V11.7798V7.84839H6.78571H7.85714V11.7798ZM10.7143 11.7798V15.7112H10H9.28571V11.7798V7.84839H10H10.7143V11.7798ZM14.2857 11.7798V15.7112H13.2143H12.1429V11.7798V7.84839H13.2143H14.2857V11.7798ZM17.1429 11.7798V15.7112H16.4286H15.7143V11.7798V7.84839H16.4286H17.1429V11.7798ZM18.5714 17.8556V18.5704H10H1.42857V17.8556V17.1408H10H18.5714V17.8556Z" fill="white"/>
</svg>
