<svg width="20" height="18" viewBox="0 0 20 18" fill="none" xmlns="http://www.w3.org/2000/svg">
<path fill-rule="evenodd" clip-rule="evenodd" d="M5.83984 2.47818L2.79297 4.95482L1.39648 4.95486H0V11.4774V18H8.72422C17.3432 18 17.4522 17.999 17.7574 17.9201C18.738 17.6664 19.4855 16.9816 19.8175 16.033C19.8718 15.878 19.935 15.6136 19.9581 15.4453C19.9861 15.2405 20 13.4568 20 10.0471V4.95486H18.6916H17.3832L16.1668 3.10118C15.4978 2.08163 14.9431 1.23917 14.9342 1.22902C14.9253 1.21887 14.1982 1.57557 13.3183 2.02172L11.7185 2.8329L10.322 1.4157C9.55383 0.636239 8.91668 -0.000831853 8.90605 8.15313e-07C8.89543 0.000833484 7.51562 1.11601 5.83984 2.47818ZM9.73668 2.48694L10.6251 3.3894L9.0723 4.17445L7.51953 4.9595L6.09375 4.94724L4.66797 4.93503L6.71875 3.26263C7.84668 2.34281 8.78727 1.58897 8.80891 1.58738C8.83059 1.5858 9.24809 1.99063 9.73668 2.48694ZM15.2663 3.8298C15.6599 4.43111 15.9747 4.93031 15.9659 4.93919C15.9572 4.94811 14.6508 4.95081 13.0629 4.94518L10.1758 4.93503L12.3242 3.8369C13.5059 3.2329 14.4902 2.73825 14.5117 2.73766C14.5332 2.73706 14.8728 3.22854 15.2663 3.8298ZM18.8281 10.7205C18.8281 15.1393 18.825 15.3466 18.7541 15.5777C18.5618 16.2049 18.0275 16.6864 17.3871 16.8096C17.2484 16.8364 14.4542 16.8501 9.17437 16.8501H1.17188V11.4774V6.10473H10H18.8281V10.7205ZM15.3813 9.78996C14.4284 10.0992 13.922 11.1455 14.2675 12.0913C14.523 12.7907 15.1627 13.2419 15.8984 13.2419C16.6342 13.2419 17.2738 12.7907 17.5294 12.0913C17.6998 11.6248 17.6789 11.1844 17.4641 10.7184C17.1036 9.93655 16.1878 9.52827 15.3813 9.78996ZM16.2109 10.9766C16.481 11.1755 16.5561 11.4958 16.3991 11.7793C16.3092 11.9417 16.0684 12.092 15.8984 12.092C15.7284 12.092 15.4877 11.9417 15.3978 11.7793C15.2164 11.4518 15.356 11.0525 15.7032 10.9056C15.8323 10.8509 16.0891 10.8869 16.2109 10.9766Z" fill="white"/>
</svg>
