<svg width="20" height="23" viewBox="0 0 20 23" fill="none" xmlns="http://www.w3.org/2000/svg">
<path fill-rule="evenodd" clip-rule="evenodd" d="M4.99528 1.77626C2.25994 2.76029 0.0145898 3.56587 0.00563259 3.56644C-0.00337672 3.56705 -0.00134537 5.60509 0.0100595 8.09541C0.032765 13.0478 0.032921 13.0498 0.356892 14.3089C1.22954 17.7004 3.75267 20.4235 7.66125 22.192C8.28243 22.4731 9.40318 22.8844 9.78381 22.9709C9.9979 23.0196 10.0855 23.0116 10.4171 22.9129C11.8236 22.4946 13.5098 21.6955 14.7588 20.8553C17.3144 19.1363 18.9586 16.9279 19.6324 14.3089C19.9564 13.0499 19.9566 13.0473 19.9793 8.10028L20 3.57731L19.7233 3.47583C19.1069 3.24966 10.069 0.0120527 10.0207 4.6682e-05C9.99206 -0.00703376 7.73062 0.792235 4.99528 1.77626ZM14.2389 3.22504L18.3009 4.68258L18.3162 8.42208C18.3262 10.866 18.312 12.3304 18.2753 12.649C17.8901 15.9841 15.8584 18.6575 12.3885 20.3949C11.6465 20.7664 11.137 20.9804 10.4195 21.2218L9.98503 21.368L9.42479 21.1648C7.34536 20.411 5.67004 19.3777 4.34057 18.0291C2.98298 16.652 2.19276 15.18 1.80916 13.3136C1.68897 12.7286 1.68839 12.7073 1.68839 8.70438V4.68289L5.80247 3.20441C8.39007 2.27451 9.96488 1.73368 10.0467 1.74676C10.1183 1.75815 12.0048 2.42341 14.2389 3.22504ZM11.3614 10.6609L8.32852 13.649L6.96072 12.3022L5.59297 10.9553L5.00799 11.5333L4.42301 12.1113L6.37568 14.0346L8.32841 15.958L11.9481 12.3918L15.5677 8.82567L14.981 8.24928L14.3943 7.67289L11.3614 10.6609Z" fill="white"/>
</svg>
