<svg width="20" height="25" viewBox="0 0 20 25" fill="none" xmlns="http://www.w3.org/2000/svg">
<path fill-rule="evenodd" clip-rule="evenodd" d="M11.3905 0.261625C9.72806 1.0569 8.35143 2.4696 7.64995 4.10028C7.29872 4.91682 7.12689 5.74139 7.06665 6.89932C7.03655 7.47872 7.00998 7.65344 6.92796 7.81189C6.80899 8.04187 6.61617 8.23152 6.37716 8.35371C6.14969 8.46998 5.67602 8.47037 5.44733 8.35445C5.35313 8.30673 4.91009 7.9037 4.46279 7.45883L3.64959 6.65004L3.01202 7.53012C1.56976 9.521 1.29115 9.94926 0.917998 10.7494C0.286206 12.1042 0.0048597 13.3963 6.37554e-05 14.965C-0.00502582 16.63 0.294281 17.9431 1.01627 19.4235C2.46102 22.3859 5.22819 24.4017 8.55491 24.9154C9.28815 25.0286 10.7152 25.0281 11.4406 24.9144C13.6257 24.5717 15.5389 23.6057 17.0719 22.071C18.9576 20.1831 19.992 17.7075 20 15.063C20.0034 13.9079 19.7986 12.9903 19.271 11.7972C18.7961 10.7233 18.2186 9.87322 17.0957 8.59579C14.7102 5.88171 12.8268 2.79997 12.2244 0.625015C12.155 0.374067 12.0867 0.130173 12.0728 0.083041C12.0588 0.0359085 12.0214 -0.00147413 11.9895 4.46936e-05C11.9577 0.00156352 11.6881 0.119297 11.3905 0.261625ZM11.416 2.61536C11.999 3.99504 13.0603 5.78426 14.2222 7.34644C14.8138 8.14191 15.1488 8.55405 16.0069 9.54251C17.2449 10.9683 17.7841 11.8252 18.218 13.0558C18.6471 14.2729 18.6795 15.5318 18.32 17.0228C17.4954 20.4426 14.6535 23.0008 11.1306 23.4946C10.3655 23.6018 9.113 23.5674 8.36508 23.4185C5.31265 22.8111 2.80369 20.5986 1.8535 17.6761C1.53668 16.7016 1.45999 16.178 1.45999 14.9895C1.45999 14.0871 1.47599 13.8566 1.57181 13.3809C1.7661 12.416 2.1438 11.4092 2.59139 10.6632C2.8122 10.2951 3.78005 8.91426 3.81725 8.91426C3.83183 8.91426 3.97532 9.0362 4.13613 9.18529C5.57873 10.5224 7.87702 9.87317 8.40012 7.98082C8.44069 7.83398 8.48836 7.40523 8.50607 7.02798C8.57689 5.52067 8.88936 4.54696 9.6181 3.56296C10.0767 2.94367 11.0869 1.99181 11.1781 2.09293C11.1958 2.11253 11.3028 2.3476 11.416 2.61536ZM7.00988 12.4077C6.15571 12.6503 5.67069 13.4285 5.76034 14.4126C5.82372 15.1084 6.15973 15.6352 6.71361 15.9076C6.96354 16.0305 7.03841 16.0429 7.52721 16.0429C8.01777 16.0429 8.09029 16.0307 8.34462 15.9057C9.05741 15.5553 9.44525 14.6629 9.26466 13.7888C9.08193 12.9041 8.51238 12.4043 7.64035 12.3633C7.39566 12.3518 7.14446 12.3695 7.00988 12.4077ZM9.72943 15.0256C8.76045 16.4465 7.73064 17.9567 7.44103 18.3816L6.91435 19.1541H7.71474H8.51513L10.7617 15.8634C11.9973 14.0535 13.0259 12.5433 13.0474 12.5073C13.0794 12.4537 12.9411 12.4418 12.2889 12.4419L11.4912 12.4421L9.72943 15.0256ZM7.70583 13.4256C7.86439 13.5106 7.94318 13.7732 7.94309 14.2163C7.94304 14.6707 7.85226 14.9241 7.65469 15.0214C7.50675 15.0943 7.36356 15.0429 7.23529 14.8709C7.16007 14.7701 7.13184 14.6438 7.11843 14.3482C7.09592 13.8514 7.13732 13.6362 7.28354 13.4897C7.4099 13.3632 7.54972 13.342 7.70583 13.4256ZM11.9762 15.581C11.4586 15.7055 10.9731 16.1665 10.7983 16.6993C10.668 17.0964 10.6812 17.8098 10.8257 18.1841C10.9678 18.5516 11.302 18.918 11.6526 19.0904C11.9069 19.2153 11.9794 19.2275 12.47 19.2275C12.9605 19.2275 13.0331 19.2153 13.2874 19.0904C14.1781 18.6524 14.5135 17.4325 14.0215 16.42C13.7645 15.8911 13.2431 15.5773 12.5755 15.5494C12.3559 15.5402 12.0863 15.5545 11.9762 15.581ZM12.6486 16.6103C12.8072 16.6952 12.8859 16.9578 12.8858 17.4009C12.8858 17.8554 12.795 18.1087 12.5975 18.206C12.4495 18.2789 12.3063 18.2276 12.1781 18.0556C12.1028 17.9547 12.0746 17.8284 12.0612 17.5328C12.0387 17.036 12.0801 16.8208 12.2263 16.6744C12.3527 16.5479 12.4925 16.5266 12.6486 16.6103Z" fill="white"/>
</svg>
