<?xml version="1.0" standalone="no"?>
<!DOCTYPE svg PUBLIC "-//W3C//DTD SVG 20010904//EN"
 "http://www.w3.org/TR/2001/REC-SVG-20010904/DTD/svg10.dtd">
<svg version="1.0" xmlns="http://www.w3.org/2000/svg"
 width="16.000000pt" height="16.000000pt" viewBox="0 0 16.000000 16.000000"
 preserveAspectRatio="xMidYMid meet">

<g transform="translate(0.000000,16.000000) scale(0.100000,-0.100000)"
fill="#000000" stroke="none">
<path d="M43 148 c-55 -27 -50 -114 8 -138 89 -37 151 99 63 139 -30 13 -42
13 -71 -1z m82 -23 c32 -31 32 -59 0 -90 -13 -14 -34 -25 -45 -25 -27 0 -70
43 -70 70 0 27 43 70 70 70 12 0 32 -11 45 -25z"/>
<path d="M52 108 c-25 -25 -6 -68 30 -68 24 0 23 16 -2 23 -11 3 -20 10 -20
17 0 7 9 14 20 17 11 3 20 9 20 14 0 13 -34 11 -48 -3z"/>
</g>
</svg>
