<?xml version="1.0" standalone="no"?>
<!DOCTYPE svg PUBLIC "-//W3C//DTD SVG 20010904//EN"
 "http://www.w3.org/TR/2001/REC-SVG-20010904/DTD/svg10.dtd">
<svg version="1.0" xmlns="http://www.w3.org/2000/svg"
 width="16.000000pt" height="16.000000pt" viewBox="0 0 16.000000 16.000000"
 preserveAspectRatio="xMidYMid meet">

<g transform="translate(0.000000,16.000000) scale(0.100000,-0.100000)"
fill="#000000" stroke="none">
<path d="M8 103 c7 -3 16 -2 19 1 4 3 -2 6 -13 5 -11 0 -14 -3 -6 -6z"/>
<path d="M45 98 c-4 -10 -5 -23 -2 -30 3 -8 6 -5 6 6 1 15 4 16 16 6 11 -9 18
-10 28 -1 11 8 18 6 32 -9 26 -28 35 -25 34 13 -1 25 -3 27 -6 9 l-5 -24 -22
21 c-21 19 -24 20 -36 6 -11 -14 -14 -13 -26 2 -12 17 -13 17 -19 1z"/>
<path d="M21 74 c0 -11 3 -14 6 -6 3 7 2 16 -1 19 -3 4 -6 -2 -5 -13z"/>
</g>
</svg>
