<svg xmlns="http://www.w3.org/2000/svg" width="12" height="7" viewBox="0 0 12 7" fill="none"><script xmlns=""/>
<g opacity="0.6">
<path d="M1.00021 0.000212661C0.802463 0.000255083 0.609165 0.0589265 0.444755 0.168811C0.280346 0.278695 0.152206 0.434859 0.0765358 0.617558C0.000865525 0.800258 -0.0189375 1.00129 0.01963 1.19524C0.0581975 1.3892 0.153403 1.56736 0.293212 1.70721L5.29321 6.70721C5.48074 6.89468 5.73505 7 6.00021 7C6.26538 7 6.51969 6.89468 6.70721 6.70721L11.7072 1.70721C11.847 1.56736 11.9422 1.3892 11.9808 1.19524C12.0194 1.00129 11.9996 0.800259 11.9239 0.617559C11.8482 0.43486 11.7201 0.278696 11.5557 0.168812C11.3913 0.0589275 11.198 0.000255991 11.0002 0.000213536L1.00021 0.000212661Z" fill="#15161E"/>
<path d="M1.00021 0.000212661C0.802463 0.000255083 0.609165 0.0589265 0.444755 0.168811C0.280346 0.278695 0.152206 0.434859 0.0765358 0.617558C0.000865525 0.800258 -0.0189375 1.00129 0.01963 1.19524C0.0581975 1.3892 0.153403 1.56736 0.293212 1.70721L5.29321 6.70721C5.48074 6.89468 5.73505 7 6.00021 7C6.26538 7 6.51969 6.89468 6.70721 6.70721L11.7072 1.70721C11.847 1.56736 11.9422 1.3892 11.9808 1.19524C12.0194 1.00129 11.9996 0.800259 11.9239 0.617559C11.8482 0.43486 11.7201 0.278696 11.5557 0.168812C11.3913 0.0589275 11.198 0.000255991 11.0002 0.000213536L1.00021 0.000212661Z" stroke="black"/>
</g>
<script xmlns=""/></svg>