<svg width="14" height="7" viewBox="0 0 14 7" fill="none" xmlns="http://www.w3.org/2000/svg">
<path d="M1.74818 9.50833e-08C1.53394 4.20413e-05 1.32453 0.0587154 1.14641 0.168603C0.968295 0.278491 0.829472 0.434659 0.747493 0.617364C0.665515 0.80007 0.64406 1.00111 0.685843 1.19507C0.727626 1.38903 0.830769 1.5672 0.982235 1.70705L6.3991 6.7072C6.60226 6.89468 6.87777 7 7.16504 7C7.45231 7 7.72782 6.89468 7.93098 6.7072L13.3478 1.70705C13.4993 1.5672 13.6025 1.38903 13.6442 1.19507C13.686 1.00111 13.6646 0.800071 13.5826 0.617365C13.5006 0.43466 13.3618 0.278492 13.1837 0.168604C13.0055 0.0587162 12.7961 4.28527e-05 12.5819 8.75636e-07L1.74818 9.50833e-08Z" fill="#15161E"/>
<path d="M1.74818 9.50833e-08C1.53394 4.20413e-05 1.32453 0.0587154 1.14641 0.168603C0.968295 0.278491 0.829472 0.434659 0.747493 0.617364C0.665515 0.80007 0.64406 1.00111 0.685843 1.19507C0.727626 1.38903 0.830769 1.5672 0.982235 1.70705L6.3991 6.7072C6.60226 6.89468 6.87777 7 7.16504 7C7.45231 7 7.72782 6.89468 7.93098 6.7072L13.3478 1.70705C13.4993 1.5672 13.6025 1.38903 13.6442 1.19507C13.686 1.00111 13.6646 0.800071 13.5826 0.617365C13.5006 0.43466 13.3618 0.278492 13.1837 0.168604C13.0055 0.0587162 12.7961 4.28527e-05 12.5819 8.75636e-07L1.74818 9.50833e-08Z" stroke="black"/>
</svg>
