<svg width="26" height="26" viewBox="0 0 26 26" fill="none" xmlns="http://www.w3.org/2000/svg">
<circle cx="13" cy="13" r="13" fill="#3562C7"/>
<path d="M6.30816 8.3824C6.50554 8.13755 6.7732 8 7.05229 8C7.33138 8 7.59904 8.13755 7.79641 8.3824L13.0064 14.8474L18.2163 8.3824C18.4148 8.14449 18.6807 8.01284 18.9566 8.01582C19.2326 8.0188 19.4966 8.15615 19.6917 8.39831C19.8869 8.64046 19.9976 8.96804 20 9.31049C20.0024 9.65294 19.8963 9.98285 19.7045 10.2292L13.7505 17.6176C13.5531 17.8625 13.2854 18 13.0064 18C12.7273 18 12.4596 17.8625 12.2622 17.6176L6.30816 10.2292C6.11085 9.98425 6 9.65211 6 9.30579C6 8.95947 6.11085 8.62732 6.30816 8.3824Z" fill="#FCFCFC"/>
</svg>
