<svg xmlns="http://www.w3.org/2000/svg" width="12" height="7" viewBox="0 0 12 7" fill="none"><script xmlns=""/>
<path d="M0.999725 0.000212661C0.801975 0.000255083 0.608677 0.0589265 0.444267 0.168811C0.279857 0.278695 0.151718 0.434859 0.0760475 0.617558C0.000377243 0.800258 -0.0194258 1.00129 0.0191417 1.19524C0.0577092 1.3892 0.152915 1.56736 0.292724 1.70721L5.29273 6.70721C5.48025 6.89468 5.73456 7 5.99972 7C6.26489 7 6.5192 6.89468 6.70672 6.70721L11.7067 1.70721C11.8465 1.56736 11.9417 1.3892 11.9803 1.19524C12.0189 1.00129 11.9991 0.800259 11.9234 0.617559C11.8477 0.43486 11.7196 0.278696 11.5552 0.168812C11.3908 0.0589275 11.1975 0.000255991 10.9997 0.000213536L0.999725 0.000212661Z" fill="#15161E"/>
<path d="M0.999725 0.000212661C0.801975 0.000255083 0.608677 0.0589265 0.444267 0.168811C0.279857 0.278695 0.151718 0.434859 0.0760475 0.617558C0.000377243 0.800258 -0.0194258 1.00129 0.0191417 1.19524C0.0577092 1.3892 0.152915 1.56736 0.292724 1.70721L5.29273 6.70721C5.48025 6.89468 5.73456 7 5.99972 7C6.26489 7 6.5192 6.89468 6.70672 6.70721L11.7067 1.70721C11.8465 1.56736 11.9417 1.3892 11.9803 1.19524C12.0189 1.00129 11.9991 0.800259 11.9234 0.617559C11.8477 0.43486 11.7196 0.278696 11.5552 0.168812C11.3908 0.0589275 11.1975 0.000255991 10.9997 0.000213536L0.999725 0.000212661Z" stroke="black"/>
<script xmlns=""/></svg>