<svg width="36" height="37" viewBox="0 0 36 37" fill="none" xmlns="http://www.w3.org/2000/svg">
<circle cx="18" cy="18.5" r="17" stroke="#D6D6B1" stroke-width="2"/>
<path d="M28.049 10.7711C27.0704 9.79246 25.478 9.79246 24.4994 10.7711L13.9395 21.3309L10.4792 17.8707C9.50061 16.8921 7.90825 16.8921 6.92964 17.8707C5.95103 18.8493 5.95103 20.4417 6.92964 21.4204L12.1648 26.6554C12.6389 27.1295 13.2692 27.3905 13.9395 27.3905C14.6099 27.3905 15.2402 27.1294 15.7143 26.6554L28.049 14.3207C29.0275 13.342 29.0275 11.7496 28.049 10.7711ZM27.0348 13.3065L14.7002 25.6411C14.497 25.8442 14.2269 25.9562 13.9396 25.9562C13.6523 25.9562 13.3821 25.8443 13.179 25.6411L7.94396 20.4061C7.52448 19.9866 7.52448 19.3042 7.94389 18.8848C8.15357 18.6751 8.42905 18.5703 8.70453 18.5703C8.97995 18.5703 9.2555 18.6752 9.4651 18.8848L13.4324 22.8522C13.7126 23.1322 14.1666 23.1322 14.4467 22.8522L25.5135 11.7852C25.933 11.3658 26.6155 11.3658 27.0349 11.7852C27.4542 12.2046 27.4542 12.887 27.0348 13.3065Z" fill="#D6D6B1"/>
<path d="M32.3047 21.4638C31.9205 21.3659 31.5305 21.5979 31.4328 21.9817C29.8469 28.2083 24.2456 32.5571 17.8111 32.5571C17.4151 32.5571 17.094 32.8781 17.094 33.2742C17.094 33.6703 17.4151 33.9913 17.8111 33.9913C24.9019 33.9913 31.0749 29.1984 32.8227 22.3357C32.9204 21.952 32.6886 21.5615 32.3047 21.4638Z" fill="#D6D6B1"/>
<path d="M32.5892 17.7832C32.1932 17.7832 31.8721 18.1043 31.8721 18.5003C31.8721 18.7054 31.8677 18.912 31.8589 19.1148C31.8417 19.5104 32.1487 19.8451 32.5444 19.8622C32.5549 19.8626 32.5654 19.8628 32.5759 19.8628C32.9577 19.8628 33.2751 19.5618 33.2918 19.1767C33.3015 18.9534 33.3064 18.7259 33.3064 18.5003C33.3064 18.1043 32.9852 17.7832 32.5892 17.7832Z" fill="#D6D6B1"/>
</svg>
