<svg width="36" height="35" viewBox="0 0 36 35" fill="none" xmlns="http://www.w3.org/2000/svg">
<path d="M25.875 10.1875C23.2425 10.1875 20.8558 11.2568 19.125 12.9837V7.54431C19.125 6.94637 18.9394 6.37375 18.5872 5.89056L14.8522 0.754375C14.5372 0.32125 14.0287 0.0625 13.4927 0.0625C12.6354 0.0625 11.934 0.709938 11.8327 1.54075C11.8282 1.53906 11.8249 1.53681 11.8204 1.53569L7.6995 0.1615C7.50319 0.0956875 7.29844 0.0625 7.09088 0.0625H6.9885C5.9265 0.0625 5.0625 0.9265 5.0625 1.98906C5.0625 2.74956 5.51137 3.44031 6.20606 3.74913L9.86287 5.37475C10.1559 5.50413 10.404 5.71394 10.5812 5.98L12.0915 8.24519C12.2771 8.52306 12.375 8.8465 12.375 9.18119V10.5796L11.6567 9.50181C11.2382 8.87463 10.5384 8.5 9.78469 8.5H4.21875C2.66794 8.5 1.40625 9.76169 1.40625 11.3125C1.40625 11.3243 1.40625 11.3361 1.40681 11.3479C0.921937 11.4728 0.5625 11.9138 0.5625 12.4375V18.1306C0.5625 18.5344 0.651938 18.9417 0.82125 19.3096L3.66188 25.4639C3.89869 25.9763 4.19681 26.4595 4.54838 26.8983L4.90556 27.3449C5.61431 28.2308 6.048 29.3125 6.15769 30.4375H5.0625V34.9375H17.4375V30.4375H16.3125V30.0325C16.3125 29.2557 16.4644 28.498 16.7625 27.7819L17.9094 25.0296C19.6239 27.6081 22.5529 29.3125 25.875 29.3125C31.1479 29.3125 35.4375 25.0229 35.4375 19.75C35.4375 14.4771 31.1479 10.1875 25.875 10.1875ZM16.3125 33.8125H6.1875V31.5625H16.3125V33.8125ZM15.7241 27.3494C15.3681 28.2032 15.1875 29.1066 15.1875 30.0325V30.4375H7.28831C7.17525 29.0571 6.65156 27.7268 5.78362 26.6423L5.42644 26.1957C5.13169 25.8272 4.88138 25.4223 4.68338 24.9925L1.84275 18.8382C1.7415 18.6177 1.6875 18.373 1.6875 18.1306V12.4375C2.92838 12.4375 3.9375 13.4466 3.9375 14.6875V16.9375C3.9375 17.4657 4.1895 17.9708 4.6125 18.2869L5.73694 19.1307C6.26963 19.5301 6.92831 19.75 7.59375 19.75C9.29925 19.75 10.6875 18.3617 10.6875 16.6562V14.4062C10.6875 12.7008 9.29925 11.3125 7.59375 11.3125H2.53125C2.53125 10.3821 3.28837 9.625 4.21875 9.625H9.78469C10.1616 9.625 10.5114 9.81231 10.7207 10.1262L12.1854 12.3239C12.3097 12.5101 12.375 12.7261 12.375 12.9483V15.8125H13.5V12.9483V9.18119C13.5 8.62375 13.3369 8.08431 13.0275 7.62138L11.5172 5.35619C11.2213 4.91237 10.8067 4.56306 10.3191 4.3465L6.66281 2.72087C6.37425 2.59262 6.1875 2.30519 6.1875 1.98906C6.1875 1.54694 6.54694 1.1875 6.98906 1.1875H7.09144C7.1775 1.1875 7.26356 1.201 7.34456 1.228L11.4649 2.60162C11.8181 2.71919 12.1264 2.95431 12.3334 3.26369L14.157 5.99913L14.904 7.11962C15.0896 7.39806 15.1875 7.7215 15.1875 8.05619V15.8125H16.3125V8.05619C16.3125 7.49875 16.1494 6.95931 15.84 6.49638L13.2716 2.64212C13.2699 2.63931 13.2671 2.63706 13.2649 2.63425L13.0309 2.28325C12.9701 2.19044 12.9375 2.08412 12.9375 1.97387V1.74269C12.9375 1.43669 13.1867 1.1875 13.4927 1.1875C13.6699 1.1875 13.8381 1.273 13.9427 1.41587L17.6777 6.5515C17.8886 6.84231 18 7.18488 18 7.54431V14.3376C16.938 15.8783 16.3125 17.7419 16.3125 19.75C16.3125 21.1894 16.6416 22.5501 17.2131 23.7758L15.7241 27.3494ZM4.20131 12.4375H7.59375C8.67937 12.4375 9.5625 13.3206 9.5625 14.4062V16.6562C9.5625 17.7419 8.67937 18.625 7.59375 18.625C7.17019 18.625 6.75112 18.4849 6.41194 18.2312L5.28694 17.3875C5.14631 17.2817 5.0625 17.1136 5.0625 16.9375V14.6875C5.0625 13.8241 4.73625 13.0349 4.20131 12.4375ZM25.875 28.1875C21.2226 28.1875 17.4375 24.4024 17.4375 19.75C17.4375 15.0976 21.2226 11.3125 25.875 11.3125C30.5274 11.3125 34.3125 15.0976 34.3125 19.75C34.3125 24.4024 30.5274 28.1875 25.875 28.1875Z" fill="#D6D6B1"/>
<path d="M29.4149 15.9766L23.6251 21.7664L22.3353 20.4766L21.5399 21.2719L23.6251 23.3571L30.2103 16.7719L29.4149 15.9766Z" fill="#D6D6B1"/>
<path d="M25.875 25.9387C22.4634 25.9387 19.6875 23.1628 19.6875 19.7512C19.6875 18.2915 20.2078 16.874 21.1523 15.7586L20.2944 15.0312C19.1779 16.3498 18.5625 18.026 18.5625 19.7512C18.5625 23.7832 21.843 27.0637 25.875 27.0637C27.6002 27.0637 29.2764 26.4483 30.5949 25.3318L29.8676 24.4739C28.7522 25.4184 27.3347 25.9387 25.875 25.9387Z" fill="#D6D6B1"/>
<path d="M25.875 12.4375C24.1498 12.4375 22.4736 13.0529 21.1551 14.1694L21.8824 15.0273C22.9978 14.0828 24.4153 13.5625 25.875 13.5625C29.2866 13.5625 32.0625 16.3384 32.0625 19.75C32.0625 21.2097 31.5422 22.6272 30.5978 23.7426L31.4556 24.4699C32.5722 23.1514 33.1875 21.4752 33.1875 19.75C33.1875 15.718 29.907 12.4375 25.875 12.4375Z" fill="#D6D6B1"/>
</svg>
