<svg width="16" height="17" viewBox="0 0 16 17" fill="none" xmlns="http://www.w3.org/2000/svg">
<g clip-path="url(#clip0_10281_5155)">
<path d="M1.39107 14.7753C1.02683 14.7753 0.715141 14.6457 0.455985 14.3865C0.196388 14.1269 0.0665894 13.815 0.0665894 13.4508V4.17946C0.0665894 3.81523 0.196388 3.50331 0.455985 3.24371C0.715141 2.98456 1.02683 2.85498 1.39107 2.85498H14.6358C15.0001 2.85498 15.312 2.98456 15.5716 3.24371C15.8307 3.50331 15.9603 3.81523 15.9603 4.17946V13.4508C15.9603 13.815 15.8307 14.1269 15.5716 14.3865C15.312 14.6457 15.0001 14.7753 14.6358 14.7753H1.39107ZM6.02673 10.1396C6.5786 10.1396 7.04768 9.94644 7.43399 9.56014C7.82029 9.17383 8.01344 8.70475 8.01344 8.15288C8.01344 7.60102 7.82029 7.13193 7.43399 6.74563C7.04768 6.35932 6.5786 6.16617 6.02673 6.16617C5.47487 6.16617 5.00578 6.35932 4.61948 6.74563C4.23317 7.13193 4.04002 7.60102 4.04002 8.15288C4.04002 8.70475 4.23317 9.17383 4.61948 9.56014C5.00578 9.94644 5.47487 10.1396 6.02673 10.1396ZM12.6491 12.7885L13.9736 11.4641L12.9802 10.1396H11.8875C11.8213 9.94093 11.7661 9.72835 11.722 9.50186C11.6778 9.27582 11.6558 9.0469 11.6558 8.81512C11.6558 8.58334 11.6778 8.35994 11.722 8.14494C11.7661 7.92949 11.8213 7.71139 11.8875 7.49065H12.9802L13.9736 6.16617L12.6491 4.84169C12.0531 5.30526 11.573 5.89289 11.2087 6.60457C10.8445 7.3167 10.6624 8.05355 10.6624 8.81512C10.6624 9.57669 10.8445 10.3133 11.2087 11.025C11.573 11.7371 12.0531 12.325 12.6491 12.7885ZM1.45729 13.4508H10.5962C10.1326 12.623 9.49244 11.9744 8.67568 11.5051C7.85892 11.0363 6.97594 10.8018 6.02673 10.8018C5.07752 10.8018 4.19454 11.0363 3.37778 11.5051C2.56102 11.9744 1.92086 12.623 1.45729 13.4508Z" fill="#FAFAF5"/>
</g>
<defs>
<clipPath id="clip0_10281_5155">
<rect width="15.8937" height="15.8937" fill="white" transform="translate(0.0664368 0.868164)"/>
</clipPath>
</defs>
</svg>
