<svg xmlns="http://www.w3.org/2000/svg" width="72" height="72" viewBox="0 0 72 72" fill="none"><script xmlns=""/>
<circle cx="35.8718" cy="35.8718" r="33.8718" fill="#3562C7" stroke="#F5F5F5" stroke-width="4"/>
<path d="M35.2917 50.3607C34.9843 50.3607 34.6895 50.2386 34.4722 50.0213C34.2548 49.8039 34.1327 49.5091 34.1327 49.2017V45.7248H29.4968C28.8821 45.7248 28.2925 45.4806 27.8578 45.0459C27.4231 44.6112 27.1789 44.0216 27.1789 43.4069V31.8171C27.1789 31.2024 27.4231 30.6128 27.8578 30.1781C28.2925 29.7434 28.8821 29.4992 29.4968 29.4992H45.7225C46.3372 29.4992 46.9268 29.7434 47.3615 30.1781C47.7962 30.6128 48.0404 31.2024 48.0404 31.8171V43.4069C48.0404 44.0216 47.7962 44.6112 47.3615 45.0459C46.9268 45.4806 46.3372 45.7248 45.7225 45.7248H40.9707L36.6825 50.0246C36.4507 50.2332 36.1725 50.3607 35.8712 50.3607H35.2917ZM36.4507 43.4069V46.9765L40.0203 43.4069H45.7225V31.8171H29.4968V43.4069H36.4507ZM24.8609 41.0889H22.543V27.1812C22.543 26.5665 22.7872 25.9769 23.2219 25.5422C23.6566 25.1075 24.2462 24.8633 24.8609 24.8633H43.4045V27.1812H24.8609V41.0889ZM31.8148 34.1351H43.4045V36.453H31.8148V34.1351ZM31.8148 38.771H41.0866V41.0889H31.8148V38.771Z" fill="white"/>
<script xmlns=""/></svg>