<svg width="42" height="34" viewBox="0 0 42 34" fill="none" xmlns="http://www.w3.org/2000/svg">
<path fill-rule="evenodd" clip-rule="evenodd" d="M12.5811 0.0899954C12.1761 0.213841 11.519 0.892132 11.3488 1.36196C11.1711 1.85198 11.1673 2.60319 11.3402 3.03301C11.5308 3.50683 11.9734 3.98523 12.4281 4.20876C12.8227 4.40267 12.9176 4.41072 14.8286 4.4115L16.8183 4.41237V5.48818V9.56399L14.8286 9.59239C13.017 9.61829 12.8058 9.637 12.4688 9.80163C11.7482 10.1537 11.2822 10.8558 11.1831 11.7385C11.1496 12.037 11.0741 12.2276 10.9343 12.3663C10.7445 12.5546 10.6532 12.568 9.24275 12.6137C8.42284 12.6402 7.65446 12.7058 7.53541 12.7595C7.15864 12.929 6.70705 13.415 6.50898 13.8638C6.32905 14.2718 6.31765 14.3991 6.31691 16.0079L6.31609 17.7184H5.24946H4.18283L4.18201 16.0079C4.18127 14.3944 4.17028 14.2727 3.98805 13.8596C3.22795 12.1366 0.911394 12.1918 0.151543 13.9511C0.0111586 14.2763 0.00188711 14.6901 0.000984581 20.7063L0 27.115L0.191255 27.5487C0.403022 28.0286 0.856257 28.4959 1.30514 28.697C1.71235 28.8795 2.42404 28.8755 2.88827 28.688C3.35873 28.498 3.94604 27.8425 4.08527 27.352C4.14591 27.1384 4.18283 26.381 4.18283 25.3512V23.6941H5.24946H6.31609V25.8061V27.918L6.54525 28.381C6.80132 28.8985 7.30682 29.3556 7.7745 29.4927C7.94262 29.542 8.82964 29.5825 9.74571 29.5828C11.0332 29.5832 11.4615 29.6114 11.6328 29.7074C11.7547 29.7756 12.6482 30.6761 13.6184 31.7083C14.9283 33.102 15.488 33.6383 15.7927 33.7918L16.2029 33.9984L24.1027 33.9993C32.8798 34.0002 32.3121 34.0381 32.9273 33.4113C33.5505 32.7764 33.5911 32.6151 33.6238 30.6442L33.6528 28.8904H34.2913H34.9298L34.9882 29.5168C35.0854 30.5572 35.4018 31.1219 36.1199 31.5362C36.5161 31.7649 36.6337 31.7877 37.5765 31.819C38.1406 31.8377 38.8237 31.8101 39.0944 31.7577C40.2121 31.5413 41.2008 30.7259 41.7035 29.6057L41.9661 29.0203L41.9902 24.6097C42.0131 20.4013 42.0067 20.1729 41.8495 19.6267C41.5241 18.4959 40.6289 17.5448 39.5627 17.1972C39.1386 17.059 38.8023 17.0257 37.8346 17.0264C36.7492 17.0272 36.5933 17.0468 36.2222 17.2291C35.7678 17.4525 35.3425 17.9104 35.1591 18.3736C35.0933 18.5399 35.0145 18.9671 34.9839 19.3231L34.9283 19.9701H34.2896H33.6508L33.624 17.8266C33.5942 15.4425 33.5863 15.4041 32.9933 14.7451C32.4627 14.1553 32.3725 14.1296 30.6567 14.0812L29.111 14.0377L28.9131 13.7946C28.7285 13.5679 28.7153 13.484 28.7148 12.5389C28.7146 11.9818 28.6762 11.381 28.6295 11.2035C28.5003 10.7123 28.0628 10.1697 27.5637 9.88174L27.1154 9.62305L25.4539 9.59135L23.7924 9.55974V5.48601V4.41237L25.7821 4.4115C27.6931 4.41072 27.788 4.40267 28.1826 4.20876C28.6384 3.98471 29.0815 3.50509 29.2689 3.03301C29.455 2.56404 29.4278 1.73142 29.211 1.25864C28.9878 0.77201 28.4227 0.233327 27.9927 0.0973568C27.5974 -0.0276144 12.9886 -0.0346294 12.5811 0.0899954ZM27.8201 1.71557C28.0645 2.03428 28.0249 2.44903 27.7244 2.71586L27.472 2.94008H20.3347C12.9832 2.94008 12.9856 2.94017 12.739 2.6012C12.516 2.29461 12.6583 1.69574 12.9879 1.55431C13.0888 1.51093 16.3357 1.48468 20.4152 1.49421L27.6632 1.5111L27.8201 1.71557ZM22.3976 5.49493V9.5775H20.3053H18.2131V5.49493V4.41237H20.3053H22.3976V5.49493ZM27.0492 11.3453C27.2773 11.5523 27.2799 11.5658 27.3205 12.7959C27.3589 13.9573 27.3762 14.0641 27.5889 14.4461C28.096 15.3566 28.5974 15.5532 30.4113 15.5532C31.7323 15.5532 31.7625 15.5574 31.9599 15.7659L32.1613 15.9784V24.0406V32.1027L31.9599 32.3152L31.7586 32.5279H24.16C18.7401 32.5279 16.5099 32.5002 16.3821 32.4315C16.2836 32.3784 15.3537 31.4455 14.3158 30.3583C13.2779 29.2712 12.3179 28.3317 12.1825 28.2708C12.0177 28.1965 11.3041 28.1447 10.0215 28.1138L8.10663 28.0677L7.90873 27.8247L7.71091 27.5817V21.1385C7.71091 14.5254 7.71879 14.3532 8.02967 14.1972C8.10253 14.1606 8.82677 14.1098 9.63905 14.0842C11.064 14.0393 11.1294 14.0293 11.4996 13.7996C12.175 13.3805 12.6338 12.5755 12.6338 11.8096C12.6338 11.6617 12.7151 11.4757 12.8352 11.349L13.0366 11.1364H19.9278H26.819L27.0492 11.3453ZM2.40935 14.1788C2.52127 14.2326 2.65295 14.379 2.70202 14.504C2.76421 14.6623 2.78456 16.594 2.76913 20.866L2.74698 27.0005L2.55326 27.166C2.33543 27.3522 1.91074 27.3798 1.71424 27.2205C1.39581 26.9624 1.39318 26.9084 1.39318 20.662V14.5873L1.63301 14.3341C1.89023 14.0626 2.08625 14.0234 2.40935 14.1788ZM39.141 18.6362C39.4734 18.7394 39.6846 18.8811 39.9718 19.1937C40.6075 19.8858 40.6125 19.9258 40.6114 24.3378C40.6109 26.4368 40.5876 28.3012 40.5594 28.4806C40.4761 29.0128 40.0471 29.6743 39.5936 29.9699C39.2009 30.2259 39.1592 30.2336 38.0165 30.2608C36.8543 30.2885 36.8406 30.2867 36.6353 30.0699L36.4279 29.851V24.4816C36.4279 20.7199 36.4553 19.0488 36.5193 18.9004C36.5696 18.784 36.6895 18.6483 36.7859 18.5992C37.0702 18.4538 38.6329 18.4784 39.141 18.6362ZM6.31609 20.7063V22.1352H5.24946H4.18283V20.7063V19.2773H5.24946H6.31609V20.7063ZM34.951 24.387V27.3315H34.2946H33.6382V24.387V21.4424H34.2946H34.951V24.387Z" fill="#0091B9"/>
</svg>
