<svg width="21" height="18" viewBox="0 0 21 18" fill="none" xmlns="http://www.w3.org/2000/svg">
<path fill-rule="evenodd" clip-rule="evenodd" d="M5.39302 0.0722023C4.81379 0.207769 4.18805 0.605003 3.82956 1.0648C3.55437 1.41777 3.41136 1.75766 2.85111 3.39027L2.33711 4.88804L2.13307 4.77128C1.75025 4.55218 1.62552 4.50277 1.45511 4.50277C1.05712 4.50277 0.747909 4.80434 0.753871 5.18668C0.758781 5.50021 0.897057 5.67083 1.34178 5.91209C1.8976 6.21361 1.88449 6.20071 1.82149 6.38547C1.78213 6.50096 1.70856 6.57935 1.5417 6.68376C1.01753 7.01169 0.610729 7.46686 0.323481 8.04686C-0.00848499 8.71709 2.02078e-05 8.6252 2.02078e-05 11.5485V14.1588L0.126239 14.4762C0.45746 15.3092 1.06957 15.8845 1.9389 16.1799C2.30866 16.3055 2.94488 16.3328 3.37032 16.2411C4.19686 16.0631 4.92059 15.5219 5.2754 14.8167C5.37523 14.6183 5.47961 14.3604 5.50741 14.2437C5.5352 14.127 5.56445 14.0076 5.57247 13.9784C5.58391 13.9367 6.18765 13.9254 8.40523 13.9254H11.2234V13.2463V12.5672H7.95274H4.6821L4.53417 12.6637C4.26188 12.8413 4.20089 12.9793 4.1784 13.4682C4.16222 13.821 4.13653 13.9521 4.04705 14.1389C3.80974 14.6343 3.34792 14.9198 2.78394 14.9198C2.22045 14.9198 1.76253 14.6369 1.5175 14.1376L1.40294 13.9041L1.38975 11.6758C1.38085 10.1657 1.39242 9.35859 1.42574 9.17163C1.57256 8.3477 2.26416 7.6694 3.10986 7.51987C3.28978 7.48804 5.56852 7.47386 10.5004 7.47386C17.4473 7.47386 17.6434 7.47607 18.1194 7.55905C19.0487 7.72106 19.8978 8.05403 20.5672 8.519C20.7508 8.64655 20.9106 8.74179 20.9221 8.73059C20.9554 8.69837 20.8039 8.2851 20.6481 7.98319C20.3752 7.45429 19.9713 7.01186 19.4574 6.67893C19.2474 6.54289 19.1367 6.38411 19.1367 6.21862C19.1367 6.18882 19.3145 6.06599 19.5318 5.94558C20.0403 5.66387 20.167 5.51069 20.167 5.17768C20.167 4.79865 19.931 4.54955 19.5371 4.51292C19.3411 4.49467 19.2809 4.51169 18.985 4.6689C18.7485 4.79458 18.6469 4.82964 18.632 4.7908C18.6204 4.76079 18.3765 4.05728 18.09 3.22746C17.8034 2.39763 17.5194 1.62392 17.4587 1.50804C17.0847 0.793498 16.3775 0.250637 15.5849 0.0698255C15.1704 -0.02474 5.79794 -0.0225754 5.39302 0.0722023ZM15.3243 1.43003C15.6219 1.51556 15.9042 1.70176 16.0676 1.92013C16.1559 2.03813 16.3994 2.68553 16.8762 4.07048C17.2514 5.16032 17.5585 6.06633 17.5585 6.08382C17.5585 6.10135 14.3822 6.11565 10.5 6.11565C6.61786 6.11565 3.44156 6.10135 3.44156 6.08382C3.44156 6.06633 3.74858 5.16032 4.12382 4.07048C4.84983 1.96181 4.89722 1.85889 5.24984 1.624C5.65077 1.35694 5.42507 1.36811 10.4811 1.36488C14.5873 1.36225 15.1132 1.36929 15.3243 1.43003ZM16.5282 9.23117C15.497 9.57705 13.7493 10.2516 13.5784 10.3696C13.3257 10.5442 13.1088 10.8462 13.0173 11.151C12.916 11.4882 12.9476 13.9957 13.0578 14.371C13.2707 15.0958 13.5756 15.6235 14.0728 16.1274C14.3651 16.4237 14.62 16.61 15.5973 17.2416C16.7227 17.9689 16.7797 18 16.9874 18C17.1947 18 17.2531 17.9684 18.3348 17.2722C19.1286 16.7613 19.5673 16.4488 19.8071 16.2233C20.3415 15.7208 20.7123 15.1014 20.9178 14.3675C20.9906 14.1074 21 13.9092 21 12.63V11.186L20.8557 10.9022C20.715 10.6255 20.4768 10.3786 20.2292 10.253C20.167 10.2214 19.5061 9.97242 18.7605 9.69976C17.5154 9.24433 17.3765 9.20269 17.0543 9.18818C16.8286 9.17799 16.641 9.19331 16.5282 9.23117ZM4.18344 9.6077C3.71697 9.91202 3.71697 10.4685 4.18344 10.7729C4.32545 10.8655 4.36753 10.8694 5.23905 10.8694C6.11058 10.8694 6.15266 10.8655 6.29467 10.7729C6.76114 10.4685 6.76114 9.91202 6.29467 9.6077C6.15266 9.51504 6.11058 9.51118 5.23905 9.51118C4.36753 9.51118 4.32545 9.51504 4.18344 9.6077ZM18.2226 10.9779C18.9024 11.2243 19.4964 11.4455 19.5428 11.4696C19.6235 11.5114 19.6262 11.5629 19.6083 12.7087C19.5875 14.0304 19.5733 14.1153 19.2798 14.6589C19.0456 15.0928 18.7276 15.3778 17.8333 15.9556C17.3938 16.2396 17.0136 16.472 16.9885 16.472C16.8851 16.472 15.3261 15.4211 15.1029 15.2009C14.8471 14.9486 14.5925 14.5244 14.4648 14.1376C14.4011 13.945 14.3843 13.6971 14.3687 12.7219C14.357 11.9912 14.3659 11.5239 14.3922 11.4985C14.4222 11.4694 16.8806 10.5498 16.9766 10.5317C16.9822 10.5307 17.5429 10.7314 18.2226 10.9779Z" fill="#334C85"/>
</svg>
