<svg xmlns="http://www.w3.org/2000/svg" width="25" height="24" viewBox="0 0 25 24" fill="none">
<path d="M19.4604 1.54712H5.54039C2.97779 1.54712 0.900391 3.62452 0.900391 6.18712V17.7871C0.900391 20.3498 2.97779 22.4271 5.54039 22.4271H19.4604C22.0229 22.4271 24.1004 20.3498 24.1004 17.7871V6.18712C24.1004 3.62452 22.0229 1.54712 19.4604 1.54712Z" fill="#46C578" stroke="#46C578" stroke-width="1.3" stroke-linecap="round" stroke-linejoin="round"/>
<path d="M6.69922 17.787L18.2992 6.18701" stroke="white" stroke-width="1.3" stroke-linecap="round" stroke-linejoin="round"/>
<path d="M7.85906 10.827C9.14036 10.827 10.1791 9.78832 10.1791 8.50701C10.1791 7.22571 9.14036 6.18701 7.85906 6.18701C6.57776 6.18701 5.53906 7.22571 5.53906 8.50701C5.53906 9.78832 6.57776 10.827 7.85906 10.827Z" stroke="white" stroke-width="1.3" stroke-linecap="round" stroke-linejoin="round"/>
<path d="M17.1403 17.787C18.4216 17.787 19.4603 16.7483 19.4603 15.467C19.4603 14.1858 18.4216 13.147 17.1403 13.147C15.859 13.147 14.8203 14.1858 14.8203 15.467C14.8203 16.7483 15.859 17.787 17.1403 17.787Z" stroke="white" stroke-width="1.3" stroke-linecap="round" stroke-linejoin="round"/>
<script xmlns=""/></svg>