<svg width="30" height="30" viewBox="0 0 30 30" fill="none" xmlns="http://www.w3.org/2000/svg">
<path d="M14.3938 0.0227516C13.85 0.0727516 13.8438 0.0790016 13.8875 0.404002C13.975 1.04775 13.975 1.0415 14.225 1.0415C14.35 1.0415 14.5625 1.02275 14.6938 1.004L14.9313 0.960252L14.9125 0.485252C14.8938 -0.0397484 14.9063 -0.0272484 14.3938 0.0227516Z" fill="#405FF2"/>
<path d="M15.9128 0.485254C15.9003 0.741504 15.9065 0.966504 15.9253 0.985254C15.944 1.01025 16.1565 1.0415 16.4003 1.0665L16.844 1.104L16.9128 0.622754C16.9503 0.354004 16.969 0.129004 16.9628 0.116504C16.9503 0.110254 16.719 0.085254 16.4378 0.060254L15.9378 0.022754L15.9128 0.485254Z" fill="#405FF2"/>
<path d="M12.3178 0.416516C12.1053 0.479016 11.9053 0.547766 11.874 0.566516C11.824 0.597766 12.0615 1.38527 12.1428 1.46652C12.174 1.49777 13.049 1.27277 13.049 1.22902C13.0428 1.07277 12.8115 0.329016 12.7678 0.316516C12.7303 0.310266 12.5303 0.354016 12.3178 0.416516Z" fill="#405FF2"/>
<path d="M17.8876 0.803957C17.8314 1.05396 17.7814 1.27271 17.7876 1.28521C17.7876 1.30396 17.9439 1.36021 18.1251 1.41646C18.3064 1.47896 18.5001 1.54771 18.5564 1.56646C18.6376 1.60396 18.6939 1.51646 18.8251 1.16021C18.9189 0.910207 18.9689 0.691457 18.9439 0.666457C18.8939 0.622707 18.1251 0.353957 18.0439 0.353957C18.0189 0.353957 17.9501 0.560207 17.8876 0.803957Z" fill="#405FF2"/>
<path d="M10.3944 1.21014C10.1507 1.32889 9.94443 1.44139 9.93193 1.45389C9.91943 1.46639 10.3194 2.17889 10.4069 2.28514C10.4444 2.33514 11.2382 1.89139 11.2319 1.82264C11.2319 1.78514 11.1444 1.58514 11.0319 1.37264L10.8319 0.978894L10.3944 1.21014Z" fill="#405FF2"/>
<path d="M19.7508 1.51025C19.6383 1.73525 19.5508 1.929 19.5508 1.94775C19.5508 1.979 20.2945 2.4165 20.3508 2.4165C20.407 2.4165 20.8883 1.61025 20.857 1.579C20.8133 1.5415 20.0133 1.104 19.982 1.104C19.9633 1.104 19.8633 1.28525 19.7508 1.51025Z" fill="#405FF2"/>
<path d="M8.8625 2.18516C8.775 2.26016 8.59375 2.41016 8.4625 2.52266L8.21875 2.72266L8.5625 3.07891L8.9125 3.44141L9.2125 3.19766C9.375 3.06016 9.5375 2.92891 9.575 2.90391C9.6375 2.86641 9.46875 2.58516 9.1625 2.21641L9.01875 2.04766L8.8625 2.18516Z" fill="#405FF2"/>
<path d="M21.4688 2.54766C21.3375 2.71641 21.2188 2.89141 21.2 2.93516C21.1875 2.97891 21.325 3.14766 21.5063 3.30391L21.8438 3.59766L22.2 3.23516L22.5563 2.87891L22.1688 2.55391C21.9625 2.37266 21.7688 2.22891 21.75 2.23516C21.725 2.23516 21.6 2.37891 21.4688 2.54766Z" fill="#405FF2"/>
<path d="M7.16328 3.8478C6.99453 4.0478 6.86328 4.22905 6.86328 4.2478C6.86328 4.32905 7.62578 4.86655 7.66953 4.81655C7.69453 4.7853 7.83203 4.61655 7.97578 4.44155L8.23828 4.11655L7.86953 3.7978C7.66953 3.6228 7.49453 3.47905 7.48203 3.47905C7.46953 3.47905 7.32578 3.6478 7.16328 3.8478Z" fill="#405FF2"/>
<path d="M22.9008 3.96025C22.707 4.12275 22.5508 4.279 22.5508 4.304C22.5508 4.37275 23.057 5.01025 23.107 5.01025C23.182 5.01025 23.8633 4.52275 23.8633 4.4665C23.8633 4.41025 23.3133 3.6665 23.2758 3.6665C23.2633 3.6665 23.0945 3.79775 22.9008 3.96025Z" fill="#405FF2"/>
<path d="M12.1258 4.7415L11.4445 5.63525L10.3695 6.004L9.30078 6.37275V7.48525V8.59775L8.64453 9.53525L7.98828 10.479L8.64453 11.4228L9.30078 12.3603V13.4728V14.5853L10.3758 14.954L11.4445 15.3228L12.1258 16.2103C12.5008 16.704 12.8383 17.104 12.8758 17.104C12.9133 17.104 13.407 16.9603 13.9695 16.7915L14.9945 16.4728L16.0133 16.7915C16.5758 16.9603 17.0633 17.104 17.1008 17.104C17.1383 17.104 17.4758 16.704 17.8508 16.2103L18.532 15.3228L19.6008 14.954L20.6758 14.5853V13.4728V12.3603L21.332 11.4228L21.9883 10.479L21.332 9.53525L20.6758 8.59775V7.48525V6.37275L19.607 6.004L18.532 5.63525L17.8508 4.7415C17.4758 4.254 17.1383 3.854 17.1008 3.854C17.0633 3.854 16.5758 3.99775 16.0133 4.1665L14.9945 4.48525L13.9695 4.1665C13.407 3.99775 12.9133 3.854 12.8758 3.854C12.8383 3.854 12.5008 4.254 12.1258 4.7415ZM15.832 6.57275C17.3195 6.88525 18.582 8.14775 18.8945 9.63525C19.4883 12.4728 16.982 14.979 14.1445 14.3853C13.007 14.1478 11.9445 13.3228 11.432 12.2915C10.8445 11.0915 10.8445 9.8665 11.432 8.6665C12.2195 7.07275 14.0508 6.19775 15.832 6.57275Z" fill="#405FF2"/>
<path d="M15.5258 9.95391L14.4633 11.2352L13.9133 10.6852L13.3633 10.1352L13.007 10.4977L12.6445 10.8539L13.4258 11.6352C13.857 12.0664 14.2758 12.4352 14.357 12.4602C14.4383 12.4789 14.5758 12.4727 14.657 12.4414C14.7383 12.4102 15.3758 11.6977 16.082 10.8539L17.357 9.32266L17.0008 8.99766C16.807 8.81641 16.632 8.67266 16.6133 8.67266C16.5945 8.67266 16.107 9.24766 15.5258 9.95391Z" fill="#405FF2"/>
<path d="M6.01953 5.56025C5.90078 5.779 5.80078 5.9915 5.80078 6.029C5.80078 6.079 6.55078 6.479 6.64453 6.479C6.65703 6.479 6.76328 6.29775 6.88203 6.07275L7.10078 5.66025L6.84453 5.49775C6.70078 5.41025 6.51953 5.304 6.44453 5.254C6.36953 5.204 6.29453 5.1665 6.27578 5.1665C6.25703 5.1665 6.14453 5.34775 6.01953 5.56025Z" fill="#405FF2"/>
<path d="M23.9881 5.629C23.8006 5.73525 23.6443 5.854 23.6506 5.88525C23.6568 6.004 24.0006 6.6665 24.0506 6.6665C24.0943 6.6665 24.8506 6.36025 24.9131 6.3165C24.9631 6.28525 24.4756 5.4165 24.4068 5.42275C24.3693 5.42275 24.1756 5.5165 23.9881 5.629Z" fill="#405FF2"/>
<path d="M0.530859 8.054C0.562109 8.09775 0.905859 8.66025 1.29336 9.304L1.99336 10.4728L1.34336 11.554C0.987109 12.1478 0.649609 12.7103 0.587109 12.804L0.474609 12.979H4.63711H8.79961V12.7415C8.79336 12.5478 8.68711 12.354 8.14336 11.5728C7.73086 10.9853 7.48711 10.579 7.48711 10.479C7.48711 10.379 7.73086 9.97275 8.14336 9.38525C8.68711 8.604 8.79336 8.41025 8.79961 8.21025V7.979H4.63711C1.31211 7.979 0.480859 7.99775 0.530859 8.054Z" fill="#405FF2"/>
<path d="M21.1758 8.21025C21.182 8.41025 21.2883 8.604 21.832 9.38525C22.2508 9.979 22.4883 10.379 22.4883 10.479C22.4883 10.5853 22.2508 10.979 21.832 11.5728C21.282 12.3603 21.1758 12.5478 21.1758 12.7415V12.979H25.3383C28.6633 12.979 29.4945 12.9603 29.4445 12.8978C29.4133 12.8603 29.0695 12.2978 28.682 11.6478L27.982 10.479L28.6883 9.31025C29.0758 8.6665 29.4195 8.104 29.4445 8.06025C29.4883 7.9915 28.732 7.979 25.332 7.979H21.1758V8.21025Z" fill="#405FF2"/>
<path d="M5.70611 14.3352C5.49986 14.4227 5.32486 14.4977 5.31236 14.5102C5.28111 14.5352 5.66236 15.3414 5.73111 15.3789C5.78736 15.4164 6.35611 15.1727 6.53111 15.0289C6.61861 14.9602 6.28736 14.2039 6.16236 14.1852C6.11861 14.1789 5.91236 14.2477 5.70611 14.3352Z" fill="#405FF2"/>
<path d="M23.4805 14.7414C23.443 14.8226 23.3367 15.0039 23.2555 15.1476L23.1055 15.4101L23.4492 15.6351C23.968 15.9664 23.943 15.9726 24.1992 15.5164C24.3242 15.2976 24.4242 15.0914 24.4242 15.0601C24.4242 15.0164 23.668 14.6039 23.5805 14.6039C23.568 14.6039 23.518 14.6664 23.4805 14.7414Z" fill="#405FF2"/>
<path d="M6.69453 16.0789L6.30078 16.3664L6.48828 16.6227C6.58828 16.7664 6.72578 16.9539 6.79453 17.0352L6.91328 17.1914L7.21328 16.9414C7.37578 16.8102 7.55078 16.6664 7.60078 16.6289C7.67578 16.5727 7.63828 16.4977 7.40078 16.1789C7.23828 15.9664 7.10078 15.7914 7.09453 15.7914C7.08828 15.7977 6.90703 15.9227 6.69453 16.0789Z" fill="#405FF2"/>
<path d="M22.2687 16.579L21.9688 16.929L22.325 17.279L22.6812 17.6353L22.8375 17.4478C22.925 17.3415 23.075 17.1603 23.175 17.0353L23.3625 16.804L23.0312 16.5603C22.8562 16.4228 22.675 16.2978 22.6375 16.2728C22.5937 16.2478 22.4375 16.379 22.2687 16.579Z" fill="#405FF2"/>
<path d="M7.95664 17.6477L7.65039 17.9977L8.01914 18.3289C8.22539 18.5102 8.40664 18.6477 8.42539 18.6352C8.44414 18.6227 8.59414 18.4477 8.75039 18.2477L9.03789 17.8789L8.70664 17.5852C8.51914 17.4227 8.34414 17.2914 8.31914 17.2914C8.28789 17.2914 8.12539 17.4477 7.95664 17.6477Z" fill="#405FF2"/>
<path d="M20.9258 17.8853C20.7383 18.0415 20.582 18.1853 20.582 18.2103C20.5883 18.329 21.0945 18.9728 21.1633 18.9478C21.2633 18.9103 21.9195 18.3978 21.9195 18.354C21.9195 18.3353 21.7758 18.1603 21.5945 17.9603L21.2695 17.5978L20.9258 17.8853Z" fill="#405FF2"/>
<path d="M9.53086 18.8665L9.28711 19.254L9.43086 19.3728C9.51211 19.4415 9.71211 19.5603 9.87461 19.6415L10.1684 19.7915L10.3871 19.3915C10.5121 19.1728 10.6121 18.9728 10.6121 18.9603C10.6121 18.9165 9.89336 18.479 9.82461 18.479C9.79336 18.479 9.66211 18.654 9.53086 18.8665Z" fill="#405FF2"/>
<path d="M19.2883 18.9415C19.0883 19.0478 18.9258 19.154 18.9258 19.179C18.9258 19.1978 19.007 19.404 19.1133 19.629L19.2945 20.0415L19.532 19.9353C19.6633 19.8728 19.8758 19.7665 20.0008 19.6915L20.232 19.5665L20.0008 19.1665C19.8758 18.9478 19.7445 18.7665 19.707 18.7603C19.6758 18.754 19.482 18.8353 19.2883 18.9415Z" fill="#405FF2"/>
<path d="M2.94357 18.8853C2.83107 18.9353 2.68107 19.0665 2.61232 19.179C2.49357 19.3603 2.48732 19.4478 2.51857 19.8853L2.56232 20.379L2.05607 19.779C1.77482 19.4478 1.44982 19.1353 1.33732 19.079C0.674818 18.7665 -0.0751819 19.2978 0.00606814 20.0165C0.0310681 20.2478 0.268568 20.6228 1.60607 22.5228L3.18107 24.7603L4.31857 25.7415C4.94357 26.279 5.68107 26.904 5.95607 27.129C6.77482 27.7853 7.07482 28.229 7.07482 28.7915C7.08107 28.979 7.05607 29.3228 7.03107 29.554L6.98107 29.979H9.19357H11.4061L11.4498 28.2728C11.4998 26.4415 11.4561 25.8165 11.2248 25.1353C10.9623 24.3415 10.7561 24.0665 9.36857 22.604C8.63107 21.829 7.94357 21.1478 7.83732 21.0915C7.26232 20.7728 6.49357 21.2415 6.48732 21.904C6.48732 22.1665 6.54357 22.2728 7.03107 22.8978C7.25607 23.1853 7.41232 23.4165 7.38107 23.4165C7.34982 23.4165 6.86232 23.2415 6.29982 23.0228L5.26857 22.629L4.81857 21.754C4.45607 21.054 4.33107 20.7353 4.17482 20.0853C3.95607 19.2353 3.83732 19.0165 3.51232 18.879C3.25607 18.7728 3.19982 18.7728 2.94357 18.8853Z" fill="#405FF2"/>
<path d="M26.4502 18.879C26.1377 19.0165 26.0127 19.2415 25.8002 20.0853C25.644 20.7353 25.519 21.054 25.1565 21.754L24.7065 22.629L23.6752 23.0228C23.1127 23.2415 22.6252 23.4165 22.594 23.4165C22.5627 23.4165 22.719 23.1853 22.944 22.8978C23.4315 22.2728 23.4877 22.1665 23.4877 21.904C23.4815 21.2415 22.7127 20.7728 22.1377 21.0915C22.0315 21.1478 21.344 21.829 20.6065 22.604C19.544 23.7228 19.219 24.0978 19.0377 24.4478C18.5502 25.3853 18.469 25.9915 18.5252 28.2415L18.569 29.979H20.7752C21.994 29.979 22.9877 29.9665 22.9877 29.9478C22.9877 29.929 22.9565 29.6478 22.919 29.3228C22.844 28.6353 22.894 28.3978 23.1877 27.954C23.294 27.7853 23.6377 27.4415 23.9502 27.1853C24.2627 26.929 25.0315 26.279 25.6565 25.7415L26.794 24.7603L28.369 22.5228C29.7065 20.6228 29.944 20.2478 29.969 20.0165C30.0502 19.2978 29.3002 18.7665 28.6377 19.079C28.519 19.1353 28.2002 19.4478 27.919 19.779L27.4127 20.379L27.4502 19.8853C27.4877 19.4478 27.4752 19.3603 27.3627 19.179C27.244 18.9853 26.9127 18.7853 26.7252 18.7915C26.6815 18.7978 26.5565 18.8353 26.4502 18.879Z" fill="#405FF2"/>
<path d="M11.4254 19.4915C11.3941 19.5727 11.3129 19.7665 11.2441 19.9352L11.1191 20.229L11.3379 20.3227C11.6941 20.4727 12.0629 20.554 12.1129 20.4977C12.1629 20.4477 12.3629 19.7852 12.3629 19.679C12.3629 19.6227 11.6754 19.354 11.5379 19.354C11.5066 19.354 11.4566 19.4165 11.4254 19.4915Z" fill="#405FF2"/>
<path d="M17.5562 19.6102C17.3375 19.6727 17.1437 19.7352 17.1312 19.7539C17.0687 19.8164 17.3125 20.7352 17.3875 20.7102C17.4312 20.6914 17.6437 20.6289 17.8687 20.5664C18.0875 20.5102 18.2812 20.4539 18.2937 20.4414C18.3187 20.4164 18.0437 19.5852 17.9937 19.5352C17.975 19.5164 17.775 19.5477 17.5562 19.6102Z" fill="#405FF2"/>
<path d="M13.2375 20.2916C13.1938 20.5478 13.1875 20.7666 13.2187 20.7978C13.2437 20.8228 13.4687 20.8666 13.7125 20.8916L14.1562 20.9353L14.1937 20.7291C14.2187 20.6166 14.2375 20.3916 14.2375 20.2228C14.2375 19.9478 14.225 19.9166 14.1 19.9166C14.0187 19.9166 13.8125 19.8978 13.6375 19.8791L13.3125 19.8353L13.2375 20.2916Z" fill="#405FF2"/>
<path d="M15.4758 19.9602L15.2383 19.9852V20.4915V20.9915L15.7258 20.9477C15.9883 20.9227 16.2195 20.8852 16.2445 20.8665C16.2633 20.8415 16.2508 20.6165 16.2195 20.3665L16.1633 19.9165L15.9383 19.929C15.807 19.9352 15.6008 19.9477 15.4758 19.9602Z" fill="#405FF2"/>
</svg>
