<svg width="23" height="18" viewBox="0 0 23 18" fill="none" xmlns="http://www.w3.org/2000/svg">
<path fill-rule="evenodd" clip-rule="evenodd" d="M11.9073 0.213988L11.6715 0.268854C10.8539 0.460831 9.67618 0.978671 8.92887 1.47471C8.19415 1.96241 7.31637 2.74601 6.91953 3.26844L6.76323 3.4742L5.06276 3.47558L3.36229 3.47696L3.20954 3.62854C3.11267 3.72467 3.05679 3.82337 3.05679 3.89827C3.05679 4.05062 3.16852 4.26408 3.27895 4.32271C3.33281 4.35133 3.88384 4.36863 4.74234 4.36863C5.49967 4.36863 6.11234 4.38366 6.10384 4.40207C6.09535 4.42044 5.98537 4.63613 5.8594 4.88134C5.73342 5.12655 5.56454 5.49205 5.48408 5.69357L5.3378 6.06L2.80084 6.07253L0.263921 6.0851L0.132826 6.23071C-0.0442752 6.42746 -0.0442752 6.63442 0.132826 6.83117L0.263921 6.97678L2.67388 6.98904C4.93153 7.00058 5.0823 7.0062 5.05993 7.0782C5.01958 7.20799 4.90601 7.98263 4.8738 8.34772L4.84329 8.69325H3.7669H2.69045L2.55913 8.82356C2.45616 8.92579 2.42781 8.99383 2.42781 9.13908C2.42781 9.28434 2.45616 9.35237 2.55913 9.4546L2.69045 9.58492H3.76734C4.9548 9.58492 4.89878 9.57065 4.89878 9.87297C4.89878 10.0024 5.01698 10.7308 5.10324 11.1325L5.13397 11.2757L3.59743 11.2885L2.06094 11.3014L1.92989 11.447C1.75279 11.6437 1.75279 11.8507 1.92989 12.0475L2.06094 12.1931L3.7549 12.2154L5.44886 12.2376L5.64591 12.6789C7.48669 16.8017 12.2295 18.9359 16.5948 17.6059C17.3998 17.3606 18.5447 16.8207 18.9142 16.5122C19.1455 16.3191 19.1389 16.009 18.8994 15.8165C18.7389 15.6874 18.5198 15.7187 18.1739 15.9201C17.1388 16.5227 16.0149 16.9067 14.9174 17.0328C14.264 17.1079 12.9674 17.0624 12.3817 16.944C10.6676 16.5973 9.24812 15.8315 8.0661 14.6159C7.43444 13.9662 7.04407 13.4208 6.6511 12.6389C5.69888 10.7443 5.51391 8.75901 6.0989 6.7124C7.34939 2.33767 12.1357 -0.139399 16.5264 1.31595C18.9465 2.11814 20.8504 4.0084 21.6555 6.40834C22.4278 8.71041 22.1477 11.1697 20.8746 13.2649C20.6969 13.5573 20.6792 13.6708 20.7808 13.8658C20.8654 14.0283 20.9746 14.0879 21.1876 14.0879C21.3176 14.0879 21.3843 14.0557 21.4939 13.9401C21.8233 13.5925 22.4123 12.3356 22.6665 11.4378C23.0862 9.95599 23.1107 8.28357 22.7347 6.80593C21.9295 3.64196 19.4064 1.092 16.2989 0.301444L15.9058 0.201443C15.9058 0.201443 13.9211 -0.26006 11.9073 0.213988ZM13.359 2.09661C11.7022 2.23161 10.2026 2.92907 9.00903 4.11999C8.00402 5.12277 7.40285 6.21636 7.08953 7.61169C6.95458 8.21272 6.9442 9.72019 7.07102 10.2983C7.49967 12.2518 8.62737 13.874 10.245 14.8641C13.0451 16.5778 16.5828 16.1611 18.8902 13.8458C19.8973 12.8352 20.5629 11.5373 20.8102 10.1013C20.9295 9.40899 20.9072 8.24144 20.7623 7.58891C20.4603 6.22924 19.8417 5.10685 18.8503 4.11999C17.8446 3.11891 16.678 2.48948 15.3098 2.20971C14.9958 2.14551 14.0082 2.04319 13.8392 2.05733C13.8021 2.06045 13.5861 2.0781 13.359 2.09661ZM14.8514 3.05221C16.5621 3.32756 18.0388 4.26819 18.9827 5.68385C19.416 6.33361 19.7174 7.063 19.8857 7.86845C20.009 8.45869 19.9997 9.57912 19.8665 10.1972C19.4705 12.0333 18.2662 13.5789 16.6103 14.376C16.0314 14.6547 15.703 14.7663 15.0747 14.8981C14.4395 15.0313 13.4154 15.0306 12.775 14.8965C10.9034 14.5045 9.41247 13.3969 8.566 11.7695C8.06462 10.8055 7.89435 10.1085 7.89089 9.00533C7.88824 8.17006 7.95451 7.75949 8.21126 7.02136C8.93269 4.94711 10.7553 3.42609 12.9631 3.05587C13.4494 2.97432 14.3567 2.97258 14.8514 3.05221ZM13.6294 3.89569C13.5169 3.99168 13.5027 4.03631 13.4871 4.34268C13.4604 4.86882 13.5917 5.08197 13.9425 5.08197C14.074 5.08197 14.1472 5.05063 14.247 4.95165C14.3719 4.82771 14.3783 4.80248 14.3783 4.43551C14.3783 4.06854 14.3719 4.04331 14.247 3.91936C14.0751 3.74879 13.8133 3.73875 13.6294 3.89569ZM16.8717 5.47886C16.7976 5.52527 16.244 6.0547 15.6414 6.65533L14.5459 7.74741L14.3961 7.68534C14.2076 7.60714 13.6364 7.60781 13.4573 7.68641L13.3225 7.74558L12.7571 7.19399C12.2129 6.66318 12.1844 6.6424 12.0011 6.6424C11.6426 6.6424 11.4418 6.98302 11.6122 7.30224C11.6475 7.36844 11.8972 7.64 12.1671 7.90572L12.6578 8.38883L12.599 8.55218C12.5152 8.78504 12.5226 9.21354 12.6147 9.46967C12.7164 9.75224 13.0265 10.0932 13.3177 10.2426C13.6358 10.4058 14.1555 10.4126 14.5027 10.2581C14.7998 10.1259 15.1369 9.7674 15.2434 9.47047C15.3346 9.21604 15.3423 8.78576 15.2598 8.55949L15.2028 8.40345L16.363 7.24076C17.513 6.08822 17.5232 6.07641 17.5232 5.88916C17.5232 5.65402 17.4675 5.54765 17.2994 5.46138C17.127 5.37288 17.0348 5.37667 16.8717 5.47886ZM8.95916 8.57898C8.65199 8.71166 8.58034 9.03516 8.80326 9.28278C8.92676 9.41996 8.95305 9.42861 9.28622 9.44176C9.57753 9.45331 9.66352 9.44015 9.78284 9.36597C10.0258 9.21483 10.0621 8.88054 9.85751 8.67751C9.6876 8.50885 9.23613 8.45936 8.95916 8.57898ZM14.2368 8.62757C14.5842 8.91768 14.3833 9.46334 13.929 9.46334C13.7134 9.46334 13.5414 9.34653 13.4785 9.15759C13.37 8.83132 13.5918 8.51491 13.929 8.51491C14.0483 8.51491 14.1436 8.54982 14.2368 8.62757ZM18.0139 8.68981C17.8418 8.86061 17.8319 9.12022 17.9905 9.30324C18.089 9.41679 18.1301 9.42923 18.4559 9.44395C18.8738 9.46276 19.0521 9.39562 19.1394 9.18652C19.2168 9.00096 19.1639 8.76257 19.0205 8.65058C18.9239 8.57519 18.8384 8.55949 18.5245 8.55949C18.1652 8.55949 18.1383 8.56636 18.0139 8.68981ZM0.288766 11.3211C-0.0010558 11.4425 -0.0824629 11.8083 0.128288 12.0424C0.233686 12.1594 0.287643 12.1829 0.451041 12.1829C0.614439 12.1829 0.668396 12.1594 0.773794 12.0424C0.860996 11.9455 0.900307 11.8538 0.900307 11.7472C0.900307 11.4561 0.549745 11.2118 0.288766 11.3211ZM13.7216 12.9529C13.5311 13.0486 13.4796 13.1845 13.4808 13.5884C13.4815 13.8463 13.5011 13.9555 13.5594 14.0269C13.7547 14.2662 14.0658 14.2712 14.2633 14.0383C14.3654 13.9178 14.3783 13.8633 14.3783 13.5501C14.3783 13.2279 14.3677 13.186 14.2547 13.063C14.1036 12.8984 13.9098 12.8583 13.7216 12.9529ZM19.8412 14.6464C19.6543 14.7431 19.5928 14.8427 19.5912 15.0515C19.5886 15.3917 19.9416 15.605 20.2307 15.4379C20.543 15.2575 20.5619 14.876 20.2683 14.6801C20.0892 14.5607 20.0177 14.555 19.8412 14.6464Z" fill="#15744e"/>
</svg>
