<svg xmlns="http://www.w3.org/2000/svg" width="26" height="26" viewBox="0 0 26 26" fill="none">
<path d="M21.125 23.5625H20.9869C5.0213 22.6444 2.75442 9.17313 2.43755 5.06188C2.41202 4.74222 2.44981 4.42067 2.54876 4.11565C2.64771 3.81062 2.80588 3.52812 3.01419 3.28433C3.22251 3.04054 3.47689 2.84025 3.76274 2.69493C4.0486 2.54962 4.36032 2.46214 4.68005 2.4375H9.15692C9.48238 2.43719 9.80043 2.5346 10.0699 2.71713C10.3393 2.89966 10.5478 3.15889 10.6682 3.46125L11.9032 6.5C12.0221 6.79538 12.0516 7.11919 11.988 7.4312C11.9245 7.74321 11.7707 8.02967 11.5457 8.255L9.81505 10.0019C10.0854 11.5381 10.8211 12.9542 11.9226 14.0587C13.0241 15.1631 14.4383 15.9025 15.9738 16.1769L17.7369 14.43C17.9656 14.2075 18.2548 14.0573 18.5683 13.998C18.8819 13.9388 19.2059 13.9732 19.5 14.0969L22.5632 15.3238C22.861 15.448 23.115 15.658 23.293 15.9272C23.471 16.1963 23.5648 16.5123 23.5625 16.835V21.125C23.5625 21.7715 23.3057 22.3915 22.8486 22.8486C22.3915 23.3057 21.7715 23.5625 21.125 23.5625ZM4.87505 4.0625C4.65956 4.0625 4.4529 4.1481 4.30052 4.30048C4.14815 4.45285 4.06255 4.65951 4.06255 4.875V4.94C4.4363 9.75 6.83317 21.125 21.0763 21.9375C21.183 21.9441 21.29 21.9296 21.3911 21.8947C21.4923 21.8599 21.5855 21.8054 21.6655 21.7344C21.7455 21.6635 21.8107 21.5774 21.8574 21.4812C21.9041 21.385 21.9313 21.2805 21.9375 21.1737V16.835L18.8744 15.6081L16.5425 17.9237L16.1525 17.875C9.0838 16.9894 8.12505 9.92063 8.12505 9.8475L8.0763 9.4575L10.3838 7.12563L9.16505 4.0625H4.87505Z" fill="black"/>
<script xmlns=""/></svg>