<svg xmlns="http://www.w3.org/2000/svg" width="26" height="26" viewBox="0 0 26 26" fill="none">
<path d="M16.25 16.25H20.5833L23.8333 23.8334H2.16663L5.41663 16.25H9.74996M14.0833 8.66669C14.0833 8.95401 13.9692 9.22956 13.766 9.43272C13.5628 9.63588 13.2873 9.75002 13 9.75002C12.7126 9.75002 12.4371 9.63588 12.2339 9.43272C12.0308 9.22956 11.9166 8.95401 11.9166 8.66669C11.9166 8.37937 12.0308 8.10382 12.2339 7.90066C12.4371 7.69749 12.7126 7.58335 13 7.58335C13.2873 7.58335 13.5628 7.69749 13.766 7.90066C13.9692 8.10382 14.0833 8.37937 14.0833 8.66669ZM6.49996 8.66669C6.49996 14.0834 13 19.5 13 19.5C13 19.5 19.5 14.0834 19.5 8.66669C19.5 4.96494 16.5901 2.16669 13 2.16669C9.40979 2.16669 6.49996 4.96494 6.49996 8.66669Z" stroke="black" stroke-width="2"/>
<script xmlns=""/></svg>