<svg xmlns="http://www.w3.org/2000/svg" width="26" height="26" viewBox="0 0 26 26" fill="none">
<g clip-path="url(#clip0_8868_14997)">
<path d="M13 0C5.81953 0 0 5.81953 0 13C0 20.1805 5.81953 26 13 26C20.1805 26 26 20.1805 26 13C26 5.81953 20.1805 0 13 0ZM13 23.8316C7.01797 23.8316 2.16836 18.982 2.16836 13C2.16836 7.01797 7.01797 2.16836 13 2.16836C18.982 2.16836 23.8316 7.01797 23.8316 13C23.8316 18.982 18.982 23.8316 13 23.8316ZM11.9184 11.9184L7.58164 16.25L9.20664 17.875L14.0816 13V4.33164H11.9133V11.9184H11.9184Z" fill="black"/>
</g>
<defs>
<clipPath id="clip0_8868_14997">
<rect width="26" height="26" fill="white"/>
</clipPath>
</defs>
<script xmlns=""/></svg>