<svg width="50" height="50" viewBox="0 0 50 50" fill="none" xmlns="http://www.w3.org/2000/svg">
<path d="M3.125 18.7401V28.8769L4.25781 29.6288C4.87305 30.039 5.42969 30.371 5.46875 30.3515C5.58594 30.3124 15.5273 16.5526 15.5273 16.4355C15.5273 16.3964 12.7344 14.6093 9.32617 12.4804L3.125 8.60343V18.7401Z" fill="white"/>
<path d="M40.6055 12.5292C37.2363 14.6386 34.4727 16.3964 34.4727 16.4354C34.4727 16.5624 44.4238 30.3124 44.541 30.3612C44.5996 30.3807 45.1465 30.0585 45.7617 29.6483L46.875 28.9061V18.7987C46.875 13.2421 46.8457 8.6913 46.8066 8.6913C46.7578 8.70106 43.9746 10.4198 40.6055 12.5292Z" fill="white"/>
<path d="M11.8262 24.3652C10.1074 26.748 8.69141 28.7207 8.69141 28.75C8.69141 28.7793 9.15039 29.1113 9.70703 29.4824L10.7227 30.166L13.7695 25.7715C15.4395 23.3496 16.7969 21.3379 16.7773 21.2891C16.748 21.1914 15.127 20.0195 15.0293 20.0195C14.9902 20.0195 13.5547 21.9727 11.8262 24.3652Z" fill="white"/>
<path d="M34.082 20.6152C33.623 20.9375 33.2422 21.2402 33.2226 21.2891C33.2031 21.3379 34.5605 23.3594 36.2402 25.7715L39.2871 30.166L40.2929 29.4824C40.8496 29.1113 41.3086 28.7793 41.3086 28.75C41.3086 28.6621 35.039 20.0195 34.9707 20.0195C34.9414 20.0195 34.541 20.2832 34.082 20.6152Z" fill="white"/>
<path d="M26.6113 22.7246C25.957 22.8711 25.3906 23.0664 25.3906 23.1445C25.3906 23.2031 25.6054 23.2422 25.8789 23.2422C26.7968 23.2422 27.832 23.7988 28.457 24.6191C28.9257 25.2441 30.3906 28.3398 30.4394 28.8281C30.5175 29.541 30.3125 30.0684 29.7363 30.6348C29.0917 31.2598 28.457 31.4453 27.6464 31.25C26.7675 31.0449 26.3964 30.6738 25.7519 29.3652C24.9902 27.8027 25.0585 27.8223 22.9394 28.1934L21.3281 28.4668L18.5742 31.2695C17.0019 32.8809 15.8007 34.1895 15.7617 34.3262C15.6445 34.8047 16.2011 35.2637 16.6796 35.0781C16.7871 35.0391 17.6757 34.2383 18.6523 33.3008L20.4394 31.6016L20.9765 32.1777L21.5039 32.7539L19.6875 34.5117C17.7343 36.4062 17.666 36.5137 18.1152 36.9629C18.623 37.4805 18.7792 37.3828 21.0449 35.1367L22.5097 33.6914L23.0761 34.2578L23.6425 34.834L21.8359 36.5918C20.3906 37.998 20.0195 38.4082 20.0195 38.6133C20.0195 38.9844 20.3417 39.2578 20.7617 39.2578C21.0839 39.2578 21.2402 39.1309 22.6464 37.7734C23.4863 36.9531 24.2871 36.1621 24.4335 36.0059C24.746 35.6836 25.4296 35.3613 25.83 35.3516C26.0937 35.3418 26.1523 35.2734 26.416 34.7363C26.7578 34.043 27.3535 33.6035 28.0664 33.5254C28.4765 33.4766 28.5058 33.4473 28.6621 33.0469C28.9453 32.2852 29.8046 31.6504 30.5371 31.6406C30.8007 31.6406 30.8593 31.5918 30.957 31.2891C31.1132 30.8105 31.6992 30.1855 32.1777 29.9707C32.7246 29.7168 33.6132 29.7266 34.1503 29.9902C34.3847 30.0977 34.8046 30.459 35.0976 30.791L35.6347 31.3867L36.3964 30.7617C36.8164 30.4199 37.1679 30.127 37.1875 30.1172C37.207 30.1074 36.2011 28.6426 34.9609 26.8652C33.4082 24.6484 32.6367 23.6133 32.4902 23.584C32.373 23.5547 31.1914 23.3398 29.873 23.0957C27.6074 22.6758 27.0703 22.6172 26.6113 22.7246Z" fill="white"/>
<path d="M15.0393 26.8652C13.1741 29.5313 12.803 30.127 12.9104 30.2246C12.9788 30.293 13.5549 30.791 14.1799 31.3281L15.3128 32.3145L17.5589 30.0488C18.7893 28.7988 19.9612 27.5977 20.176 27.3828L20.5569 26.9727L22.3733 26.6699C24.8342 26.2598 25.0979 26.2793 26.0061 26.9141C26.3674 27.168 26.5432 27.4219 27.0413 28.4082C27.4807 29.2676 27.7151 29.6289 27.8811 29.6875C28.2327 29.8242 28.6721 29.6289 28.8089 29.2969C28.9163 29.0332 28.8674 28.8867 28.0374 27.207C26.9924 25.0586 26.8655 24.9316 25.6155 24.8047C25.1956 24.7559 24.1995 24.6094 23.3889 24.4727C22.5881 24.3457 21.0256 24.1211 19.9221 23.9844C18.8186 23.8477 17.7835 23.7109 17.6174 23.6816C17.3049 23.6328 17.2952 23.6426 15.0393 26.8652Z" fill="white"/>
<path d="M32.6367 31.5722C32.5195 31.6991 32.4219 31.8945 32.4219 32.0116C32.4219 32.207 33.3203 33.4081 33.8184 33.8671C34.1406 34.1698 34.6289 34.1308 34.8926 33.7695C35.166 33.4081 35.0781 33.1835 34.2285 32.1972C33.5742 31.4452 33.4473 31.3476 33.1641 31.3476C32.959 31.3476 32.7734 31.4257 32.6367 31.5722Z" fill="white"/>
<path d="M30.2733 33.3984C29.9511 33.7207 30.0292 34.0527 30.6053 34.7559C31.5136 35.8691 31.6014 35.9375 31.9725 35.9375C32.3339 35.9375 32.7147 35.5859 32.7147 35.2539C32.7147 35.0488 31.328 33.3496 31.0936 33.2617C30.8007 33.1445 30.4686 33.2031 30.2733 33.3984Z" fill="white"/>
<path d="M27.9296 35.2539C27.5878 35.5957 27.6757 35.9277 28.3788 36.7676C29.1601 37.7148 29.248 37.793 29.6386 37.793C30.1171 37.793 30.4687 37.2852 30.2538 36.8848C30.1269 36.6309 29.2675 35.5957 28.9355 35.2734C28.6425 35.0098 28.1933 34.9902 27.9296 35.2539Z" fill="white"/>
<path d="M25.5862 37.1094C25.2249 37.4707 25.3323 37.8027 26.1331 38.7598C26.8264 39.5898 26.8948 39.6484 27.2366 39.6484C27.6761 39.6484 27.93 39.4141 27.93 39.0039C27.93 38.7891 27.7542 38.5059 27.2854 37.9395C26.9339 37.5098 26.5725 37.0996 26.4847 37.0312C26.2503 36.8555 25.8108 36.8848 25.5862 37.1094Z" fill="white"/>
<path d="M23.0664 39.5898C22.0898 40.5761 22.0117 40.7714 22.4121 41.1621C22.832 41.5917 23.0762 41.4941 24.0039 40.5859L24.834 39.7656L24.4629 39.2968C24.248 39.0331 24.0527 38.789 24.0234 38.7402C23.9941 38.7011 23.5547 39.082 23.0664 39.5898Z" fill="white"/>
</svg>
