<svg width="46" height="36" viewBox="0 0 46 36" fill="none" xmlns="http://www.w3.org/2000/svg">
<path d="M31.7333 10.445C29.7958 9.4205 28.2346 7.85232 27.217 5.92171C27.1543 5.80323 27.0358 5.72656 26.9103 5.72656H19.0973C18.9718 5.72656 18.8533 5.80323 18.7906 5.92171C17.7661 7.86626 16.2049 9.42747 14.2743 10.445C14.1488 10.5078 14.0791 10.6263 14.0791 10.7517V21.7011C14.0791 23.3669 14.9712 24.935 16.407 25.7784L22.84 29.5769C22.9376 29.6326 23.077 29.6326 23.1746 29.5769L29.6146 25.7784C31.0503 24.935 31.9424 23.3669 31.9424 21.7011V10.7447C31.9355 10.6263 31.8518 10.5078 31.7333 10.445ZM26.297 21.1575C26.4782 21.5408 26.4503 21.9869 26.2203 22.3493C25.9903 22.7117 25.6 22.9208 25.1749 22.9208H20.6027C20.1776 22.9208 19.7873 22.7047 19.5573 22.3493C19.3273 21.9938 19.2994 21.5478 19.4806 21.1644L20.777 18.3696C19.7036 17.6447 19.0415 16.4181 19.0415 15.0938C19.0415 12.8984 20.8188 11.1211 23.0073 11.1211C25.1958 11.1211 26.98 12.9053 26.98 15.0938C26.98 16.4878 26.2273 17.7772 25.0564 18.4881L26.297 21.1575Z" fill="#4467DB"/>
<path d="M23 12.4297C21.5364 12.4297 20.3516 13.6215 20.3516 15.0921C20.3516 16.1236 20.9579 17.0645 21.8919 17.4897C22.0522 17.5594 22.1776 17.6988 22.2334 17.8591C22.2961 18.0264 22.2891 18.2076 22.2125 18.3679L20.714 21.6018H25.0491L23.5785 18.4515C23.5019 18.2842 23.4949 18.0961 23.5646 17.9288C23.6343 17.7615 23.7667 17.6291 23.941 17.5594C24.9655 17.1691 25.6485 16.1794 25.6485 15.0921C25.6555 13.6215 24.4637 12.4297 23 12.4297Z" fill="#4467DB"/>
<path d="M35.8455 6.74318C33.3225 6.33197 31.3221 4.33863 30.9179 1.80863C30.8273 1.25803 30.3603 0.839844 29.8028 0.839844H16.2049C15.6473 0.839844 15.1803 1.25106 15.0897 1.80863C14.6785 4.33863 12.6852 6.33197 10.1621 6.74318C9.61154 6.83378 9.19336 7.30075 9.19336 7.85833V21.7001C9.19336 25.1014 10.9915 28.2517 13.9188 29.9801L22.4288 35.0053C22.7843 35.2144 23.2234 35.2144 23.5788 35.0053L32.0888 29.9801C35.0161 28.2517 36.8143 25.1014 36.8143 21.7001V7.85136C36.8143 7.29378 36.4031 6.82681 35.8455 6.74318ZM33.2458 21.7001C33.2458 23.8329 32.1097 25.8262 30.2697 26.9135L23.8297 30.712C23.5718 30.8653 23.2861 30.935 22.9934 30.935C22.7076 30.935 22.4218 30.8583 22.164 30.712L15.724 26.9065C13.8909 25.8262 12.7479 23.8259 12.7479 21.6932V10.7508C12.7479 10.1374 13.0964 9.57287 13.647 9.28015C15.3406 8.38803 16.7137 7.00803 17.6128 5.30742C17.9055 4.74984 18.4631 4.40833 19.0834 4.40833H26.9034C27.5097 4.40833 28.0743 4.74984 28.367 5.30045C29.2591 7.00803 30.6321 8.38106 32.3328 9.28015C32.8903 9.57287 33.2388 10.1304 33.2388 10.7438V21.7001H33.2458Z" fill="#4467DB"/>
<path d="M42.6832 18.8358C44.1329 18.8358 45.3038 17.6649 45.3038 16.2152C45.3038 14.7725 44.1329 13.6016 42.6832 13.6016C41.4635 13.6016 40.4529 14.4379 40.1602 15.5531H38.125V16.8703H40.1602C40.4598 18.0064 41.4705 18.8358 42.6832 18.8358Z" fill="#4467DB"/>
<path d="M3.31787 18.8347C4.5306 18.8347 5.54121 17.9983 5.8409 16.8762H7.88302V15.5589H5.83393C5.5412 14.4368 4.5306 13.6074 3.3109 13.6074C1.86817 13.6074 0.697266 14.7783 0.697266 16.2211C0.697266 17.6638 1.86817 18.8347 3.31787 18.8347Z" fill="#4467DB"/>
<path d="M42.6832 8.43755V6.21422C43.8471 5.9424 44.7183 4.91088 44.7183 3.67028C44.7183 2.22755 43.5405 1.05664 42.0977 1.05664C40.648 1.05664 39.4771 2.22755 39.4771 3.67028C39.4771 4.8621 40.2786 5.85876 41.3659 6.17937V8.44452C41.3659 9.0927 40.8362 9.62937 40.188 9.62937H38.125V10.9466H40.188C41.568 10.9327 42.6832 9.81755 42.6832 8.43755Z" fill="#4467DB"/>
<path d="M42.6824 26.2302V24.0138C42.6824 22.6338 41.5603 21.5117 40.1873 21.5117H38.1243V21.6929C38.1243 22.0763 38.1033 22.4526 38.0615 22.822H40.1873C40.8355 22.822 41.3652 23.3517 41.3652 24.0069V26.272C40.2779 26.5857 39.4764 27.5893 39.4764 28.7811C39.4764 30.2238 40.6473 31.3947 42.097 31.3947C43.5397 31.3947 44.7176 30.2238 44.7176 28.7811C44.7176 27.5405 43.8464 26.502 42.6824 26.2302Z" fill="#4467DB"/>
<path d="M3.31835 6.20556V8.42889C3.31835 9.80889 4.44048 10.931 5.81351 10.931H7.87654V9.61374H5.81351C5.16532 9.61374 4.63563 9.08405 4.63563 8.42889V6.16374C5.7229 5.85011 6.52441 4.84647 6.52441 3.65465C6.52441 2.21192 5.35351 1.04102 3.91078 1.04102C2.46108 1.04102 1.2832 2.21192 1.2832 3.65465C1.2832 4.90223 2.15442 5.94768 3.31835 6.20556Z" fill="#4467DB"/>
<path d="M5.81351 22.8298H7.94623C7.89745 22.4535 7.88351 22.0771 7.88351 21.7007V21.5195H5.81351C4.44048 21.5195 3.31835 22.6417 3.31835 24.0217V26.238C2.15442 26.5098 1.2832 27.5483 1.2832 28.7889C1.2832 30.2317 2.46108 31.4026 3.91078 31.4026C5.35351 31.4026 6.52442 30.2317 6.52442 28.7889C6.52442 27.5971 5.7229 26.6004 4.63563 26.2798V24.0147C4.63563 23.3595 5.15835 22.8298 5.81351 22.8298Z" fill="#4467DB"/>
</svg>
