<svg width="50" height="50" viewBox="0 0 50 50" fill="none" xmlns="http://www.w3.org/2000/svg">
<path d="M16.8555 9.35547L7.13867 15.5762L9.81445 15.6055L12.5 15.625V17.1875V18.75H26.9531H41.4062V17.1875V15.625L43.7012 15.6055L45.9961 15.5762L36.2793 9.35547L26.5625 3.14453L16.8555 9.35547ZM30.0488 10.4004L33.3887 12.4512L29.9707 12.4805C28.0957 12.4902 25.0293 12.4902 23.1641 12.4805L19.7559 12.4512L23.0859 10.3809C24.9219 9.24805 26.4844 8.32031 26.5625 8.33008C26.6504 8.33984 28.2227 9.26758 30.0488 10.4004Z" fill="white"/>
<path d="M13.2812 21.4844V22.6562H13.6719H14.0625V25.7812V28.9062H16.0156H17.9688V25.7812V22.6562H18.3594H18.75V21.4844V20.3125H16.0156H13.2812V21.4844Z" fill="white"/>
<path d="M24.2188 21.4844V22.6562H24.6094H25V25.7812V28.9062H26.9531H28.9062V25.7812V22.6562H29.2969H29.6875V21.4844V20.3125H26.9531H24.2188V21.4844Z" fill="white"/>
<path d="M35.1562 21.4844V22.6562H35.5469H35.9375V27.7344V32.8125H35.5469H35.1562V33.9844V35.1562H37.8906H40.625V33.9844V32.8125H40.2344H39.8438V27.7344V22.6562H40.2344H40.625V21.4844V20.3125H37.8906H35.1562V21.4844Z" fill="white"/>
<path d="M5.66406 30.5566C4.58984 30.8887 4.00391 31.6699 3.92578 32.8809L3.87695 33.5938H17.5781H31.2793L31.2305 32.8809C31.1621 31.8457 30.7617 31.1719 29.9316 30.7324L29.541 30.5176L17.7246 30.498C11.2305 30.4883 5.80078 30.5176 5.66406 30.5566Z" fill="white"/>
<path d="M3.92578 40.5469C3.95508 45.0684 3.95508 45.1758 4.16992 45.5566C4.41406 46.0156 4.79492 46.3867 5.27344 46.6406C5.60547 46.8164 6.09375 46.8262 17.5781 46.8262H29.541L29.9316 46.6113C30.3906 46.3672 30.7617 45.9863 31.0156 45.5078C31.1914 45.1953 31.2012 44.834 31.2305 40.5469L31.2598 35.9375H17.5781H3.89648L3.92578 40.5469ZM14.0625 40.625V42.1875H10.5469H7.03125V40.625V39.0625H10.5469H14.0625V40.625ZM28.125 39.8438V40.625H22.6563H17.1875V39.8438V39.0625H22.6563H28.125V39.8438Z" fill="white"/>
<path d="M32.8125 38.2812V39.8438H37.5H42.1875V38.2812V36.7188H37.5H32.8125V38.2812Z" fill="white"/>
</svg>
