<svg width="50" height="50" viewBox="0 0 50 50" fill="none" xmlns="http://www.w3.org/2000/svg">
<path d="M4.6875 21.4844V39.8438H10.9375H17.1777L17.207 32.8223L17.2363 25.8008L17.627 25.2344C19.1992 22.959 24.5703 21.9629 28.8867 23.1445C29.2773 23.252 29.6094 23.3398 29.6387 23.3398C29.668 23.3398 29.6875 18.7891 29.6875 13.2324V3.125H17.1875H4.6875V21.4844ZM25.7812 7.03125V7.8125H17.1875H8.59375V7.03125V6.25H17.1875H25.7812V7.03125ZM25.7812 10.9375V11.7188H17.1875H8.59375V10.9375V10.1562H17.1875H25.7812V10.9375ZM25.7812 14.8438V15.625H17.1875H8.59375V14.8438V14.0625H17.1875H25.7812V14.8438ZM25.7812 18.75V19.5312H17.1875H8.59375V18.75V17.9688H17.1875H25.7812V18.75ZM14.8438 22.6562V23.4375H11.7188H8.59375V22.6562V21.875H11.7188H14.8438V22.6562ZM14.8438 26.5625V27.3438H11.7188H8.59375V26.5625V25.7812H11.7188H14.8438V26.5625ZM14.8438 30.4688V31.25H11.7188H8.59375V30.4688V29.6875H11.7188H14.8438V30.4688ZM14.8438 34.375V35.1562H11.7188H8.59375V34.375V33.5938H11.7188H14.8438V34.375Z" fill="white"/>
<path d="M37.6953 14.1504C36.6016 14.502 35.9961 15.3125 35.9961 16.4062C35.9961 17.7441 36.9336 18.6914 38.2812 18.6914C39.6289 18.6914 40.5664 17.7441 40.5664 16.4062C40.5664 15.4785 40.1367 14.7559 39.3164 14.3359C38.8965 14.1211 38.0664 14.0234 37.6953 14.1504ZM38.8184 15.8691C38.9746 16.0156 39.0625 16.2207 39.0625 16.4062C39.0625 16.5918 38.9746 16.7969 38.8184 16.9434C38.6719 17.0996 38.4668 17.1875 38.2812 17.1875C38.0957 17.1875 37.8906 17.0996 37.7441 16.9434C37.5879 16.7969 37.5 16.5918 37.5 16.4062C37.5 16.2207 37.5879 16.0156 37.7441 15.8691C37.8906 15.7129 38.0957 15.625 38.2812 15.625C38.4668 15.625 38.6719 15.7129 38.8184 15.8691Z" fill="white"/>
<path d="M39.9903 19.8827C37.8614 22.871 36.1524 25.3417 36.2012 25.3808C36.2403 25.4198 36.5137 25.6249 36.7969 25.83C37.2364 26.1425 37.334 26.1815 37.4415 26.0644C37.8907 25.5761 45.1172 15.3026 45.0586 15.244C44.8536 15.0683 43.9649 14.453 43.9161 14.453C43.8868 14.453 42.1192 16.8944 39.9903 19.8827Z" fill="white"/>
<path d="M42.3828 21.9629C41.2891 22.3145 40.6836 23.125 40.6836 24.2188C40.6836 25.5566 41.6211 26.5039 42.9688 26.5039C44.3164 26.5039 45.2539 25.5566 45.2539 24.2188C45.2539 23.291 44.8242 22.5684 44.0039 22.1484C43.584 21.9336 42.7539 21.8359 42.3828 21.9629ZM43.5059 23.6816C43.6621 23.8281 43.75 24.0332 43.75 24.2188C43.75 24.4043 43.6621 24.6094 43.5059 24.7559C43.3594 24.9121 43.1543 25 42.9688 25C42.7832 25 42.5781 24.9121 42.4316 24.7559C42.2754 24.6094 42.1875 24.4043 42.1875 24.2188C42.1875 24.0332 42.2754 23.8281 42.4316 23.6816C42.5781 23.5254 42.7832 23.4375 42.9688 23.4375C43.1543 23.4375 43.3594 23.5254 43.5059 23.6816Z" fill="white"/>
<path d="M23.7793 24.2773C21.25 24.5703 19.2871 25.3516 18.877 26.2207C18.7207 26.543 18.7207 26.582 18.877 26.9043C19.209 27.6074 20.8984 28.3984 22.7539 28.7207C23.7012 28.8867 26.2988 28.8867 27.2461 28.7207C29.0918 28.3984 30.7129 27.6465 31.1035 26.9238C31.2793 26.5918 31.2793 26.5527 31.1328 26.2305C30.8398 25.625 29.6973 24.9902 28.2227 24.6191C26.9141 24.2969 24.9512 24.1504 23.7793 24.2773Z" fill="white"/>
<path d="M18.75 29.7852C18.75 30.3125 18.7988 30.6738 18.9062 30.8691C19.2383 31.5234 20.9766 32.3145 22.7539 32.627C23.1543 32.6953 24.1699 32.7539 25 32.7539C25.8301 32.7539 26.8457 32.6953 27.2461 32.627C29.0137 32.3145 30.6348 31.5918 31.0449 30.918C31.2109 30.6543 31.25 30.4297 31.25 29.7949V29.0039L30.5664 29.3457C27.6074 30.8301 22.3926 30.8301 19.4336 29.3457L18.75 29.0039V29.7852Z" fill="white"/>
<path d="M18.75 33.6913C18.75 34.2187 18.7988 34.58 18.9062 34.7753C19.2383 35.4296 20.9766 36.2206 22.7539 36.5331C24.1797 36.7773 27.6953 36.6308 28.0957 36.3085C28.1543 36.2597 28.2324 36.1034 28.2715 35.957C28.4277 35.2538 29.6191 34.1991 30.7812 33.7304C31.2012 33.5644 31.25 33.5155 31.25 33.2226V32.9101L30.5664 33.2519C27.6074 34.7363 22.3926 34.7363 19.4336 33.2519L18.75 32.9101V33.6913Z" fill="white"/>
<path d="M34.2774 34.4824C31.6212 34.8047 29.4923 35.9277 29.7266 36.8554C29.961 37.8125 32.0118 38.7011 34.5704 38.9746C37.6856 39.2968 41.3477 38.3691 42.0411 37.08C42.2169 36.7383 42.2169 36.709 42.0606 36.3769C41.7384 35.6933 40.2345 34.9609 38.4278 34.6093C37.461 34.4238 35.2638 34.3554 34.2774 34.4824Z" fill="white"/>
<path d="M18.75 37.5976C18.75 38.125 18.7988 38.4863 18.9062 38.6816C19.2383 39.3359 20.9668 40.1269 22.7539 40.4394C23.6719 40.6054 26.4648 40.5859 27.3926 40.4101L28.0762 40.2832L28.1055 39.1308L28.1348 37.9687L27.8613 38.0273C25.1855 38.5839 21.5137 38.2031 19.4336 37.1582L18.75 36.8164V37.5976Z" fill="white"/>
<path d="M29.6875 39.9414C29.6875 41.1328 29.9512 41.4843 31.2598 42.08C34.0625 43.3398 38.9355 43.1836 41.2402 41.7382C42.0215 41.25 42.1875 40.9375 42.1875 39.9511V39.1601L41.5039 39.5019C38.5449 40.9863 33.3301 40.9863 30.3711 39.5019L29.6875 39.1601V39.9414Z" fill="white"/>
<path d="M18.75 41.5039C18.75 42.0312 18.7988 42.3925 18.9062 42.5878C19.2383 43.2421 20.9668 44.0332 22.7539 44.3457C23.6719 44.5117 26.4648 44.4921 27.3926 44.3164L28.0762 44.1894L28.1055 43.0371L28.1348 41.875L27.8613 41.9336C25.1855 42.4902 21.5137 42.1093 19.4336 41.0644L18.75 40.7226V41.5039Z" fill="white"/>
<path d="M29.6875 43.8476C29.6875 45.039 29.9512 45.3906 31.2598 45.9863C34.0625 47.2461 38.9355 47.0898 41.2402 45.6445C42.0215 45.1562 42.1875 44.8437 42.1875 43.8574V43.0664L41.5039 43.4082C40.0977 44.1113 38.0469 44.5312 35.9375 44.5312C33.8281 44.5312 31.7773 44.1113 30.3711 43.4082L29.6875 43.0664V43.8476Z" fill="white"/>
</svg>
