<svg width="46" height="44" viewBox="0 0 46 44" fill="none" xmlns="http://www.w3.org/2000/svg">
<path d="M12.7124 26.5708L8.8643 22.7227C7.79776 24.0026 7.10411 25.6009 6.94531 27.3526H12.3864C12.4592 27.0742 12.5697 26.8125 12.7124 26.5708Z" fill="#4467DB"/>
<path d="M12.3864 28.8867H6.94531C7.10411 30.6385 7.79704 32.2369 8.86439 33.5167L12.7125 29.6686C12.569 29.4269 12.4585 29.1652 12.3864 28.8867Z" fill="#4467DB"/>
<path d="M14.5792 25.1598V19.7188C12.8274 19.8768 11.2291 20.5705 9.94922 21.6378L13.7974 25.486C14.0391 25.3424 14.3007 25.2319 14.5792 25.1598Z" fill="#4467DB"/>
<path d="M20.7433 21.6378C19.4642 20.5705 17.8651 19.8768 16.1133 19.7188V25.1598C16.3919 25.2319 16.6534 25.3424 16.8951 25.486L20.7433 21.6378Z" fill="#4467DB"/>
<path d="M16.8809 28.1187C16.8809 27.2723 16.1926 26.584 15.3462 26.584C14.4999 26.584 13.8115 27.2722 13.8115 28.1187C13.8115 28.9651 14.4998 29.6533 15.3462 29.6533C16.1926 29.6533 16.8809 28.9651 16.8809 28.1187Z" fill="#4467DB"/>
<path d="M9.94922 34.602C11.2283 35.6694 12.8275 36.363 14.5792 36.5211V31.08C14.3006 31.0079 14.039 30.8974 13.7974 30.7539L9.94922 34.602Z" fill="#4467DB"/>
<path d="M17.9805 26.5708C18.1232 26.8125 18.2337 27.0742 18.3066 27.3526H23.7477C23.5889 25.6008 22.8951 24.0025 21.8286 22.7227L17.9805 26.5708Z" fill="#4467DB"/>
<path d="M17.9805 29.6686L21.8286 33.5167C22.8951 32.2368 23.5888 30.6385 23.7477 28.8867H18.3066C18.2337 29.1652 18.1233 29.4269 17.9805 29.6686Z" fill="#4467DB"/>
<path d="M16.1133 31.08V36.5211C17.8651 36.363 19.4634 35.6694 20.7433 34.602L16.8951 30.7539C16.6534 30.8974 16.3919 31.0079 16.1133 31.08Z" fill="#4467DB"/>
<path d="M38.3659 7.40234C37.9424 7.40234 37.5986 7.74683 37.5986 8.16963C37.5986 8.59244 37.9424 8.93692 38.3659 8.93692C38.7894 8.93692 39.1332 8.59244 39.1332 8.16963C39.1332 7.74692 38.7894 7.40234 38.3659 7.40234Z" fill="#4467DB"/>
<path d="M42.2025 8.1692C42.2025 7.74567 42.5454 7.40191 42.9698 7.40191H45.9999C45.6392 3.78244 42.7526 0.895826 39.1332 0.535156V3.56529C39.1332 3.98881 38.7902 4.33257 38.3659 4.33257C37.9415 4.33257 37.5986 3.98881 37.5986 3.56529V0.535156C33.9791 0.895826 31.0925 3.78244 30.7318 7.40191H33.762C34.1855 7.40191 34.5292 7.74567 34.5292 8.1692C34.5292 8.59272 34.1855 8.93649 33.762 8.93649H30.7318C31.0925 12.556 33.9791 15.4418 37.5986 15.8024V25.0502C37.5986 30.3362 33.7574 34.7322 28.7215 35.6192C29.9715 33.3994 30.6927 30.8435 30.6927 28.1194C30.6927 19.6574 23.8083 12.773 15.3463 12.773C6.88429 12.773 0 19.6575 0 28.1194C0 36.5814 6.88438 43.4658 15.3464 43.4658C20.3693 43.4658 24.822 41.0296 27.6235 37.2881C34.0352 36.8892 39.1332 31.5608 39.1332 25.0502V15.8024C42.7527 15.4418 45.6393 12.5559 46 8.93649H42.9699C42.5455 8.93649 42.2025 8.59272 42.2025 8.1692ZM15.3464 38.0946C9.84626 38.0946 5.37129 33.6197 5.37129 28.1195C5.37129 22.6194 9.84626 18.1443 15.3464 18.1443C20.8465 18.1443 25.3215 22.6194 25.3215 28.1194C25.3215 33.6195 20.8465 38.0946 15.3464 38.0946ZM39.1332 15.0751H37.5986V12.7731C37.5986 12.3496 37.9415 12.0058 38.3659 12.0058C38.7902 12.0058 39.1332 12.3496 39.1332 12.7731V15.0751H39.1332ZM40.6679 8.1692C40.6679 9.43833 39.6351 10.4712 38.366 10.4712C37.0968 10.4712 36.064 9.43833 36.064 8.1692C36.064 6.90006 37.0968 5.86724 38.366 5.86724C38.7212 5.86724 39.0535 5.95473 39.3535 6.09897C39.3558 6.09663 39.3558 6.09438 39.358 6.09204L40.8927 4.55737C41.1927 4.25731 41.6777 4.25731 41.9777 4.55737C42.2778 4.85744 42.2778 5.34238 41.9777 5.64235L40.443 7.17702C40.4407 7.17936 40.4384 7.17936 40.4361 7.1816C40.5804 7.48167 40.6679 7.81392 40.6679 8.1692Z" fill="#4467DB"/>
</svg>
