<svg width="46" height="38" viewBox="0 0 46 38" fill="none" xmlns="http://www.w3.org/2000/svg">
<path d="M31.4881 0.0078125H12.3638C11.3043 0.0078125 10.4504 0.798437 10.4504 1.77091V14.7208C10.4504 15.6933 11.3043 16.4839 12.3638 16.4839H31.4804C32.5398 16.4839 33.3937 15.6933 33.3937 14.7208V1.77091C33.4014 0.798437 32.5475 0.0078125 31.4881 0.0078125ZM31.6699 14.4994C31.6699 14.618 31.5592 14.7208 31.4327 14.7208H12.4191C12.2847 14.7208 12.1819 14.618 12.1819 14.4994V8.24594H31.6699V14.4994ZM31.6699 3.534H12.1819V1.99228C12.1819 1.87369 12.2926 1.77091 12.4191 1.77091H31.425C31.5594 1.77091 31.6622 1.87369 31.6622 1.99228V3.534H31.6699ZM13.8341 11.685H17.8345V13.2504H13.8341V11.685ZM19.3921 11.685H25.1793V13.2504H19.3921V11.685ZM41.3179 14.6067L33.5243 21.9967C33.7205 22.4718 33.81 23.0522 33.7502 23.5941C33.6988 24.7222 33.2363 25.7975 32.4453 26.6025C31.6358 27.3762 30.5418 27.8112 29.3953 27.7286L18.7125 27.3683C18.2076 27.371 17.8861 26.9699 17.9017 26.4961C17.9175 26.0224 18.3001 25.6697 18.7425 25.7038L29.4565 26.0456C30.8592 26.0614 32.0385 24.9849 32.1042 23.595C32.1698 22.2053 31.0435 21.0131 29.6536 20.9473L16.3278 20.5439C14.1401 20.4852 11.8313 20.7935 10.5964 22.7052L0.359375 37.9912H10.5338L13.9134 33.5384C14.6916 32.7832 15.8041 32.3794 16.9634 32.4123L26.238 32.6755C28.5069 32.7285 30.689 31.7773 32.1644 30.2726L44.8336 18.2716C45.8439 17.3372 45.9421 15.717 44.921 14.6315C43.9424 13.6896 42.3592 13.6538 41.3179 14.6067Z" fill="#4467DB"/>
</svg>
