<svg width="40" height="40" viewBox="0 0 40 40" fill="none" xmlns="http://www.w3.org/2000/svg">
<path d="M2.27073 31.1595H4.83475M2.27073 24.4837H4.83475M2.27073 2.27148V37.7298H37.7291M2.26953 4.89109H4.83355M2.26953 11.4365H4.83355M2.26953 17.9297H4.83355" stroke="#4467DB" stroke-width="3" stroke-miterlimit="6" stroke-linecap="round" stroke-linejoin="round"/>
<path d="M13.4933 27.8343C13.4932 28.5193 13.2211 29.1762 12.7367 29.6606C12.2523 30.145 11.5954 30.4171 10.9103 30.4172C10.2253 30.4172 9.56827 30.1451 9.08383 29.6607C8.5994 29.1763 8.32721 28.5193 8.32715 27.8343C8.32715 27.1492 8.5993 26.4921 9.08375 26.0077C9.56819 25.5232 10.2252 25.2511 10.9103 25.2511C11.5954 25.2511 12.2524 25.5233 12.7368 26.0078C13.2212 26.4922 13.4933 27.1492 13.4933 27.8343ZM19.7747 15.2952C19.7747 15.6344 19.7079 15.9704 19.578 16.2838C19.4482 16.5972 19.2579 16.882 19.018 17.1219C18.7781 17.3617 18.4933 17.552 18.1799 17.6818C17.8664 17.8116 17.5305 17.8784 17.1913 17.8784C16.5061 17.8784 15.8491 17.6062 15.3647 17.1218C14.8802 16.6373 14.6081 15.9803 14.6081 15.2952C14.6081 14.6101 14.8802 13.953 15.3647 13.4686C15.8491 12.9842 16.5061 12.712 17.1913 12.712C17.8763 12.7121 18.5333 12.9842 19.0177 13.4687C19.5021 13.9531 19.7742 14.6101 19.7742 15.2952H19.7747ZM30.2148 24.0151C30.2147 24.7001 29.9425 25.3571 29.4581 25.8415C28.9736 26.3259 28.3166 26.598 27.6316 26.598C26.9466 26.5979 26.2896 26.3258 25.8052 25.8414C25.3208 25.357 25.0487 24.7001 25.0486 24.0151C25.0486 23.33 25.3208 22.673 25.8051 22.1886C26.2895 21.7041 26.9465 21.4319 27.6316 21.4319C28.3167 21.4319 28.9737 21.704 29.4582 22.1885C29.9426 22.6729 30.2148 23.33 30.2148 24.0151ZM35.3907 6.4306C35.3907 7.11571 35.1186 7.77275 34.6341 8.25719C34.1497 8.74164 33.4926 9.01379 32.8075 9.01379C32.1224 9.01379 31.4654 8.74164 30.9809 8.25719C30.4965 7.77275 30.2243 7.11571 30.2243 6.4306C30.2244 5.74554 30.4966 5.08856 30.981 4.60417C31.4655 4.11978 32.1225 3.84766 32.8075 3.84766C33.4926 3.84772 34.1495 4.11987 34.6339 4.60425C35.1183 5.08864 35.3904 5.74558 35.3905 6.4306H35.3907Z" stroke="#4467DB" stroke-width="3" stroke-miterlimit="6" stroke-linecap="round" stroke-linejoin="round"/>
<path d="M12.4238 25.3183L15.806 17.8045M19.4189 17.2237L25.2487 22.2847M28.5234 21.3103L32.2441 8.75781" stroke="#4467DB" stroke-width="3" stroke-miterlimit="6" stroke-linecap="round" stroke-linejoin="round"/>
</svg>
