<svg xmlns="http://www.w3.org/2000/svg" width="51" height="51" viewBox="0 0 51 51" fill="none">
  <path fill-rule="evenodd" clip-rule="evenodd" d="M13.2813 11.687C13.2811 10.2668 13.7188 8.88096 14.5348 7.71847C15.3508 6.55599 16.5054 5.67336 17.8412 5.19084C19.177 4.70832 20.6291 4.64938 21.9997 5.02205C23.3702 5.39473 24.5925 6.18089 25.5 7.27342C26.6207 5.91474 28.2182 5.03557 29.9657 4.81575C31.7132 4.59592 33.4786 5.05204 34.9009 6.09081C36.3232 7.12959 37.2949 8.67253 37.6173 10.404C37.9396 12.1355 37.5882 13.9248 36.635 15.4058H38.25C39.7999 15.4058 41.2862 16.0215 42.3822 17.1174C43.4781 18.2133 44.0938 19.6997 44.0938 21.2495V25.4995C44.0942 26.3125 43.8283 27.1032 43.3367 27.7506C42.8451 28.3981 42.1548 28.8666 41.3716 29.0844C41.6776 32.9647 41.4991 36.8725 40.8404 40.7145C40.6489 41.831 40.0997 42.855 39.2757 43.6323C38.4517 44.4096 37.3974 44.898 36.2716 45.024L34.3272 45.2408C28.46 45.8966 22.5379 45.8966 16.6706 45.2408L14.7284 45.024C13.6026 44.898 12.5483 44.4096 11.7243 43.6323C10.9003 42.855 10.3511 41.831 10.1596 40.7145C9.50108 36.8749 9.32263 32.9682 9.62838 29.0844C8.84518 28.8666 8.15495 28.3981 7.66333 27.7506C7.1717 27.1032 6.90578 26.3125 6.90625 25.4995V21.2495C6.90625 19.6997 7.52193 18.2133 8.61784 17.1174C9.71376 16.0215 11.2001 15.4058 12.75 15.4058H14.365C13.6548 14.2957 13.2786 13.0049 13.2813 11.687ZM23.9062 11.687C23.9062 10.7008 23.5145 9.7549 22.8171 9.05749C22.1197 8.36009 21.1738 7.9683 20.1875 7.9683C19.2012 7.9683 18.2553 8.36009 17.5579 9.05749C16.8605 9.7549 16.4688 10.7008 16.4688 11.687C16.4688 12.6733 16.8605 13.6192 17.5579 14.3166C18.2553 15.014 19.2012 15.4058 20.1875 15.4058C21.1738 15.4058 22.1197 15.014 22.8171 14.3166C23.5145 13.6192 23.9062 12.6733 23.9062 11.687ZM30.8125 15.4058C31.3009 15.4058 31.7844 15.3096 32.2356 15.1227C32.6868 14.9358 33.0967 14.6619 33.4421 14.3166C33.7874 13.9713 34.0613 13.5613 34.2482 13.1102C34.4351 12.659 34.5312 12.1754 34.5312 11.687C34.5312 11.1987 34.4351 10.7151 34.2482 10.2639C34.0613 9.81276 33.7874 9.40281 33.4421 9.05749C33.0967 8.71218 32.6868 8.43826 32.2356 8.25137C31.7844 8.06449 31.3009 7.9683 30.8125 7.9683C29.8262 7.9683 28.8803 8.36009 28.1829 9.05749C27.4855 9.7549 27.0938 10.7008 27.0938 11.687C27.0938 12.6733 27.4855 13.6192 28.1829 14.3166C28.8803 15.014 29.8262 15.4058 30.8125 15.4058ZM10.0938 21.2495C10.0938 19.7833 11.2838 18.5933 12.75 18.5933H23.9062V26.0308H10.625C10.4841 26.0308 10.349 25.9748 10.2493 25.8752C10.1497 25.7756 10.0938 25.6404 10.0938 25.4995V21.2495ZM27.0938 29.2183H38.1841C38.4816 32.8733 38.3201 36.5559 37.6996 40.1748C37.6249 40.6104 37.4106 41.0099 37.089 41.3131C36.7674 41.6163 36.356 41.8067 35.9168 41.8557L33.9745 42.0745C31.688 42.3295 29.3909 42.4804 27.0938 42.5293V29.2183ZM27.0938 26.0308H40.375C40.5159 26.0308 40.651 25.9748 40.7507 25.8752C40.8503 25.7756 40.9062 25.6404 40.9062 25.4995V21.2495C40.9062 19.7833 39.7163 18.5933 38.25 18.5933H27.0938V26.0308ZM23.9062 29.2183V42.5293C21.607 42.4815 19.3111 42.3298 17.0255 42.0745L15.0833 41.8557C14.6443 41.8068 14.2331 41.6167 13.9115 41.314C13.59 41.0112 13.3755 40.6121 13.3004 40.1769C12.6803 36.5588 12.5175 32.877 12.8159 29.2183H23.9062Z" fill="#3562C7"/>
</svg>