<svg width="50" height="50" viewBox="0 0 50 50" fill="none" xmlns="http://www.w3.org/2000/svg">
<path d="M15.6542 4.43359C14.3749 4.74609 13.1737 5.70312 12.6073 6.8457C12.2558 7.58789 12.0507 8.65234 12.1484 9.29687L12.2167 9.76562H12.9882H13.7597L13.7011 9.0918C13.6034 7.95898 14.0429 7.04102 14.9706 6.40625C15.5761 6.00586 16.1913 5.82031 16.5234 5.94727C16.6503 5.99609 17.8612 6.875 19.2187 7.90039L21.6698 9.77539L22.9101 9.74609L24.1503 9.7168L20.7519 7.13867C18.8866 5.72266 17.1972 4.50195 17.0019 4.43359C16.5722 4.27734 16.3085 4.27734 15.6542 4.43359Z" fill="white"/>
<path d="M32.8027 4.52148C32.5684 4.63867 30.9082 5.85938 29.1113 7.22656L25.8398 9.7168L27.0801 9.74609L28.3203 9.77539L30.7422 7.92969C33.2422 6.02539 33.4766 5.85938 33.7305 5.85938C34.1504 5.85938 35 6.29883 35.4492 6.73828C36.1816 7.48047 36.5332 8.7207 36.2305 9.51172L36.1328 9.76562H36.9629H37.7832L37.8516 9.30664C37.9492 8.64258 37.7539 7.58789 37.4121 6.88477C36.8164 5.68359 35.752 4.80469 34.4824 4.47266C33.6133 4.24805 33.3105 4.25781 32.8027 4.52148Z" fill="white"/>
<path d="M6.34766 11.543C6.02539 11.709 5.84961 11.8848 5.69336 12.207C5.46875 12.627 5.46875 12.7051 5.46875 16.0156C5.46875 19.3262 5.46875 19.4043 5.69336 19.8242C5.84961 20.1465 6.02539 20.3223 6.34766 20.4785L6.77734 20.7031H15.498H24.2188V16.0156V11.3281H15.498H6.77734L6.34766 11.543Z" fill="white"/>
<path d="M25.7812 16.0156V20.7031H34.502H43.2227L43.6523 20.4785C43.9746 20.3223 44.1504 20.1465 44.3164 19.8242C44.5312 19.4043 44.5312 19.3262 44.5312 16.0156C44.5312 12.7051 44.5312 12.627 44.3164 12.207C44.1504 11.8848 43.9746 11.709 43.6523 11.543L43.2227 11.3281H34.502H25.7812V16.0156Z" fill="white"/>
<path d="M7.05078 33.125C7.08008 43.5156 7.08984 44.0137 7.26562 44.3359C7.51953 44.8145 7.89062 45.1953 8.34961 45.4395C8.74023 45.6543 8.75977 45.6543 16.4844 45.6836L24.2188 45.7031V33.9844V22.2656H15.625H7.03125L7.05078 33.125Z" fill="white"/>
<path d="M25.7812 33.9844V45.7031L33.5254 45.6836C41.2402 45.6543 41.2598 45.6543 41.6504 45.4395C42.1094 45.1953 42.4805 44.8145 42.7344 44.3359C42.9102 44.0137 42.9199 43.5156 42.9492 33.125L42.9688 22.2656H34.375H25.7812V33.9844Z" fill="white"/>
</svg>
