<svg width="31" height="30" viewBox="0 0 31 30" fill="none" xmlns="http://www.w3.org/2000/svg">
<path d="M6.92192 4.20736C6.50004 4.34212 5.99614 4.85775 5.87309 5.27377C5.67387 5.94759 5.80864 6.4808 6.30083 6.97298C6.48833 7.16048 6.7227 7.33627 6.85161 7.37728L7.0684 7.45345L7.08012 10.1722C7.08598 11.6663 7.0977 13.0667 7.0977 13.2835V13.682L6.86333 13.7347C5.4395 14.0394 4.83012 14.2972 4.33208 14.8011C3.95708 15.1878 3.61723 15.8675 3.44145 16.5765C3.28911 17.1917 3.28911 17.3265 3.42973 17.4027C3.60551 17.4906 6.10161 17.4788 6.17192 17.3851C6.20122 17.3499 6.27153 17.1624 6.32426 16.9808C6.59965 16.0843 7.54887 15.3636 8.53911 15.305C9.04887 15.2757 9.41801 15.346 9.83989 15.5628C10.4317 15.8558 10.918 16.4124 11.0938 16.9808C11.1465 17.1624 11.2168 17.3499 11.2461 17.3851C11.2872 17.4437 11.668 17.4613 12.793 17.4613H14.2872L14.2637 17.6253C14.252 17.7191 13.4903 19.1429 12.5821 20.7894L10.918 23.7894H8.73833H6.55864L6.48833 23.5492C6.38286 23.1976 5.9434 22.7816 5.50981 22.6175C4.70708 22.3187 3.80473 22.6703 3.40043 23.4554C3.25395 23.7367 3.22465 24.4105 3.34184 24.7679C3.79887 26.139 5.76176 26.2679 6.39458 24.9788L6.57036 24.6156H8.85551C10.5723 24.6097 11.1758 24.5921 11.2872 24.5335C11.3926 24.4808 11.9141 23.5902 13.2325 21.2113C14.8028 18.3812 15.0372 17.9242 15.0372 17.7074V17.4613H16.3731C17.7442 17.4613 17.8497 17.4437 17.8497 17.2269C17.8497 17.18 17.9375 16.9515 18.0489 16.7288C18.3067 16.1898 18.6993 15.8031 19.25 15.5394C19.625 15.3578 19.7657 15.3226 20.1934 15.305C20.6153 15.2816 20.7618 15.305 21.1133 15.4281C21.8985 15.6976 22.4141 16.2074 22.7071 17.0101L22.8653 17.432L24.3243 17.4437C25.4258 17.4554 25.8243 17.4437 25.9356 17.3851C26.0821 17.3089 26.0821 17.3089 26.0762 16.4945C26.0645 15.3519 25.877 14.6781 25.4727 14.3441C25.379 14.262 24.8457 14.0042 24.295 13.7699C23.7383 13.5355 23.1641 13.2601 23.0176 13.1605C22.8653 13.0609 22.5665 12.7562 22.3438 12.4808C22.1211 12.2054 21.7872 11.807 21.5938 11.5902L21.254 11.2035L21.9395 9.96713L22.625 8.7308H23.7149H24.8047L24.8692 8.95345C24.9688 9.27572 25.3028 9.639 25.6895 9.8265C26.129 10.0433 26.7676 10.055 27.1426 9.86166C27.7637 9.53353 28.0508 9.11166 28.0918 8.46713C28.1094 8.1683 28.0918 7.95736 28.0215 7.75228C27.711 6.8265 26.586 6.37533 25.6895 6.81478C25.3028 7.00228 24.9688 7.36556 24.8692 7.68783L24.8047 7.91049H23.5977C22.754 7.91049 22.3497 7.93392 22.25 7.98666C22.1563 8.03353 21.8575 8.50814 21.3594 9.40463C20.6446 10.6937 20.6094 10.7523 20.4454 10.7406C20.3575 10.7347 19.9239 10.6995 19.4903 10.6585C18.9805 10.6175 18.002 10.5999 16.7481 10.6234C15.6758 10.641 14.8028 10.6292 14.8145 10.6058C14.8262 10.5765 15.3594 9.60385 16.004 8.44369L17.1758 6.32845H17.6797H18.1836L18.2832 6.58041C18.5704 7.33627 19.5137 7.77572 20.3399 7.52962C20.8204 7.389 21.3125 6.90267 21.4532 6.41634C21.6407 5.77181 21.459 5.12142 20.9551 4.67025C20.2637 4.0433 19.3379 4.07845 18.6641 4.74642C18.4825 4.92806 18.3067 5.16244 18.2657 5.28548L18.1954 5.49642L17.4922 5.51986C16.8594 5.53744 16.7715 5.54916 16.6895 5.66048C16.6309 5.72494 15.9454 6.93783 15.1602 8.3558L13.7364 10.9281L13.3438 11.1742C13.1329 11.3089 12.6524 11.6898 12.2832 12.0179C11.5215 12.6917 11.1524 12.9495 10.7305 13.0902C10.5723 13.1488 9.92778 13.266 9.29497 13.3597C8.66801 13.4535 8.09379 13.5472 8.02348 13.5648L7.88872 13.5941V10.5355V7.47103L8.16997 7.34212C8.9434 6.9847 9.33598 6.12923 9.08989 5.30306C9.01372 5.03353 8.92583 4.89877 8.66215 4.63509C8.15239 4.13119 7.57817 3.99056 6.92192 4.20736Z" fill="black"/>
<path d="M8.14209 16.1602C7.7085 16.3125 7.34521 16.6348 7.146 17.0391C6.9292 17.4844 6.91162 18.1758 7.1167 18.5566C7.31006 18.9316 7.57959 19.207 7.91357 19.3828C8.17139 19.5176 8.28271 19.541 8.71045 19.541C9.13818 19.541 9.24951 19.5176 9.50732 19.3828C9.84131 19.207 10.1108 18.9316 10.3042 18.5566C10.4858 18.2168 10.4917 17.4902 10.3159 17.1035C9.93506 16.2773 8.97412 15.8613 8.14209 16.1602Z" fill="black"/>
<path d="M19.8064 16.1369C19.2205 16.3244 18.7458 16.8342 18.6111 17.4084C18.4119 18.2287 18.8689 19.1135 19.6423 19.4358L19.9001 19.5412V21.8322C19.9001 23.2795 19.9236 24.1877 19.9587 24.299C19.9939 24.3986 20.0876 24.5041 20.1697 24.5451C20.2693 24.5861 20.8904 24.6096 22.0915 24.6096H23.8669L23.9665 24.8674C24.0896 25.1897 24.447 25.5529 24.8103 25.7346C25.2087 25.9338 25.8533 25.9221 26.2576 25.7111C27.3357 25.1486 27.5232 23.7483 26.6267 22.9397C25.8005 22.1955 24.488 22.4475 24.0193 23.4318L23.8552 23.7834H22.2908L20.7205 23.7893V21.6506C20.7205 19.9631 20.738 19.5119 20.7966 19.5119C20.9197 19.5119 21.324 19.2776 21.529 19.0783C21.6404 18.9787 21.7986 18.7619 21.8806 18.6037C22.0154 18.3518 22.0388 18.2404 22.0388 17.8127C22.0388 17.2678 21.9451 17.0158 21.5935 16.6174C21.2068 16.1779 20.3689 15.9494 19.8064 16.1369Z" fill="black"/>
</svg>
