<svg width="7" height="5" viewBox="0 0 7 5" fill="none" xmlns="http://www.w3.org/2000/svg">
<path d="M5.84511 0.246615C5.9492 0.143436 6.08971 0.0853674 6.23627 0.0849631C6.38283 0.0845587 6.52367 0.141851 6.62832 0.244455C6.73298 0.347058 6.79305 0.486728 6.79554 0.633267C6.79804 0.779807 6.74277 0.921443 6.64167 1.02755L3.67262 4.73887C3.62159 4.79383 3.56 4.83793 3.49154 4.86855C3.42307 4.89917 3.34914 4.91566 3.27415 4.91705C3.19917 4.91844 3.12468 4.90469 3.05512 4.87663C2.98557 4.84857 2.9224 4.80678 2.86937 4.75374L0.902149 2.78578C0.847344 2.73471 0.803387 2.67313 0.772899 2.6047C0.742411 2.53628 0.726018 2.46241 0.724696 2.38752C0.723375 2.31262 0.737153 2.23822 0.765208 2.16876C0.793263 2.09931 0.83502 2.03621 0.887989 1.98324C0.940958 1.93027 1.00405 1.88852 1.07351 1.86046C1.14297 1.83241 1.21736 1.81863 1.29226 1.81995C1.36716 1.82127 1.44102 1.83767 1.50945 1.86815C1.57787 1.89864 1.63946 1.9426 1.69052 1.9974L3.24794 3.55407L5.83098 0.262978C5.83559 0.257215 5.83981 0.25175 5.84511 0.246615Z" fill="#fafaf5"/>
</svg>