<svg width="228" height="227" viewBox="0 0 228 227" fill="none" xmlns="http://www.w3.org/2000/svg">
<path d="M94.2797 224.969C118.95 229.336 144.371 225.383 166.55 213.732C188.73 202.081 206.41 183.392 216.814 160.601C227.218 137.81 229.756 112.209 224.029 87.819C218.302 63.4291 204.635 41.6327 185.175 25.8541C165.714 10.0755 141.564 1.20889 116.517 0.647145C91.4696 0.0854051 66.9456 7.86038 46.7974 22.7506C26.6492 37.6409 12.0186 58.8026 5.20391 82.9113C-1.61075 107.02 -0.223235 132.709 9.14847 155.944L63.8155 133.894C59.3308 122.775 58.6668 110.482 61.9279 98.9451C65.1889 87.4083 72.1902 77.2817 81.8318 70.1561C91.4734 63.0307 103.209 59.31 115.195 59.5789C127.181 59.8477 138.738 64.0907 148.05 71.6413C157.363 79.1919 163.903 89.6222 166.643 101.294C169.384 112.965 168.17 125.216 163.191 136.123C158.212 147.029 149.751 155.972 139.138 161.547C128.524 167.123 116.359 169.014 104.554 166.925L94.2797 224.969Z" fill="url(#paint0_linear_7894_15575)"/>
<defs>
<linearGradient id="paint0_linear_7894_15575" x1="154.066" y1="219.354" x2="73.8982" y2="7.96421" gradientUnits="userSpaceOnUse">
<stop stop-color="#3562C7"/>
<stop offset="1" stop-color="#1A3061"/>
</linearGradient>
</defs>
</svg>
