<svg width="31" height="30" viewBox="0 0 31 30" fill="none" xmlns="http://www.w3.org/2000/svg">
<path d="M9.10938 3.22266C8.99219 3.33984 8.99219 3.41602 8.99219 6.70898C8.99219 10.002 8.99219 10.0781 9.10938 10.1953C9.24414 10.3301 9.50781 10.3477 9.67188 10.2305C9.77148 10.1543 9.7832 10.0488 9.8125 9.04102L9.8418 7.93945H17.3711H24.9004L25.2344 8.10352C25.6094 8.28516 25.9492 8.63086 26.1016 8.98828C26.3125 9.46289 26.4004 11.7129 26.2773 13.4648C26.1953 14.5957 26.1367 14.8418 25.873 15.1348C25.5273 15.5215 25.3164 15.5859 24.3906 15.5859H23.582V16.8223V18.0645L24.5957 18.0293C25.3164 18.0117 25.6973 17.9707 25.9258 17.9004C27.2031 17.502 28.2168 16.459 28.5273 15.2285C28.6738 14.6367 28.7617 13.3594 28.7617 11.7188C28.7559 8.72461 28.5508 7.88672 27.5488 6.82031C27.0332 6.26367 26.5352 5.95312 25.6035 5.60156C25.4805 5.55469 23.2012 5.53125 17.6348 5.50781L9.8418 5.47852L9.8125 4.41211C9.78906 3.50977 9.76562 3.32227 9.68359 3.22266C9.54883 3.07031 9.26172 3.07031 9.10938 3.22266Z" fill="black"/>
<path d="M14.5 13.8281C14.3887 13.9395 14.3828 14.0215 14.3828 16.7637C14.3828 19.5703 14.3945 19.752 14.582 19.875C14.6172 19.8984 16.4219 19.9219 18.5898 19.9219C22.4512 19.9219 22.5273 19.9219 22.6445 19.8047C22.7559 19.6934 22.7617 19.6113 22.7617 16.8281C22.7617 14.3379 22.75 13.957 22.668 13.8398L22.5801 13.7109H18.5957C14.6934 13.7109 14.6172 13.7109 14.5 13.8281Z" fill="black"/>
<path d="M9.84823 15.6788C9.49081 15.7901 9.16854 15.9952 8.90487 16.2764C8.52401 16.6866 6.3619 19.5401 6.40292 19.5811C6.44979 19.6221 10.1178 21.6085 10.2467 21.6554C10.3053 21.6788 10.5924 21.2452 11.2486 20.1436C11.7584 19.294 12.2564 18.5147 12.356 18.4034C12.5963 18.1456 12.8424 18.046 13.2408 18.046H13.5631V16.8155V15.585L11.8521 15.5909C10.5045 15.5909 10.0767 15.6143 9.84823 15.6788Z" fill="black"/>
<path d="M3.64773 20.3379C3.31375 20.5078 2.70437 21.1113 2.52859 21.4336C1.99539 22.418 2.17117 23.4316 2.96218 23.9355C3.07937 24.0117 3.28445 24.1055 3.41336 24.1465L3.65945 24.2168V24.6738C3.65945 25.5059 4.05789 26.1797 4.76101 26.5254C5.05398 26.6719 5.15945 26.6895 5.65164 26.6895C6.22586 26.6895 6.47781 26.6074 6.87625 26.3027C7.01687 26.1914 7.01687 26.1914 7.26297 26.4199C7.66726 26.7891 7.84304 26.8594 8.37625 26.8652C8.75125 26.8652 8.89773 26.8359 9.12625 26.7305C9.87625 26.3555 10.4563 25.3242 10.4563 24.3457C10.4563 24.0645 10.2747 23.8477 10.0344 23.8477C9.79422 23.8477 9.67703 24.041 9.62429 24.5098C9.595 24.7969 9.52468 25.043 9.38992 25.3066C9.14382 25.7988 8.86257 26.0215 8.46414 26.0625C8.0657 26.0977 7.79031 25.916 7.55007 25.4648C7.26297 24.9141 6.97586 24.8789 6.62429 25.3711C6.50711 25.5293 6.31375 25.7109 6.18484 25.7812C5.90945 25.9219 5.44656 25.9395 5.16531 25.8164C4.93679 25.7168 4.62625 25.4004 4.54421 25.1777C4.43875 24.8965 4.46804 24.4688 4.62039 24.1406C4.83718 23.666 4.6907 23.4082 4.21023 23.4258C3.60671 23.4492 3.12625 23.1562 3.03836 22.7051C2.95632 22.248 3.29031 21.5859 3.7825 21.2402C4.38601 20.8125 4.47976 20.6191 4.21609 20.3613C4.04617 20.1855 3.93484 20.1797 3.64773 20.3379Z" fill="black"/>
<path d="M5.57617 21.5508C5.04297 22.084 4.94922 22.207 4.94922 22.3652C4.94922 22.582 5.11914 22.7344 5.35938 22.7344C5.57031 22.7344 6.76562 21.5391 6.76562 21.3281C6.76562 21.0879 6.60742 20.918 6.39648 20.918C6.23242 20.918 6.11523 21.0059 5.57617 21.5508Z" fill="black"/>
<path d="M8.33594 22.1883C8.21289 22.329 7.52734 23.7059 7.52734 23.8055C7.52734 23.8524 7.58008 23.9579 7.65039 24.0458C7.80273 24.2391 8.04883 24.245 8.21289 24.0633C8.39453 23.87 8.99219 22.6395 8.99219 22.4696C8.99219 22.1532 8.53516 21.9598 8.33594 22.1883Z" fill="black"/>
</svg>
