<svg width="38" height="39" viewBox="0 0 38 39" fill="none" xmlns="http://www.w3.org/2000/svg">
<path d="M9.36365 29.8027H10.9394V31.9239H9.36365V29.8027Z" fill="black"/>
<path d="M19.1818 24.1652H14.0909V23.0137C14.0909 21.8622 13.1818 20.9531 12.0303 20.9531H8.27271C7.1212 20.9531 6.2121 21.8622 6.2121 23.0137V24.1652H1.06059C0.696953 24.1652 0.454529 24.4077 0.454529 24.7713V27.3774L8.09089 30.1652V29.1955C8.09089 28.8319 8.33332 28.5895 8.69695 28.5895H11.4848C11.8485 28.5895 12.0909 28.8319 12.0909 29.1955V30.1046L19.7273 26.9531V24.7713C19.7879 24.4077 19.4848 24.1652 19.1818 24.1652ZM12.8788 24.1652H7.36362V23.0137C7.36362 22.5289 7.72726 22.1652 8.2121 22.1652H11.9697C12.4545 22.1652 12.8182 22.5289 12.8182 23.0137V24.1652H12.8788Z" fill="black"/>
<path d="M12.0909 32.5295C12.0909 32.8932 11.8485 33.1356 11.4848 33.1356H8.69695C8.33332 33.1356 8.09089 32.8932 8.09089 32.5295V31.4992C7.90907 31.4386 8.03029 31.4992 0.454529 28.7114V36.9538C0.454529 37.3174 0.696953 37.5598 1.06059 37.5598H19.1212C19.4242 37.5598 19.7273 37.3174 19.7273 36.9538V28.2871C12.2727 31.3174 12.3333 31.378 12.0909 31.378V32.5295Z" fill="black"/>
<path d="M30.697 29.8023L29.7273 30.2266C29.4242 30.3478 29.303 30.7114 29.4242 31.0144C29.5454 31.3175 29.9091 31.4387 30.2121 31.3175L31.1818 30.8932C31.4848 30.772 31.606 30.4084 31.4848 30.1053C31.3636 29.8023 31 29.6811 30.697 29.8023Z" fill="black"/>
<path d="M31.7879 32.4684L30.8182 32.832C30.5151 32.9532 30.3939 33.3169 30.5151 33.6199C30.6363 33.9229 31 34.0441 31.303 33.9229L32.2727 33.4987C32.5757 33.3775 32.697 33.0138 32.5757 32.7108C32.4545 32.4684 32.1515 32.2866 31.7879 32.4684Z" fill="black"/>
<path d="M31.6667 36.2879C31.7879 36.5909 32.1515 36.7121 32.4545 36.5909L33.4242 36.1667C33.7273 36.0454 33.8485 35.6818 33.7273 35.3788C33.6061 35.0757 33.2424 34.9545 32.9394 35.0757L31.9697 35.5C31.6667 35.6212 31.4848 35.9848 31.6667 36.2879Z" fill="black"/>
<path d="M25.0606 5.49988C25.0606 4.95443 24.8788 4.53018 24.5151 4.16655C24.1515 3.80291 23.7272 3.62109 23.1818 3.62109C22.1515 3.62109 21.303 4.46958 21.303 5.49988C21.303 5.6817 21.3636 5.86352 21.3636 6.04534L18.9394 7.80291C18.6363 7.56049 18.2727 7.43928 17.8485 7.43928C16.8182 7.43928 15.9697 8.28776 15.9697 9.31806C15.9697 10.3484 16.8182 11.1969 17.8485 11.1969C18.8788 11.1969 19.7272 10.3484 19.7272 9.31806C19.7272 9.13625 19.6666 8.95443 19.606 8.77261L22.0303 7.01503C22.3333 7.25746 22.6969 7.37867 23.1212 7.37867C23.7272 7.37867 24.2727 7.07564 24.5757 6.6514L26.8788 7.37867C26.8788 8.40897 27.7272 9.25746 28.7575 9.25746C29.9697 9.25746 30.8181 8.16655 30.5757 7.01503L34.2121 4.95443C34.5151 5.19685 35 5.37867 35.4242 5.37867C36.4545 5.37867 37.303 4.53018 37.303 3.49988C37.303 2.46958 36.4545 1.62109 35.4242 1.62109C34.3939 1.62109 33.5454 2.46958 33.5454 3.49988C33.5454 3.62109 33.5454 3.74231 33.606 3.92412L30.0303 5.98473C29.7272 5.6817 29.303 5.49988 28.8182 5.49988C28.2121 5.49988 27.6666 5.80291 27.303 6.22715L25.0606 5.49988Z" fill="black"/>
<path d="M28.2121 20.893C28.4545 20.7112 28.6969 20.4688 28.9394 20.287C29.1818 20.0446 29.2424 19.6809 29 19.4385C28.7575 19.1961 28.3939 19.1355 28.1515 19.3779C27.8485 19.6809 27.4242 19.9839 27.0606 20.2264C26.8182 20.4082 26.6969 20.7718 26.8788 21.0142L34.3939 34.9536C34.8788 35.8627 34.5151 37.0749 33.5454 37.4991C31.9091 38.287 31.1212 36.59 31.0606 36.5294L25 21.9233C24.8788 21.6203 24.5757 21.4991 24.2727 21.5597C19.4242 23.0143 14.1515 20.6506 11.9697 16.1052C10.7575 13.6203 10.6363 10.8324 11.5454 8.22637C12.4545 5.62031 14.3333 3.55971 16.8788 2.34758C19.9697 0.893038 23.606 1.01425 26.5757 2.77183C26.8788 2.95364 27.2424 2.83243 27.4242 2.5294C27.606 2.22637 27.4848 1.86274 27.1818 1.68092C23.8485 -0.258477 19.7879 -0.440295 16.3333 1.19607C13.5454 2.5294 11.4242 4.83243 10.3939 7.74152C9.36361 10.6506 9.54543 13.8021 10.8182 16.59C13.1818 21.5597 18.7575 24.1658 24.0303 22.8324L29.9091 37.0143C30.5151 38.4688 32.3939 39.3779 34.0303 38.59C35.606 37.8627 36.2727 35.9233 35.4242 34.3476L28.2121 20.893Z" fill="black"/>
<path d="M36.9394 16.7711H36.0303V7.74083C36.0303 7.37719 35.7272 7.13477 35.4242 7.13477C35.0606 7.13477 34.8181 7.37719 34.8181 7.74083V16.7711H33.1212V9.31658C33.1212 8.95295 32.8181 8.71052 32.5151 8.71052C32.2121 8.71052 31.9091 8.95295 31.9091 9.31658V16.7711H30.2121V13.0136C30.2121 12.7105 29.9091 12.4075 29.606 12.4075C29.2424 12.4075 29 12.7105 29 13.0136V16.7711H27.303V12.5893C27.303 12.2863 27.0606 11.9833 26.6969 11.9833C26.3333 11.9833 26.0909 12.2863 26.0909 12.5893V16.7711H24.3939V9.31658C24.3939 8.95295 24.0909 8.71052 23.7878 8.71052C23.4848 8.71052 23.1818 8.95295 23.1818 9.31658V16.7711H21.4848V11.4378C21.4848 11.0742 21.1818 10.8317 20.8788 10.8317C20.5151 10.8317 20.2727 11.0742 20.2727 11.4378V16.7711H18.5757V13.3772C18.5757 13.0136 18.3333 12.7711 17.9697 12.7711C17.6666 12.7711 17.3636 13.0136 17.3636 13.3772V16.7711H16.4545C16.0909 16.7711 15.8484 17.0742 15.8484 17.3772C15.8484 17.6802 16.0909 17.9833 16.4545 17.9833H37C37.3636 17.9833 37.606 17.6802 37.606 17.3772C37.606 17.0742 37.2424 16.7711 36.9394 16.7711Z" fill="black"/>
</svg>
