<svg width="20" height="20" viewBox="0 0 20 20" fill="none" xmlns="http://www.w3.org/2000/svg">
<g clip-path="url(#clip0_8799_4836)">
<path d="M2.69531 7.91309V17.6853C2.69531 17.8611 2.76527 18.0296 2.8898 18.1538C3.01433 18.2781 3.18323 18.3479 3.35934 18.3479H7.34353V12.7164C7.34353 12.4528 7.44847 12.2001 7.63527 12.0137C7.82206 11.8273 8.07541 11.7226 8.33958 11.7226H11.6597C11.9239 11.7226 12.1773 11.8273 12.364 12.0137C12.5508 12.2001 12.6558 12.4528 12.6558 12.7164V18.3479H16.64C16.8161 18.3479 16.985 18.2781 17.1095 18.1538C17.234 18.0296 17.304 17.8611 17.304 17.6853V7.91309" stroke="white" stroke-linecap="round" stroke-linejoin="round"/>
<path d="M19.392 9.99994L10.4572 1.30021C10.2476 1.07504 9.75751 1.07248 9.54411 1.30021L0.609375 9.99994M16.0379 6.71622V1.81196H14.0255V4.75451" stroke="white" stroke-linecap="round" stroke-linejoin="round"/>
</g>
<defs>
<clipPath id="clip0_8799_4836">
<rect width="20" height="20" fill="white"/>
</clipPath>
</defs>
</svg>
