<svg width="161" height="38" viewBox="0 0 161 38" fill="none" xmlns="http://www.w3.org/2000/svg">
<g clip-path="url(#clip0_2532_86)">
<path fill-rule="evenodd" clip-rule="evenodd" d="M52.8246 15.6143C52.8373 15.686 52.8211 15.7508 52.7761 15.8085C50.1526 14.1247 47.5309 12.4416 44.9107 10.7591C43.3343 11.7498 41.7644 12.7532 40.2013 13.7693C37.9679 12.3451 35.7345 10.921 33.5012 9.49678C31.2678 10.921 29.0344 12.3451 26.8011 13.7693C25.2474 12.7659 23.6938 11.7625 22.1402 10.7591C21.0668 11.4896 19.9662 12.1693 18.8387 12.7983C18.5388 12.8102 18.2798 12.7131 18.0618 12.507C17.997 12.7425 17.9645 12.9691 17.9647 13.1867C17.9 13.1544 17.8353 13.1219 17.7705 13.0896C17.5242 13.2612 17.2653 13.4068 16.9937 13.5265C16.9364 13.6731 16.8718 13.8187 16.7995 13.9635C16.3558 14.2953 15.8703 14.5542 15.343 14.7403C15.2383 14.9828 15.0603 15.1446 14.8089 15.2258C14.7766 15.1611 14.7441 15.0964 14.7118 15.0316C14.5497 15.1937 14.4688 15.3879 14.469 15.6143C14.399 15.797 14.3019 15.8293 14.1777 15.7114C15.5296 9.74809 18.8634 5.26515 24.1793 2.26263C30.6789 -0.87854 37.12 -0.749102 43.5027 2.65104C47.7082 5.21698 50.6375 8.8259 52.2905 13.478C52.4989 14.1822 52.677 14.8942 52.8246 15.6143Z" fill="#07223B"/>
<path fill-rule="evenodd" clip-rule="evenodd" d="M52.8211 15.6136C52.8853 15.7318 52.95 15.8613 53.0153 16.002C57.6473 18.9849 62.2759 21.9627 66.901 24.9354C63.47 25.0002 60.039 25.0648 56.6081 25.1296C48.9402 20.1947 41.2367 15.3071 33.4976 10.4671C25.7553 15.3084 18.0519 20.1958 10.3872 25.1296C6.98859 25.0648 3.59 25.0002 0.191406 24.9354C4.76485 21.9519 9.36101 18.9903 13.98 16.0505C14.0368 15.9241 14.1015 15.8108 14.1742 15.7107C14.2984 15.8286 14.3955 15.7963 14.4655 15.6136C15.9723 14.7472 17.4289 13.8085 18.8351 12.7976C19.9627 12.1686 21.0632 11.4889 22.1366 10.7584C23.6903 11.7618 25.2439 12.7652 26.7975 13.7686C29.0309 12.3444 31.2643 10.9203 33.4976 9.49609C35.731 10.9203 37.9644 12.3444 40.1977 13.7686C41.7609 12.7525 43.3307 11.7491 44.9072 10.7584C47.5273 12.4409 50.1491 14.124 52.7725 15.8078C52.8176 15.7501 52.8338 15.6853 52.8211 15.6136Z" fill="#369CD3"/>
<path fill-rule="evenodd" clip-rule="evenodd" d="M18.8403 12.7991C17.4341 13.8101 15.9775 14.7488 14.4707 15.6151C14.4705 15.3888 14.5514 15.1946 14.7135 15.0325C14.7458 15.0973 14.7782 15.1619 14.8106 15.2267C15.062 15.1454 15.24 14.9837 15.3446 14.7412C15.872 14.555 16.3575 14.2962 16.8012 13.9644C16.8734 13.8196 16.9381 13.6739 16.9954 13.5274C17.267 13.4077 17.5258 13.262 17.7722 13.0904C17.837 13.1228 17.9016 13.1552 17.9664 13.1875C17.9662 12.9699 17.9986 12.7434 18.0635 12.5078C18.2815 12.714 18.5405 12.8111 18.8403 12.7991Z" fill="#07223B"/>
<path fill-rule="evenodd" clip-rule="evenodd" d="M56.6097 25.1313C56.6745 25.1636 56.7391 25.1959 56.8039 25.2283C57.8362 25.8743 58.8719 26.5217 59.9112 27.1704C59.922 27.2303 59.9543 27.2788 60.0083 27.316C57.5486 27.3645 55.0887 27.3807 52.6285 27.3645C52.4731 27.9924 52.2789 28.6074 52.0459 29.2096C51.0565 31.4159 49.6647 33.3255 47.8705 34.9385C47.8057 34.9709 47.741 35.0033 47.6763 35.0356C47.6115 31.3781 47.5468 27.7206 47.4821 24.063C46.5199 23.3449 45.5165 22.6814 44.4719 22.0725C45.1839 22.0402 45.8961 22.0077 46.6081 21.9753C46.8569 21.7099 47.1159 21.4673 47.385 21.2472C47.4377 21.2413 47.47 21.2089 47.4821 21.15C46.1889 21.053 44.8943 21.0205 43.598 21.0529C43.1448 20.4055 42.6917 19.7582 42.2385 19.1108C42.0294 18.5686 41.7057 18.0993 41.2675 17.7029C38.678 17.6867 36.0887 17.6706 33.4993 17.6544C30.8767 17.6544 28.2873 17.7191 25.7311 17.8486C24.9296 18.9023 24.1527 19.9704 23.4006 21.0529C22.1043 21.0205 20.8096 21.053 19.5165 21.15C19.5285 21.2089 19.5609 21.2413 19.6136 21.2472C19.9019 21.4891 20.1932 21.7318 20.4875 21.9753C21.1349 22.0077 21.7822 22.0402 22.4296 22.0725C21.5083 22.6548 20.6021 23.2536 19.7107 23.8689C19.5457 23.8534 19.3838 23.8694 19.2252 23.9174C19.1672 24.0205 19.1349 24.1337 19.1281 24.2572C19.2287 27.4928 19.2287 30.7295 19.1281 33.9675C19.014 33.9462 18.9169 33.9787 18.8368 34.0647C18.9092 34.1847 18.9415 34.3142 18.9339 34.453C18.8368 34.453 18.7397 34.453 18.6426 34.453C18.587 34.2826 18.506 34.1207 18.3998 33.9675C17.9007 33.5813 17.5284 33.0959 17.2831 32.5111C17.0076 32.2182 16.7325 31.9269 16.4577 31.6371C16.3606 31.4429 16.2635 31.2487 16.1664 31.0545C16.1013 30.9815 16.0204 30.949 15.9237 30.9573C15.2631 29.8524 14.7129 28.6873 14.2729 27.4617C11.8454 27.397 9.4178 27.3323 6.99023 27.2675C8.11905 26.5904 9.21962 25.8783 10.2917 25.1313C10.3241 25.1313 10.3565 25.1313 10.3888 25.1313C18.0535 20.1975 25.757 15.3099 33.4993 10.4688C41.2384 15.3087 48.9418 20.1963 56.6097 25.1313Z" fill="#215699"/>
<path fill-rule="evenodd" clip-rule="evenodd" d="M42.2379 19.1088C41.8953 18.6698 41.5393 18.2328 41.1698 17.798C36.0165 17.7176 30.87 17.7337 25.7305 17.8465C28.2867 17.7171 30.8761 17.6523 33.4987 17.6523C36.0881 17.6685 38.6775 17.6846 41.2669 17.7009C41.7051 18.0972 42.0288 18.5666 42.2379 19.1088Z" fill="#215699"/>
<path fill-rule="evenodd" clip-rule="evenodd" d="M23.4017 21.0512C22.1394 21.1159 20.877 21.1806 19.6147 21.2454C19.562 21.2395 19.5296 21.2072 19.5176 21.1483C20.8107 21.0513 22.1054 21.0188 23.4017 21.0512Z" fill="#215699"/>
<path fill-rule="evenodd" clip-rule="evenodd" d="M43.5977 21.0512C44.894 21.0188 46.1886 21.0513 47.4818 21.1483C47.4697 21.2072 47.4374 21.2395 47.3847 21.2454C46.1223 21.1806 44.86 21.1159 43.5977 21.0512Z" fill="#215699"/>
<path fill-rule="evenodd" clip-rule="evenodd" d="M42.2377 19.1111C42.6909 19.7585 43.1439 20.4058 43.5971 21.0532C44.8595 21.1179 46.1218 21.1826 47.3841 21.2474C47.1151 21.4675 46.8561 21.7103 46.6073 21.9756C45.8953 22.008 45.1831 22.0404 44.471 22.0727C45.5157 22.6816 46.519 23.3452 47.4812 24.0634C47.4489 27.7538 47.4812 31.4437 47.5783 35.1331C47.6373 35.121 47.6696 35.0887 47.6754 35.036C47.7402 35.0036 47.8049 34.9712 47.8696 34.9389C47.8329 35.1739 47.7682 35.4005 47.6754 35.6186C38.063 34.9776 28.4498 34.9776 18.8359 35.6186C18.9183 35.4639 19.0477 35.3506 19.2243 35.2787C19.1431 35.1805 19.1107 35.0672 19.1272 34.9389C19.2203 34.9828 19.3013 35.0475 19.37 35.1331C19.4023 31.4432 19.4348 27.7533 19.4671 24.0634C19.5637 24.0084 19.6446 23.9436 19.7099 23.8691C20.6013 23.2538 21.5075 22.655 22.4287 22.0727C21.7814 22.0404 21.1341 22.008 20.4867 21.9756C20.1924 21.7321 19.9011 21.4894 19.6128 21.2474C20.8751 21.1826 22.1374 21.1179 23.3998 21.0532C24.1519 19.9707 24.9287 18.9025 25.7302 17.8488C30.8698 17.7359 36.0162 17.7198 41.1696 17.8002C41.539 18.2351 41.8951 18.672 42.2377 19.1111Z" fill="#F2F6F8"/>
<path fill-rule="evenodd" clip-rule="evenodd" d="M40.1055 30.9559C35.9466 30.8589 31.7712 30.8266 27.5793 30.8588C27.3504 30.843 27.1239 30.8591 26.8996 30.9074C26.473 31.242 26.0036 31.4848 25.4916 31.6357C24.1003 31.2629 22.7408 30.8098 21.4132 30.2762C21.1346 28.8287 20.9728 27.3722 20.9277 25.9066C21.1119 26.3929 21.4195 26.7651 21.8502 27.0233C22.7766 27.2566 23.6829 27.5479 24.5691 27.8972C25.2156 27.9458 25.863 27.9619 26.5111 27.9458C27.0112 28.0575 27.5292 28.0736 28.0648 27.9943C27.9651 27.9445 27.868 27.8959 27.7735 27.8486C25.9595 27.1953 24.1469 26.5318 22.3357 25.858C21.9567 25.2142 21.6492 24.5507 21.4132 23.8674C23.9873 24.6768 26.5929 25.3404 29.23 25.858C27.4611 24.5697 25.7132 23.2588 23.9865 21.9254C24.8161 20.7677 25.6577 19.6187 26.5111 18.4782C31.1721 18.4135 35.833 18.4135 40.4939 18.4782C41.3914 19.6261 42.2654 20.7913 43.1157 21.9739C41.3333 23.2213 39.5854 24.516 37.8722 25.858C40.4402 25.2726 42.9972 24.609 45.5433 23.8674C45.5756 23.8998 45.608 23.9322 45.6404 23.9645C45.2901 24.5681 44.9664 25.1831 44.6693 25.8095C42.7382 26.4839 40.8285 27.2121 38.9403 27.9943C40.3793 28.0172 41.8035 27.8878 43.2128 27.6059C43.9525 27.332 44.6969 27.0731 45.4462 26.8291C45.6925 26.5469 45.9029 26.2394 46.0773 25.9066C46.0171 27.4038 45.839 28.8927 45.5433 30.3733C44.2115 30.8226 42.8683 31.2434 41.5135 31.6357C41.0328 31.4294 40.5635 31.2029 40.1055 30.9559Z" fill="#07223B"/>
<path fill-rule="evenodd" clip-rule="evenodd" d="M19.7107 23.869C19.6455 23.9435 19.5646 24.0083 19.468 24.0632C19.4356 27.7531 19.4032 31.443 19.3708 35.1329C19.3021 35.0474 19.2211 34.9827 19.1281 34.9387C18.9365 34.8119 18.7747 34.65 18.6426 34.4532C18.7397 34.4532 18.8368 34.4532 18.9339 34.4532C18.9416 34.3144 18.9092 34.1848 18.8368 34.0648C18.9169 33.9788 19.014 33.9464 19.1281 33.9677C19.2287 30.7297 19.2287 27.493 19.1281 24.2574C19.1349 24.1339 19.1672 24.0207 19.2252 23.9176C19.3839 23.8696 19.5457 23.8535 19.7107 23.869Z" fill="#215699"/>
<path fill-rule="evenodd" clip-rule="evenodd" d="M0.194205 24.9375C3.5928 25.0023 6.99139 25.067 10.39 25.1317C10.3577 25.1317 10.3252 25.1317 10.2929 25.1317C6.86176 25.148 3.43083 25.1317 0 25.0832C0.0528239 25.0136 0.117591 24.965 0.194205 24.9375Z" fill="#369CD3"/>
<path fill-rule="evenodd" clip-rule="evenodd" d="M66.9023 24.9375C66.955 24.9433 66.9873 24.9757 66.9994 25.0346C63.5848 25.0994 60.1862 25.1641 56.8036 25.2288C56.7388 25.1965 56.6741 25.1641 56.6094 25.1317C60.0403 25.067 63.4713 25.0023 66.9023 24.9375Z" fill="#369CD3"/>
<path fill-rule="evenodd" clip-rule="evenodd" d="M27.7701 27.8477C27.8646 27.895 27.9617 27.9435 28.0615 27.9934C27.5258 28.0727 27.0079 28.0566 26.5078 27.9448C26.9479 27.9757 27.3687 27.9434 27.7701 27.8477Z" fill="#07223B"/>
<path fill-rule="evenodd" clip-rule="evenodd" d="M27.5762 30.8597C31.7681 30.8275 35.9435 30.8598 40.1024 30.9568C39.6122 30.9349 39.1106 30.9673 38.5973 31.0539C34.9141 30.9895 31.2404 30.9248 27.5762 30.8597Z" fill="#F2F6F8"/>
<path fill-rule="evenodd" clip-rule="evenodd" d="M39.1322 31.7323C38.163 31.6754 37.192 31.7077 36.2191 31.8294C35.8251 31.7963 35.4367 31.7316 35.0539 31.6352C35.0336 31.5783 35.0012 31.5297 34.9568 31.4895C32.7558 31.4247 30.5548 31.4247 28.3538 31.4895C28.2816 31.5904 28.1845 31.6389 28.0625 31.6352C28.1065 31.5421 28.1712 31.4612 28.2567 31.3924C31.7524 31.3276 35.2481 31.3276 38.7438 31.3924C38.9209 31.4565 39.0504 31.5698 39.1322 31.7323Z" fill="#215699"/>
<path fill-rule="evenodd" clip-rule="evenodd" d="M39.132 31.7327C39.5317 31.9821 39.9201 32.2573 40.2972 32.5581C40.6215 32.543 40.9453 32.4945 41.2682 32.4124C41.3734 32.4162 41.4705 32.4487 41.5595 32.5095C41.6562 33.1211 41.6887 33.7361 41.6566 34.3545C36.8504 34.2349 32.0601 34.2349 27.2854 34.3545C26.6239 34.4507 25.9442 34.4832 25.2463 34.4516C25.2302 33.7064 25.2463 32.9619 25.2948 32.2182C25.737 32.4648 26.2063 32.5781 26.7028 32.5581C27.1111 32.1766 27.5643 31.8691 28.0623 31.6356C28.1842 31.6394 28.2813 31.5909 28.3536 31.49C30.5546 31.4252 32.7555 31.4252 34.9565 31.49C35.0009 31.5302 35.0334 31.5787 35.0536 31.6356C35.4364 31.732 35.8248 31.7968 36.2189 31.8298C37.1918 31.7082 38.1628 31.6758 39.132 31.7327Z" fill="#215699"/>
<path fill-rule="evenodd" clip-rule="evenodd" d="M20.4899 29.8906C20.5256 30.7053 20.7846 31.4335 21.2667 32.0754C22.3344 32.1239 23.4025 32.1401 24.4711 32.1239C24.4711 32.9331 24.4711 33.7423 24.4711 34.5515C23.1117 34.5515 21.7522 34.5515 20.3928 34.5515C20.3608 32.9809 20.3932 31.4272 20.4899 29.8906Z" fill="#07223B"/>
<path fill-rule="evenodd" clip-rule="evenodd" d="M46.51 29.7891C46.6068 31.3905 46.6391 33.0088 46.6071 34.6443C45.2153 34.6443 43.8234 34.6443 42.4316 34.6443C42.4316 33.8027 42.4316 32.9612 42.4316 32.1196C43.5326 32.1358 44.6332 32.1196 45.7331 32.071C45.8465 31.9577 45.9597 31.8445 46.073 31.7312C46.2499 31.0883 46.3956 30.441 46.51 29.7891Z" fill="#07223B"/>
<path fill-rule="evenodd" clip-rule="evenodd" d="M47.4828 24.0625C47.5476 27.7201 47.6123 31.3775 47.677 35.0351C47.6712 35.0878 47.6389 35.1202 47.5799 35.1322C47.4828 31.4429 47.4505 27.753 47.4828 24.0625Z" fill="#215699"/>
<path fill-rule="evenodd" clip-rule="evenodd" d="M20.4906 29.8901C20.3939 31.4268 20.3615 32.9804 20.3935 34.551C20.3935 34.5834 20.3935 34.6158 20.3935 34.6481C20.2647 33.0455 20.2647 31.4271 20.3935 29.793C20.4525 29.805 20.4848 29.8374 20.4906 29.8901Z" fill="#369CD3"/>
<path fill-rule="evenodd" clip-rule="evenodd" d="M15.9219 30.9583C16.0186 30.95 16.0995 30.9824 16.1646 31.0555C16.2617 31.2497 16.3588 31.4439 16.4559 31.6381C16.7307 31.9278 17.0058 32.2191 17.2813 32.512C17.5266 33.0968 17.8989 33.5824 18.398 33.9685C18.5042 34.1218 18.5852 34.2836 18.6408 34.454C17.5496 33.4283 16.6433 32.263 15.9219 30.9583Z" fill="#369CD3"/>
<path fill-rule="evenodd" clip-rule="evenodd" d="M41.7535 32.2188C41.7535 32.9632 41.7535 33.7075 41.7535 34.452C41.0737 34.452 40.394 34.452 39.7143 34.452C35.572 34.3641 31.429 34.3318 27.2852 34.3549C32.0598 34.2353 36.8502 34.2353 41.6564 34.3549C41.6884 33.7366 41.656 33.1216 41.5593 32.5101C41.4702 32.4492 41.3731 32.4167 41.2679 32.4129C41.4068 32.3122 41.5687 32.2474 41.7535 32.2188Z" fill="#F2F6F8"/>
<path fill-rule="evenodd" clip-rule="evenodd" d="M41.754 32.2188C41.8503 32.9776 41.8828 33.7543 41.8511 34.549C41.121 34.5806 40.4089 34.5483 39.7148 34.452C40.3946 34.452 41.0743 34.452 41.754 34.452C41.754 33.7075 41.754 32.9632 41.754 32.2188Z" fill="#F2F6F8"/>
<path fill-rule="evenodd" clip-rule="evenodd" d="M24.4689 32.1211C24.5654 32.9449 24.5977 33.7865 24.566 34.6458C23.1743 34.6458 21.7824 34.6458 20.3906 34.6458C20.3906 34.6134 20.3906 34.581 20.3906 34.5487C21.7501 34.5487 23.1095 34.5487 24.4689 34.5487C24.4689 33.7395 24.4689 32.9303 24.4689 32.1211Z" fill="#F2F6F8"/>
<path fill-rule="evenodd" clip-rule="evenodd" d="M47.6765 35.6175C48.5464 35.6371 49.3878 35.7989 50.2012 36.103C50.3223 36.2492 50.3223 36.3949 50.2012 36.5399C49.7198 36.6845 49.2343 36.814 48.7446 36.9283C45.5587 37.3966 42.3543 37.6393 39.1315 37.6566C36.0248 37.7322 32.9175 37.7645 29.8096 37.7537C26.7634 37.6914 23.7209 37.5457 20.682 37.3168C19.3578 37.1826 18.0631 36.9236 16.7978 36.5399C16.6768 36.3949 16.6768 36.2492 16.7978 36.103C17.4545 35.8551 18.1342 35.6932 18.837 35.6175C28.4509 34.9765 38.064 34.9765 47.6765 35.6175Z" fill="#07223B"/>
<path fill-rule="evenodd" clip-rule="evenodd" d="M39.1305 37.6562C37.304 37.8035 35.459 37.868 33.5956 37.8505C32.3167 37.8505 31.0543 37.8181 29.8086 37.7534C32.9165 37.7641 36.0237 37.7318 39.1305 37.6562Z" fill="#F2F6F8"/>
<path d="M76.3185 13.9101V11.2491H84.2982V13.9101H76.3185ZM82.4769 4.25391L87.7401 16.2046H84.3291L79.9147 5.65612H80.8408L76.4111 16.2046H73L78.2632 4.25391H82.4769Z" fill="#215699"/>
<path d="M91.4775 10.8666C91.4775 11.4084 91.5752 11.8811 91.7707 12.2848C91.9765 12.6778 92.2749 12.9806 92.6659 13.193C93.0672 13.4055 93.556 13.5117 94.1322 13.5117C94.7187 13.5117 95.2075 13.4055 95.5985 13.193C95.9895 12.9806 96.2828 12.6778 96.4783 12.2848C96.6738 11.8811 96.7716 11.4084 96.7716 10.8666V4.25391H99.982V11.026C99.982 12.1201 99.735 13.0762 99.2411 13.8941C98.7575 14.7015 98.0784 15.3335 97.2037 15.7903C96.3291 16.2365 95.3053 16.4596 94.1322 16.4596C92.9695 16.4596 91.9457 16.2365 91.0607 15.7903C90.1861 15.3335 89.5018 14.7015 89.0079 13.8941C88.5243 13.0762 88.2825 12.1201 88.2825 11.026V4.25391H91.4775V10.8666Z" fill="#215699"/>
<path d="M105.923 5.70392H109.134V16.2046H105.923V5.70392ZM101.509 4.25391H113.548V7.1858H101.509V4.25391Z" fill="#215699"/>
<path d="M121.128 16.4606C119.759 16.4606 118.555 16.2003 117.516 15.6798C116.487 15.1593 115.684 14.4316 115.108 13.4968C114.542 12.562 114.259 11.4731 114.259 10.2303C114.259 8.98741 114.542 7.89857 115.108 6.96376C115.684 6.02896 116.487 5.30129 117.516 4.78078C118.555 4.26026 119.759 4 121.128 4C122.506 4 123.71 4.26026 124.739 4.78078C125.768 5.30129 126.571 6.02896 127.147 6.96376C127.723 7.89857 128.011 8.98741 128.011 10.2303C128.011 11.4731 127.723 12.562 127.147 13.4968C126.571 14.4316 125.768 15.1593 124.739 15.6798C123.71 16.2003 122.506 16.4606 121.128 16.4606ZM121.128 13.5127C121.879 13.5127 122.527 13.3799 123.072 13.1144C123.618 12.8488 124.034 12.4717 124.323 11.983C124.621 11.4944 124.77 10.9101 124.77 10.2303C124.77 9.55042 124.621 8.96616 124.323 8.47751C124.034 7.98886 123.618 7.61175 123.072 7.34618C122.527 7.08061 121.879 6.94783 121.128 6.94783C120.387 6.94783 119.744 7.08061 119.198 7.34618C118.653 7.61175 118.231 7.98886 117.933 8.47751C117.634 8.96616 117.485 9.55042 117.485 10.2303C117.485 10.9101 117.634 11.4944 117.933 11.983C118.231 12.4717 118.653 12.8488 119.198 13.1144C119.744 13.3799 120.387 13.5127 121.128 13.5127Z" fill="#215699"/>
<path d="M129.445 12.2858H132.701C132.753 12.6151 132.902 12.9019 133.149 13.1462C133.396 13.3906 133.725 13.5818 134.137 13.7199C134.559 13.8473 135.052 13.9111 135.618 13.9111C136.4 13.9111 137.018 13.8102 137.471 13.6083C137.923 13.3959 138.15 13.0878 138.15 12.6841C138.15 12.3761 138.021 12.1371 137.764 11.9671C137.507 11.7971 137.013 11.675 136.282 11.6006L134.121 11.3935C132.526 11.2448 131.369 10.873 130.648 10.2781C129.928 9.67258 129.568 8.85993 129.568 7.84014C129.568 7.01157 129.8 6.31046 130.263 5.73683C130.736 5.1632 131.394 4.73297 132.238 4.44616C133.092 4.14872 134.085 4 135.217 4C136.328 4 137.316 4.16465 138.181 4.49396C139.045 4.81264 139.729 5.26942 140.233 5.8643C140.748 6.45918 141.026 7.14966 141.067 7.93575H137.826C137.784 7.64893 137.651 7.40461 137.424 7.20278C137.208 6.99032 136.91 6.83098 136.529 6.72475C136.148 6.6079 135.69 6.54947 135.155 6.54947C134.435 6.54947 133.864 6.65039 133.442 6.85222C133.02 7.04343 132.809 7.33025 132.809 7.71267C132.809 7.98886 132.933 8.21194 133.18 8.38191C133.437 8.55187 133.895 8.66872 134.553 8.73246L136.853 8.97147C137.954 9.0777 138.834 9.2636 139.492 9.52917C140.151 9.78412 140.63 10.14 140.928 10.5968C141.226 11.0535 141.376 11.6219 141.376 12.3017C141.376 13.1409 141.134 13.8739 140.65 14.5006C140.166 15.1168 139.487 15.6001 138.613 15.9507C137.738 16.2906 136.719 16.4606 135.557 16.4606C134.363 16.4606 133.308 16.2906 132.393 15.9507C131.487 15.6001 130.777 15.1115 130.263 14.4847C129.748 13.8473 129.475 13.1144 129.445 12.2858Z" fill="#215699"/>
<path d="M143.286 4.25391H146.481V16.2046H143.286V4.25391Z" fill="#215699"/>
<path d="M156.786 10.3567L157.049 9.73527C157.944 9.75652 158.68 9.89993 159.256 10.1655C159.842 10.4205 160.28 10.7817 160.568 11.2491C160.856 11.7058 161 12.237 161 12.8425C161 13.4905 160.856 14.0694 160.568 14.5793C160.28 15.0786 159.848 15.4769 159.271 15.7744C158.705 16.0612 157.995 16.2046 157.141 16.2046H148.591L149.486 10.0699L148.591 4.25391H156.833C157.903 4.25391 158.736 4.51417 159.333 5.03468C159.93 5.54458 160.228 6.25631 160.228 7.16987C160.228 7.66914 160.115 8.14716 159.889 8.60395C159.662 9.06073 159.297 9.44846 158.793 9.76714C158.299 10.0752 157.63 10.2718 156.786 10.3567ZM151.755 15.4398L150.52 13.8941H156.277C156.74 13.8941 157.1 13.7773 157.357 13.5436C157.615 13.3099 157.743 12.9859 157.743 12.5716C157.743 12.1573 157.604 11.828 157.327 11.5837C157.049 11.3287 156.637 11.2013 156.092 11.2013H151.338V8.93856H155.66C156.03 8.93856 156.339 8.82702 156.586 8.60395C156.843 8.37024 156.972 8.05687 156.972 7.66383C156.972 7.34514 156.864 7.08488 156.647 6.88305C156.431 6.6706 156.123 6.56437 155.721 6.56437H150.535L151.755 5.01875L152.542 10.0699L151.755 15.4398Z" fill="#215699"/>
<path d="M73.5222 29.232H75.4181C75.4747 29.6702 75.6492 30.0548 75.9416 30.3859C76.2434 30.7169 76.6396 30.975 77.1301 31.16C77.6205 31.3353 78.1865 31.4229 78.8279 31.4229C79.7805 31.4229 80.5351 31.272 81.0916 30.9701C81.6481 30.6585 81.9264 30.2398 81.9264 29.714C81.9264 29.2855 81.766 28.9642 81.4453 28.7499C81.1246 28.5357 80.5446 28.3751 79.7051 28.2679L77.413 27.9612C76.1302 27.7859 75.1964 27.4597 74.6116 26.9826C74.0363 26.4957 73.7486 25.8092 73.7486 24.9231C73.7486 24.2512 73.9419 23.6718 74.3287 23.1849C74.7248 22.6883 75.2813 22.3085 75.9982 22.0456C76.715 21.773 77.5545 21.6367 78.5166 21.6367C79.4693 21.6367 80.3135 21.7827 81.0492 22.0748C81.7849 22.367 82.3697 22.7759 82.8036 23.3018C83.2469 23.8179 83.4874 24.4265 83.5252 25.1276H81.6293C81.5821 24.7381 81.4218 24.4021 81.1482 24.1197C80.8841 23.8373 80.5257 23.6183 80.0729 23.4624C79.6202 23.2969 79.0873 23.2141 78.4742 23.2141C77.6064 23.2141 76.9131 23.3602 76.3943 23.6523C75.8756 23.9445 75.6162 24.3437 75.6162 24.8501C75.6162 25.2396 75.7671 25.5414 76.0689 25.7556C76.3802 25.9601 76.9178 26.1159 77.6819 26.2231L80.0022 26.559C80.9549 26.6953 81.7047 26.8803 82.2518 27.114C82.8083 27.338 83.2045 27.6447 83.4403 28.0342C83.6761 28.414 83.794 28.9058 83.794 29.5095C83.794 30.2106 83.5865 30.8241 83.1715 31.3499C82.7564 31.8757 82.1716 32.2847 81.417 32.5768C80.6719 32.8592 79.7994 33.0004 78.7996 33.0004C77.7809 33.0004 76.8801 32.8446 76.0972 32.533C75.3238 32.2117 74.7107 31.7686 74.2579 31.2038C73.8052 30.639 73.5599 29.9818 73.5222 29.232Z" fill="white"/>
<path d="M93.5221 30.2823V28.6902H100.936V30.2823H93.5221ZM98.4457 21.8398L103.539 32.7946H101.544L96.9177 22.5702H97.6393L93.0127 32.7946H91.0178L96.1112 21.8398H98.4457Z" fill="white"/>
<path d="M113.774 21.8398V31.9328L112.94 31.1003H120.934V32.7946H111.907V21.8398H113.774Z" fill="white"/>
<path d="M134.323 33.0004C133.115 33.0004 132.054 32.7618 131.139 32.2847C130.224 31.8075 129.512 31.1454 129.003 30.2982C128.494 29.4413 128.239 28.4481 128.239 27.3185C128.239 26.189 128.494 25.2006 129.003 24.3534C129.512 23.4965 130.224 22.8295 131.139 22.3524C132.054 21.8752 133.115 21.6367 134.323 21.6367C135.53 21.6367 136.591 21.8752 137.506 22.3524C138.421 22.8295 139.133 23.4965 139.643 24.3534C140.152 25.2006 140.407 26.189 140.407 27.3185C140.407 28.4481 140.152 29.4413 139.643 30.2982C139.133 31.1454 138.421 31.8075 137.506 32.2847C136.591 32.7618 135.53 33.0004 134.323 33.0004ZM134.323 31.2768C135.181 31.2768 135.922 31.1162 136.544 30.7948C137.167 30.4735 137.648 30.0158 137.987 29.4218C138.336 28.8279 138.511 28.1267 138.511 27.3185C138.511 26.5103 138.336 25.8092 137.987 25.2152C137.648 24.6212 137.167 24.1636 136.544 23.8422C135.922 23.5209 135.181 23.3602 134.323 23.3602C133.474 23.3602 132.733 23.5209 132.101 23.8422C131.479 24.1636 130.993 24.6212 130.644 25.2152C130.305 25.8092 130.135 26.5103 130.135 27.3185C130.135 28.1267 130.305 28.8279 130.644 29.4218C130.993 30.0158 131.479 30.4735 132.101 30.7948C132.733 31.1162 133.474 31.2768 134.323 31.2768Z" fill="white"/>
<path d="M159.128 31.6261L158.364 31.7137V21.8398H160.175V32.7946H157.799L150.356 22.9207L151.106 22.8331V32.7946H149.295V21.8398H151.729L159.128 31.6261Z" fill="white"/>
</g>
<defs>
<clipPath id="clip0_2532_86">
<rect width="161" height="38" fill="white"/>
</clipPath>
</defs>
</svg>
