<svg width="20" height="20" viewBox="0 0 20 20" fill="none" xmlns="http://www.w3.org/2000/svg">
<g clip-path="url(#clip0_8799_4925)">
<path d="M5.36333 0.540434C5.17192 0.622466 5.15629 0.739655 5.15629 2.16935V3.45061H3.82816C2.74612 3.45061 2.47658 3.46233 2.39065 3.5053C2.33205 3.53655 1.76955 4.07953 1.14063 4.70844L0 5.85298L0.234377 6.08736L0.468754 6.32173L1.57423 5.21625L2.6758 4.11468H3.918H5.15629V5.11079V6.10689H4.33597H3.51175L3.52347 6.4272L3.53519 6.75142L5.80083 6.77096L8.06648 6.79049L8.19929 6.88424C8.34382 6.98971 8.47273 7.2358 8.47663 7.41159C8.47663 7.61081 8.3282 7.8569 8.14851 7.96237L7.98054 8.06003H6.74225C5.76958 8.06003 5.47661 8.07175 5.37895 8.11472C5.30864 8.14597 5.0352 8.39206 4.76567 8.6616L4.27738 9.15379L4.51176 9.38816L4.74223 9.62254L4.94926 9.41941L5.15629 9.21629V10.1225V11.0288H2.69534H0.234377V11.3608V11.6929H9.17586H18.1213L18.2306 11.5991L18.34 11.5054V6.09126V0.681061L18.2502 0.591216L18.1603 0.501371L11.8243 0.493559C6.48834 0.485746 5.4688 0.493559 5.36333 0.540434ZM17.6955 1.47794V1.80998H11.7579H5.82036V1.47794V1.14591H11.7579H17.6955V1.47794ZM17.6955 2.80608V3.13811L11.7696 3.1303L5.83989 3.11858L5.82818 2.79436L5.81646 2.47404H11.7579H17.6955V2.80608ZM6.75787 3.84906C6.75787 3.95453 6.51959 4.30609 6.34771 4.45844C6.25005 4.54437 6.0899 4.64203 5.99224 4.67719L5.82036 4.73578V4.26703V3.80218H6.28912C6.63678 3.80218 6.75787 3.8139 6.75787 3.84906ZM16.133 3.98578C16.2033 4.27093 16.3986 4.60687 16.629 4.83735C16.8791 5.08735 17.09 5.21625 17.4376 5.32954L17.6955 5.41547V7.41549V9.41941L17.5158 9.46238C16.9064 9.61863 16.3595 10.1343 16.1642 10.7476L16.0744 11.0288L11.7657 11.0171L7.4571 11.0093L7.37116 10.7554C7.15631 10.1147 6.63287 9.62254 6.00396 9.46238L5.82036 9.41941V9.07176V8.728L6.98444 8.71628C8.09773 8.70456 8.15241 8.70066 8.33992 8.61472C8.44929 8.56394 8.61336 8.45066 8.7032 8.36081C9.37508 7.71237 9.1993 6.62252 8.35945 6.22798C8.14851 6.12642 8.13288 6.12642 6.99225 6.10689L5.83989 6.08736L5.82818 5.75142L5.81646 5.41157L6.0899 5.32954C6.74615 5.13032 7.19928 4.63812 7.43756 3.86859C7.4571 3.80609 7.69929 3.80218 11.7696 3.80218H16.0861L16.133 3.98578ZM17.6955 4.26703V4.73578L17.5744 4.69281C17.258 4.58344 16.8634 4.185 16.7775 3.88812C16.754 3.80218 16.754 3.80218 17.2228 3.80218H17.6955V4.26703ZM6.10943 10.1968C6.37115 10.3296 6.75787 10.8022 6.75787 10.9897C6.75787 11.0132 6.58599 11.0288 6.28912 11.0288H5.82036V10.5561C5.82036 10.0327 5.80864 10.0444 6.10943 10.1968ZM17.6955 10.56V11.0288H17.2228C16.754 11.0288 16.754 11.0288 16.7775 10.939C16.8283 10.771 16.9884 10.5327 17.1525 10.3882C17.2931 10.2593 17.5783 10.0952 17.6681 10.0913C17.6837 10.0913 17.6955 10.3022 17.6955 10.56Z" fill="white"/>
<path d="M11.2149 5.52142C10.3711 5.77142 9.80469 6.53314 9.80469 7.41987C9.80469 8.32613 10.4102 9.09567 11.3086 9.32614C12.6875 9.68551 14.0391 8.33785 13.6758 6.96284C13.5782 6.58002 13.4102 6.28314 13.1446 6.01752C12.6446 5.51751 11.8906 5.3222 11.2149 5.52142ZM12.3242 6.22845C12.8633 6.49018 13.1602 7.07612 13.0469 7.64644C12.9883 7.95113 12.8985 8.123 12.6875 8.33394C12.4219 8.59957 12.1602 8.70504 11.7578 8.70504C11.3633 8.70504 11.1563 8.62691 10.8789 8.3691C10.1719 7.71675 10.3828 6.57611 11.2734 6.20111C11.582 6.0722 12.0313 6.08392 12.3242 6.22845Z" fill="white"/>
<path d="M18.2189 12.7243C18.1407 12.7594 18.0821 12.8258 18.0548 12.9001L18.0118 13.0211H16.3009H14.5938L13.6134 13.9938L12.6368 14.9665L9.4141 14.4001C7.64065 14.0915 6.07814 13.8337 5.93751 13.8337C5.32422 13.8219 4.86719 14.2633 4.86719 14.8766C4.86719 15.2009 4.96094 15.443 5.16797 15.6423C5.26953 15.7438 12.1485 19.7946 12.6446 20.0485C12.836 20.1462 13.129 20.1736 13.3634 20.111C13.4884 20.0798 14.379 19.6579 15.3477 19.1735L17.1095 18.2946H17.5782C18.0157 18.2946 18.047 18.2985 18.047 18.3688C18.047 18.4118 18.0939 18.4821 18.1485 18.5251C18.2462 18.6032 18.3009 18.6071 19.0196 18.6071C19.8204 18.6032 19.8634 18.5954 19.9533 18.4235C19.9884 18.361 20.0001 17.611 20.0001 15.6227V12.9079L19.9064 12.7985L19.8126 12.6891L19.0743 12.6774C18.5118 12.6735 18.3126 12.6813 18.2189 12.7243ZM19.3361 15.6384V17.9431H19.004H18.672V15.6384V13.3336H19.004H19.3361V15.6384ZM18.0079 15.6579V17.6306H17.4806H16.9532L15.0704 18.572C13.5235 19.3454 13.1641 19.5095 13.0665 19.4939C13.004 19.4821 11.3047 18.5134 9.29691 17.3415C6.66017 15.8024 5.62501 15.1813 5.57813 15.1032C5.53907 15.0446 5.50782 14.9391 5.50782 14.8688C5.50782 14.7165 5.66407 14.5212 5.81251 14.486C5.87501 14.4743 7.16799 14.6813 8.95316 14.9938C10.625 15.2829 12.0079 15.5212 12.0352 15.5212C12.0587 15.5212 11.9727 15.6344 11.8438 15.7712C11.6876 15.9391 11.5821 16.0954 11.5274 16.2438C11.2071 17.0954 11.8477 17.9821 12.754 17.9353C13.2227 17.9118 13.336 17.8337 14.3751 16.7907L15.2931 15.8727L15.0782 15.6579C14.961 15.5407 14.8477 15.443 14.8243 15.443C14.8048 15.443 14.3985 15.8298 13.9259 16.3063C13.4532 16.779 13.0196 17.1931 12.961 17.2243C12.7071 17.3571 12.3438 17.2517 12.1876 16.9977C12.1016 16.8532 12.0821 16.5837 12.1524 16.447C12.1758 16.4001 12.7969 15.7595 13.5274 15.0212L14.8634 13.6852H16.4337H18.0079V15.6579Z" fill="white"/>
</g>
<defs>
<clipPath id="clip0_8799_4925">
<rect width="20" height="20" fill="white"/>
</clipPath>
</defs>
</svg>
