<svg width="20" height="20" viewBox="0 0 20 20" fill="none" xmlns="http://www.w3.org/2000/svg">
<g clip-path="url(#clip0_8799_4893)">
<path d="M4.3327 11.8335C3.41371 11.8335 2.66602 12.5812 2.66602 13.5002C2.66602 14.4192 3.41367 15.1669 4.3327 15.1669C5.25168 15.1669 5.99937 14.4192 5.99937 13.5002C5.99937 12.5812 5.25172 11.8335 4.3327 11.8335ZM4.3327 14.5002C3.78137 14.5002 3.3327 14.0515 3.3327 13.5002C3.3327 12.9488 3.78137 12.5002 4.3327 12.5002C4.88402 12.5002 5.3327 12.9488 5.3327 13.5002C5.3327 14.0515 4.88402 14.5002 4.3327 14.5002Z" fill="white"/>
<path d="M9.49937 11.5H8.8327C8.7407 11.5 8.66602 11.5746 8.66602 11.6667V12.3334C8.66602 12.4254 8.74066 12.5 8.8327 12.5H9.49937C9.59137 12.5 9.66605 12.4254 9.66605 12.3334V11.6667C9.66605 11.5746 9.59137 11.5 9.49937 11.5Z" fill="white"/>
<path d="M11.4994 11.5H10.8327C10.7407 11.5 10.666 11.5746 10.666 11.6667V12.3334C10.666 12.4254 10.7407 12.5 10.8327 12.5H11.4994C11.5914 12.5 11.6661 12.4254 11.6661 12.3334V11.6667C11.6661 11.5746 11.5914 11.5 11.4994 11.5Z" fill="white"/>
<path d="M12.4994 10.1665H11.8327C11.7407 10.1665 11.666 10.2412 11.666 10.3332V10.9998C11.666 11.0918 11.7407 11.1665 11.8327 11.1665H12.4994C12.5914 11.1665 12.6661 11.0919 12.6661 10.9998V10.3331C12.6661 10.2412 12.5914 10.1665 12.4994 10.1665Z" fill="white"/>
<path d="M10.4994 10.1665H9.8327C9.7407 10.1665 9.66602 10.2412 9.66602 10.3332V10.9998C9.66602 11.0918 9.74066 11.1665 9.8327 11.1665H10.4994C10.5914 11.1665 10.6661 11.0919 10.6661 10.9998V10.3331C10.6661 10.2412 10.5914 10.1665 10.4994 10.1665Z" fill="white"/>
<path d="M8.49937 10.1665H7.8327C7.7407 10.1665 7.66602 10.2412 7.66602 10.3332V10.9998C7.66602 11.0918 7.74066 11.1665 7.8327 11.1665H8.49937C8.59137 11.1665 8.66605 11.0919 8.66605 10.9998V10.3331C8.66605 10.2412 8.59137 10.1665 8.49937 10.1665Z" fill="white"/>
<path d="M19.6667 11.8333V9.83325C19.6667 9.68958 19.575 9.56224 19.4387 9.51692L17.557 8.88993C16.7363 7.52325 15.581 6.67192 13.9416 6.22692L13.6566 5.0856C13.6193 4.93759 13.4863 4.83325 13.3333 4.83325H9.66664C9.51363 4.83325 9.38062 4.93759 9.34332 5.0856L9.01 6.41892C9.00965 6.41958 9.01 6.4206 9.01 6.42126C7.21832 6.82228 5.855 7.61958 4.84398 8.83626C2.62832 8.86759 0.33332 9.56392 0.33332 10.8333V11.8333C0.148984 11.8333 0 11.9826 0 12.1666V13.4999C0 13.6839 0.148984 13.8333 0.33332 13.8333H1.66664C1.85098 13.8333 1.99996 13.6839 1.99996 13.4999C1.99996 12.2133 3.04695 11.1666 4.33328 11.1666C5.61961 11.1666 6.6666 12.2133 6.6666 13.4999C6.6666 13.6839 6.81559 13.8333 6.99992 13.8333H12.9999C13.1843 13.8333 13.3332 13.6839 13.3332 13.4999C13.3332 12.2133 14.3802 11.1666 15.6666 11.1666C16.9529 11.1666 17.9999 12.2133 17.9999 13.4999C17.9999 13.6839 18.1489 13.8333 18.3332 13.8333H19.6665C19.8509 13.8333 19.9998 13.6839 19.9998 13.4999V12.1666C20 11.9826 19.851 11.8333 19.6667 11.8333ZM15.5827 7.69626C16.02 8.00524 16.398 8.37794 16.724 8.83325H15.3933L15.5827 7.69626ZM13.6113 6.8306C14.1153 6.95626 14.5653 7.11927 14.9693 7.3236L14.7177 8.83325H11.0937L11.6047 6.78825C12.215 6.76993 12.881 6.78126 13.6113 6.8306ZM9.92699 5.49993H13.073L13.234 6.14325C11.9287 6.07692 10.7647 6.12325 9.7307 6.2856L9.92699 5.49993ZM10.909 6.82294L10.4066 8.83329H5.73965C6.62434 7.94192 8.09601 7.03095 10.909 6.82294ZM19.3333 13.1666H18.648C18.4817 11.6686 17.2084 10.4999 15.6667 10.4999C14.125 10.4999 12.8517 11.6686 12.6854 13.1666H7.31465C7.14832 11.6686 5.875 10.4999 4.33332 10.4999C2.79164 10.4999 1.51832 11.6686 1.35199 13.1666H0.66668V12.4999C0.851016 12.4999 1 12.3506 1 12.1666V11.1666H1.33332C1.51766 11.1666 1.66664 11.0173 1.66664 10.8333C1.66664 10.6493 1.51766 10.5 1.33332 10.5H1.16C1.61102 10.0103 2.99102 9.49993 5 9.49993H17.2793L19 10.0736V10.4999H18.6667C18.4823 10.4999 18.3334 10.6493 18.3334 10.8333C18.3334 11.0172 18.4823 11.1666 18.6667 11.1666H19V12.1666C19 12.3506 19.149 12.4999 19.3333 12.4999V13.1666Z" fill="white"/>
<path d="M15.6667 11.8333C14.7477 11.8333 14 12.5809 14 13.4999C14 14.4189 14.7477 15.1666 15.6667 15.1666C16.5857 15.1666 17.3334 14.419 17.3334 13.4999C17.3333 12.5809 16.5857 11.8333 15.6667 11.8333ZM15.6667 14.4999C15.1154 14.4999 14.6667 14.0513 14.6667 13.4999C14.6667 12.9486 15.1154 12.4999 15.6667 12.4999C16.218 12.4999 16.6667 12.9486 16.6667 13.4999C16.6667 14.0513 16.218 14.4999 15.6667 14.4999Z" fill="white"/>
</g>
<defs>
<clipPath id="clip0_8799_4893">
<rect width="20" height="20" fill="white"/>
</clipPath>
</defs>
</svg>
