<svg width="20" height="20" viewBox="0 0 20 20" fill="none" xmlns="http://www.w3.org/2000/svg">
<path d="M18.7314 7.38079L17.4655 5.56C17.8716 5.00333 18.0952 4.35211 18.11 3.68308C18.1165 3.6507 18.1191 3.61775 18.1177 3.58485C18.1185 2.64833 17.7182 1.74877 17.0026 1.07887C16.287 0.408963 15.313 0.0220122 14.2892 0.000910442C13.2654 -0.0201914 12.2733 0.326235 11.5254 0.965971C10.7775 1.60571 10.3333 2.48787 10.288 3.42347L7.60652 4.50752C7.34302 4.61198 7.11701 4.7822 6.95437 4.99868L1.06967 12.7414C1.02863 12.7941 1.0047 12.8563 1.00062 12.9208C0.996551 12.9854 1.01251 13.0497 1.04665 13.1063C1.7124 14.2662 2.64564 15.28 3.78185 16.0778C4.90281 16.8599 6.20014 17.404 7.57967 17.6705C7.60631 17.6746 7.63323 17.6769 7.66023 17.6775C7.72626 17.6774 7.7911 17.6615 7.84831 17.6313C7.90551 17.6012 7.95309 17.5578 7.98631 17.5056L9.39418 15.3586V18.7546C9.394 18.8217 9.41487 18.8874 9.4543 18.944C9.49374 19.0006 9.55009 19.0456 9.61668 19.0738C11.0515 19.6839 12.6148 20 14.1971 20C15.7794 20 17.3427 19.6839 18.7775 19.0738C18.8444 19.046 18.901 19.0011 18.9405 18.9444C18.98 18.8877 19.0007 18.8218 19 18.7546V8.22277C19.0003 7.92441 18.9071 7.6322 18.7314 7.38079ZM14.1971 0.704566C15.0342 0.706146 15.8364 1.01144 16.4276 1.55343C17.0188 2.09543 17.3507 2.82981 17.3504 3.59537C17.3472 3.61276 17.346 3.63038 17.3466 3.648C17.3353 4.0816 17.2173 4.5073 17.0013 4.89343L16.3415 3.94269C16.1471 3.66381 15.8789 3.43431 15.5617 3.27547C15.2445 3.11664 14.8886 3.0336 14.527 3.03405H13.8326C13.5741 3.03437 13.3179 3.07838 13.0769 3.16386C12.8153 3.00626 12.515 2.9106 12.203 2.88549C11.8909 2.86038 11.5769 2.90661 11.2893 3.02002L11.0936 3.10071C11.2204 2.43141 11.601 1.82435 12.1686 1.38616C12.7361 0.94796 13.4543 0.706637 14.1971 0.704566ZM9.39418 8.35258V13.9974L7.47226 16.9268C6.30202 16.667 5.20345 16.1879 4.24603 15.52C3.25883 14.8274 2.43756 13.957 1.83307 12.9624L7.58734 5.39862C7.66838 5.28931 7.78136 5.203 7.91342 5.14954L11.6 3.66203C11.8245 3.57555 12.0741 3.55952 12.3097 3.61642C12.1859 3.72558 12.0788 3.84948 11.9913 3.98479L9.6397 7.54568C9.4804 7.78972 9.39562 8.06837 9.39418 8.35258ZM18.2327 18.5301C16.9571 19.0283 15.5843 19.2852 14.1971 19.2852C12.8099 19.2852 11.4371 19.0283 10.1614 18.5301V8.35258C10.1628 8.1954 10.2105 8.04147 10.2995 7.90703L12.6473 4.34614C12.7714 4.16027 12.9455 4.00658 13.153 3.89972C13.3605 3.79285 13.5945 3.73639 13.8326 3.73571H14.527C14.7597 3.73502 14.9888 3.78842 15.1928 3.8909C15.3968 3.99338 15.569 4.14158 15.6932 4.32159L16.5295 5.52141C16.2359 5.82099 15.8763 6.06029 15.4743 6.22356C15.0722 6.38682 14.637 6.47035 14.1971 6.46864C13.9947 6.46614 13.7931 6.44618 13.5948 6.409C13.6754 6.27294 13.7944 6.15916 13.9395 6.07956C14.0846 5.99995 14.2504 5.95743 14.4196 5.95644C14.5213 5.95644 14.6189 5.91947 14.6908 5.85368C14.7628 5.78789 14.8032 5.69865 14.8032 5.60561C14.8032 5.51256 14.7628 5.42333 14.6908 5.35754C14.6189 5.29175 14.5213 5.25478 14.4196 5.25478C13.9663 5.25478 13.5316 5.41945 13.2111 5.71255C12.8906 6.00566 12.7106 6.4032 12.7106 6.81771C12.7106 7.23223 12.8906 7.62977 13.2111 7.92287C13.5316 8.21598 13.9663 8.38064 14.4196 8.38064C14.5213 8.38064 14.6189 8.34368 14.6908 8.27789C14.7628 8.2121 14.8032 8.12286 14.8032 8.02982C14.8032 7.93677 14.7628 7.84754 14.6908 7.78175C14.6189 7.71595 14.5213 7.67899 14.4196 7.67899C14.2275 7.6788 14.04 7.62494 13.8824 7.52462C13.7247 7.4243 13.6043 7.28231 13.5373 7.11767C14.1511 7.2153 14.7816 7.17672 15.3757 7.00517C15.9698 6.83362 16.5102 6.53412 16.9515 6.13185L18.087 7.75968C18.1829 7.89814 18.2335 8.05885 18.2327 8.22277V18.5301Z" fill="white"/>
<path d="M12.4281 10.1069C12.1779 10.1076 11.9335 10.1761 11.7258 10.3038C11.5182 10.4314 11.3565 10.6124 11.2613 10.824C11.1661 11.0357 11.1415 11.2683 11.1908 11.4927C11.2401 11.717 11.361 11.923 11.5382 12.0845C11.7154 12.2461 11.9409 12.356 12.1864 12.4004C12.4319 12.4448 12.6862 12.4217 12.9173 12.3339C13.1484 12.2462 13.3459 12.0978 13.4848 11.9075C13.6237 11.7172 13.6979 11.4935 13.6979 11.2647C13.6979 11.1123 13.665 10.9615 13.6012 10.8208C13.5373 10.6801 13.4437 10.5523 13.3258 10.4448C13.2078 10.3372 13.0678 10.252 12.9138 10.1941C12.7597 10.1361 12.5947 10.1065 12.4281 10.1069ZM12.4281 11.7207C12.3297 11.72 12.2336 11.6927 12.1521 11.6422C12.0706 11.5916 12.0073 11.5202 11.9701 11.4368C11.933 11.3534 11.9236 11.2618 11.9433 11.1736C11.963 11.0853 12.0108 11.0044 12.0807 10.941C12.1506 10.8775 12.2394 10.8344 12.3361 10.8171C12.4327 10.7998 12.5328 10.809 12.6237 10.8437C12.7146 10.8783 12.7922 10.9367 12.8469 11.0117C12.9015 11.0866 12.9307 11.1746 12.9307 11.2647C12.9307 11.3249 12.9176 11.3844 12.8923 11.44C12.867 11.4956 12.83 11.546 12.7832 11.5884C12.7365 11.6308 12.6811 11.6643 12.6201 11.687C12.5592 11.7097 12.4939 11.7212 12.4281 11.7207Z" fill="white"/>
<path d="M15.9651 14.1445C15.7143 14.1442 15.4691 14.2118 15.2604 14.339C15.0517 14.4661 14.8889 14.6469 14.7926 14.8587C14.6962 15.0704 14.6708 15.3035 14.7193 15.5285C14.7679 15.7535 14.8883 15.9602 15.0653 16.1226C15.2423 16.285 15.4681 16.3958 15.7139 16.4409C15.9598 16.4859 16.2148 16.4633 16.4466 16.3759C16.6784 16.2885 16.8767 16.1401 17.0163 15.9496C17.1559 15.7592 17.2306 15.5351 17.231 15.3058C17.2308 14.9985 17.0975 14.7037 16.8603 14.4861C16.623 14.2685 16.3011 14.1456 15.9651 14.1445ZM15.9651 15.7618C15.8659 15.7622 15.7689 15.7356 15.6862 15.6854C15.6036 15.6352 15.5392 15.5638 15.501 15.48C15.4629 15.3963 15.4528 15.3041 15.4721 15.2151C15.4913 15.1262 15.5391 15.0444 15.6092 14.9803C15.6793 14.9161 15.7687 14.8725 15.866 14.8549C15.9633 14.8373 16.0641 14.8465 16.1556 14.8814C16.2472 14.9162 16.3254 14.9752 16.3802 15.0508C16.4351 15.1263 16.4642 15.2151 16.4638 15.3058C16.4638 15.4267 16.4112 15.5427 16.3177 15.6283C16.2242 15.7138 16.0974 15.7618 15.9651 15.7618Z" fill="white"/>
<path d="M16.4041 10.5872C16.3249 10.5288 16.2237 10.5014 16.1225 10.5112C16.0214 10.521 15.9286 10.5672 15.8647 10.6395L11.9349 15.0845C11.9032 15.1203 11.8796 15.1616 11.8653 15.2058C11.851 15.25 11.8464 15.2964 11.8518 15.3422C11.8571 15.3881 11.8722 15.4325 11.8963 15.473C11.9204 15.5135 11.953 15.5493 11.9923 15.5782C12.0315 15.6072 12.0766 15.6289 12.1249 15.6419C12.1733 15.655 12.224 15.6592 12.2741 15.6543C12.3242 15.6494 12.3728 15.6356 12.4171 15.6135C12.4614 15.5915 12.5005 15.5617 12.5322 15.5258L16.462 11.0808C16.4937 11.045 16.5173 11.0037 16.5315 10.9595C16.5457 10.9153 16.5503 10.8689 16.5449 10.823C16.5395 10.7772 16.5243 10.7328 16.5001 10.6923C16.476 10.6518 16.4433 10.6161 16.4041 10.5872Z" fill="white"/>
<path d="M6.73122 13.238C6.69245 13.2076 6.64741 13.1845 6.59876 13.1702C6.5501 13.1559 6.49881 13.1506 6.44789 13.1547C6.39698 13.1587 6.34746 13.172 6.30226 13.1939C6.25706 13.2157 6.21707 13.2455 6.18466 13.2817C6.15225 13.3178 6.12806 13.3595 6.11352 13.4043C6.09897 13.4491 6.09437 13.4961 6.09997 13.5426C6.10557 13.5891 6.12127 13.634 6.14614 13.6749C6.17101 13.7157 6.20455 13.7516 6.24479 13.7804L7.37033 14.6248C7.43853 14.6764 7.52428 14.7046 7.61277 14.7045C7.69188 14.7045 7.76906 14.6822 7.83375 14.6406C7.89844 14.5989 7.94748 14.54 7.97416 14.4719C8.00083 14.4038 8.00383 14.3298 7.98274 14.2601C7.96166 14.1904 7.91752 14.1283 7.85637 14.0824L6.73122 13.238Z" fill="white"/>
<path d="M4.47085 11.5504C4.39378 11.4918 4.29467 11.463 4.19472 11.4704C4.09477 11.4777 4.00194 11.5205 3.9361 11.5897C3.87025 11.6588 3.83664 11.7488 3.84244 11.8404C3.84825 11.9319 3.89301 12.0177 3.96715 12.0795L5.01865 12.9166C5.05648 12.9479 5.10076 12.9719 5.14889 12.9874C5.19703 13.0029 5.24805 13.0094 5.29898 13.0066C5.3499 13.0038 5.39971 12.9918 5.44548 12.9712C5.49125 12.9506 5.53207 12.9218 5.56555 12.8866C5.59902 12.8514 5.62448 12.8104 5.64043 12.7661C5.65638 12.7218 5.66251 12.675 5.65845 12.6285C5.65439 12.582 5.64023 12.5367 5.61679 12.4953C5.59336 12.4538 5.56112 12.4171 5.52196 12.3872L4.47085 11.5504Z" fill="white"/>
</svg>
