<svg width="31" height="30" viewBox="0 0 31 30" fill="none" xmlns="http://www.w3.org/2000/svg">
<path d="M15.5 19.4297L16.75 16.9297V10.5022C18.9012 9.94344 20.5 8.00219 20.5 5.67969C20.5 2.92219 18.2575 0.679688 15.5 0.679688C12.7425 0.679688 10.5 2.92219 10.5 5.67969C10.5 8.00219 12.0988 9.94344 14.25 10.5022V16.9297L15.5 19.4297Z" fill="#D6D6B1"/>
<path d="M20.8337 12.4309L20.1675 14.8409C23.4062 15.7359 25.5 17.4572 25.5 19.2272C25.5 21.5922 21.3937 24.2272 15.5 24.2272C9.60625 24.2272 5.5 21.5922 5.5 19.2272C5.5 17.4572 7.59375 15.7359 10.8338 14.8397L10.1675 12.4297C5.74625 13.6522 3 16.2559 3 19.2272C3 23.4322 8.49125 26.7272 15.5 26.7272C22.5087 26.7272 28 23.4322 28 19.2272C28 16.2559 25.2537 13.6522 20.8337 12.4309Z" fill="#D6D6B1"/>
</svg>
