<svg width="20" height="20" viewBox="0 0 20 20" fill="none" xmlns="http://www.w3.org/2000/svg">
<g clip-path="url(#clip0_8799_4852)">
<path d="M4.74779 0.0916877C4.23671 0.266101 3.84327 0.598703 3.61207 1.05299C3.41738 1.44238 3.3687 1.66952 3.3687 2.23738L3.3687 2.75656H3.0645C2.81302 2.75656 2.74406 2.77278 2.67916 2.83768C2.58587 2.93097 2.58182 2.9837 2.65077 3.10538C2.74406 3.26357 4.15154 4.95498 4.21238 4.97526C4.24483 4.99148 4.31378 4.98337 4.36651 4.96309C4.50847 4.9063 5.96462 3.1135 5.96462 2.99181C5.96462 2.8174 5.85105 2.75656 5.52656 2.75656H5.23452V2.46452C5.23452 1.96967 5.45355 1.67763 5.88755 1.60056C6.26883 1.53161 6.6501 1.80337 6.73934 2.21709C6.76773 2.34689 6.81641 2.4848 6.84886 2.5213C6.92998 2.61459 7.07194 2.61459 7.15306 2.5213C7.25852 2.40773 7.25041 1.67357 7.1409 1.32475C6.99082 0.838014 6.62982 0.412121 6.16743 0.180923C5.76993 -0.0218835 5.18585 -0.0583887 4.74779 0.0916877ZM5.64419 0.501356C6.02141 0.586535 6.41079 0.870463 6.57304 1.17062C6.62577 1.27202 6.62982 1.27202 6.41079 1.19495C5.81049 0.984034 5.12095 1.28013 4.85324 1.86016C4.7924 2.00212 4.76807 2.15625 4.7559 2.50508C4.74779 2.7525 4.74779 3.00398 4.76401 3.05266C4.78835 3.15811 4.93842 3.24329 5.09256 3.24329C5.14934 3.24329 5.19396 3.25141 5.19396 3.26357C5.19396 3.27574 4.99115 3.53128 4.74373 3.83143L4.2935 4.37901L3.83516 3.82332L3.37276 3.26357L3.53501 3.23924C3.82299 3.19868 3.8311 3.17434 3.85544 2.3185C3.87978 1.56812 3.87978 1.55595 4.00552 1.31664C4.13937 1.05704 4.43952 0.744723 4.67072 0.62304C4.82485 0.545973 5.15745 0.452682 5.31564 0.448627C5.37243 0.448627 5.51845 0.468907 5.64419 0.501356Z" fill="white"/>
<path d="M8.21234 2.03499C8.13933 2.108 7.78239 2.53794 7.40923 2.99223C6.97522 3.52358 6.73591 3.84807 6.73591 3.90891C6.73591 4.07116 6.85354 4.132 7.18209 4.14417L7.48629 4.15634L7.47818 4.45649C7.46601 4.82154 7.38084 5.00407 7.14558 5.17037C6.99956 5.27583 6.93466 5.29205 6.71969 5.29205C6.50877 5.29205 6.43576 5.27177 6.2938 5.17848C6.11533 5.06085 5.98959 4.84182 5.94497 4.57412C5.91658 4.39565 5.8314 4.2983 5.70566 4.2983C5.52313 4.2983 5.47852 4.41187 5.47852 4.84993C5.47852 5.49891 5.64076 5.94508 6.00987 6.3223C6.39925 6.72792 6.88193 6.9145 7.47818 6.8861C7.80673 6.87394 7.89191 6.85366 8.16367 6.72386C8.52872 6.54945 8.80048 6.31825 9.01545 5.98565C9.26288 5.60437 9.33183 5.31639 9.33183 4.67958V4.13606H9.65226C9.94025 4.13606 9.98486 4.12794 10.0376 4.04682C10.0741 3.99815 10.1025 3.92514 10.1025 3.88863C10.1025 3.85213 9.74961 3.39379 9.31966 2.8746C8.45165 1.82001 8.43137 1.80379 8.21234 2.03499ZM8.8816 3.08146L9.33589 3.62904L9.16553 3.65743C8.88566 3.70611 8.88566 3.71016 8.88566 4.39565C8.88566 5.07302 8.83293 5.37317 8.65446 5.67332C8.42731 6.06271 7.97709 6.36692 7.54714 6.42776C7.31594 6.46021 6.94683 6.39126 6.72374 6.27769C6.52905 6.18034 6.25323 5.92886 6.15589 5.76256C6.07071 5.61654 6.06665 5.6206 6.28974 5.69766C6.51688 5.77878 6.91844 5.77473 7.16586 5.68955C7.44979 5.5922 7.7905 5.24338 7.88379 4.95134C7.96897 4.68363 7.98114 3.86835 7.90408 3.75884C7.87568 3.71828 7.77022 3.67366 7.67693 3.65743L7.49846 3.62904L7.9568 3.07335C8.20828 2.76509 8.4192 2.51766 8.42326 2.52578C8.42731 2.52983 8.63418 2.78131 8.8816 3.08146Z" fill="white"/>
<path d="M10.1961 6.2084C9.95278 6.27735 9.82298 6.58562 9.81893 7.10886C9.81893 7.57531 9.90816 7.92819 10.3097 8.98278L10.403 9.23021L9.41331 10.4754C8.86979 11.1569 8.41956 11.7166 8.41551 11.7085C8.41145 11.7044 8.20865 11.4489 7.96122 11.1406L7.51505 10.5768L7.65296 10.2361C7.90849 9.60743 8.00178 9.2221 8.00584 8.80026C8.01395 8.3622 7.95717 8.15128 7.80303 8.0296C7.62051 7.88763 7.41365 7.92008 6.99992 8.15534C6.46046 8.45955 6.29416 8.52444 6.04673 8.53255C5.77903 8.53661 5.6614 8.49199 5.13005 8.18373C4.65143 7.90791 4.52975 7.87546 4.331 7.96875C4.11197 8.07016 4.03895 8.28108 4.04301 8.77998C4.04707 9.23426 4.10385 9.48574 4.35128 10.1509C4.46079 10.447 4.50135 10.6012 4.47702 10.6377C4.45268 10.662 4.06329 11.1609 3.60901 11.7409C2.02306 13.769 1.45521 14.6411 1.12666 15.5861C1.00092 15.9431 0.996865 15.9836 1.00092 16.5272C1.00498 16.9652 1.02526 17.168 1.09421 17.4155C1.56067 19.1555 3.1101 19.9546 6.00617 19.9546C6.9553 19.9546 7.70569 19.8735 8.35467 19.7031C8.61426 19.6382 8.85357 19.5814 8.88602 19.5814C8.91847 19.5774 9.12127 19.626 9.33625 19.6828C10.0947 19.8856 11.486 20.0276 11.6239 19.914C11.701 19.8491 11.705 19.6139 11.628 19.553C11.5996 19.5287 11.3278 19.4881 11.0317 19.4679C10.2083 19.403 9.41737 19.261 9.11316 19.1231C9.04421 19.0947 8.85763 19.0136 8.69538 18.9446C7.69352 18.5268 7.0851 17.817 6.88229 16.8192C6.79306 16.3933 6.789 15.6673 6.87418 15.3468C7.02832 14.7587 7.35686 14.1138 7.96122 13.2214C8.58587 12.2966 8.77245 12.0411 9.49038 11.1325C10.7113 9.58715 10.764 9.53036 10.8086 9.56687C10.91 9.65204 11.4819 9.81023 11.7659 9.83457C12.1269 9.86702 12.6744 9.7859 13.0922 9.63582C13.2423 9.57903 13.3802 9.54659 13.3924 9.56281C13.5262 9.71289 15.2095 11.8626 15.4975 12.252C16.3939 13.4486 16.9942 14.4748 17.2376 15.2292C17.3268 15.5091 17.3755 15.6064 17.4566 15.651C17.5458 15.7038 17.5702 15.7038 17.6635 15.6429C17.7973 15.5537 17.8014 15.4361 17.6675 15.0264C17.3106 13.9394 16.544 12.7671 14.5321 10.2402C14.1062 9.70477 13.7534 9.24238 13.7534 9.20993C13.7534 9.17748 13.8264 8.96656 13.9116 8.74347C14.3821 7.53881 14.447 6.68702 14.0941 6.33414C13.8832 6.12322 13.6885 6.15567 13.0922 6.50044C12.5406 6.82493 12.354 6.89388 12.066 6.89388C11.7943 6.89388 11.5509 6.80465 11.1128 6.541C10.5287 6.19217 10.4152 6.14756 10.1961 6.2084ZM10.8654 6.94256C11.4292 7.27921 11.6482 7.35628 12.0701 7.35628C12.5 7.35628 12.6704 7.29544 13.291 6.93039C13.5141 6.80059 13.7169 6.69108 13.7412 6.69108C13.8101 6.69108 13.8345 6.79654 13.8345 7.11697C13.8345 7.48608 13.7006 8.02148 13.4573 8.61773L13.2747 9.06391L12.8813 9.19776C12.208 9.42896 11.6117 9.42085 11.0844 9.17748C10.833 9.05985 10.7802 8.9625 10.5004 8.131C10.3665 7.73756 10.33 7.57125 10.3138 7.25082C10.3057 7.03585 10.3057 6.81276 10.3219 6.75597C10.3543 6.63023 10.3341 6.62618 10.8654 6.94256ZM4.95564 8.63396C5.78714 9.12881 6.24548 9.12881 7.10133 8.63396C7.30413 8.51633 7.4826 8.43926 7.51099 8.45549C7.54344 8.47983 7.55155 8.58934 7.53533 8.83676C7.51505 9.20587 7.36092 9.75345 7.14189 10.2402L7.02426 10.4998L6.6876 10.6093C6.09135 10.804 5.44237 10.7594 5.06921 10.4998C4.94753 10.4146 4.67577 9.76156 4.57031 9.29916C4.47702 8.88138 4.48513 8.35814 4.58247 8.41087C4.59464 8.41898 4.765 8.51633 4.95564 8.63396ZM4.97592 10.9865C5.05298 11.0555 5.38559 11.1569 5.6614 11.1893C6.01429 11.2299 6.44018 11.1812 6.86607 11.0473C7.13783 10.9622 7.20273 10.9541 7.24329 10.9987C7.37714 11.1488 8.11536 12.0857 8.11536 12.106C8.11536 12.1222 7.95311 12.3656 7.75436 12.6455C7.06076 13.6352 6.63487 14.4261 6.42395 15.1156C6.32661 15.4361 6.31444 15.5334 6.31849 16.0607C6.31849 16.5556 6.33877 16.7097 6.42395 17.0464C6.66326 17.959 7.11755 18.5877 7.90444 19.0947C8.04235 19.1839 8.14375 19.2691 8.12347 19.2813C8.04235 19.3299 7.30413 19.4314 6.71194 19.4719C5.98184 19.5206 4.92319 19.476 4.26204 19.3624C3.77936 19.2813 3.10199 19.0622 2.76939 18.8757C2.4449 18.6931 2.0109 18.2835 1.84054 17.9995C1.6134 17.6183 1.49577 17.1964 1.47143 16.6651C1.44709 16.0526 1.51605 15.7565 1.84459 15.1116C2.28266 14.2436 2.94786 13.3147 4.69605 11.1204C4.83395 10.95 4.89885 10.9176 4.97592 10.9865Z" fill="white"/>
<path d="M13.3262 14.8439C12.7583 14.925 12.3081 15.0913 12.0769 15.3063C11.8498 15.5172 11.8457 15.5456 11.8457 17.3465C11.8457 18.3605 11.8619 19.0582 11.8863 19.1515C11.9796 19.476 12.3365 19.7234 12.9327 19.8613C13.3627 19.9627 14.5917 19.9627 14.9486 19.8654C15.1717 19.8045 15.2123 19.8045 15.4151 19.8613C15.5489 19.8978 15.8856 19.9303 16.2669 19.9424C16.9848 19.9668 17.4837 19.8897 17.9258 19.691C18.1814 19.5733 18.4369 19.3381 18.4775 19.1758C18.4896 19.1231 18.4977 18.535 18.4896 17.8616L18.4775 16.6407L18.372 16.5028C18.1205 16.1743 17.5202 15.9837 16.6441 15.9512L16.0641 15.9269V15.8092C16.0641 15.3955 15.6585 15.071 14.9284 14.9047C14.5795 14.8277 13.6872 14.7912 13.3262 14.8439ZM14.9486 15.3915C15.3502 15.505 15.5895 15.6511 15.5489 15.7606C15.5165 15.8458 15.1717 16.0121 14.8797 16.081C14.0725 16.2757 12.8232 16.15 12.4298 15.8376C12.3284 15.7565 12.3203 15.7362 12.373 15.6754C12.4825 15.5415 12.9003 15.3834 13.3262 15.3185C13.5979 15.2738 14.7053 15.3266 14.9486 15.3915ZM12.8922 16.5515C13.5858 16.734 14.7621 16.6854 15.3461 16.4461L15.5854 16.3487L15.5692 16.5961C15.553 16.7989 15.5327 16.8598 15.4435 16.9368C15.1636 17.1762 14.5268 17.2978 13.7196 17.2654C13.1396 17.2411 12.8597 17.1843 12.5434 17.0261L12.3527 16.9328L12.3405 16.6367L12.3284 16.3406L12.4541 16.4055C12.5231 16.442 12.7218 16.5069 12.8922 16.5515ZM17.5324 16.5434C17.6825 16.5921 17.8569 16.6732 17.9177 16.7259C18.0151 16.8111 18.0232 16.8314 17.9704 16.8922C17.8974 16.9774 17.7271 17.0666 17.4918 17.1356C17.2403 17.2127 16.5833 17.2857 16.3074 17.2694L16.0843 17.2573L16.0722 16.8354L16.06 16.4177L16.6603 16.4339C17.1227 16.4501 17.3215 16.4744 17.5324 16.5434ZM15.5692 17.6832C15.5571 17.8454 15.5246 17.9509 15.4719 18.0117C15.2772 18.2307 14.6566 18.3768 13.9143 18.3768C13.3302 18.3768 12.9003 18.2997 12.5758 18.1375L12.3527 18.0279L12.3405 17.7481C12.3324 17.5209 12.3405 17.4723 12.3852 17.4925C13.2572 17.8251 14.5106 17.8495 15.2975 17.5453C15.4394 17.4925 15.5652 17.4439 15.5733 17.4439C15.5814 17.4398 15.5773 17.5493 15.5692 17.6832ZM18.0029 17.7521L17.9907 18.0279L17.7676 18.1415C17.4269 18.3078 16.8631 18.397 16.2182 18.3768L16.0641 18.3727V18.0726V17.7765L16.5833 17.7521C17.0862 17.7318 17.5729 17.6467 17.8244 17.5372C17.8934 17.5088 17.9664 17.4844 17.9826 17.4804C17.9988 17.4804 18.011 17.6021 18.0029 17.7521ZM15.5287 19.0906C15.4475 19.188 14.9973 19.3786 14.7174 19.4314C14.3848 19.4963 13.5209 19.4963 13.1883 19.4314C12.8516 19.3665 12.5312 19.2448 12.4217 19.1434C12.3487 19.0744 12.3324 19.0136 12.3324 18.8148C12.3324 18.6323 12.3446 18.5755 12.3852 18.5917C13.1883 18.9243 14.4538 18.9487 15.2975 18.6485L15.5571 18.5552L15.5692 18.7905C15.5773 18.9446 15.5611 19.0501 15.5287 19.0906ZM18.011 18.8392C18.011 19.0947 18.0069 19.1069 17.8812 19.1839C17.5446 19.3908 16.7171 19.5368 16.1574 19.4841L15.8613 19.4598L15.9424 19.3462C15.987 19.2813 16.0357 19.1474 16.0478 19.046L16.0762 18.8594H16.4332C16.8996 18.8594 17.3336 18.7986 17.6743 18.681C17.8244 18.6282 17.9623 18.5836 17.9826 18.5796C17.9988 18.5796 18.011 18.6931 18.011 18.8392Z" fill="white"/>
</g>
<defs>
<clipPath id="clip0_8799_4852">
<rect width="20" height="20" fill="white"/>
</clipPath>
</defs>
</svg>
