<svg xmlns="http://www.w3.org/2000/svg" width="30" height="30" viewBox="0 0 30 30" fill="none">
<path d="M27.25 21.25V19.375C27.1523 18.5151 26.7416 17.7213 26.096 17.1449C25.4505 16.5686 24.6154 16.25 23.75 16.25C22.8846 16.25 22.0495 16.5686 21.404 17.1449C20.7584 17.7213 20.3477 18.5151 20.25 19.375V21.25C19.8608 21.2763 19.4944 21.4428 19.2186 21.7186C18.9428 21.9944 18.7763 22.3608 18.75 22.75V27.125C18.7517 27.5343 18.9066 27.9282 19.1842 28.229C19.4619 28.5297 19.8421 28.7156 20.25 28.75H27.125C27.5343 28.7483 27.9282 28.5934 28.229 28.3158C28.5297 28.0381 28.7156 27.6579 28.75 27.25V22.875C28.7483 22.4657 28.5934 22.0718 28.3158 21.771C28.0381 21.4703 27.6579 21.2844 27.25 21.25ZM21.875 19.375C21.8867 19.1435 21.945 18.9168 22.0466 18.7084C22.1481 18.5001 22.2908 18.3144 22.4659 18.1626C22.6411 18.0108 22.8451 17.896 23.0658 17.8251C23.2865 17.7542 23.5192 17.7286 23.75 17.75C23.9808 17.7286 24.2135 17.7542 24.4342 17.8251C24.6549 17.896 24.8589 18.0108 25.0341 18.1626C25.2092 18.3144 25.3519 18.5001 25.4534 18.7084C25.555 18.9168 25.6133 19.1435 25.625 19.375V21.25H21.875V19.375Z" fill="#52DC88"/>
<path d="M30 13.75V2.5C30 1.83696 29.7366 1.20107 29.2678 0.732233C28.7989 0.263392 28.163 0 27.5 0L2.5 0C1.83696 0 1.20107 0.263392 0.732233 0.732233C0.263392 1.20107 0 1.83696 0 2.5L0 25C0 25.663 0.263392 26.2989 0.732233 26.7678C1.20107 27.2366 1.83696 27.5 2.5 27.5H16.25V25H2.5V2.5H27.5V13.75" fill="black"/>
<path d="M7.5 5H5V7.5H7.5V5ZM25 5H10V7.5H25V5ZM16.25 20H10V22.5H16.25V20ZM7.5 20H5V22.5H7.5V20ZM12.5 10H10V12.5H12.5V10ZM25 10H15V12.5H25V10ZM18.51 15H15V17.5H17.75V16.875C17.7632 16.1776 18.0339 15.5097 18.51 15ZM12.5 15H10V17.5H12.5V15Z" fill="black"/>
<script xmlns=""/></svg>