<svg width="34" height="36" viewBox="0 0 34 36" fill="none" xmlns="http://www.w3.org/2000/svg">
<path fill-rule="evenodd" clip-rule="evenodd" d="M5.8361 0.0832733C4.16861 0.449048 2.82259 1.75108 2.39484 3.41198C2.26199 3.92778 2.25795 4.32494 2.25795 16.7944V29.6454L1.40075 30.0652C0.53349 30.49 0.110488 30.8294 0.0246121 31.1694C0.00229295 31.2575 -0.00642209 32.2162 0.00505635 33.2999C0.025675 35.2353 0.0289343 35.2742 0.191404 35.5005C0.282381 35.6271 0.480916 35.7936 0.632544 35.8705C0.90498 36.0085 1.061 36.0099 13.717 35.992C26.3991 35.9741 26.5276 35.9724 26.7194 35.8331C26.8261 35.7557 26.9775 35.5636 27.056 35.4063C27.1888 35.1403 27.1988 34.9833 27.1988 33.1686C27.1988 31.021 27.1942 30.9949 26.7556 30.6187C26.6249 30.5065 26.161 30.2417 25.7246 30.0302L24.9314 29.6458V21.6696V13.6934L25.3034 13.8898C26.1716 14.348 26.945 15.3909 27.1221 16.3419C27.1723 16.6115 27.1988 18.3988 27.1988 21.5113C27.1988 26.6452 27.2 26.6636 27.5805 27.4077C27.9599 28.1495 28.7928 28.8438 29.5959 29.0874C30.1255 29.2481 31.074 29.2481 31.6036 29.0874C32.4067 28.8438 33.2396 28.1495 33.619 27.4077C34.0152 26.6332 34.0009 27.0058 33.9997 17.4698L33.9985 8.67089L33.8402 8.38942C33.6911 8.1242 33.5385 8.03589 31.202 6.86207C28.9897 5.75061 28.6838 5.61578 28.3666 5.61304C27.7226 5.60734 27.2696 6.05643 27.2696 6.70058C27.2696 7.34002 27.4974 7.56836 28.7377 8.17219C29.5812 8.58286 29.5915 8.59074 29.526 8.77743C29.4217 9.07467 29.5746 9.80622 29.862 10.3849C30.1635 10.9921 30.7598 11.6219 31.3423 11.9484L31.7335 12.1676V19.1051C31.7335 25.9781 31.7321 26.0454 31.5867 26.3437C31.1882 27.1613 30.0113 27.1613 29.6128 26.3437C29.4688 26.0482 29.4661 25.953 29.4649 21.1918C29.4638 17.2109 29.4451 16.2527 29.36 15.8485C28.9528 13.912 27.3739 12.1512 25.4448 11.4819L24.9668 11.3161L24.9314 7.42502L24.896 3.534L24.7062 3.01785C24.2054 1.65636 23.1625 0.630247 21.8138 0.172078L21.3533 0.0155789L13.8072 0.00277185C7.76569 -0.00743157 6.17649 0.00861243 5.8361 0.0832733ZM21.1761 2.35624C21.6567 2.52281 22.1154 2.94284 22.3806 3.45913L22.6286 3.942L22.6641 17.3543C22.6921 27.9794 22.7181 30.7989 22.789 30.922C22.9259 31.1597 23.2619 31.3827 24.1343 31.8152L24.9314 32.2103V32.9837V33.7572H13.5947H2.25795V32.9837V32.2103L3.05506 31.8152C3.92749 31.3827 4.26349 31.1597 4.40038 30.922C4.47123 30.7989 4.49724 27.9808 4.52529 17.3614L4.56072 3.95621L4.7577 3.55785C5.06783 2.93066 5.70587 2.44132 6.39189 2.30466C6.88752 2.20587 20.8832 2.2547 21.1761 2.35624ZM7.46222 5.70824C7.17696 5.83244 6.87923 6.19182 6.82793 6.47392C6.80518 6.59862 6.79597 8.82782 6.80738 11.4277C6.82771 16.0761 6.83048 16.1581 6.97417 16.3491C7.05452 16.456 7.20827 16.6087 7.3159 16.6885C7.50997 16.8324 7.56134 16.8336 13.5947 16.8336C19.628 16.8336 19.6794 16.8324 19.8735 16.6885C19.9811 16.6087 20.1348 16.456 20.2152 16.3491C20.3595 16.1572 20.3613 16.0942 20.3613 11.2393C20.3613 6.38448 20.3595 6.3215 20.2152 6.12954C20.1348 6.02265 19.9811 5.86995 19.8735 5.79015C19.6799 5.6466 19.6151 5.64491 13.6781 5.62957C8.79839 5.61705 7.63801 5.63168 7.46222 5.70824ZM18.1294 11.2393V14.617H13.5947H9.05999V11.2393V7.86166H13.5947H18.1294V11.2393Z" fill="#15744e"/>
</svg>
