<svg width="18" height="18" viewBox="0 0 18 18" fill="none" xmlns="http://www.w3.org/2000/svg">
<path fill-rule="evenodd" clip-rule="evenodd" d="M5.29259 0.0500443C4.85575 0.147687 4.52743 0.308021 4.16807 0.59919C3.26358 1.33209 2.95711 2.5789 3.41486 3.66334C3.47006 3.79414 3.56403 3.97216 3.6237 4.0589L3.73218 4.21667H2.56065C1.61883 4.21667 1.34835 4.22728 1.18122 4.27085C0.652729 4.40858 0.195542 4.86637 0.0576834 5.3959C-0.02033 5.69561 -0.0188189 7.00976 0.059827 7.27807C0.183208 7.69881 0.516627 8.09915 0.884238 8.26789L1.05808 8.34767V12.4807C1.05808 17.0538 1.0475 16.8334 1.28527 17.2235C1.42794 17.4576 1.60934 17.6375 1.8503 17.7838C2.22842 18.0134 1.77819 17.9998 8.99998 17.9998C16.2545 17.9998 15.7681 18.0152 16.166 17.7725C16.4 17.6297 16.5798 17.4482 16.726 17.2071C16.9507 16.8367 16.9419 17.0297 16.9419 12.4807V8.34767L17.1157 8.26789C17.4833 8.09915 17.8168 7.69881 17.9401 7.27807C18.019 7.00905 18.0203 5.69561 17.942 5.3947C17.8421 5.0111 17.5767 4.66142 17.2203 4.44398C16.8742 4.23287 16.7473 4.21667 15.4393 4.21667H14.2678L14.3763 4.0589C14.8845 3.31985 14.9329 2.21526 14.4926 1.40378C14.156 0.783258 13.5829 0.309603 12.9182 0.102434C12.5679 -0.00677601 11.9883 -0.0306152 11.5986 0.0481456C11.1452 0.139775 10.7836 0.325742 10.4585 0.634421C10.3083 0.777175 10.1059 1.01166 10.0088 1.15554C9.80338 1.45986 9.47305 2.13837 9.20749 2.80143C9.10488 3.05765 9.01151 3.26732 8.99998 3.26732C8.98845 3.26732 8.89508 3.05765 8.79247 2.80143C8.52691 2.13837 8.19658 1.45986 7.99118 1.15554C7.46779 0.379996 6.74262 -0.0076902 5.82997 0.000115553C5.65036 0.00166264 5.40856 0.0241306 5.29259 0.0500443ZM6.17203 1.09046C6.72473 1.19271 7.02663 1.49998 7.45272 2.39409C7.62456 2.75474 8.19173 4.13091 8.19173 4.18727C8.19173 4.22943 5.86441 4.22317 5.59129 4.18027C4.74825 4.04789 4.16059 3.24179 4.29131 2.39708C4.42836 1.51151 5.27358 0.924289 6.17203 1.09046ZM12.649 1.14165C13.0303 1.25494 13.429 1.61622 13.6003 2.0037C14.0081 2.92608 13.4073 4.02346 12.4087 4.18027C12.1356 4.22317 9.80823 4.22943 9.80823 4.18727C9.80823 4.13091 10.3754 2.75474 10.5472 2.39409C10.9638 1.51995 11.246 1.22256 11.7761 1.099C12.0009 1.04661 12.3938 1.06581 12.649 1.14165ZM6.89151 6.32696V7.38243L4.15307 7.373C1.44948 7.36369 1.41339 7.36267 1.3176 7.29108C1.08827 7.11974 1.07667 7.07997 1.06444 6.42137C1.05144 5.71998 1.06356 5.62863 1.18951 5.47884C1.36806 5.26654 1.25368 5.27438 4.19443 5.27287L6.89151 5.2715V6.32696ZM10.0542 11.1082V16.945H8.99998H7.94575V11.1082V5.2715H8.99998H10.0542V11.1082ZM16.6824 5.36158C16.9191 5.53841 16.9243 5.55929 16.9243 6.32633C16.9243 7.09337 16.9191 7.11425 16.6824 7.29108C16.5866 7.36267 16.5505 7.36369 13.8469 7.373L11.1084 7.38243V6.32633V5.27023L13.8469 5.27965C16.5505 5.28897 16.5866 5.28999 16.6824 5.36158ZM6.89151 12.6913V16.9465L4.68019 16.937C2.50913 16.9276 2.46707 16.9261 2.37183 16.8549C2.31845 16.815 2.2422 16.7387 2.20235 16.6853C2.13027 16.5887 2.12985 16.5669 2.12068 12.5121L2.11144 8.43599H4.50149H6.89151V12.6913ZM15.8793 12.5121C15.8701 16.5669 15.8697 16.5887 15.7976 16.6853C15.7578 16.7387 15.6815 16.815 15.6281 16.8549C15.5329 16.9261 15.4908 16.9276 13.3198 16.937L11.1084 16.9465V12.6913V8.43599H13.4985H15.8885L15.8793 12.5121Z" fill="#334C85"/>
</svg>
