<svg width="176" height="59" viewBox="0 0 176 59" fill="none" xmlns="http://www.w3.org/2000/svg">
<g clip-path="url(#clip0_2507_114)">
<path d="M41.7001 0.149427C37.9872 0.464886 34.5687 1.46107 30.954 3.2874C28.157 4.69866 26.0797 6.17634 23.937 8.26832C19.9297 12.1866 17.2636 16.6861 15.8243 21.916C15.4644 23.2111 15.4317 23.1779 16.9856 22.8624L17.8688 22.6798L18.3268 21.2519C19.6026 17.3502 21.778 13.8469 24.9021 10.6592C30.4796 4.99752 37.4802 2.20821 45.4294 2.50706C56.9607 2.92214 66.7418 10.3437 70.1767 21.3017C70.4874 22.2979 70.8309 23.6261 70.9454 24.2405L71.1417 25.3695H73.4152L73.3171 24.7386C71.7632 15.4242 66.0548 7.53779 57.7948 3.2874C54.2946 1.49427 50.7943 0.498092 46.6561 0.149427C44.4807 -0.0498091 44.1209 -0.0498091 41.7001 0.149427Z" fill="#405FF2"/>
<path d="M42.2469 6.43972C42.0837 6.54867 42.1816 7.56027 42.7038 11.3733C43.0628 14.0034 43.3566 16.3535 43.3566 16.5714C43.3566 17.225 43.5687 17.3807 44.5153 17.4118L45.3802 17.4429L45.6087 15.8866C45.7229 15.0306 46.082 12.5872 46.392 10.455C46.7021 8.32287 46.9143 6.5331 46.849 6.48641C46.7021 6.33078 42.4753 6.28409 42.2469 6.43972Z" fill="#405FF2"/>
<path d="M33.7375 8.74384C32.7721 9.2845 31.8233 9.86119 31.6235 10.0414L31.2407 10.3478L32.589 12.4203C33.338 13.5556 34.653 15.538 35.5352 16.7996C36.8668 18.7459 37.183 19.1064 37.466 19.0162C37.6657 18.9622 38.0486 18.9081 38.3149 18.9081C39.3968 18.8901 39.4135 18.9622 37.4993 13.3934C36.5172 10.528 35.6517 8.09505 35.6017 7.9689C35.5185 7.82473 34.9359 8.07703 33.7375 8.74384Z" fill="#405FF2"/>
<path d="M53.364 8.78247C53.1886 9.31999 52.3439 11.6044 51.515 13.9056C50.6703 16.1901 49.9849 18.1553 49.9849 18.2897C49.9849 18.4241 50.3515 18.6089 50.9412 18.7768L51.9135 19.0288L54.8463 14.6615C56.4721 12.2763 57.795 10.2606 57.795 10.1766C57.795 9.97508 55.1651 8.42973 54.0812 7.993C53.7306 7.84182 53.6827 7.90901 53.364 8.78247Z" fill="#405FF2"/>
<path d="M62.1234 14.6568C61.8671 14.8791 60.0545 16.3798 58.132 18.0103C56.1912 19.6222 54.6349 20.9561 54.6715 20.9932C54.818 21.1229 57.894 22.1975 58.132 22.1975C58.3334 22.1975 65.3093 18.6402 65.6022 18.3808C65.6755 18.3067 64.3206 15.9908 63.5699 14.9532C62.984 14.1195 62.7826 14.0824 62.1234 14.6568Z" fill="#405FF2"/>
<path d="M26.0369 14.5933C25.7046 15.0123 24.3577 17.1645 23.833 18.1168L23.4307 18.8216L26.859 20.6119L28.7831 20.2881C32.6312 19.6215 32.9286 19.5644 32.7712 19.412C32.4913 19.1453 26.4042 14.2695 26.3517 14.2695C26.3343 14.2695 26.1768 14.4219 26.0369 14.5933Z" fill="#405FF2"/>
<path d="M38.7981 20.7933C36.5241 21.0343 31.6512 21.8698 28.1753 22.6411C21.2071 24.1836 18.9493 24.6656 16.0581 25.1798C14.4013 25.4851 12.8583 25.7261 12.6309 25.7261C11.77 25.7101 8.83006 27.0116 7.09207 28.2006C6.05253 28.8915 5.45155 29.0522 4.60692 28.9076C3.74605 28.7469 2.70651 27.6222 2.34917 26.4492C2.23547 26.1118 2.26795 26.1118 2.77148 26.2564C3.45368 26.4492 6.26369 26.4492 6.37739 26.2564C6.44236 26.176 5.07796 25.6619 3.37247 25.1156C-0.542056 23.8622 -0.542057 23.8622 0.854827 26.8188C1.4883 28.1363 1.53703 28.3131 1.34211 28.6666C0.253842 30.5787 -0.152229 32.8603 0.416271 33.8083C0.676156 34.2422 0.676156 34.3386 0.400028 35.4312C-0.0385287 37.2148 -0.135986 39.2554 0.205114 40.1231C0.724884 41.4567 2.98264 43.2724 5.15918 44.0919L5.98756 44.3972L6.05253 44.0276C6.10126 43.8348 6.16623 42.951 6.21496 42.0673C6.36115 39.6089 6.75097 37.5522 7.28699 36.4596C8.26156 34.4671 10.4219 32.3622 12.5822 31.3017C14.9536 30.1448 17.5687 29.7431 24.5044 29.47C27.2982 29.3575 28.0616 29.3736 28.3215 29.5343C28.5001 29.6467 30.1894 31.2214 32.0573 33.0371L35.4683 36.331L35.0622 36.7649C34.8348 37.0059 34.38 37.4076 34.0552 37.6486L33.4542 38.0824L31.7324 37.8736L29.9945 37.6647L29.361 36.9416C28.6138 36.1061 26.1449 34.0333 26.0312 34.1458C25.9987 34.194 26.2261 34.6117 26.551 35.0938C28.0291 37.2469 28.3377 38.693 27.7692 40.7497C27.5743 41.4407 27.2007 42.4369 26.9408 42.951C26.6647 43.4813 26.4535 43.9473 26.4535 43.9955C26.4535 44.0437 34.8836 44.0758 45.1978 44.0758H63.9257L63.7146 43.1439C63.2273 41.0872 63.5034 38.4841 64.5755 35.2705C65.1277 33.5513 65.2089 33.4227 65.8749 32.9728C67.0119 32.2015 69.4808 31.0929 70.8777 30.7233C72.3883 30.3377 73.574 30.3859 75.1983 30.9161C78.9341 32.1212 81.8091 34.7885 82.4751 37.6647C82.7349 38.7573 82.6862 40.7979 82.3451 42.3887C82.1827 43.176 82.069 43.8669 82.1015 43.8991C82.134 43.9312 83.9207 43.8669 86.081 43.7544L89.9955 43.5456L90.1579 43.1278C90.5802 42.1316 90.4178 41.5853 88.9722 38.9983L88.5986 38.3235L89.1833 37.6807C89.9792 36.8131 90.4503 35.8651 90.564 34.9331C90.6452 34.194 90.629 34.1618 89.9468 33.6155C86.1947 30.5626 80.0711 28.3131 74.8572 28.056C71.6736 27.9114 69.7082 28.5702 63.276 31.9605C59.4752 33.969 60.531 33.8244 53.2542 33.2299C50.5254 33.0049 45.0028 32.6193 40.9746 32.3622C32.6745 31.8159 33.4704 31.9927 31.0827 30.1609C29.3772 28.8594 28.9712 28.4256 29.2473 28.2006C29.6209 27.9114 33.9577 25.5976 34.1526 25.5976C34.2501 25.5976 34.9485 26.3207 35.6957 27.1883L37.0601 28.763L38.1321 28.8755C41.3482 29.1647 53.0268 29.952 54.6348 29.9842C55.6581 30.0002 56.5028 30.0484 56.5028 30.0806C56.5028 30.1127 56.2429 30.4983 55.9343 30.9161C55.2683 31.848 55.447 31.9284 56.7464 31.3178C58.0296 30.7394 59.0691 29.1647 58.8742 28.1203C58.7443 27.3972 57.9321 26.6099 57.1038 26.3849C55.9018 26.0636 55.1221 26.6902 55.2683 27.8792C55.317 28.297 55.2683 28.4898 55.1384 28.4898C55.0247 28.4898 51.1101 28.1685 46.416 27.7668C41.738 27.3651 37.856 27.0437 37.8073 27.0437C37.7585 27.0437 37.4499 26.6581 37.1251 26.1921C36.8002 25.7422 36.2155 24.8906 35.8094 24.3122C35.4033 23.7337 35.0622 23.2195 35.0622 23.1713C35.0622 23.0588 37.32 22.625 39.1717 22.384C41.0721 22.143 45.1978 22.1912 47.2768 22.4804C49.5671 22.7857 52.6207 23.573 55.7718 24.6335C58.322 25.4851 63.3248 27.5258 63.3248 27.7025C63.3248 27.9757 61.9279 28.3292 60.9208 28.3292H59.8163L59.0042 30.0966L59.5564 30.193C60.4823 30.3698 61.7979 30.1288 63.7958 29.3896C64.8353 29.0201 66.0698 28.6023 66.5408 28.5059C67.0119 28.3934 67.3855 28.2488 67.3855 28.1845C67.3855 27.2044 58.0946 23.2677 52.3446 21.8216C48.0078 20.7129 43.1999 20.3594 38.7981 20.7933ZM33.3567 23.4927C33.2593 23.573 31.3101 24.5853 29.0037 25.7583L24.7968 27.8792L21.3695 28.0239C19.4691 28.1042 17.4388 28.2327 16.8378 28.297C16.2205 28.3774 15.7333 28.4095 15.7333 28.3774C15.7333 28.1685 20.33 26.4653 22.5715 25.8386C23.9034 25.453 32.9344 23.3802 33.3567 23.3641C33.4542 23.3481 33.4542 23.3963 33.3567 23.4927ZM14.4176 27.2687C14.3851 27.3008 13.443 27.8793 12.3223 28.5702C9.83711 30.0806 8.00167 31.4946 6.70225 32.8603C5.84138 33.7762 5.69519 34.0333 5.38658 35.1741C4.89929 36.9577 4.55819 38.693 4.42825 40.0267C4.36328 40.6373 4.26582 41.2318 4.20085 41.3442C4.02218 41.6174 2.57657 40.8461 1.95934 40.1391C1.30963 39.4322 1.29338 38.7252 1.79691 36.0579C2.12177 34.3225 2.12177 34.1779 1.87813 33.7441C1.50454 33.1174 1.53703 32.1212 1.9431 30.8036C2.13801 30.193 2.30044 29.6789 2.33292 29.6467C2.34917 29.6307 2.72275 29.7753 3.16131 29.9681C3.72981 30.2252 4.28206 30.3216 5.12669 30.3216C6.24745 30.3216 6.37739 30.2895 8.6189 29.1808C11.0066 28.0078 11.9487 27.6543 13.378 27.3811C14.4013 27.2044 14.4988 27.1883 14.4176 27.2687ZM57.0225 28.522C56.8764 28.6666 56.8276 28.6344 56.8276 28.3292C56.8276 28.0239 56.8764 27.9917 57.0225 28.1363C57.1687 28.281 57.1687 28.3774 57.0225 28.522ZM80.1686 30.7394C81.3381 31.0929 82.9786 31.6713 83.807 32.0087C85.3338 32.6675 88.6636 34.5635 88.6636 34.7724C88.6636 34.8367 88.2737 35.0134 87.8189 35.1741C87.0718 35.4151 87.0068 35.4634 87.2667 35.624C87.4454 35.7204 87.8027 35.9936 88.0788 36.2185L88.5661 36.6363L88.0788 36.8934C87.8189 37.0219 87.3317 37.1826 86.9906 37.2469C86.6657 37.3112 86.3896 37.4397 86.3896 37.5522C86.4058 37.8736 87.0068 39.0787 87.7702 40.2195C88.1763 40.8461 88.5011 41.4246 88.5011 41.5049C88.5011 41.6013 88.3387 41.6656 88.1438 41.6656C87.8189 41.6656 84.9277 42.2923 84.0019 42.5654C83.6608 42.6618 83.6608 42.6458 83.8882 42.0191C84.6191 39.8821 84.5054 37.5361 83.5471 35.624C82.8811 34.2583 81.0619 32.4586 78.9341 31.0125C78.1707 30.5144 77.6672 30.0966 77.7971 30.0966C77.9108 30.0966 78.9828 30.3859 80.1686 30.7394ZM43.5085 35.3027C47.5692 35.9936 50.9315 36.5881 50.9802 36.6363C51.1751 36.8452 39.4965 36.1703 37.8235 35.8811C37.0439 35.7365 36.8165 35.608 36.0368 34.8206C35.1597 33.9369 35.1597 33.9208 35.6307 34.0012C35.9069 34.0333 39.4478 34.6278 43.5085 35.3027ZM62.5776 36.6363C62.0416 38.3717 61.7979 39.7374 61.7979 41.0711L61.7817 42.4851L60.5635 42.3726C59.8975 42.3244 57.7697 42.228 55.8531 42.1798L52.3608 42.0673L55.1221 40.4284C56.649 39.5286 58.9392 38.1467 60.2386 37.3433C61.538 36.5399 62.6426 35.8811 62.7075 35.8811C62.7725 35.8811 62.7075 36.2185 62.5776 36.6363ZM41.0558 37.5522C42.8913 37.7771 46.6271 38.0664 49.3559 38.211C52.0847 38.3556 54.5049 38.5323 54.7485 38.5805C55.1384 38.677 54.9759 38.8055 53.1243 39.7856L51.0614 40.8943L47.9266 40.5248C44.4343 40.1231 44.7917 40.0749 41.7868 41.1514C39.2204 42.0834 37.4012 42.3083 32.707 42.3083C29.1011 42.3083 28.8575 42.2923 28.9712 42.0191C29.1661 41.521 29.5397 39.8338 29.5397 39.4161C29.5559 38.5805 29.6534 38.5645 31.8299 38.9019C34.1364 39.2715 33.9415 39.3197 35.8094 37.8896C36.4429 37.4076 36.8977 37.1666 37.2225 37.1666C37.4987 37.1666 39.2204 37.3433 41.0558 37.5522Z" fill="#405FF2"/>
<path d="M65.2714 24.0831C64.5944 24.264 64.0435 24.4577 64.0435 24.5094C64.0435 24.6385 67.0188 25.4652 67.1448 25.3619C67.192 25.3231 67.1605 24.9614 67.0975 24.5481C67.0031 24.0444 66.8771 23.799 66.7197 23.7861C66.5938 23.7731 65.9326 23.9023 65.2714 24.0831Z" fill="#405FF2"/>
<path d="M15.5513 33.5202C12.136 34.5848 10.1588 38.7419 11.2223 42.6116C11.9263 45.1802 13.8437 47.0391 16.2254 47.4784C18.9965 47.9685 21.7377 46.3969 22.951 43.6086C23.4154 42.544 23.4304 42.4088 23.4304 40.4655C23.4304 38.556 23.4004 38.3701 22.966 37.3393C22.1571 35.4297 21.0487 34.2806 19.341 33.6385C18.2925 33.2329 16.6448 33.1822 15.5513 33.5202ZM16.7646 36.2409C16.7646 37.3055 16.7496 37.3393 16.2853 37.6097C16.0157 37.7617 15.6412 38.0321 15.4614 38.218L15.1469 38.556L14.2331 38.0152C13.7238 37.711 13.3194 37.39 13.3194 37.3055C13.3194 37.221 13.619 36.8323 13.9635 36.4437C14.6376 35.717 15.6262 35.1763 16.3602 35.1594C16.7646 35.1425 16.7646 35.1594 16.7646 36.2409ZM19.386 35.548C19.8054 35.7508 20.4046 36.2578 20.7191 36.6633L21.3033 37.39L20.3446 37.9307L19.401 38.4715L18.8168 37.9983C18.4872 37.7279 18.1277 37.5083 18.0079 37.5083C17.8581 37.5083 17.8132 37.2041 17.8132 36.3254C17.8132 35.1425 17.8132 35.1425 18.2326 35.1425C18.4573 35.1425 18.9815 35.3283 19.386 35.548ZM14.5926 41.6146L13.7388 42.1385C13.2745 42.4257 12.855 42.6116 12.7951 42.5609C12.7502 42.4933 12.6304 41.9864 12.5405 41.4287C12.4057 40.6345 12.4207 40.1782 12.5555 39.4685L12.7352 38.5391L14.6825 39.6206L14.5926 41.6146ZM21.9324 40.55C21.9324 41.5639 21.8725 42.2906 21.7677 42.4088C21.6329 42.5609 21.3632 42.4764 20.6742 42.0878L19.7605 41.5639V39.6206L20.6892 39.0798C21.3183 38.7081 21.6778 38.5898 21.7826 38.7081C21.8575 38.7926 21.9324 39.6375 21.9324 40.55ZM18.2625 39.1643C18.7119 39.6037 18.7718 39.7389 18.7718 40.5331C18.7868 41.3273 18.7419 41.4794 18.2925 41.9188C17.214 43.0003 15.7161 42.2568 15.7161 40.6345C15.7161 39.6882 15.8958 39.2826 16.4351 38.9615C17.0792 38.556 17.6933 38.6405 18.2625 39.1643ZM15.8659 43.1524C15.9707 43.3045 16.1355 43.4228 16.2553 43.4228C16.5699 43.4228 16.7646 43.9973 16.7646 44.9267C16.7646 45.7886 16.7646 45.7886 16.2703 45.7886C15.6262 45.7886 14.323 45.045 13.8437 44.4029C13.634 44.1325 13.4692 43.8452 13.4692 43.7945C13.4692 43.7269 13.8587 43.4397 14.338 43.1524C15.2068 42.6116 15.4614 42.6116 15.8659 43.1524ZM21.0936 43.6931C21.1385 43.7438 20.9288 44.048 20.6442 44.3691C20.06 45.0619 18.8317 45.7886 18.2326 45.7886C17.8132 45.7886 17.8132 45.7717 17.8132 44.7071C17.8132 43.6762 17.8281 43.6255 18.2476 43.4228C18.4872 43.3214 18.8018 43.0848 18.9366 42.9158C19.1912 42.5947 19.2212 42.6116 20.12 43.1186C20.6143 43.4059 21.0636 43.6593 21.0936 43.6931Z" fill="#405FF2"/>
<path d="M70.4773 33.5935C65.471 35.25 63.9086 42.1806 67.7557 45.6627C70.6117 48.249 74.8453 48.1983 77.55 45.5275C80.4396 42.7046 80.3556 37.9377 77.3652 35.0979C76.0716 33.8639 74.9293 33.3906 73.0477 33.3061C71.8381 33.2723 71.3005 33.323 70.4773 33.5935ZM72.1069 36.2135C72.1069 37.2785 72.0901 37.3123 71.5693 37.5827C71.2669 37.7349 70.8469 38.0053 70.6621 38.1913C70.2925 38.5125 70.2925 38.5125 69.3181 37.9715C68.7637 37.6673 68.2933 37.3968 68.2597 37.3799C68.1421 37.2785 68.9317 36.3995 69.5533 35.96C70.2757 35.436 70.9813 35.1486 71.6533 35.1317C72.1069 35.1148 72.1069 35.1317 72.1069 36.2135ZM75.0973 35.5543C75.8701 35.9431 76.9788 36.9573 76.9788 37.2785C76.9788 37.3461 76.542 37.6335 76.0212 37.9039L75.0637 38.4279L74.1733 37.9039L73.2997 37.3968L73.2829 36.2473C73.2829 35.1148 73.2829 35.1148 73.7533 35.1148C74.0053 35.1148 74.6101 35.3176 75.0973 35.5543ZM69.7045 41.5551L68.7301 42.0622C68.1925 42.3327 67.7053 42.5525 67.6717 42.5525C67.5037 42.5525 67.2349 41.2847 67.2349 40.5409C67.2349 40.1352 67.3189 39.5098 67.4197 39.1548L67.6213 38.5294L69.6709 39.5436L69.7045 41.5551ZM77.97 40.355C77.9868 41.2678 77.7348 42.5525 77.5332 42.5525C77.4828 42.5525 77.0124 42.3158 76.4748 42.0284L75.5173 41.5213L75.4837 39.476L77.5668 38.5294L77.7684 38.9689C77.886 39.2224 77.97 39.8478 77.97 40.355ZM73.6189 39.0027C74.5933 39.7126 74.6773 41.1832 73.7533 41.9608C72.7621 42.806 71.2837 42.3496 70.9477 41.1156C70.4773 39.3914 72.2245 38.0053 73.6189 39.0027ZM70.6117 42.8398C70.7461 42.992 71.0989 43.2117 71.4013 43.3469C71.9725 43.5836 71.9557 43.5329 71.9893 45.3416C72.0061 45.8149 71.9557 45.8487 71.4517 45.798C70.7125 45.7473 69.4525 45.0711 68.7805 44.3612L68.2093 43.7695L69.2005 43.1779C70.3597 42.4679 70.3261 42.4848 70.6117 42.8398ZM75.9708 43.0596C76.5252 43.3469 76.9788 43.6343 76.9788 43.7188C76.9788 43.8033 76.6764 44.1414 76.29 44.4964C75.5845 45.1387 74.7949 45.5444 73.8373 45.7642C73.3837 45.8656 73.2829 45.8487 73.2661 45.612C73.2493 45.4599 73.2157 45.1049 73.1821 44.8345C73.0813 44.0231 73.2493 43.6174 73.7701 43.3976C74.0389 43.2962 74.3917 43.0596 74.5597 42.8736C74.7109 42.7046 74.8789 42.5525 74.9125 42.5525C74.9461 42.5525 75.4165 42.7891 75.9708 43.0596Z" fill="#405FF2"/>
<path d="M31.2407 47.6532C31.257 47.9484 34.5641 49.963 36.1118 50.6056C41.8951 53.0196 47.988 52.8807 53.6573 50.2409C55.1561 49.5462 57.7952 47.9137 57.7952 47.6879C57.7952 47.6185 51.8164 47.5664 44.518 47.5664C37.2195 47.5664 31.2407 47.6011 31.2407 47.6532Z" fill="#405FF2"/>
<path d="M22.8907 48.7588C26.8463 53.4228 32.5115 56.8069 38.4617 58.0869C42.082 58.8584 47.0266 58.8584 50.6805 58.0869C56.3289 56.9121 61.9104 53.7209 65.866 49.4251C67.6091 47.5139 67.6091 47.5665 65.8157 47.5665H64.3072L63.1172 48.7062C58.0888 53.5456 51.5856 56.1581 44.613 56.1581C37.4225 56.1581 31.1371 53.6157 26.0585 48.6536L24.9523 47.5665H21.8682L22.8907 48.7588Z" fill="#405FF2"/>
<path d="M105.035 23.38V21.148H111.203V23.38H105.035ZM110.015 16L114.047 25H111.059L107.795 17.212H108.551L105.275 25H102.299L106.319 16H110.015ZM116.923 20.92C116.923 21.296 116.991 21.616 117.127 21.88C117.263 22.144 117.467 22.352 117.739 22.504C118.011 22.648 118.351 22.72 118.759 22.72C119.183 22.72 119.531 22.648 119.803 22.504C120.075 22.36 120.275 22.156 120.403 21.892C120.539 21.62 120.607 21.296 120.607 20.92V16H123.403V21.076C123.403 21.9 123.211 22.624 122.827 23.248C122.443 23.864 121.903 24.344 121.207 24.688C120.511 25.032 119.695 25.204 118.759 25.204C117.839 25.204 117.031 25.032 116.335 24.688C115.639 24.344 115.095 23.864 114.703 23.248C114.319 22.624 114.127 21.9 114.127 21.076V16H116.923V20.92ZM127.648 17.212H130.444V25H127.648V17.212ZM124.312 16H133.78V18.484H124.312V16ZM139.502 25.204C138.422 25.204 137.474 25.008 136.658 24.616C135.85 24.224 135.218 23.676 134.762 22.972C134.314 22.268 134.09 21.444 134.09 20.5C134.09 19.556 134.314 18.732 134.762 18.028C135.218 17.324 135.85 16.776 136.658 16.384C137.474 15.992 138.422 15.796 139.502 15.796C140.582 15.796 141.526 15.992 142.334 16.384C143.15 16.776 143.782 17.324 144.23 18.028C144.686 18.732 144.914 19.556 144.914 20.5C144.914 21.444 144.686 22.268 144.23 22.972C143.782 23.676 143.15 24.224 142.334 24.616C141.526 25.008 140.582 25.204 139.502 25.204ZM139.502 22.72C140.038 22.72 140.498 22.632 140.882 22.456C141.274 22.272 141.574 22.016 141.782 21.688C141.99 21.352 142.094 20.956 142.094 20.5C142.094 20.044 141.99 19.652 141.782 19.324C141.574 18.988 141.274 18.732 140.882 18.556C140.498 18.372 140.038 18.28 139.502 18.28C138.966 18.28 138.502 18.372 138.11 18.556C137.726 18.732 137.43 18.988 137.222 19.324C137.014 19.652 136.91 20.044 136.91 20.5C136.91 20.956 137.014 21.352 137.222 21.688C137.43 22.016 137.726 22.272 138.11 22.456C138.502 22.632 138.966 22.72 139.502 22.72ZM145.75 22.048H148.582C148.614 22.256 148.714 22.44 148.882 22.6C149.058 22.752 149.294 22.872 149.59 22.96C149.886 23.04 150.234 23.08 150.634 23.08C151.186 23.08 151.614 23.016 151.918 22.888C152.23 22.76 152.386 22.564 152.386 22.3C152.386 22.116 152.298 21.968 152.122 21.856C151.946 21.736 151.598 21.656 151.078 21.616L149.494 21.484C148.198 21.388 147.258 21.108 146.674 20.644C146.098 20.172 145.81 19.54 145.81 18.748C145.81 18.1 145.998 17.56 146.374 17.128C146.75 16.688 147.274 16.356 147.946 16.132C148.618 15.908 149.41 15.796 150.322 15.796C151.202 15.796 151.982 15.92 152.662 16.168C153.35 16.416 153.894 16.768 154.294 17.224C154.702 17.672 154.926 18.196 154.966 18.796H152.134C152.102 18.62 152.01 18.468 151.858 18.34C151.714 18.204 151.506 18.1 151.234 18.028C150.962 17.956 150.638 17.92 150.262 17.92C149.766 17.92 149.37 17.98 149.074 18.1C148.786 18.22 148.642 18.4 148.642 18.64C148.642 18.816 148.726 18.96 148.894 19.072C149.07 19.184 149.39 19.26 149.854 19.3L151.594 19.444C152.458 19.508 153.154 19.644 153.682 19.852C154.218 20.052 154.606 20.328 154.846 20.68C155.086 21.024 155.206 21.46 155.206 21.988C155.206 22.628 155.014 23.192 154.63 23.68C154.246 24.16 153.706 24.536 153.01 24.808C152.322 25.072 151.514 25.204 150.586 25.204C149.634 25.204 148.798 25.072 148.078 24.808C147.358 24.544 146.794 24.176 146.386 23.704C145.978 23.224 145.766 22.672 145.75 22.048ZM156.387 16H159.183V25H156.387V16ZM167.047 20.608L167.275 20.104C167.955 20.12 168.523 20.228 168.979 20.428C169.435 20.62 169.775 20.888 169.999 21.232C170.223 21.576 170.335 21.98 170.335 22.444C170.335 22.932 170.223 23.372 169.999 23.764C169.783 24.148 169.451 24.452 169.003 24.676C168.555 24.892 167.999 25 167.335 25H160.483L161.167 20.38L160.483 16H167.083C167.915 16 168.563 16.196 169.027 16.588C169.499 16.972 169.735 17.508 169.735 18.196C169.735 18.58 169.647 18.944 169.471 19.288C169.303 19.632 169.019 19.924 168.619 20.164C168.227 20.396 167.703 20.544 167.047 20.608ZM163.219 24.376L162.151 23.104H166.507C166.819 23.104 167.063 23.028 167.239 22.876C167.415 22.716 167.503 22.496 167.503 22.216C167.503 21.952 167.411 21.736 167.227 21.568C167.043 21.392 166.775 21.304 166.423 21.304H162.799V19.456H166.027C166.275 19.456 166.483 19.38 166.651 19.228C166.819 19.076 166.903 18.876 166.903 18.628C166.903 18.42 166.827 18.248 166.675 18.112C166.531 17.968 166.323 17.896 166.051 17.896H162.163L163.219 16.624L163.831 20.38L163.219 24.376Z" fill="#405FF2"/>
<path d="M100.638 39.048H104.83C104.873 39.2827 104.995 39.4853 105.198 39.656C105.401 39.816 105.678 39.944 106.03 40.04C106.382 40.1253 106.803 40.168 107.294 40.168C107.934 40.168 108.43 40.104 108.782 39.976C109.145 39.848 109.326 39.64 109.326 39.352C109.326 39.16 109.225 39 109.022 38.872C108.819 38.7333 108.403 38.6427 107.774 38.6L105.79 38.472C103.987 38.3547 102.686 37.9707 101.886 37.32C101.086 36.6693 100.686 35.8107 100.686 34.744C100.686 33.848 100.942 33.1013 101.454 32.504C101.966 31.9067 102.681 31.4587 103.598 31.16C104.526 30.8613 105.609 30.712 106.846 30.712C108.051 30.712 109.118 30.8827 110.046 31.224C110.985 31.5547 111.726 32.024 112.27 32.632C112.825 33.24 113.129 33.9493 113.182 34.76H108.99C108.958 34.568 108.851 34.4027 108.67 34.264C108.499 34.1253 108.254 34.0187 107.934 33.944C107.614 33.8693 107.225 33.832 106.766 33.832C106.179 33.832 105.715 33.8907 105.374 34.008C105.043 34.1253 104.878 34.3173 104.878 34.584C104.878 34.7653 104.974 34.92 105.166 35.048C105.369 35.176 105.753 35.2613 106.318 35.304L108.558 35.448C109.731 35.5227 110.681 35.6987 111.406 35.976C112.131 36.2427 112.659 36.616 112.99 37.096C113.331 37.576 113.502 38.168 113.502 38.872C113.502 39.7573 113.241 40.5307 112.718 41.192C112.195 41.8533 111.459 42.3707 110.51 42.744C109.571 43.1067 108.473 43.288 107.214 43.288C105.913 43.288 104.771 43.112 103.79 42.76C102.809 42.408 102.041 41.912 101.486 41.272C100.942 40.632 100.659 39.8907 100.638 39.048ZM117.199 40.984V37.704H125.375V40.984H117.199ZM124.111 31L129.375 43H124.975L120.831 32.824H121.887L117.743 43H113.343L118.607 31H124.111ZM134.416 31V41.176L132.56 39.32H141.488V43H130.288V31H134.416ZM149.199 43.288C147.737 43.288 146.457 43.0267 145.359 42.504C144.271 41.9813 143.423 41.2507 142.815 40.312C142.207 39.3627 141.903 38.2587 141.903 37C141.903 35.7413 142.207 34.6427 142.815 33.704C143.423 32.7547 144.271 32.0187 145.359 31.496C146.457 30.9733 147.737 30.712 149.199 30.712C150.66 30.712 151.935 30.9733 153.023 31.496C154.121 32.0187 154.975 32.7547 155.583 33.704C156.191 34.6427 156.495 35.7413 156.495 37C156.495 38.2587 156.191 39.3627 155.583 40.312C154.975 41.2507 154.121 41.9813 153.023 42.504C151.935 43.0267 150.66 43.288 149.199 43.288ZM149.199 39.608C149.849 39.608 150.409 39.5067 150.879 39.304C151.348 39.0907 151.705 38.792 151.951 38.408C152.207 38.0133 152.335 37.544 152.335 37C152.335 36.456 152.207 35.992 151.951 35.608C151.705 35.2133 151.348 34.9147 150.879 34.712C150.409 34.4987 149.849 34.392 149.199 34.392C148.548 34.392 147.988 34.4987 147.519 34.712C147.049 34.9147 146.687 35.2133 146.431 35.608C146.185 35.992 146.063 36.456 146.063 37C146.063 37.544 146.185 38.0133 146.431 38.408C146.687 38.792 147.049 39.0907 147.519 39.304C147.988 39.5067 148.548 39.608 149.199 39.608ZM169.08 39.992L167.96 40.264V31H171.96V43H166.792L160.84 33.752L161.96 33.48V43H157.96V31H163.288L169.08 39.992Z" fill="black"/>
</g>
<defs>
<clipPath id="clip0_2507_114">
<rect width="176" height="59" fill="white"/>
</clipPath>
</defs>
</svg>
