<svg xmlns="http://www.w3.org/2000/svg" width="29" height="29" viewBox="0 0 29 29" fill="none"><script xmlns=""/>
<rect width="29" height="29" rx="14.5" fill="#272727"/>
<path opacity="0.7" d="M14.5 7.82812C15.6172 7.82812 16.6836 8.13281 17.6484 8.69141C18.6133 9.25 19.375 10.0117 19.9336 10.9766C20.4922 11.9414 20.7969 13.0078 20.7969 14.125C20.7969 15.2676 20.4922 16.3086 19.9336 17.2734C19.375 18.2383 18.6133 19.0254 17.6484 19.584C16.6836 20.1426 15.6172 20.4219 14.5 20.4219C13.3574 20.4219 12.3164 20.1426 11.3516 19.584C10.3867 19.0254 9.59961 18.2383 9.04102 17.2734C8.48242 16.3086 8.20312 15.2676 8.20312 14.125C8.20312 13.0078 8.48242 11.9414 9.04102 10.9766C9.59961 10.0117 10.3867 9.25 11.3516 8.69141C12.3164 8.13281 13.3574 7.82812 14.5 7.82812ZM15.9473 16.7148C15.998 16.7656 16.0742 16.791 16.1758 16.7656C16.252 16.7656 16.3281 16.7148 16.3789 16.6387L17.0898 15.6738C17.1406 15.623 17.1406 15.5469 17.1406 15.4453C17.1406 15.3691 17.0898 15.293 17.0391 15.2422L15.4141 14.0742V10.5703C15.4141 10.4941 15.3633 10.418 15.3125 10.3672C15.2617 10.3164 15.1855 10.2656 15.1094 10.2656H13.8906C13.7891 10.2656 13.7129 10.3164 13.6621 10.3672C13.6113 10.418 13.5859 10.4941 13.5859 10.5703V14.8359C13.5859 14.9375 13.6113 15.0391 13.7129 15.0898L15.9473 16.7148Z" fill="#C8C8C8"/>
<script xmlns=""/></svg>