<svg xmlns="http://www.w3.org/2000/svg" width="29" height="29" viewBox="0 0 29 29" fill="none"><script xmlns=""/>
<rect width="29" height="29" rx="14.5" fill="#272727"/>
<path opacity="0.7" d="M14.3672 20.3711C10.6602 15.0391 10 14.4805 10 12.5C10 9.80859 12.1582 7.625 14.875 7.625C17.5664 7.625 19.75 9.80859 19.75 12.5C19.75 14.4805 19.0645 15.0391 15.3574 20.3711C15.1289 20.7266 14.5957 20.7266 14.3672 20.3711ZM14.875 14.5312C15.9922 14.5312 16.9062 13.6426 16.9062 12.5C16.9062 11.3828 15.9922 10.4688 14.875 10.4688C13.7324 10.4688 12.8438 11.3828 12.8438 12.5C12.8438 13.6426 13.7324 14.5312 14.875 14.5312Z" fill="#C8C8C8"/>
<script xmlns=""/></svg>