<svg width="201" height="79" viewBox="0 0 201 79" fill="none" xmlns="http://www.w3.org/2000/svg">
<path d="M85.1367 45.8307V43.9105V41.9902H89.8483H94.5598V43.9105V45.8307H89.8483H85.1367Z" fill="black"/>
<path fill-rule="evenodd" clip-rule="evenodd" d="M118.177 0.320535C117.946 0.496683 116.221 4.15457 114.343 8.44946C112.465 12.7443 109.236 20.0604 107.169 24.7073C105.102 29.3542 100.805 39.0321 97.6217 46.2138C94.4382 53.3954 89.9832 63.4386 87.7214 68.5323C85.4596 73.626 83.6091 77.86 83.6091 77.9414C83.6091 78.0228 85.2194 78.0894 87.1875 78.0894H90.766L91.1638 77.1293C92.1884 74.6568 102.465 51.5148 116.206 20.7389C118.689 15.1766 120.821 10.6421 120.943 10.6623C121.065 10.6825 122.945 14.5998 125.119 19.3673L129.073 28.0357L132.593 28.1071C136.095 28.178 136.111 28.1757 135.937 27.6263C135.841 27.3226 134.844 25.1016 133.72 22.6906C132.596 20.2793 129.852 14.2772 127.622 9.35273C125.392 4.42801 123.43 0.310806 123.262 0.20353C122.746 -0.126492 118.64 -0.0320167 118.177 0.320535ZM68.2011 32.8641C65.3535 33.803 63.27 35.5716 62.0412 38.0933C61.3984 39.4128 61.3278 39.8217 61.3263 42.2453C61.325 44.6302 61.4022 45.0995 62.0093 46.4022C62.8727 48.2538 64.701 50.0872 66.673 51.0783C68.1165 51.8039 68.3704 51.8464 71.2613 51.8464C74.2036 51.8464 74.3869 51.8141 76.0166 51.0082C79.5284 49.2713 81.3924 46.2271 81.3975 42.2192C81.4 40.2918 81.3025 39.8069 80.6164 38.3329C79.5673 36.0791 78.0642 34.4956 76.0069 33.4763C74.4913 32.7254 74.0783 32.6386 71.7737 32.5861C70.1982 32.5503 68.8296 32.6568 68.2011 32.8641ZM6.93907 33.3375C6.01942 35.3694 -0.0839323 51.3697 0.000875401 51.5264C0.0579232 51.6321 1.11509 51.7184 2.35002 51.7184H4.59501L5.07533 50.3742L5.55566 49.0301L9.0343 48.9589L12.5132 48.888L13.0139 50.239L13.5146 51.5904L15.9631 51.6636C17.3098 51.704 18.4115 51.6457 18.4115 51.5343C18.4115 51.4229 16.7729 47.1846 14.7702 42.116L11.1288 32.9002L9.16673 32.8255C7.33305 32.7556 7.18712 32.7891 6.93907 33.3375ZM21.3829 32.943C21.0936 33.2336 21.1939 44.1781 21.499 45.6251C22.072 48.3426 23.3928 50.0519 25.7957 51.1851C27.0489 51.776 27.5091 51.8464 30.1267 51.8464C32.809 51.8461 33.1627 51.7888 34.3289 51.1651C35.8465 50.3532 36.9847 49.1927 37.8032 47.6219C38.3839 46.5082 38.4063 46.2419 38.4827 39.621L38.5614 32.7722H36.2543H33.9469L33.9464 38.9809C33.9461 44.3824 33.8883 45.3051 33.5007 46.077C32.8813 47.3116 31.7325 47.9146 29.9994 47.9146C28.2951 47.9146 27.1804 47.3385 26.4428 46.0768C25.9673 45.2629 25.9177 44.6773 25.841 38.9809L25.7575 32.7722H23.6551C22.4986 32.7722 21.4761 32.849 21.3829 32.943ZM42.0966 34.8205V36.8687H45.1527H48.2089V44.2935V51.7184H50.501H52.7931V44.2935V36.8687H55.8492H58.9053V34.8205V32.7722H50.501H42.0966V34.8205ZM116.636 32.9538C116.371 33.3864 109.332 51.224 109.332 51.4639C109.332 51.6144 110.306 51.7184 111.717 51.7184H114.102L114.61 50.3742L115.118 49.0301L118.603 48.9586L122.088 48.8875L122.613 50.1574L123.138 51.4273L125.467 51.509C126.748 51.5538 127.845 51.5602 127.905 51.5233C127.965 51.4862 126.353 47.2809 124.323 42.178L120.632 32.9002L118.696 32.8257C117.631 32.785 116.704 32.8426 116.636 32.9538ZM130.533 32.953L129.96 33.0638V42.3912V51.7184H131.977C134.939 51.7184 134.799 51.8725 134.799 48.6C134.799 44.9963 135.045 45.0143 137.161 48.774L138.747 51.5904L141.261 51.6641C143.23 51.7217 143.747 51.6662 143.647 51.4081C143.577 51.2266 142.765 49.6958 141.842 48.006C140.397 45.3578 140.221 44.8983 140.566 44.6776C142.566 43.4003 143.284 42.0597 143.312 39.557C143.337 37.2287 143.132 36.5615 142.005 35.3074C140.793 33.9597 139.552 33.3437 137.421 33.0339C135.712 32.7855 131.645 32.7377 130.533 32.953ZM147.14 33.0935C147.073 33.2705 147.047 37.5044 147.084 42.5026L147.151 51.5904L153.837 51.6587L160.522 51.7268V49.6745V47.6219H156.192H151.863V45.9577V44.2935H155.556H159.248V42.3733V40.4531H155.556H151.863V38.6609V36.8687H156.32H160.776V34.8205V32.7722H154.02C148.834 32.7722 147.234 32.847 147.14 33.0935ZM163.893 42.1813L163.96 51.5904L166.183 51.6644L168.406 51.7381L168.475 46.4373L168.544 41.1362L171.991 46.3633L175.439 51.5904L176.576 51.6731C177.201 51.7184 178.2 51.6825 178.795 51.5934L179.877 51.4309V42.1017V32.7722H177.585H175.293L175.291 38.0848L175.288 43.3974L171.789 38.0876L168.289 32.7779L166.058 32.775L163.826 32.7722L163.893 42.1813ZM188.815 33.3378C188.691 33.6604 188.223 34.8461 187.774 35.9726C185.984 40.4718 181.915 51.2317 181.915 51.4675C181.915 51.7368 185.678 51.8223 186.338 51.5681C186.552 51.4854 186.916 50.8487 187.145 50.153L187.563 48.8882L191.157 48.9592L194.751 49.0301L195.121 50.2265C195.372 51.0422 195.66 51.4688 196.024 51.5671C196.884 51.7993 200.209 51.7396 200.362 51.4892C200.44 51.3633 198.867 47.1293 196.868 42.0802L193.233 32.9002L191.137 32.8257C189.155 32.7556 189.029 32.7835 188.815 33.3378ZM68.9628 37.0902C66.0623 38.4149 64.9417 42.0231 66.482 45.0796C68.3676 48.8214 73.424 49.0757 76.0143 45.5588C77.1413 44.0288 77.0234 40.5811 75.7836 38.812C74.3548 36.7729 71.3295 36.0092 68.9628 37.0902ZM134.653 37.2102C134.581 37.3979 134.556 38.5214 134.597 39.7065L134.672 41.8613L135.431 41.9481C137.353 42.1675 138.723 41.1067 138.676 39.4362C138.64 38.189 138.377 37.6562 137.595 37.2499C136.672 36.7701 134.83 36.745 134.653 37.2102ZM8.12357 41.9097C7.6188 43.4325 7.20571 44.7646 7.20571 44.8701C7.20571 44.9753 8.06525 45.0616 9.1158 45.0616C10.6148 45.0616 11.0259 44.9817 11.0259 44.6904C11.0259 44.3314 9.32616 39.4272 9.13541 39.2352C9.08371 39.1832 8.62834 40.3868 8.12357 41.9097ZM117.648 41.8011C117.136 43.2597 116.717 44.59 116.717 44.7575C116.717 44.9674 117.357 45.0616 118.782 45.0616C120.326 45.0616 120.817 44.981 120.73 44.7416C120.666 44.5657 120.234 43.327 119.77 41.9893C119.306 40.6515 118.848 39.4651 118.752 39.3529C118.656 39.2408 118.159 40.3422 117.648 41.8011ZM190.084 41.7973C189.614 43.2407 189.177 44.5657 189.111 44.7416C189.021 44.9823 189.541 45.0616 191.21 45.0616C193.222 45.0616 193.413 45.0196 193.252 44.6136C193.154 44.3673 192.67 43.0421 192.176 41.6692C191.682 40.2964 191.201 39.173 191.107 39.173C191.013 39.173 190.553 40.3538 190.084 41.7973ZM104.934 60.9974C104.15 62.8644 102.231 67.3298 100.67 70.9206C99.1083 74.5114 97.7702 77.5935 97.6963 77.7693C97.5924 78.0167 98.3756 78.0894 101.14 78.0894C103.726 78.0894 104.773 78.0008 104.917 77.7693C105.026 77.5935 106.509 74.2233 108.212 70.2805L111.307 63.1117H120.285H129.263L132.619 70.5365L135.975 77.9614L139.462 78.0325C141.382 78.0717 142.949 78.0016 142.949 77.8761C142.949 77.7507 142.585 76.8546 142.14 75.8845C141.695 74.9146 139.703 70.4341 137.713 65.928L134.094 57.7351L120.226 57.669L106.359 57.6027L104.934 60.9974ZM141.451 58.8232C141.732 59.4919 143.819 64.0718 146.089 69.0004L150.216 77.9614L153.714 78.0325C156.179 78.0827 157.211 78.0187 157.211 77.8154C157.211 77.6569 156.373 75.7239 155.349 73.5198C154.324 71.3156 152.29 66.8369 150.828 63.5669L148.17 57.6214L144.555 57.6142L140.94 57.6071L141.451 58.8232Z" fill="#19BDB5"/>
<path fill-rule="evenodd" clip-rule="evenodd" d="M68.2011 32.863C65.3535 33.8019 63.27 35.5705 62.0412 38.0922C61.3984 39.4117 61.3278 39.8206 61.3263 42.2442C61.325 44.6291 61.4022 45.0984 62.0093 46.4011C62.8727 48.2527 64.701 50.0861 66.673 51.0772C68.1165 51.8028 68.3704 51.8453 71.2613 51.8453C74.2036 51.8453 74.3869 51.813 76.0166 51.007C79.5284 49.2701 81.3924 46.226 81.3975 42.2181C81.4 40.2907 81.3025 39.8058 80.6164 38.3318C79.5673 36.078 78.0642 34.4944 76.0069 33.4752C74.4913 32.7243 74.0783 32.6375 71.7737 32.585C70.1982 32.5491 68.8296 32.6556 68.2011 32.863ZM6.93907 33.3364C6.01942 35.3683 -0.0839323 51.3686 0.000875401 51.5252C0.0579232 51.631 1.11509 51.7173 2.35002 51.7173H4.59501L5.07533 50.3731L5.55566 49.029L9.0343 48.9578L12.5132 48.8869L13.0139 50.2379L13.5146 51.5893L15.9631 51.6625C17.3098 51.7029 18.4115 51.6446 18.4115 51.5332C18.4115 51.4218 16.7729 47.1835 14.7702 42.1149L11.1288 32.8991L9.16673 32.8244C7.33305 32.7545 7.18712 32.788 6.93907 33.3364ZM21.3829 32.9419C21.0936 33.2325 21.1939 44.1769 21.499 45.624C22.072 48.3415 23.3928 50.0508 25.7957 51.184C27.0489 51.7749 27.5091 51.8453 30.1267 51.8453C32.809 51.845 33.1627 51.7877 34.3289 51.164C35.8465 50.3521 36.9847 49.1915 37.8032 47.6208C38.3839 46.5071 38.4063 46.2408 38.4827 39.6199L38.5614 32.7711H36.2543H33.9469L33.9464 38.9798C33.9461 44.3813 33.8883 45.304 33.5007 46.0759C32.8813 47.3105 31.7325 47.9134 29.9994 47.9134C28.2951 47.9134 27.1804 47.3374 26.4428 46.0757C25.9673 45.2618 25.9177 44.6762 25.841 38.9798L25.7575 32.7711H23.6551C22.4986 32.7711 21.4761 32.8479 21.3829 32.9419ZM42.0966 34.8193V36.8676H45.1527H48.2089V44.2924V51.7173H50.501H52.7931V44.2924V36.8676H55.8492H58.9053V34.8193V32.7711H50.501H42.0966V34.8193ZM116.636 32.9526C116.371 33.3853 109.332 51.2229 109.332 51.4628C109.332 51.6133 110.306 51.7173 111.717 51.7173H114.102L114.61 50.3731L115.118 49.029L118.603 48.9575L122.088 48.8864L122.613 50.1563L123.138 51.4262L125.467 51.5078C126.748 51.5526 127.845 51.559 127.905 51.5222C127.965 51.485 126.353 47.2798 124.323 42.1769L120.632 32.8991L118.696 32.8246C117.631 32.7839 116.704 32.8415 116.636 32.9526ZM130.533 32.9519L129.96 33.0627V42.3901V51.7173H131.977C134.939 51.7173 134.799 51.8714 134.799 48.5988C134.799 44.9952 135.045 45.0131 137.161 48.7729L138.747 51.5893L141.261 51.663C143.23 51.7206 143.747 51.665 143.647 51.407C143.577 51.2254 142.765 49.6946 141.842 48.0048C140.397 45.3567 140.221 44.8972 140.566 44.6765C142.566 43.3991 143.284 42.0586 143.312 39.5559C143.337 37.2276 143.132 36.5603 142.005 35.3063C140.793 33.9586 139.552 33.3426 137.421 33.0328C135.712 32.7844 131.645 32.7365 130.533 32.9519ZM147.14 33.0924C147.073 33.2693 147.047 37.5033 147.084 42.5015L147.151 51.5893L153.837 51.6576L160.522 51.7257V49.6734V47.6208H156.192H151.863V45.9566V44.2924H155.556H159.248V42.3722V40.452H155.556H151.863V38.6598V36.8676H156.32H160.776V34.8193V32.7711H154.02C148.834 32.7711 147.234 32.8459 147.14 33.0924ZM163.893 42.1802L163.96 51.5893L166.183 51.6632L168.406 51.737L168.475 46.4362L168.544 41.1351L171.991 46.3622L175.439 51.5893L176.576 51.672C177.201 51.7173 178.2 51.6814 178.795 51.5923L179.877 51.4298V42.1006V32.7711H177.585H175.293L175.291 38.0837L175.288 43.3963L171.789 38.0865L168.289 32.7767L166.058 32.7739L163.826 32.7711L163.893 42.1802ZM188.815 33.3367C188.691 33.6593 188.223 34.8449 187.774 35.9715C185.984 40.4707 181.915 51.2306 181.915 51.4664C181.915 51.7357 185.678 51.8212 186.338 51.567C186.552 51.4843 186.916 50.8475 187.145 50.1519L187.563 48.8871L191.157 48.958L194.751 49.029L195.121 50.2254C195.372 51.0411 195.66 51.4676 196.024 51.566C196.884 51.7982 200.209 51.7385 200.362 51.4881C200.44 51.3622 198.867 47.1282 196.868 42.079L193.233 32.8991L191.137 32.8246C189.155 32.7545 189.029 32.7824 188.815 33.3367ZM68.9628 37.089C66.0623 38.4137 64.9417 42.022 66.482 45.0784C68.3676 48.8203 73.424 49.0745 76.0143 45.5577C77.1413 44.0277 77.0234 40.58 75.7836 38.8108C74.3548 36.7718 71.3295 36.0081 68.9628 37.089ZM134.653 37.2091C134.581 37.3968 134.556 38.5202 134.597 39.7054L134.672 41.8601L135.431 41.9469C137.353 42.1664 138.723 41.1056 138.676 39.435C138.64 38.1879 138.377 37.6551 137.595 37.2488C136.672 36.769 134.83 36.7439 134.653 37.2091ZM8.12357 41.9085C7.6188 43.4314 7.20571 44.7635 7.20571 44.869C7.20571 44.9742 8.06525 45.0605 9.1158 45.0605C10.6148 45.0605 11.0259 44.9806 11.0259 44.6893C11.0259 44.3303 9.32616 39.4261 9.13541 39.2341C9.08371 39.1821 8.62834 40.3857 8.12357 41.9085ZM117.648 41.8C117.136 43.2586 116.717 44.5889 116.717 44.7564C116.717 44.9663 117.357 45.0605 118.782 45.0605C120.326 45.0605 120.817 44.9799 120.73 44.7405C120.666 44.5646 120.234 43.3259 119.77 41.9882C119.306 40.6504 118.848 39.464 118.752 39.3518C118.656 39.2397 118.159 40.3411 117.648 41.8ZM190.084 41.7961C189.614 43.2396 189.177 44.5646 189.111 44.7405C189.021 44.9811 189.541 45.0605 191.21 45.0605C193.222 45.0605 193.413 45.0185 193.252 44.6125C193.154 44.3662 192.67 43.041 192.176 41.6681C191.682 40.2953 191.201 39.1718 191.107 39.1718C191.013 39.1718 190.553 40.3526 190.084 41.7961Z" fill="black"/>
<path fill-rule="evenodd" clip-rule="evenodd" d="M68.2011 32.863C65.3535 33.8019 63.27 35.5705 62.0412 38.0922C61.3984 39.4117 61.3278 39.8206 61.3263 42.2442C61.325 44.6291 61.4022 45.0984 62.0093 46.4011C62.8727 48.2527 64.701 50.0861 66.673 51.0772C68.1165 51.8028 68.3704 51.8453 71.2613 51.8453C74.2036 51.8453 74.3869 51.813 76.0166 51.007C79.5284 49.2701 81.3924 46.226 81.3975 42.2181C81.4 40.2907 81.3025 39.8058 80.6164 38.3318C79.5673 36.078 78.0642 34.4944 76.0069 33.4752C74.4913 32.7243 74.0783 32.6375 71.7737 32.585C70.1982 32.5491 68.8296 32.6556 68.2011 32.863ZM6.93907 33.3364C6.01942 35.3683 -0.0839323 51.3686 0.000875401 51.5252C0.0579232 51.631 1.11509 51.7173 2.35002 51.7173H4.59501L5.07533 50.3731L5.55566 49.029L9.0343 48.9578L12.5132 48.8869L13.0139 50.2379L13.5146 51.5893L15.9631 51.6625C17.3098 51.7029 18.4115 51.6446 18.4115 51.5332C18.4115 51.4218 16.7729 47.1835 14.7702 42.1149L11.1288 32.8991L9.16673 32.8244C7.33305 32.7545 7.18712 32.788 6.93907 33.3364ZM21.3829 32.9419C21.0936 33.2325 21.1939 44.1769 21.499 45.624C22.072 48.3415 23.3928 50.0508 25.7957 51.184C27.0489 51.7749 27.5091 51.8453 30.1267 51.8453C32.809 51.845 33.1627 51.7877 34.3289 51.164C35.8465 50.3521 36.9847 49.1915 37.8032 47.6208C38.3839 46.5071 38.4063 46.2408 38.4827 39.6199L38.5614 32.7711H36.2543H33.9469L33.9464 38.9798C33.9461 44.3813 33.8883 45.304 33.5007 46.0759C32.8813 47.3105 31.7325 47.9134 29.9994 47.9134C28.2951 47.9134 27.1804 47.3374 26.4428 46.0757C25.9673 45.2618 25.9177 44.6762 25.841 38.9798L25.7575 32.7711H23.6551C22.4986 32.7711 21.4761 32.8479 21.3829 32.9419ZM42.0966 34.8193V36.8676H45.1527H48.2089V44.2924V51.7173H50.501H52.7931V44.2924V36.8676H55.8492H58.9053V34.8193V32.7711H50.501H42.0966V34.8193ZM68.9628 37.089C66.0623 38.4137 64.9417 42.022 66.482 45.0784C68.3676 48.8203 73.424 49.0745 76.0143 45.5577C77.1413 44.0277 77.0234 40.58 75.7836 38.8108C74.3548 36.7718 71.3295 36.0081 68.9628 37.089ZM8.12357 41.9085C7.6188 43.4314 7.20571 44.7635 7.20571 44.869C7.20571 44.9742 8.06525 45.0605 9.1158 45.0605C10.6148 45.0605 11.0259 44.9806 11.0259 44.6893C11.0259 44.3303 9.32616 39.4261 9.13541 39.2341C9.08371 39.1821 8.62834 40.3857 8.12357 41.9085Z" fill="black"/>
</svg>
