<svg width="106" height="36" viewBox="0 0 106 36" fill="none" xmlns="http://www.w3.org/2000/svg">
<g clip-path="url(#clip0_132_7417)">
<path fill-rule="evenodd" clip-rule="evenodd" d="M80.2633 8.5044C79.8244 8.66343 79.5178 8.94522 79.315 9.37482C79.1635 9.69649 79.1521 10.0329 79.1507 14.3546L79.1485 18.9472H80.1616H81.1739V15.0229C81.1739 12.8413 81.2038 11.0585 81.2401 11.0612C81.2764 11.0639 81.4841 11.3064 81.7018 11.6002C81.9195 11.8939 82.8066 13.0247 83.6724 14.1132C84.5389 15.2016 85.7127 16.6955 86.2811 17.4331C87.4329 18.9272 87.7418 18.9565 88.439 18.9472C89.3368 18.9352 89.7941 18.5111 89.8289 17.5C89.8389 17.2047 89.8375 15.052 89.8261 12.7163L89.8047 8.46938H88.7924H87.7808L87.758 12.2545L87.7352 16.0395L86.4448 14.3887C83.2975 10.3613 82.0603 8.86263 81.7231 8.66767C81.2821 8.41221 80.6973 8.34698 80.2633 8.5044ZM47.2246 8.62002C46.5504 8.85494 46.2058 9.16623 45.6036 10.0848C44.4376 11.8633 40.464 17.9322 40.1968 18.3428C40.0424 18.5799 39.7793 18.9472 39.7793 18.9472C39.7793 18.9472 39.9348 18.9472 40.8667 18.9472H42.1439L43.0809 17.6099L44.0042 16.2301H47.5301H51.0561V17.6099V18.9472H52.0688H53.0816L53.0811 14.6564C53.0808 11.9375 53.0467 10.2037 52.9895 10.0021C52.8527 9.51981 52.3881 8.98327 51.8927 8.73571C51.4668 8.52275 51.3908 8.51477 49.559 8.49105C47.9243 8.46981 47.6054 8.48745 47.2246 8.62002ZM55.1951 13.725V18.9472H56.2062H57.2173L57.241 17.0709L57.2647 15.1523L58.9198 15.1627C60.2782 15.1712 60.5941 15.1964 60.6811 15.3028C60.7395 15.3741 61.4156 16.2162 62.1835 17.1741C62.9515 18.132 63.5354 18.9472 63.5354 18.9472L64.936 18.9553L66.0504 18.9464L65.2317 17.9117C64.7816 17.3425 64.1026 16.5009 63.7231 16.0414C63.3435 15.5819 63.0328 15.1841 63.0328 15.1575C63.0328 15.1309 63.1645 15.1092 63.3255 15.1092C64.1501 15.1092 64.9806 14.5271 65.3973 13.6566C65.6212 13.189 65.6308 13.1089 65.6308 11.703C65.6308 10.5239 65.6023 10.1757 65.4852 9.92322C65.2707 9.46094 64.7515 8.93795 64.2822 8.71157C63.8705 8.51301 63.8589 8.51244 59.5323 8.48647L55.1951 8.46042V13.725ZM69.0803 8.60936C68.5646 8.76451 67.9518 9.33134 67.7777 9.81416C67.6818 10.0801 67.6562 10.9217 67.6562 13.8157C67.6562 17.4659 67.657 17.4822 67.8588 17.8832C67.9703 18.1046 68.1975 18.3875 68.3637 18.5116C68.9941 18.9824 69.1504 18.9472 73.433 18.9472H77.2804V18.0195L77.2555 17.0494L73.5192 17.0304C70.5972 17.0154 69.7678 16.9873 69.7119 16.901C69.6726 16.8403 69.6398 16.3153 69.639 15.7343L69.6377 14.678H72.7203H75.8021V13.6863V12.6947H72.7203H69.6377V11.7404C69.6377 11.2157 69.6788 10.7112 69.7288 10.6195C69.8168 10.4586 69.9525 10.4527 73.5597 10.4527H77.2996V9.46108V8.46938L73.4025 8.47545C70.2202 8.48032 69.4276 8.50482 69.0803 8.60936ZM93.635 8.55C93.0388 8.69223 92.4967 9.09861 92.2178 9.61207C91.9375 10.1296 91.9098 10.7214 91.9717 14.872L92.0329 18.9472H93.0324H94.0312V17.6099V16.2301L97.5762 16.232L101.12 16.2339L102.045 17.6099L102.97 18.9454L104.178 18.9472L105.386 18.9491L105.137 18.6231C105 18.4215 104.401 17.5193 103.806 16.6182C103.211 15.7171 102.439 14.553 102.092 14.0312C101.745 13.5096 101.034 12.4231 100.512 11.6168C99.0545 9.36543 98.9464 9.22171 98.501 8.92955C98.2726 8.77948 97.8849 8.61458 97.6395 8.56305C97.1479 8.45992 94.0554 8.44983 93.635 8.55ZM47.7766 10.5605C47.6419 10.6623 45.3319 14.1015 45.3319 14.2004C45.3319 14.226 46.6199 14.2468 48.194 14.2468H51.0561V12.5222C51.0561 10.2938 51.1901 10.4527 49.3117 10.4527C48.3328 10.4527 47.8771 10.4847 47.7766 10.5605ZM57.2206 11.784V13.1152L57.5949 13.1689C57.8007 13.1984 59.1057 13.2104 60.4948 13.1957C63.704 13.1617 63.5061 13.2536 63.5426 11.7803C63.5665 10.8193 63.5561 10.7449 63.3788 10.6036C63.2068 10.4665 62.9165 10.4527 60.2051 10.4527H57.2206V11.784ZM94.1372 10.5562C94.0618 10.63 94.0312 11.1733 94.0312 12.4532V14.2468H96.943C99.248 14.2468 99.8406 14.2244 99.7887 14.139C99.5126 13.6836 97.7327 11.1111 97.4922 10.8192L97.1899 10.4527H95.7166C94.6879 10.4527 94.2112 10.4839 94.1372 10.5562Z" fill="black"/>
<path fill-rule="evenodd" clip-rule="evenodd" d="M86.2007 21.9566C85.5804 22.1861 85.1201 22.8437 84.9437 23.7514C84.8519 24.2223 84.9174 25.6245 85.0511 26.0505C85.2005 26.5272 85.5818 27.0369 85.956 27.2609C86.2335 27.4269 86.3338 27.4497 86.8723 27.4689C87.4201 27.4885 87.5097 27.4752 87.8249 27.3266C88.6715 26.9279 89.0478 26.1035 89.045 24.6521C89.0421 23.1279 88.5875 22.2205 87.6791 21.9224C87.2714 21.7887 86.6134 21.8039 86.2007 21.9566ZM91.2354 21.9281C90.3696 22.2233 90.0025 23.308 90.5034 24.0888C90.7054 24.4028 90.8519 24.502 91.7526 24.9317C92.7109 25.3894 92.8937 25.5641 92.8937 26.023C92.8937 26.5353 92.3843 26.867 91.7938 26.7393C91.3549 26.6442 91.1301 26.3787 90.9978 25.7961C90.9608 25.6363 90.9594 25.636 90.5645 25.6972L90.1676 25.7587L90.2024 26.0826C90.2472 26.5027 90.4365 26.8524 90.7659 27.1236C91.0767 27.3799 91.4303 27.4783 92.04 27.4783C93.137 27.4783 93.8143 26.8919 93.8093 25.9462C93.8043 25.2108 93.4578 24.8322 92.262 24.2548C91.3264 23.8035 91.1223 23.6078 91.1692 23.2069C91.2269 22.7185 91.7071 22.4309 92.2363 22.5681C92.5572 22.6514 92.7372 22.8432 92.8396 23.2118L92.9229 23.5108L93.2465 23.4713C93.7915 23.405 93.7894 23.4062 93.7267 23.1362C93.6321 22.7326 93.5524 22.5826 93.2786 22.2967C93.1114 22.1219 92.9065 21.9857 92.7173 21.9236C92.3466 21.8021 91.5982 21.8043 91.2354 21.9281ZM43.0404 21.9345C43.0242 21.9602 42.6583 23.0852 42.2274 24.4347C41.7964 25.7841 41.4029 27.0082 41.3528 27.1548L41.2617 27.4214L41.7535 27.4032L42.2452 27.3852L42.42 26.777C42.516 26.4424 42.6071 26.1566 42.6225 26.1419C42.6378 26.1271 43.0166 26.0962 43.4642 26.0732L44.2782 26.0313L44.3567 26.3045C44.4 26.4547 44.4838 26.7594 44.5432 26.9815L44.6509 27.3852L45.1149 27.4034C45.4617 27.4171 45.5783 27.4014 45.5772 27.3413C45.5763 27.2971 45.349 26.5342 45.0719 25.6459C44.7949 24.7577 44.4253 23.549 44.2508 22.9599L43.9334 21.8888L43.5017 21.8884C43.2643 21.8882 43.0567 21.9089 43.0404 21.9345ZM46.7573 24.6366L46.7741 27.3852L47.2418 27.4034L47.7096 27.4217V26.2388V25.0558H48.1171H48.5246L49.007 26.2205L49.4895 27.3852L50.0148 27.4032L50.5401 27.4212L49.9959 26.2117C49.6966 25.5465 49.4517 24.9741 49.4517 24.9398C49.4517 24.9055 49.5675 24.8148 49.7089 24.7383C50.1299 24.5105 50.3072 24.2023 50.3407 23.6399C50.3793 22.9924 50.283 22.685 49.9376 22.3524C49.5252 21.9554 49.2232 21.888 47.8586 21.888H46.7404L46.7573 24.6366ZM51.7762 24.6521V27.4162H53.357H54.9378V27.0746V26.733H53.8409H52.744V25.7978V24.8626L53.583 24.8815L54.4219 24.9006L54.4217 24.5745L54.4216 24.2484H53.5921H52.7626L52.7262 23.7048C52.7062 23.406 52.6968 23.0355 52.7052 22.8818L52.7205 22.6023L53.7969 22.5853L54.8733 22.5682V22.2281V21.888H53.3247H51.7762V24.6521ZM56.2935 24.5124C56.2931 25.9557 56.2752 27.1997 56.2537 27.2765C56.2161 27.4118 56.2293 27.4162 56.674 27.4162H57.1332V25.5838C57.1332 24.576 57.155 23.754 57.1816 23.7573C57.2082 23.7605 57.651 24.5781 58.1656 25.5741L59.1012 27.3852L59.5044 27.4037L59.9077 27.4221V24.6551V21.888H59.456H59.0043L59.002 23.7048L58.9996 25.5217L58.5958 24.7764C58.3739 24.3664 57.9221 23.5488 57.5921 22.9594L56.9921 21.888H56.6432H56.2944L56.2935 24.5124ZM62.5955 22.5868C62.472 22.9711 62.1631 23.9424 61.9091 24.7453C61.6551 25.5481 61.376 26.4286 61.2888 26.7019C61.2017 26.9753 61.1151 27.2478 61.0962 27.3075C61.0659 27.4042 61.1146 27.4162 61.5345 27.4162H62.0069L62.2012 26.7485L62.3955 26.0808L63.1687 26.0652C63.594 26.0565 63.9784 26.0722 64.0228 26.1C64.1044 26.1508 64.4221 27.1058 64.4246 27.3075C64.4257 27.4017 64.4937 27.4162 64.9353 27.4162H65.4445L65.194 26.6553C65.056 26.2368 64.6624 24.9929 64.3191 23.8912L63.6948 21.888H63.2574H62.82L62.5955 22.5868ZM71.7968 22.1209C71.5137 22.9749 70.175 27.2858 70.175 27.3442C70.175 27.3919 70.3264 27.4162 70.624 27.4162H71.0729L71.2007 26.997C71.2711 26.7664 71.3536 26.4799 71.3849 26.3603L71.4411 26.1429L72.1483 26.0924C73.13 26.0225 73.145 26.0304 73.3285 26.7163C73.4103 27.0219 73.4992 27.3057 73.5256 27.347C73.5576 27.3972 73.724 27.416 74.0285 27.4036L74.4831 27.3852L74.2633 26.7019C74.0755 26.1194 73.5177 24.3442 72.9116 22.4004L72.7515 21.888H72.3133H71.8744L71.7968 22.1209ZM75.5445 24.0775C75.5638 26.2335 75.5666 26.2721 75.7188 26.5959C75.9038 26.991 76.273 27.3115 76.6622 27.4166C76.8365 27.4634 77.1708 27.4829 77.5144 27.4661C78.356 27.425 78.7274 27.207 79.029 26.5769C79.1734 26.2752 79.1784 26.2103 79.1976 24.0775L79.2175 21.888H78.7331H78.2479L78.2287 24.0465C78.2081 26.4345 78.1953 26.5094 77.7926 26.67C77.528 26.7755 76.988 26.7211 76.813 26.5712C76.495 26.2987 76.4758 26.1565 76.448 23.9533L76.4224 21.888H75.9735H75.5246L75.5445 24.0775ZM80.3729 22.2296V22.5713H81.0501H81.7281V24.9938V27.4162H82.2147H82.7013L82.6821 24.9937L82.6636 22.5712H83.3245L83.9861 22.5713V22.2296V21.888H82.1799H80.3729V22.2296ZM95.2179 24.6521V27.4162H95.6696H96.1213V26.3292V25.2422H96.7872C97.9063 25.2422 98.4071 25.0114 98.7066 24.3575C99.0588 23.5885 98.8226 22.5738 98.2044 22.1961C97.796 21.947 97.4211 21.888 96.2473 21.888H95.2179V24.6521ZM100.253 24.6462V27.4162H101.406C102.273 27.4162 102.628 27.3929 102.837 27.3218C103.515 27.0914 103.866 26.5946 103.866 25.8634C103.866 25.622 103.826 25.3346 103.777 25.2247C103.659 24.9595 103.355 24.6917 103.062 24.5946L102.824 24.5158L103.014 24.4396C103.772 24.1378 103.976 23.0417 103.394 22.4039C103.017 21.9897 102.764 21.9248 101.43 21.899L100.253 21.8761V24.6462ZM47.7096 23.4719V24.3726H48.2645C49.1753 24.3726 49.4204 24.1797 49.4183 23.4652C49.4163 22.7915 49.1308 22.5811 48.2097 22.5747L47.7096 22.5713V23.4719ZM86.4583 22.6933C86.0464 22.9353 85.8593 23.5466 85.8593 24.6521C85.8593 25.4241 85.9368 25.8912 86.126 26.2507C86.4291 26.8283 87.2159 26.9367 87.6506 26.4609C87.9757 26.1036 88.0732 25.6013 88.039 24.4563C88.0049 23.3417 87.9281 23.0697 87.5602 22.7584C87.3739 22.6013 87.2842 22.5713 87.0018 22.5715C86.782 22.5716 86.5942 22.6137 86.4583 22.6933ZM96.3312 22.6126L96.1213 22.6412V23.6001V24.5589H96.6926C97.1792 24.5589 97.2966 24.538 97.483 24.4179C97.8117 24.2064 97.9426 23.9184 97.9056 23.4852C97.8707 23.0748 97.7519 22.8636 97.4773 22.727C97.2731 22.6252 96.6755 22.5656 96.3312 22.6126ZM101.156 23.3787V24.1862L101.398 24.192C102.45 24.217 102.779 24.025 102.789 23.3784C102.798 22.8047 102.474 22.5811 101.623 22.5747L101.156 22.5713V23.3787ZM62.95 24.0211C62.7947 24.6072 62.6534 25.1498 62.636 25.2266C62.6047 25.3643 62.614 25.3664 63.2488 25.3664H63.8933L63.5818 24.1787C63.4106 23.5255 63.2618 22.983 63.2514 22.9731C63.2409 22.9633 63.1052 23.4349 62.95 24.0211ZM43.4251 23.1101C43.4051 23.1725 43.2705 23.6567 43.1258 24.1862C42.9811 24.7158 42.8476 25.198 42.8292 25.2577C42.7987 25.3562 42.8567 25.3664 43.4452 25.3664C43.8024 25.3664 44.0947 25.3514 44.0947 25.3329C44.0947 25.2705 43.5052 23.039 43.4832 23.0178C43.4711 23.0061 43.445 23.0477 43.4251 23.1101ZM71.9875 24.1097C71.831 24.7155 71.6901 25.2461 71.6738 25.2888C71.6524 25.3476 71.8047 25.3664 72.3041 25.3664C72.8042 25.3664 72.9564 25.3477 72.9337 25.2888C72.9166 25.2461 72.7764 24.715 72.6207 24.1086C72.4656 23.5022 72.3233 23.0065 72.3048 23.0071C72.287 23.0078 72.144 23.5039 71.9875 24.1097ZM67.0101 25.085V25.4285H67.7844C68.2103 25.4285 68.5804 25.4285 68.6071 25.4285C68.6337 25.4285 68.6555 25.2818 68.6555 25.1024V24.7764L67.8328 24.7589L67.0101 24.7416V25.085ZM101.156 25.8012V26.733H101.611C102.197 26.733 102.591 26.6354 102.778 26.4443C102.991 26.2263 103.026 25.5469 102.84 25.261C102.678 25.0124 102.224 24.8695 101.596 24.8695H101.156V25.8012Z" fill="#070708"/>
<path d="M17.7852 35.6849C27.6077 35.6849 35.5705 27.6966 35.5705 17.8424C35.5705 7.98833 27.6077 0 17.7852 0C7.96274 0 0 7.98833 0 17.8424C0 27.6966 7.96274 35.6849 17.7852 35.6849Z" fill="#15744e"/>
<path d="M8.74348 12.0982C9.38268 11.9283 9.76051 11.2707 9.58736 10.6294C9.41413 9.98815 8.75558 9.60605 8.11638 9.77596C7.4771 9.94593 7.0993 10.6035 7.2725 11.2448C7.44566 11.8861 8.10428 12.2682 8.74348 12.0982Z" fill="white"/>
<path d="M28.351 25.6891C28.9902 25.5192 29.368 24.8615 29.1948 24.2202C29.0216 23.579 28.363 23.1969 27.7238 23.3668C27.0846 23.5368 26.7067 24.1944 26.8799 24.8356C27.0531 25.4769 27.7117 25.859 28.351 25.6891Z" fill="white"/>
<path d="M24.6238 14.4695C24.7404 14.6375 24.845 14.8135 24.9367 14.9962C25.1323 15.3493 25.2996 15.7174 25.437 16.0968C29.3616 18.4105 31.3694 20.89 30.845 22.4046C30.4085 23.6594 28.1599 24.3366 24.8161 24.1164C24.3831 24.0983 23.9513 24.0574 23.5223 23.9936C21.0607 23.6735 18.6408 23.0804 16.307 22.2251C14.2558 21.5027 12.2748 20.5915 10.3897 19.5031C9.96497 19.2567 9.57348 19.0186 9.21052 18.7712C6.0035 16.6573 4.42561 14.4835 4.89853 13.1397C5.1268 12.4863 5.84664 11.9822 6.95055 11.6888C8.21505 11.3526 9.98695 11.2875 12.1085 11.5355C12.5109 11.5841 12.932 11.6448 13.3711 11.7148C13.3721 11.6291 13.3802 11.5436 13.3952 11.4594C13.4387 11.2129 13.4914 10.9484 13.5483 10.7C8.53198 9.87911 4.67998 10.5906 3.9181 12.7936C3.18092 14.8471 5.39254 17.6162 9.3055 20.059C9.72878 20.3058 10.1575 20.5667 10.5926 20.8057C12.3172 21.7424 14.1109 22.5445 15.9576 23.2047C18.1261 23.9912 20.3656 24.562 22.6436 24.9087C23.129 24.9834 23.6101 25.0422 24.0736 25.076C26.0227 25.2594 27.725 25.1663 29.0473 24.8147C30.4839 24.4327 31.4672 23.7497 31.8207 22.7504C31.9958 22.2283 32.0059 21.664 31.8494 21.1342C31.2857 19.0237 28.5736 16.5432 24.6238 14.4695Z" fill="white"/>
<path fill-rule="evenodd" clip-rule="evenodd" d="M18.754 7.6789C18.2047 7.89166 17.924 8.17359 17.4334 9.00554C16.4834 10.6165 13.2462 16.1135 13.0284 16.4854C12.9026 16.7002 12.7739 16.9199 12.7423 16.9735C12.6975 17.0499 12.8963 17.0712 13.6555 17.0712H14.626L15.3782 15.8215L16.1304 14.5718H19.0029H21.8755V15.8215V17.0712H22.7006H23.5256L23.5252 13.1464C23.525 10.6837 23.4972 9.11326 23.4506 8.93072C23.3392 8.49378 22.9607 8.00785 22.5571 7.78359C22.2101 7.59074 22.1481 7.58354 20.6559 7.56201C19.324 7.54281 19.0642 7.55876 18.754 7.6789ZM19.2037 9.43648C19.094 9.5286 17.2121 12.6438 17.2121 12.7334C17.2121 12.7565 18.2613 12.7754 19.5438 12.7754H21.8755V11.2133C21.8755 9.19486 21.9846 9.33886 20.4543 9.33886C19.6568 9.33886 19.2855 9.3678 19.2037 9.43648Z" fill="white"/>
</g>
<defs>
<clipPath id="clip0_132_7417">
<rect width="106" height="36" fill="white"/>
</clipPath>
</defs>
</svg>
