<svg width="38" height="37" viewBox="0 0 38 37" fill="none" xmlns="http://www.w3.org/2000/svg">
<path d="M34.4167 0H12.2167C10.5148 0.00200416 9.13543 1.38133 9.13342 3.08332V11.7166H10.3668V3.08332C10.3668 2.06159 11.195 1.23333 12.2167 1.23333H34.4167C35.4384 1.23333 36.2667 2.06159 36.2667 3.08332V17.2666H17.1501V18.4999H36.2667V19.7333C36.2667 20.755 35.4384 21.5833 34.4167 21.5833H20.85V22.8166H25.3017L26.2267 26.5166H20.85V27.7499H29.4833V26.5166H27.4977L26.5727 22.8166H34.4167C36.1187 22.8146 37.498 21.4353 37.5 19.7333V3.08332C37.4979 1.38125 36.1187 0.00200416 34.4167 0Z" fill="#FE7742"/>
<path d="M12.8333 2.46484H11.6V3.69817H12.8333V2.46484Z" fill="#FE7742"/>
<path d="M15.3001 2.46484H14.0668V3.69817H15.3001V2.46484Z" fill="#FE7742"/>
<path d="M17.7669 2.46484H16.5336V3.69817H17.7669V2.46484Z" fill="#FE7742"/>
<path d="M12.8333 4.93359H11.6V11.7169H12.8333V4.93359Z" fill="#FE7742"/>
<path d="M35.0333 14.8008H17.15V16.0341H35.0333V14.8008Z" fill="#FE7742"/>
<path d="M15.3001 11.0996H14.0668V12.3329H15.3001V11.0996Z" fill="#FE7742"/>
<path d="M17.7669 10.4844H16.5336V13.5677H17.7669V10.4844Z" fill="#FE7742"/>
<path d="M20.2333 11.0996H19V13.5663H20.2333V11.0996Z" fill="#FE7742"/>
<path d="M22.7001 9.25H21.4667V13.5666H22.7001V9.25Z" fill="#FE7742"/>
<path d="M25.1665 8.01562H23.9332V13.5656H25.1665V8.01562Z" fill="#FE7742"/>
<path d="M27.6334 9.25H26.4V13.5666H27.6334V9.25Z" fill="#FE7742"/>
<path d="M30.1001 6.78516H28.8668V13.5685H30.1001V6.78516Z" fill="#FE7742"/>
<path d="M32.5667 5.55078H31.3334V13.5674H32.5667V5.55078Z" fill="#FE7742"/>
<path d="M35.0333 4.93359H33.7999V13.5669H35.0333V4.93359Z" fill="#FE7742"/>
<path d="M21.0659 33.7932L19.6167 31.8612V25.8999C19.6114 22.3652 17.454 19.1901 14.1697 17.8833L15.8471 14.6588C15.9931 14.3763 15.9004 14.0292 15.6331 13.8571L15.0164 13.4612C14.0666 12.8591 12.874 12.7876 11.8591 13.2719C11.3059 13.5351 10.6635 13.5351 10.1102 13.2719C9.09513 12.7874 7.90227 12.8589 6.9523 13.4612L6.33563 13.8571C6.06831 14.0292 5.97566 14.3763 6.12165 14.6588L7.79713 17.8833C4.51285 19.1901 2.35545 22.3652 2.35013 25.8999V31.8612L0.900972 33.7932C0.236825 34.6788 0.416274 35.9349 1.3018 36.599C1.64875 36.8592 2.07063 36.9999 2.5043 36.9999H19.4626C20.5691 37.0006 21.4666 36.1041 21.4673 34.9976C21.4676 34.5632 21.3267 34.1406 21.0659 33.7932ZM7.474 14.5891L7.61645 14.4978C8.20544 14.1244 8.9452 14.0804 9.57435 14.3813C10.4658 14.8055 11.501 14.8055 12.3925 14.3813C13.0214 14.0804 13.761 14.1244 14.3498 14.4978L14.4929 14.5891L12.9759 17.5077C11.667 17.1862 10.2999 17.1862 8.99099 17.5077L7.474 14.5891ZM19.9269 35.6118C19.7931 35.7125 19.6301 35.7669 19.4626 35.7666H2.5043C2.07857 35.7666 1.73347 35.4215 1.73347 34.9957C1.73347 34.8289 1.78758 34.6667 1.88764 34.5332L3.46013 32.4366C3.54022 32.3298 3.58346 32.2 3.58346 32.0666V25.8999C3.58346 21.8131 6.89657 18.5 10.9834 18.5C15.0703 18.5 18.3834 21.8131 18.3834 25.8999V32.0666C18.3834 32.2 18.4266 32.3298 18.5067 32.4366L20.0792 34.5332C20.335 34.8731 20.2668 35.356 19.9269 35.6118Z" fill="#FE7742"/>
<path d="M12.477 27.4987L10.0418 26.2808C9.78153 26.1509 9.67601 25.8346 9.80597 25.5744C9.89508 25.396 10.0773 25.2832 10.2767 25.2831H11.6901C11.9807 25.2838 12.216 25.5191 12.2167 25.8097V26.5164H13.4501V25.8097C13.4491 24.8381 12.6617 24.0507 11.6901 24.0497H11.6001V22.8164H10.3667V24.0497H10.2767C9.3047 24.0497 8.51668 24.8375 8.5166 25.8095C8.51652 26.4764 8.89338 27.086 9.48985 27.384L11.9251 28.6019C12.1853 28.7319 12.2908 29.0482 12.1609 29.3084C12.0717 29.4868 11.8895 29.5996 11.6901 29.5997H10.2767C9.98611 29.599 9.75078 29.3637 9.75008 29.0731V28.983H8.51676V29.0731C8.51776 30.0446 9.30516 30.832 10.2767 30.833H10.3667V32.0664H11.6001V30.833H11.6901C12.6621 30.8331 13.4501 30.0452 13.4502 29.0732C13.4502 28.4064 13.0734 27.7968 12.477 27.4987Z" fill="#FE7742"/>
<path d="M24.2418 28.9824C22.7092 28.9824 21.4668 30.2248 21.4668 31.7574C21.4668 33.29 22.7092 34.5324 24.2418 34.5324C25.7744 34.5324 27.0168 33.29 27.0168 31.7574C27.015 30.2255 25.7737 28.9841 24.2418 28.9824ZM24.2418 33.2991C23.3903 33.2991 22.7001 32.6089 22.7001 31.7574C22.7001 30.906 23.3903 30.2158 24.2418 30.2158C25.0932 30.2158 25.7834 30.906 25.7834 31.7574C25.7834 32.6088 25.0932 33.2991 24.2418 33.2991Z" fill="#FE7742"/>
<path d="M30.4083 31.4492C28.8757 31.4492 27.6333 32.6916 27.6333 34.2242C27.6333 35.7568 28.8757 36.9992 30.4083 36.9992C31.9409 36.9992 33.1833 35.7568 33.1833 34.2242C33.1815 32.6923 31.9402 31.4509 30.4083 31.4492ZM30.4083 35.7659C29.5568 35.7659 28.8666 35.0757 28.8666 34.2242C28.8666 33.3727 29.5568 32.6825 30.4083 32.6825C31.2597 32.6825 31.95 33.3727 31.95 34.2242C31.95 35.0756 31.2597 35.7659 30.4083 35.7659Z" fill="#FE7742"/>
<path d="M6.65643 9.76406C6.61264 9.50529 6.40999 9.30264 6.15123 9.25885C5.14653 9.09104 4.35928 8.30379 4.19147 7.29909C4.13466 6.96332 3.81638 6.73708 3.48061 6.79389C3.22184 6.83768 3.01919 7.04033 2.97541 7.29909C2.8076 8.30379 2.02035 9.09104 1.01565 9.25885C0.679873 9.31566 0.453634 9.63394 0.510445 9.96971C0.554228 10.2285 0.756879 10.4311 1.01565 10.4749C2.02035 10.6427 2.8076 11.43 2.97541 12.4347C3.03222 12.7704 3.35049 12.9967 3.68626 12.9399C3.94503 12.8961 4.14768 12.6934 4.19147 12.4347C4.35928 11.43 5.14653 10.6427 6.15123 10.4749C6.487 10.4181 6.71316 10.0998 6.65643 9.76406ZM3.58344 10.7475C3.34301 10.4053 3.04501 10.1073 2.70284 9.86688C3.04501 9.62646 3.34301 9.32846 3.58344 8.98629C3.82386 9.32846 4.12186 9.62646 4.46403 9.86688C4.12178 10.1073 3.82386 10.4052 3.58344 10.7475Z" fill="#FE7742"/>
</svg>
