<svg width="34" height="35" viewBox="0 0 34 35" fill="none" xmlns="http://www.w3.org/2000/svg">
<path d="M27.6605 19.2145C27.3776 12.9505 22.2076 7.9375 15.875 7.9375C9.36181 7.9375 4.0625 13.2362 4.0625 19.75C4.0625 26.2638 9.36181 31.5625 15.875 31.5625C18.2769 31.5625 20.5629 30.8459 22.5277 29.5015C23.6611 30.7632 25.2991 31.5625 27.125 31.5625C30.5366 31.5625 33.3125 28.7866 33.3125 25.375C33.3125 22.144 30.8218 19.4873 27.6605 19.2145ZM16.4375 30.415V27.0625H15.3125V30.4088C9.86919 30.1236 5.50137 25.7558 5.21619 20.3125H8.5625V19.1875H5.21619C5.5115 13.5563 10.1718 9.0625 15.875 9.0625C21.5883 9.0625 26.2554 13.5726 26.5355 19.2173C23.3996 19.5154 20.9375 22.162 20.9375 25.375C20.9375 26.5574 21.2767 27.6593 21.8544 28.5998C20.2406 29.6939 18.3888 30.3149 16.4375 30.415ZM27.125 30.4375C24.3333 30.4375 22.0625 28.1661 22.0625 25.375C22.0625 22.5839 24.3333 20.3125 27.125 20.3125C29.9167 20.3125 32.1875 22.5839 32.1875 25.375C32.1875 28.1661 29.9167 30.4375 27.125 30.4375Z" fill="#FE7742"/>
<path d="M27.125 22.5625C27.7454 22.5625 28.25 23.0671 28.25 23.6875H29.375C29.375 22.6424 28.6556 21.7688 27.6875 21.5174V20.875H26.5625V21.5174C25.5944 21.7688 24.875 22.6424 24.875 23.6875C24.875 24.9284 25.8841 25.9375 27.125 25.9375C27.7454 25.9375 28.25 26.4421 28.25 27.0625C28.25 27.6829 27.7454 28.1875 27.125 28.1875C26.5046 28.1875 26 27.6829 26 27.0625H24.875C24.875 28.1076 25.5944 28.9812 26.5625 29.2326V29.875H27.6875V29.2326C28.6556 28.9812 29.375 28.1076 29.375 27.0625C29.375 25.8216 28.3659 24.8125 27.125 24.8125C26.5046 24.8125 26 24.3079 26 23.6875C26 23.0671 26.5046 22.5625 27.125 22.5625Z" fill="#FE7742"/>
<path d="M24.5797 15.7461L24.0504 14.7533L17.526 18.2324C17.2374 17.9185 16.8628 17.6901 16.4381 17.5799V10.1875H15.3131V17.5799C14.345 17.8313 13.6256 18.7049 13.6256 19.75C13.6256 20.9909 14.6347 22 15.8756 22C17.1165 22 18.1256 20.9909 18.1256 19.75C18.1256 19.5683 18.098 19.3939 18.057 19.2241L24.5797 15.7461ZM15.875 20.875C15.2546 20.875 14.75 20.3704 14.75 19.75C14.75 19.1296 15.2546 18.625 15.875 18.625C16.4955 18.625 17 19.1296 17 19.75C17 20.3704 16.4955 20.875 15.875 20.875Z" fill="#FE7742"/>
<path d="M15.8621 34.9375C18.2983 34.9375 20.7204 34.3457 22.8663 33.2264L22.3454 32.2291C20.3598 33.2646 18.1171 33.8125 15.8621 33.8125C8.11475 33.8125 1.8125 27.5041 1.8125 19.75C1.8125 11.9959 8.11475 5.6875 15.8621 5.6875C21.6356 5.6875 26.7954 9.26162 28.9031 14.5356L27.4147 13.6424L26.8359 14.6071L29.6484 16.2946C29.7367 16.348 29.8363 16.375 29.9375 16.375C29.9977 16.375 30.0584 16.3654 30.1169 16.3458C30.2728 16.2929 30.3982 16.1747 30.4595 16.0217L31.5845 13.2092L30.5399 12.7913L29.9786 14.1959C27.9288 8.98263 23.1223 5.30275 17.5625 4.6705V3.4375H18.125C19.0554 3.4375 19.8125 2.68038 19.8125 1.75C19.8125 0.819625 19.0554 0.0625 18.125 0.0625H13.625C12.6946 0.0625 11.9375 0.819625 11.9375 1.75C11.9375 2.68038 12.6946 3.4375 13.625 3.4375H14.1875V4.657C6.60556 5.494 0.6875 11.9425 0.6875 19.75C0.6875 28.1245 7.49488 34.9375 15.8621 34.9375ZM13.0625 1.75C13.0625 1.44006 13.3145 1.1875 13.625 1.1875H18.125C18.4355 1.1875 18.6875 1.44006 18.6875 1.75C18.6875 2.05994 18.4355 2.3125 18.125 2.3125H13.625C13.3145 2.3125 13.0625 2.05994 13.0625 1.75ZM15.3125 3.4375H16.4375V4.58669C16.2457 4.57938 16.055 4.5625 15.8621 4.5625C15.6776 4.5625 15.4953 4.56981 15.3125 4.57656V3.4375Z" fill="#FE7742"/>
</svg>
