<svg width="30" height="30" viewBox="0 0 30 30" fill="none" xmlns="http://www.w3.org/2000/svg">
<path d="M13.5355 3.31045C9.0355 3.86709 5.24449 6.97842 3.8148 11.2792C3.41636 12.4804 3.27574 13.2772 3.24058 14.5956C3.223 15.3163 3.23472 15.9667 3.27574 16.3417C3.31675 16.6757 3.33433 16.9569 3.32261 16.9745C3.30503 16.9862 3.15855 16.8808 2.99449 16.7343C2.6605 16.4354 2.473 16.3944 2.2855 16.5819C2.13902 16.7284 2.13316 16.9394 2.27378 17.0976C2.49644 17.3612 3.84409 18.5214 3.96714 18.5507C4.03159 18.5683 4.14878 18.5565 4.21324 18.5155C4.36558 18.4394 5.27378 16.5761 5.27378 16.3476C5.27378 16.078 4.99839 15.9257 4.71714 16.0312C4.66441 16.0546 4.52964 16.2538 4.41831 16.4823C4.30113 16.7108 4.1898 16.869 4.1605 16.8397C4.05503 16.7284 3.96714 15.5448 4.0023 14.619C4.04331 13.4765 4.1898 12.6327 4.5355 11.578C5.10972 9.82607 6.01206 8.39639 7.33042 7.11904C9.24644 5.26748 11.4847 4.26553 14.1976 4.03115C16.4769 3.84365 18.9671 4.48232 20.9476 5.76553C21.2406 5.95303 21.6449 6.246 21.8558 6.41006C22.3128 6.7792 22.4007 6.81436 22.5882 6.72647C22.7523 6.65615 22.8226 6.46279 22.7699 6.25185C22.6996 5.96475 21.2875 4.98623 20.1332 4.41787C18.1117 3.42764 15.7679 3.03506 13.5355 3.31045Z" fill="black"/>
<path d="M15.2754 8.40234C13.8984 8.76562 12.709 9.09375 12.6387 9.13477C12.5625 9.17578 12.4746 9.25781 12.4336 9.32227C12.2988 9.53906 10.8984 13.1367 10.8984 13.2656C10.8984 13.3418 10.9453 13.4414 11.0039 13.4941C11.127 13.6055 21.9082 17.8711 22.0723 17.8711C22.1367 17.8711 22.2363 17.8184 22.2891 17.7598C22.3945 17.6484 24.9961 11.127 25.0547 10.8398C25.0781 10.7402 25.0488 10.6465 24.9785 10.5645C24.9199 10.4941 24.3633 10.2422 23.6719 9.97266C23.0098 9.71484 21.4629 9.10547 20.2324 8.61914C18.9961 8.13281 17.9414 7.73438 17.8887 7.74023C17.8301 7.74023 16.6523 8.03906 15.2754 8.40234ZM19.7461 9.57422C20.7598 9.97852 21.5918 10.3242 21.5918 10.3535C21.5918 10.4414 21.123 11.6016 21.0879 11.6016C21.0352 11.6016 15.75 9.49805 15.7148 9.46289C15.6973 9.44531 15.6973 9.42188 15.709 9.41016C15.7441 9.38086 17.707 8.86523 17.8125 8.85352C17.8594 8.85352 18.7324 9.17578 19.7461 9.57422Z" fill="black"/>
<path d="M9.87367 10.3711C9.68617 10.4414 9.62171 10.5527 9.34046 11.2617C9.05921 11.9766 9.02406 12.2285 9.18812 12.4102C9.28187 12.5273 9.9557 12.832 10.1139 12.832C10.2018 12.832 11.0397 10.7227 10.9752 10.6641C10.9225 10.6172 10.0905 10.3125 10.0319 10.3184C10.0084 10.3184 9.93812 10.3418 9.87367 10.3711Z" fill="black"/>
<path d="M9.25781 14.559C8.73047 15.7836 8.50781 16.1644 7.41211 17.7523C6.43945 19.1527 6.09961 19.7269 5.8418 20.4008C5.66602 20.8578 5.66016 20.934 5.6543 21.6781C5.6543 22.3871 5.67188 22.5102 5.8125 22.8969C6.03516 23.518 6.29883 23.9281 6.77344 24.4086C7.62891 25.2758 8.92383 25.6625 10.0781 25.3988C11.2207 25.1352 12.1113 24.4144 12.627 23.348C13.1953 22.1703 13.1719 21.0629 12.5566 19.8383C12.2812 19.2875 12 18.8539 11.1738 17.6644C10.1602 16.2113 9.85547 15.6781 9.38086 14.5004C9.33398 14.3949 9.32227 14.3949 9.25781 14.559ZM8.00977 19.598C8.21484 19.7387 8.20898 19.8969 7.99219 20.3012C7.44727 21.3383 7.42969 22.0297 7.93359 22.8441C8.17383 23.2367 8.19141 23.3891 8.02734 23.5531C7.75781 23.8227 7.42969 23.6176 7.11914 22.9789C6.89062 22.516 6.79688 22.1293 6.79688 21.643C6.79688 21.1625 6.9082 20.7523 7.18945 20.1898C7.50586 19.557 7.72266 19.3988 8.00977 19.598Z" fill="black"/>
<path d="M26.209 14.6654C25.9922 14.7826 24.668 16.3529 24.668 16.4936C24.668 16.7104 24.832 16.8744 25.0488 16.8744C25.2129 16.8744 25.2891 16.8217 25.541 16.5404C25.7051 16.3588 25.8574 16.2299 25.8809 16.2533C25.9043 16.2709 25.8633 16.6107 25.793 16.9975C25.2598 19.892 23.5605 22.4818 21.123 24.1107C19.1719 25.4174 16.7168 26.1147 14.5137 25.9857C13.6934 25.9389 13.5352 25.9975 13.5352 26.3314C13.5352 26.6772 13.6523 26.724 14.6016 26.7592C17.3613 26.8647 20.0625 25.974 22.2949 24.2279C22.8926 23.765 23.959 22.6635 24.3984 22.0717C25.1836 21.0111 25.7344 19.9506 26.1387 18.7436C26.373 18.0463 26.6602 16.8158 26.6602 16.5053C26.6602 16.265 26.7539 16.3119 26.9941 16.6811C27.1816 16.9682 27.252 17.0268 27.416 17.0385C27.6504 17.0619 27.832 16.9213 27.832 16.7104C27.832 16.4994 26.6777 14.7123 26.502 14.642C26.332 14.5775 26.3672 14.5775 26.209 14.6654Z" fill="black"/>
</svg>
