<svg width="33" height="33" viewBox="0 0 33 33" fill="none" xmlns="http://www.w3.org/2000/svg">
<path d="M28.0616 12.1156L26.4216 14.5823C27.2125 16.1597 27.5997 17.9087 27.5485 19.6726C27.4973 21.4364 27.0093 23.16 26.1282 24.6889H7.64825C6.50314 22.7024 6.02864 20.3997 6.2951 18.1223C6.56156 15.8449 7.5548 13.714 9.12756 12.0455C10.7003 10.377 12.7689 9.25965 15.0266 8.85918C17.2843 8.45872 19.6109 8.79644 21.6616 9.82226L24.1283 8.18226C21.6169 6.57188 18.638 5.85026 15.6681 6.13284C12.6982 6.41541 9.90884 7.68585 7.74624 9.74094C5.58364 11.796 4.17273 14.517 3.73921 17.4687C3.30568 20.4203 3.87458 23.4321 5.35492 26.0223C5.5876 26.4253 5.9217 26.7604 6.32402 26.9943C6.72635 27.2282 7.18288 27.3528 7.64825 27.3556H26.1149C26.5848 27.3575 27.0469 27.2351 27.4543 27.001C27.8617 26.7668 28.2 26.4292 28.4349 26.0223C29.6634 23.8942 30.2799 21.468 30.2164 19.0115C30.1529 16.5551 29.4118 14.164 28.0749 12.1023L28.0616 12.1156ZM15.0083 21.2356C15.2559 21.4835 15.55 21.6802 15.8737 21.8144C16.1975 21.9486 16.5445 22.0177 16.8949 22.0177C17.2454 22.0177 17.5924 21.9486 17.9161 21.8144C18.2398 21.6802 18.5339 21.4835 18.7816 21.2356L26.3282 9.91559L15.0083 17.4623C14.7603 17.7099 14.5636 18.004 14.4294 18.3277C14.2952 18.6515 14.2262 18.9985 14.2262 19.3489C14.2262 19.6994 14.2952 20.0464 14.4294 20.3701C14.5636 20.6938 14.7603 20.9879 15.0083 21.2356Z" fill="white"/>
</svg>
