<svg xmlns="http://www.w3.org/2000/svg" width="25" height="26" viewBox="0 0 25 26" fill="none">
<path d="M1.56201 4.00269C1.56201 3.17388 1.89125 2.37903 2.4773 1.79298C3.06335 1.20693 3.85821 0.877686 4.68701 0.877686L14.062 0.877686C14.8908 0.877686 15.6857 1.20693 16.2717 1.79298C16.8578 2.37903 17.187 3.17388 17.187 4.00269V16.5027C18.0158 16.5027 18.8107 16.8319 19.3967 17.418C19.9828 18.004 20.312 18.7989 20.312 19.6277V20.4089C20.312 20.6161 20.3943 20.8148 20.5408 20.9614C20.6873 21.1079 20.8861 21.1902 21.0933 21.1902C21.3005 21.1902 21.4992 21.1079 21.6457 20.9614C21.7922 20.8148 21.8745 20.6161 21.8745 20.4089V13.3777H21.0933C20.8861 13.3777 20.6873 13.2954 20.5408 13.1489C20.3943 13.0023 20.312 12.8036 20.312 12.5964V7.71362C20.312 7.50642 20.3943 7.30771 20.5408 7.1612C20.6873 7.01468 20.8861 6.93237 21.0933 6.93237H23.4292C23.412 6.18862 23.3464 5.5355 23.1151 5.023C22.9913 4.725 22.7757 4.4743 22.4995 4.30737C22.212 4.1355 21.7745 4.00269 21.0933 4.00269C20.8861 4.00269 20.6873 3.92038 20.5408 3.77386C20.3943 3.62735 20.312 3.42864 20.312 3.22144C20.312 3.01424 20.3943 2.81552 20.5408 2.66901C20.6873 2.5225 20.8861 2.44019 21.0933 2.44019C21.9745 2.44019 22.7089 2.61206 23.2995 2.96519C23.8979 3.32144 24.2901 3.82612 24.5401 4.38237C25.0011 5.40581 24.9995 6.67144 24.9995 7.63394V12.5964C24.9995 12.8036 24.9172 13.0023 24.7707 13.1489C24.6242 13.2954 24.4255 13.3777 24.2183 13.3777H23.437V20.4089C23.437 21.0305 23.1901 21.6267 22.7505 22.0662C22.311 22.5058 21.7149 22.7527 21.0933 22.7527C20.4717 22.7527 19.8755 22.5058 19.436 22.0662C18.9964 21.6267 18.7495 21.0305 18.7495 20.4089V19.6277C18.7495 19.2133 18.5849 18.8159 18.2919 18.5228C17.9988 18.2298 17.6014 18.0652 17.187 18.0652V24.3152H17.9683C18.1755 24.3152 18.3742 24.3975 18.5207 24.544C18.6672 24.6905 18.7495 24.8892 18.7495 25.0964C18.7495 25.3036 18.6672 25.5023 18.5207 25.6489C18.3742 25.7954 18.1755 25.8777 17.9683 25.8777H0.780762C0.573561 25.8777 0.374847 25.7954 0.228335 25.6489C0.0818218 25.5023 -0.000488281 25.3036 -0.000488281 25.0964C-0.000488281 24.8892 0.0818218 24.6905 0.228335 24.544C0.374847 24.3975 0.573561 24.3152 0.780762 24.3152H1.56201V4.00269ZM5.46826 4.00269C5.26106 4.00269 5.06235 4.085 4.91583 4.23151C4.76932 4.37802 4.68701 4.57674 4.68701 4.78394V12.5964C4.68701 12.8036 4.76932 13.0023 4.91583 13.1489C5.06235 13.2954 5.26106 13.3777 5.46826 13.3777H13.2808C13.488 13.3777 13.6867 13.2954 13.8332 13.1489C13.9797 13.0023 14.062 12.8036 14.062 12.5964V4.78394C14.062 4.57674 13.9797 4.37802 13.8332 4.23151C13.6867 4.085 13.488 4.00269 13.2808 4.00269H5.46826Z" fill="#405FF2"/>
<script xmlns=""/></svg>