<svg xmlns="http://www.w3.org/2000/svg" width="40" height="40" viewBox="0 0 40 40" fill="none">
<g clip-path="url(#clip0_11717_12432)">
<path d="M33.125 11.875C34.5037 11.875 35.625 10.7538 35.625 9.37503C35.625 7.99628 34.5037 6.87503 33.125 6.87503C31.7463 6.87503 30.625 7.99628 30.625 9.37503C30.625 10.7538 31.7463 11.875 33.125 11.875ZM33.125 8.12503C33.8144 8.12503 34.375 8.68565 34.375 9.37503C34.375 10.0644 33.8144 10.625 33.125 10.625C32.4356 10.625 31.875 10.0644 31.875 9.37503C31.875 8.68565 32.4356 8.12503 33.125 8.12503ZM18.125 3.75003C18.125 4.78378 18.9662 5.62503 20 5.62503C21.0338 5.62503 21.875 4.78378 21.875 3.75003C21.875 2.71628 21.0338 1.87503 20 1.87503C18.9662 1.87503 18.125 2.71628 18.125 3.75003ZM20.625 3.75003C20.625 4.09503 20.345 4.37503 20 4.37503C19.655 4.37503 19.375 4.09503 19.375 3.75003C19.375 3.40503 19.655 3.12503 20 3.12503C20.345 3.12503 20.625 3.40503 20.625 3.75003ZM23.125 3.75003C23.125 4.78378 23.9662 5.62503 25 5.62503C26.0338 5.62503 26.875 4.78378 26.875 3.75003C26.875 2.71628 26.0338 1.87503 25 1.87503C23.9662 1.87503 23.125 2.71628 23.125 3.75003ZM25.625 3.75003C25.625 4.09503 25.345 4.37503 25 4.37503C24.655 4.37503 24.375 4.09503 24.375 3.75003C24.375 3.40503 24.655 3.12503 25 3.12503C25.345 3.12503 25.625 3.40503 25.625 3.75003ZM0.625 21.25C0.625 31.2438 8.75625 39.375 18.75 39.375C28.7437 39.375 36.875 31.2438 36.875 21.25C36.875 20.0138 36.7444 18.7888 36.4981 17.5894L37.0275 17.9069C37.2681 18.0507 37.5406 18.125 37.815 18.125C37.9619 18.125 38.1094 18.1038 38.2525 18.0607C38.6719 17.9338 39.0225 17.63 39.215 17.2263C39.4144 16.8088 39.4281 16.3238 39.2531 15.895L37.7919 12.3213C39.6244 9.02753 39.8831 5.0619 38.4562 1.5519L38.0344 0.514404L35.9044 1.03878C32.0875 1.97815 29.0394 4.6644 27.655 8.26628L25.4888 8.55565C23.4256 7.45815 21.1019 6.87503 18.75 6.87503C10.8231 6.87503 4.375 13.3232 4.375 21.25C4.375 29.1769 10.8231 35.625 18.75 35.625C26.6769 35.625 33.125 29.1769 33.125 21.25C33.125 20.01 32.9613 18.7907 32.6519 17.6069L32.6575 17.61L34.3319 16.2913L34.9944 16.6882C35.4081 18.1669 35.625 19.6994 35.625 21.25C35.625 30.555 28.055 38.125 18.75 38.125C9.445 38.125 1.875 30.555 1.875 21.25C1.875 13.8763 6.7425 7.31253 13.7525 5.1394C14.0844 5.43815 14.5194 5.62503 15 5.62503C16.0337 5.62503 16.875 4.78378 16.875 3.75003C16.875 2.71628 16.0337 1.87503 15 1.87503C13.9663 1.87503 13.125 2.71628 13.125 3.75003C13.125 3.84315 13.1394 3.93253 13.1525 4.0219C5.74813 6.42815 0.625 13.4119 0.625 21.25ZM38.0869 16.6875C38.045 16.7757 37.975 16.8375 37.8913 16.8632C37.8381 16.8782 37.7581 16.8869 37.67 16.8344L35.3431 15.44C35.945 14.8819 36.4825 14.2632 36.9644 13.6007L38.095 16.3675C38.1375 16.4694 38.1344 16.5888 38.0869 16.6875ZM36.2038 2.2519L37.2844 1.98628L37.2981 2.02253C37.6744 2.94878 37.9162 3.91065 38.0344 4.88128L34.1956 2.9619C34.8319 2.6644 35.5025 2.42378 36.2038 2.2519ZM32.875 3.69878L38.1162 6.3194C38.1012 8.43065 37.4969 10.5282 36.3175 12.3519C35.9363 12.9419 35.4981 13.4888 35.0169 13.9969L28.2869 10.6313C28.3775 10.1182 28.5031 9.61128 28.6712 9.11378C29.4369 6.8544 30.9281 4.9719 32.875 3.69878ZM24.4019 10.0825C24.4444 10.0019 24.5369 9.94315 24.6431 9.9294L27.2319 9.58378C27.0831 10.1694 26.9837 10.7644 26.9281 11.3644L24.555 10.4138C24.4444 10.3694 24.4031 10.2944 24.3875 10.2532C24.3669 10.1957 24.3713 10.1388 24.4019 10.0825ZM31.875 21.25C31.875 23.265 31.405 25.1675 30.5906 26.875H28.125V28.125H29.9088C27.5944 31.8675 23.4644 34.375 18.75 34.375C14.0356 34.375 9.90563 31.8675 7.59125 28.125H21.875V26.875H6.90938C6.18 25.3463 5.74125 23.6582 5.65625 21.875H9.375V20.625H5.65687C5.80625 17.4782 7.06312 14.6238 9.05312 12.4369L11.6794 15.0632L12.5631 14.1794L9.93688 11.5532C12.1244 9.56315 14.9788 8.30628 18.125 8.1569V11.875H19.375V8.14503C20.8444 8.21503 22.2919 8.52815 23.6488 9.07315C23.51 9.19378 23.3862 9.33003 23.2987 9.49378C23.1031 9.86003 23.0719 10.2919 23.2131 10.6807C23.3594 11.0838 23.6787 11.4094 24.0887 11.5744L26.875 12.69V14.7638L31.11 16.8482C31.6125 18.2588 31.875 19.7369 31.875 21.25ZM32.5025 16.14L28.125 13.9863V12.4288C28.125 12.2713 28.1369 12.115 28.1444 11.9582L34.0444 14.9088C33.9569 14.9819 33.875 15.06 33.785 15.1307L32.5025 16.14ZM15 3.12503C15.345 3.12503 15.625 3.40503 15.625 3.75003C15.625 4.09503 15.345 4.37503 15 4.37503C14.655 4.37503 14.375 4.09503 14.375 3.75003C14.375 3.40503 14.655 3.12503 15 3.12503ZM26.3156 15.9707L27.4338 16.53L24.9338 21.53L23.8156 20.9707L26.3156 15.9707ZM23.0594 25.2794L21.9412 24.72L23.1912 22.22L24.3094 22.7794L23.0594 25.2794ZM22.5606 28.4825L28.1856 16.6075L29.315 17.1419L23.69 29.0169L22.5606 28.4825ZM26.3075 25.9882L30.0575 17.8632L31.1925 18.3869L27.4425 26.5119L26.3075 25.9882ZM25.6906 27.2207L26.8088 27.78L25.5588 30.28L24.4406 29.7207L25.6906 27.2207Z" fill="#1749B3"/>
</g>
<defs>
<clipPath id="clip0_11717_12432">
<rect width="40" height="40" fill="white"/>
</clipPath>
</defs>
<script xmlns=""/></svg>