<svg xmlns="http://www.w3.org/2000/svg" width="40" height="40" viewBox="0 0 40 40" fill="none">
<path d="M32.7171 37.3505H5.90982C4.76161 37.3505 4.76161 39.0621 5.90982 39.0621H34.0996C35.2478 39.0621 35.2478 37.3505 34.0996 37.3505H32.7171ZM19.993 16.6471C12.2133 26.4947 21.6333 28.7691 22.8987 24.3845C23.3673 22.7433 22.7815 20.1876 19.993 16.6471ZM16.1969 24.6424C15.6345 22.6729 16.314 19.6717 19.6181 15.6389C19.829 15.3576 20.1805 15.381 20.3679 15.592C29.8348 27.1278 17.884 30.4807 16.1969 24.6424ZM15.8454 2.27433C15.3299 2.27433 15.3533 1.64127 15.3767 0.937866H14.2519C14.2754 1.64127 14.2988 2.27433 13.7598 2.27433C13.2209 2.27433 13.2443 1.64127 13.2912 0.937866H12.143C12.1664 1.64127 12.1898 2.27433 11.6743 2.27433C11.1354 2.27433 11.1588 1.64127 11.1822 0.937866H10.7136V2.88394H16.8061V0.937866H16.3375C16.3609 1.64127 16.3843 2.27433 15.8454 2.27433ZM9.77625 2.88394V0.468933C9.77625 0.21102 9.98715 0 10.2449 0H17.2748C17.5325 0 17.7434 0.21102 17.7434 0.468933V2.88394H34.0996C36.4664 2.88394 36.4664 6.49472 34.0996 6.49472H33.1857V10.3634H33.8887C36.5367 10.3634 36.5367 14.4197 33.8887 14.4197C33.7481 14.4197 33.5138 14.4197 33.1857 14.4197V19.4138H33.8887C36.5367 19.4138 36.5367 23.4701 33.8887 23.4701H33.1857V28.4877H33.8887C36.5367 28.4877 36.5367 32.5205 33.8887 32.5205H33.1857V36.4127H34.0996C36.4664 36.4127 36.4664 40 34.0996 40H5.90982C3.54309 40 3.54309 36.4127 5.90982 36.4127H6.80027V32.5205H6.12072C3.47279 32.5205 3.47279 28.4877 6.12072 28.4877H6.80027V23.4701H6.12072C3.47279 23.4701 3.47279 19.4138 6.12072 19.4138H6.80027V14.4197H6.12072C3.47279 14.4197 3.47279 10.3634 6.12072 10.3634H6.80027V6.49472H5.90982C3.54309 6.49472 3.51966 2.88394 5.90982 2.88394H9.77625ZM32.2484 32.5205H7.73759V36.4127H32.2484V32.5205ZM7.73759 28.4642C9.58879 28.4642 12.4945 28.4408 14.3457 28.4642C12.7991 27.2216 11.6743 25.4631 11.2057 23.4701H7.73759V28.4642ZM20.5788 29.5193C24.9842 29.1208 28.1711 25.51 28.0774 21.313C27.9368 15.3576 21.9145 11.6764 16.4781 14.1618C13.6895 15.4513 11.768 18.5932 11.9321 21.7585C12.1664 26.2603 15.9391 29.8242 20.5788 29.5193ZM25.6403 28.4877H32.2484V23.4701H28.7804C28.3351 25.4631 27.1869 27.2216 25.6403 28.4877ZM6.12072 29.4256C4.69131 29.4256 4.69131 31.5826 6.12072 31.5826H33.8887C35.2947 31.5826 35.2947 29.4256 33.8887 29.4256H24.2109C23.7188 29.6835 23.2267 29.8945 22.6878 30.0586C20.9303 30.5979 19.0557 30.5979 17.2982 30.0586C16.7827 29.8945 16.2672 29.6835 15.7751 29.4256H6.12072ZM28.7804 19.4138H32.2484V14.4197C30.4207 14.4197 27.515 14.4431 25.6638 14.4197C27.2103 15.6624 28.3351 17.4209 28.7804 19.4138ZM28.9444 22.5322H33.8887C35.2947 22.5322 35.2947 20.3517 33.8887 20.3517H28.9444C29.0381 21.0317 29.0381 21.8523 28.9444 22.5322ZM7.73759 19.4138H11.2057C11.6743 17.4209 12.7991 15.6624 14.3691 14.4197H7.73759V19.4138ZM6.12072 20.3751C4.69131 20.3751 4.69131 22.5322 6.12072 22.5322H11.0416C10.9479 21.8992 10.9479 21.0082 11.0416 20.3751H6.12072ZM7.73759 10.3634H32.2484V6.49472H7.73759V10.3634ZM24.2109 13.4818H33.8887C35.2947 13.4818 35.2947 11.3013 33.8887 11.3013H6.12072C4.69131 11.3013 4.69131 13.4818 6.12072 13.4818H15.7751C16.15 13.388 17.392 12.4267 19.993 12.4267C21.5396 12.4267 22.9221 12.7784 24.2109 13.4818ZM5.90982 3.82181C4.76161 3.82181 4.76161 5.55686 5.90982 5.55686H34.0996C35.2244 5.55686 35.2244 3.82181 34.0996 3.82181H5.90982Z" fill="#1749B3"/>
<script xmlns=""/></svg>