<svg xmlns="http://www.w3.org/2000/svg" width="40" height="40" viewBox="0 0 40 40" fill="none">
<path d="M14.8387 10.3226C10.9256 10.3226 7.74195 13.5062 7.74195 17.4194C7.74195 21.3325 10.9256 24.5162 14.8387 24.5162C18.7519 24.5162 21.9355 21.3325 21.9355 17.4194C21.9355 13.5062 18.7519 10.3226 14.8387 10.3226ZM14.8387 18.0646C14.483 18.0646 14.1936 17.7751 14.1936 17.4194C14.1936 17.0637 14.483 16.7742 14.8387 16.7742C15.1945 16.7742 15.4839 17.0637 15.4839 17.4194C15.4839 17.7751 15.1945 18.0646 14.8387 18.0646ZM15.6726 15.673C15.6114 15.6437 15.5484 15.6178 15.4839 15.5949V11.6496C16.6021 11.7738 17.6248 12.2169 18.4601 12.8855L15.6726 15.673ZM14.1936 15.5949C14.1291 15.6178 14.066 15.6437 14.0049 15.673L11.2174 12.8855C12.0527 12.2169 13.0755 11.7738 14.1936 11.6496V15.5949ZM13.0924 16.5855C13.063 16.6467 13.0371 16.7097 13.0142 16.7742H9.06897C9.19316 15.6561 9.63623 14.6333 10.3049 13.798L13.0924 16.5855ZM13.0142 18.0646C13.0371 18.1291 13.063 18.1921 13.0924 18.2533L10.3049 21.0408C9.63623 20.2054 9.19316 19.1826 9.06897 18.0646H13.0142ZM14.0049 19.1658C14.0661 19.1951 14.1291 19.221 14.1936 19.2439V23.1892C13.0754 23.065 12.0527 22.6219 11.2174 21.9533L14.0049 19.1658ZM15.4839 19.2439C15.5484 19.221 15.6115 19.1951 15.6726 19.1658L18.4601 21.9533C17.6248 22.6219 16.602 23.065 15.4839 23.1892V19.2439ZM16.5851 18.2533C16.6145 18.1921 16.6404 18.1291 16.6633 18.0646H20.6085C20.4843 19.1827 20.0413 20.2054 19.3726 21.0408L16.5851 18.2533ZM16.6633 16.7742C16.6404 16.7097 16.6145 16.6466 16.5851 16.5855L19.3726 13.798C20.0413 14.6333 20.4843 15.6562 20.6085 16.7742H16.6633ZM27.0968 16.7742C27.0968 17.1305 26.808 17.4194 26.4517 17.4194C26.0954 17.4194 25.8065 17.1305 25.8065 16.7742C25.8065 16.4179 26.0954 16.1291 26.4517 16.1291C26.808 16.1291 27.0968 16.4179 27.0968 16.7742ZM1.29033 27.0968C1.29033 28.8755 2.73743 30.3226 4.51614 30.3226C5.22348 30.3226 5.90929 30.0868 6.46663 29.664C7.46131 30.3462 8.5426 30.9107 9.69075 31.3368C9.68284 31.4286 9.67744 31.5207 9.67744 31.613C9.67744 33.3917 11.1245 34.8388 12.9033 34.8388C14.4787 34.8388 15.7933 33.7031 16.0732 32.2075C17.6136 32.0816 19.1083 31.7191 20.5348 31.1247L23.9263 34.5162L22.9586 35.4839L26.4517 38.9769L27.4194 38.0092L28.8205 39.4102C29.2009 39.7906 29.7065 40 30.2444 40C31.3547 40.0001 32.2581 39.0967 32.2581 37.9863C32.2581 37.4484 32.0486 36.9427 31.6684 36.5623L30.2673 35.1614L33.8157 31.613L30.3226 28.12L29.3549 29.0877L26.658 26.3908C28.098 24.4964 29.0596 22.2904 29.4621 19.9514C30.3231 19.7553 30.9678 18.984 30.9678 18.0646V15.4839C30.9678 14.6429 30.4284 13.9258 29.6775 13.6594V12.2581H32.2581C32.2581 13.3253 33.1264 14.1936 34.1936 14.1936H36.1291C36.1291 14.905 36.708 15.4839 37.4194 15.4839H38.7098C39.4212 15.4839 40.0001 14.905 40.0001 14.1936V1.29033C40.0001 0.578872 39.4212 0 38.7098 0H37.4194C36.708 0 36.1291 0.578872 36.1291 1.29033H34.1936C33.3526 1.29033 32.6355 1.82976 32.3691 2.58065H14.8387C11.735 2.58065 8.85131 3.5392 6.46663 5.17477C5.90929 4.75203 5.22348 4.51614 4.51614 4.51614C2.73743 4.51614 1.29033 5.96324 1.29033 7.74195C1.29033 8.52768 1.57275 9.27195 2.07847 9.85381C0.759195 12.0706 0 14.6578 0 17.4194C0 20.181 0.759195 22.7682 2.07847 24.985C1.57275 25.5668 1.29033 26.3111 1.29033 27.0968ZM37.4194 1.29033H38.7098L38.7106 14.1936C38.7106 14.1936 38.7103 14.1936 38.7098 14.1936H37.4194V1.29033ZM4.51614 29.0323C3.44896 29.0323 2.58065 28.164 2.58065 27.0968C2.58065 26.7537 2.67097 26.4238 2.83702 26.1348C3.56662 27.1367 4.41783 28.0444 5.36977 28.8354C5.10832 28.9642 4.81864 29.0323 4.51614 29.0323ZM12.9033 33.5485C11.8809 33.5485 11.0416 32.7514 10.9728 31.7463C12.1719 32.0701 13.4304 32.2472 14.7282 32.2568C14.4622 33.0084 13.7449 33.5485 12.9033 33.5485ZM30.7559 37.4748C30.8925 37.6114 30.9678 37.7931 30.9678 37.9864C30.9678 38.3852 30.6433 38.7098 30.2443 38.7098C30.0511 38.7098 29.8695 38.6345 29.7328 38.4979L28.3318 37.0968L29.3549 36.0738L30.7559 37.4748ZM31.991 31.613L26.4517 37.1523L24.7834 35.4839L30.3226 29.9447L31.991 31.613ZM24.8388 33.6038L17.8512 26.6162C19.5441 26.0603 21.0325 25.0495 22.1709 23.7285L28.4425 30.0001L24.8388 33.6038ZM14.8387 25.8065C10.2141 25.8065 6.45163 22.0441 6.45163 17.4194C6.45163 12.7947 10.2141 9.03228 14.8387 9.03228C19.4634 9.03228 23.2259 12.7947 23.2259 17.4194C23.2259 22.0441 19.4634 25.8065 14.8387 25.8065ZM22.9535 22.6862C23.4867 21.8675 23.8992 20.9638 24.1663 20H28.1397C27.758 21.9776 26.9374 23.8442 25.7356 25.4684L22.9535 22.6862ZM29.6775 18.0646C29.6775 18.4203 29.388 18.7097 29.0323 18.7097H24.43C24.4865 18.2875 24.5162 17.8569 24.5162 17.4194C24.5162 16.526 24.3939 15.6607 24.1663 14.8387H29.0323C29.388 14.8387 29.6775 15.1282 29.6775 15.4839V18.0646ZM33.5485 3.22581C33.5485 2.87009 33.8379 2.58065 34.1936 2.58065H36.1291V12.9033H34.1936C33.8379 12.9033 33.5485 12.6138 33.5485 12.2581V3.22581ZM2.58065 7.74195C2.58065 6.67477 3.44896 5.80646 4.51614 5.80646C4.81864 5.80646 5.10832 5.87461 5.36977 6.0034C4.41783 6.79429 3.56662 7.70203 2.83702 8.70397C2.67097 8.41502 2.58065 8.0851 2.58065 7.74195ZM14.8387 3.87098H32.2581V10.9678H28.3872V13.5484H23.7073C22.211 10.1337 18.7992 7.74195 14.8387 7.74195C9.5026 7.74195 5.1613 12.0833 5.1613 17.4194C5.1613 22.7555 9.5026 27.0968 14.8387 27.0968C15.3643 27.0968 15.88 27.0541 16.3832 26.973L19.5396 30.1295C18.0401 30.6855 16.4632 30.9678 14.8387 30.9678C7.36808 30.9678 1.29033 24.8901 1.29033 17.4194C1.29033 9.94873 7.36808 3.87098 14.8387 3.87098Z" fill="#1749B3"/>
<script xmlns=""/></svg>