<svg width="26" height="26" viewBox="0 0 26 26" fill="none" xmlns="http://www.w3.org/2000/svg">
<path d="M2.06348 3.69153C2.06348 2.86273 2.39272 2.06787 2.97877 1.48182C3.56482 0.895768 4.35967 0.566528 5.18848 0.566528L14.5635 0.566528C15.3923 0.566528 16.1871 0.895768 16.7732 1.48182C17.3592 2.06787 17.6885 2.86273 17.6885 3.69153V16.1915C18.5173 16.1915 19.3121 16.5208 19.8982 17.1068C20.4842 17.6929 20.8135 18.4877 20.8135 19.3165V20.0978C20.8135 20.305 20.8958 20.5037 21.0423 20.6502C21.1888 20.7967 21.3875 20.879 21.5947 20.879C21.8019 20.879 22.0006 20.7967 22.1472 20.6502C22.2937 20.5037 22.376 20.305 22.376 20.0978V13.0665H21.5947C21.3875 13.0665 21.1888 12.9842 21.0423 12.8377C20.8958 12.6912 20.8135 12.4925 20.8135 12.2853V7.40247C20.8135 7.19527 20.8958 6.99655 21.0423 6.85004C21.1888 6.70353 21.3875 6.62122 21.5947 6.62122H23.9307C23.9135 5.87747 23.8479 5.22434 23.6166 4.71184C23.4928 4.41385 23.2771 4.16314 23.001 3.99622C22.7135 3.82434 22.276 3.69153 21.5947 3.69153C21.3875 3.69153 21.1888 3.60922 21.0423 3.46271C20.8958 3.31619 20.8135 3.11748 20.8135 2.91028C20.8135 2.70308 20.8958 2.50436 21.0423 2.35785C21.1888 2.21134 21.3875 2.12903 21.5947 2.12903C22.476 2.12903 23.2104 2.3009 23.801 2.65403C24.3994 3.01028 24.7916 3.51497 25.0416 4.07122C25.5025 5.09465 25.501 6.36028 25.501 7.32278V12.2853C25.501 12.4925 25.4187 12.6912 25.2722 12.8377C25.1256 12.9842 24.9269 13.0665 24.7197 13.0665H23.9385V20.0978C23.9385 20.7194 23.6915 21.3155 23.252 21.7551C22.8125 22.1946 22.2163 22.4415 21.5947 22.4415C20.9731 22.4415 20.377 22.1946 19.9374 21.7551C19.4979 21.3155 19.251 20.7194 19.251 20.0978V19.3165C19.251 18.9021 19.0864 18.5047 18.7933 18.2117C18.5003 17.9186 18.1029 17.754 17.6885 17.754V24.004H18.4697C18.6769 24.004 18.8756 24.0863 19.0222 24.2329C19.1687 24.3794 19.251 24.5781 19.251 24.7853C19.251 24.9925 19.1687 25.1912 19.0222 25.3377C18.8756 25.4842 18.6769 25.5665 18.4697 25.5665H1.28223C1.07503 25.5665 0.876312 25.4842 0.729799 25.3377C0.583287 25.1912 0.500977 24.9925 0.500977 24.7853C0.500977 24.5781 0.583287 24.3794 0.729799 24.2329C0.876312 24.0863 1.07503 24.004 1.28223 24.004H2.06348V3.69153ZM5.96973 3.69153C5.76253 3.69153 5.56381 3.77384 5.4173 3.92035C5.27079 4.06686 5.18848 4.26558 5.18848 4.47278V12.2853C5.18848 12.4925 5.27079 12.6912 5.4173 12.8377C5.56381 12.9842 5.76253 13.0665 5.96973 13.0665H13.7822C13.9894 13.0665 14.1881 12.9842 14.3347 12.8377C14.4812 12.6912 14.5635 12.4925 14.5635 12.2853V4.47278C14.5635 4.26558 14.4812 4.06686 14.3347 3.92035C14.1881 3.77384 13.9894 3.69153 13.7822 3.69153H5.96973Z" fill="white"/>
</svg>
