<svg xmlns="http://www.w3.org/2000/svg" width="40" height="40" viewBox="0 0 40 40" fill="none">
<path d="M11.6129 32.9032C11.6129 33.2595 11.324 33.5484 10.9677 33.5484C10.6115 33.5484 10.3226 33.2595 10.3226 32.9032C10.3226 32.5469 10.6115 32.2581 10.9677 32.2581C11.324 32.2581 11.6129 32.5469 11.6129 32.9032ZM29.0323 33.5484C29.3885 33.5484 29.6774 33.2595 29.6774 32.9032C29.6774 32.5469 29.3885 32.2581 29.0323 32.2581C28.676 32.2581 28.3871 32.5469 28.3871 32.9032C28.3871 33.2595 28.676 33.5484 29.0323 33.5484ZM2.58065 34.8387C1.86919 34.8387 1.29032 34.2598 1.29032 33.5484V25.8064C1.29032 25.095 1.86919 24.5161 2.58065 24.5161H3.87097C4.58242 24.5161 5.16129 25.095 5.16129 25.8064V33.5484C5.16129 34.2598 4.58242 34.8387 3.87097 34.8387H2.58065ZM2.58065 33.5484H3.87097H3.87177L3.87097 25.8064H2.58065V33.5484ZM1.29032 38.0645C1.29032 36.9973 2.15863 36.129 3.22581 36.129C4.29298 36.129 5.16129 36.9973 5.16129 38.0645C5.16129 39.1318 4.29298 40 3.22581 40C2.15863 40 1.29032 39.1318 1.29032 38.0645ZM2.58065 38.0645C2.58065 38.4202 2.87008 38.7097 3.22581 38.7097C3.58153 38.7097 3.87097 38.4202 3.87097 38.0645C3.87097 37.7088 3.58153 37.4194 3.22581 37.4194C2.87008 37.4194 2.58065 37.7088 2.58065 38.0645ZM36.129 34.8387C35.4176 34.8387 34.8387 34.2598 34.8387 33.5484V25.8064C34.8387 25.095 35.4176 24.5161 36.129 24.5161H37.4194C38.1308 24.5161 38.7097 25.095 38.7097 25.8064V33.5484C38.7097 34.2598 38.1308 34.8387 37.4194 34.8387H36.129ZM36.129 33.5484H37.4194H37.4202L37.4194 25.8064H36.129V33.5484ZM34.8387 38.0645C34.8387 36.9973 35.707 36.129 36.7742 36.129C37.8414 36.129 38.7097 36.9973 38.7097 38.0645C38.7097 39.1318 37.8414 40 36.7742 40C35.707 40 34.8387 39.1318 34.8387 38.0645ZM36.129 38.0645C36.129 38.4202 36.4185 38.7097 36.7742 38.7097C37.1299 38.7097 37.4194 38.4202 37.4194 38.0645C37.4194 37.7088 37.1299 37.4194 36.7742 37.4194C36.4185 37.4194 36.129 37.7088 36.129 38.0645ZM40 9.03226C40 10.6099 39.593 12.0941 38.879 13.3862C39.6223 15.5074 40 17.7307 40 20V23.2258H29.2408C29.5204 23.8128 29.6774 24.469 29.6774 25.1613V25.8813C29.849 25.8323 30.0285 25.8064 30.2119 25.8064H31.6129C32.6801 25.8064 33.5484 26.6747 33.5484 27.7419V29.0323C33.5484 30.0995 32.6801 30.9677 31.6129 30.9677H31.6111C32.0171 31.5073 32.2581 32.1776 32.2581 32.9032V34.1935C32.2581 35.2608 31.3898 36.129 30.3226 36.129H29.6774V38.0645C29.6774 39.1318 28.8091 40 27.7419 40H26.4516C25.3844 40 24.5161 39.1318 24.5161 38.0645V36.129H21.2903H18.7097H15.4839V38.0645C15.4839 39.1318 14.6156 40 13.5484 40H12.2581C11.1909 40 10.3226 39.1318 10.3226 38.0645V36.129H9.67742C8.61024 36.129 7.74194 35.2608 7.74194 34.1935V32.9032C7.74194 32.1776 7.9829 31.5073 8.38887 30.9677H8.3871C7.31992 30.9677 6.45161 30.0995 6.45161 29.0323V27.7419C6.45161 26.6747 7.31992 25.8064 8.3871 25.8064H9.78815C9.97153 25.8064 10.151 25.8323 10.3226 25.8813V25.1613C10.3226 24.469 10.4796 23.8128 10.7592 23.2258H0V20C0 14.6578 2.0804 9.6354 5.8579 5.8579C9.6354 2.08032 14.6578 0 20 0C22.2693 0 24.4925 0.377661 26.6138 1.12097C27.9058 0.407016 29.3901 0 30.9677 0C35.9481 0 40 4.05185 40 9.03226ZM30.9677 1.29032C26.6988 1.29032 23.2258 4.76331 23.2258 9.03226C23.2258 13.3012 26.6988 16.7742 30.9677 16.7742C35.2367 16.7742 38.7097 13.3012 38.7097 9.03226C38.7097 4.76331 35.2367 1.29032 30.9677 1.29032ZM35.7823 16.671C34.3877 17.5531 32.7364 18.0645 30.9677 18.0645C25.9873 18.0645 21.9355 14.0127 21.9355 9.03226C21.9355 7.26363 22.4469 5.61234 23.329 4.21774C22.447 4.0325 21.5492 3.92105 20.6452 3.88516V6.45161H19.3548V3.885C17.6301 3.95323 15.9739 4.29266 14.4285 4.86331L15.4113 7.23605L14.2193 7.72984L13.2373 5.35935C11.7014 6.07169 10.2957 7.01855 9.06645 8.15403L10.8761 9.96371L9.96371 10.876L8.15403 9.06637C7.01855 10.2957 6.07169 11.7014 5.35935 13.2373L7.72984 14.2191L7.23605 15.4113L4.86331 14.4285C4.29266 15.9739 3.95323 17.6301 3.885 19.3548H6.45161V20.6452H3.87097V21.9355H11.6824C12.4973 21.1381 13.6113 20.6452 14.8387 20.6452H16.129V20C16.129 19.1314 16.7042 18.3947 17.4936 18.1506L13.6312 11.284L14.7558 10.6515L18.9257 18.0645H21.9355C23.0027 18.0645 23.871 18.9327 23.871 20V20.6452H25.1613C26.3888 20.6452 27.5028 21.1381 28.3176 21.9355H36.129V20.6452H33.5484V19.3548H36.1148C36.079 18.4507 35.9675 17.553 35.7823 16.671ZM28.3871 25.1613C28.3871 23.3826 26.94 21.9355 25.1613 21.9355H14.8387C13.06 21.9355 11.6129 23.3826 11.6129 25.1613V29.6774H12.9032V25.1613C12.9032 24.0941 13.7715 23.2258 14.8387 23.2258H25.1613C26.2285 23.2258 27.0968 24.0941 27.0968 25.1613V29.6774H28.3871V25.1613ZM25.8064 25.1613C25.8064 24.8056 25.517 24.5161 25.1613 24.5161H14.8387C14.483 24.5161 14.1935 24.8056 14.1935 25.1613V28.4981C14.3955 28.4265 14.6126 28.3871 14.8387 28.3871H25.1613C25.3874 28.3871 25.6045 28.4265 25.8064 28.4981V25.1613ZM17.4194 20V20.6452H22.5806V20C22.5806 19.6443 22.2912 19.3548 21.9355 19.3548H18.0645C17.7088 19.3548 17.4194 19.6443 17.4194 20ZM1.29032 21.9355H2.58065V20C2.58065 15.3471 4.39258 10.9727 7.68266 7.68266C10.9728 4.39258 15.3472 2.58065 20 2.58065C21.4103 2.58065 22.8125 2.75097 24.1748 3.08621C24.5061 2.70815 24.8684 2.35782 25.2577 2.03935C23.5573 1.54202 21.7942 1.29032 20 1.29032C9.68347 1.29032 1.29032 9.68347 1.29032 20V21.9355ZM8.3871 29.6774H10.3226V27.364L10.2443 27.2857C10.1224 27.1639 9.9604 27.0968 9.78815 27.0968H8.3871C8.03137 27.0968 7.74194 27.3862 7.74194 27.7419V29.0323C7.74194 29.388 8.03137 29.6774 8.3871 29.6774ZM14.1935 36.129H11.6129V38.0645C11.6129 38.4202 11.9023 38.7097 12.2581 38.7097H13.5484C13.9041 38.7097 14.1935 38.4202 14.1935 38.0645V36.129ZM15.0657 34.8387C13.9057 33.9009 13.1131 32.5267 12.9399 30.9677H10.9677C9.90056 30.9677 9.03226 31.836 9.03226 32.9032V34.1935C9.03226 34.5493 9.32169 34.8387 9.67742 34.8387H15.0657ZM21.2903 34.8387C23.7806 34.8387 25.8064 32.8127 25.8064 30.3226C25.8064 29.9669 25.517 29.6774 25.1613 29.6774H14.8387C14.483 29.6774 14.1935 29.9669 14.1935 30.3226C14.1935 32.8127 16.2194 34.8387 18.7097 34.8387H21.2903ZM28.3871 36.129H25.8064V38.0645C25.8064 38.4202 26.0959 38.7097 26.4516 38.7097H27.7419C28.0977 38.7097 28.3871 38.4202 28.3871 38.0645V36.129ZM29.0323 30.9677H27.0601C26.8869 32.5267 26.0943 33.9009 24.9343 34.8387H30.3226C30.6783 34.8387 30.9677 34.5493 30.9677 34.1935V32.9032C30.9677 31.836 30.0994 30.9677 29.0323 30.9677ZM29.6774 27.364V29.6774H31.6129C31.9686 29.6774 32.2581 29.388 32.2581 29.0323V27.7419C32.2581 27.3862 31.9686 27.0968 31.6129 27.0968H30.2119C30.0395 27.0968 29.8775 27.1639 29.7557 27.2857L29.6774 27.364ZM37.9606 14.7423C37.6422 15.1316 37.2919 15.4938 36.9138 15.8252C37.249 17.1873 37.4194 18.5895 37.4194 20V21.9355H38.7097V20C38.7097 18.2058 38.458 16.4427 37.9606 14.7423ZM31.6129 11.6129V6.45161C31.6129 5.38435 32.4812 4.51613 33.5484 4.51613C34.6156 4.51613 35.4839 5.38435 35.4839 6.45161V11.6129C35.4839 12.6802 34.6156 13.5484 33.5484 13.5484C32.4812 13.5484 31.6129 12.6802 31.6129 11.6129ZM32.9032 11.6129C32.9032 11.9686 33.1927 12.2581 33.5484 12.2581C33.9041 12.2581 34.1935 11.9686 34.1935 11.6129V6.45161C34.1935 6.09589 33.9041 5.80645 33.5484 5.80645C33.1927 5.80645 32.9032 6.09589 32.9032 6.45161V11.6129ZM26.4516 11.6129V10.9677H27.7419V11.6129C27.7419 11.9686 28.0314 12.2581 28.3871 12.2581C28.7428 12.2581 29.0323 11.9686 29.0323 11.6129V9.67742H28.3871C27.3199 9.67742 26.4516 8.80919 26.4516 7.74194V6.45161C26.4516 5.38435 27.3199 4.51613 28.3871 4.51613C29.4543 4.51613 30.3226 5.38435 30.3226 6.45161V11.6129C30.3226 12.6802 29.4543 13.5484 28.3871 13.5484C27.3199 13.5484 26.4516 12.6802 26.4516 11.6129ZM29.0323 8.3871V6.45161C29.0323 6.09589 28.7428 5.80645 28.3871 5.80645C28.0314 5.80645 27.7419 6.09589 27.7419 6.45161V7.74194C27.7419 8.09766 28.0314 8.3871 28.3871 8.3871H29.0323Z" fill="#1749B3"/>
<script xmlns=""/></svg>