<svg width="33" height="33" viewBox="0 0 33 33" fill="none" xmlns="http://www.w3.org/2000/svg">
<path d="M20.8887 1.8335H12.8887V4.50016H20.8887V1.8335ZM26.262 10.3535L28.1553 8.46016C27.582 7.78016 26.9553 7.14016 26.2753 6.58016L24.382 8.4735C22.2584 6.7646 19.6144 5.83308 16.8887 5.8335C10.262 5.8335 4.88867 11.2068 4.88867 17.8335C4.88867 24.4602 10.2487 29.8335 16.8887 29.8335C19.1478 29.8347 21.3612 29.1978 23.2742 27.9961C25.1871 26.7944 26.7217 25.0768 27.7013 23.0411C28.6808 21.0055 29.0654 18.7345 28.8107 16.4898C28.5561 14.2452 27.6726 12.118 26.262 10.3535ZM16.8887 27.1668C11.7287 27.1668 7.55534 22.9935 7.55534 17.8335C7.55534 12.6735 11.7287 8.50016 16.8887 8.50016C22.0487 8.50016 26.222 12.6735 26.222 17.8335C26.222 22.9935 22.0487 27.1668 16.8887 27.1668ZM16.462 20.5002H9.35534C9.7332 21.5686 10.334 22.5443 11.1179 23.3627C11.9018 24.1811 12.8509 24.8234 13.902 25.2468L13.7553 25.1668L16.462 20.5002ZM24.422 15.1668C24.0497 14.1131 23.4612 13.1489 22.6943 12.336C21.9274 11.5232 20.999 10.8797 19.9687 10.4468L17.2353 15.1668H24.422ZM15.0353 25.6068C15.6353 25.7535 16.2487 25.8335 16.8887 25.8335C18.6753 25.8335 20.3153 25.2335 21.6487 24.2468L18.8353 19.0468L15.0353 25.6068ZM10.9553 12.4868C9.62582 13.9502 8.88904 15.8563 8.88867 17.8335C8.88867 18.2868 8.94201 18.7268 9.00867 19.1668H15.302L10.9553 12.4868ZM22.6753 23.3402C24.099 21.8609 24.8925 19.8865 24.8887 17.8335C24.8887 17.3802 24.8353 16.9402 24.7687 16.5002H18.982L22.6753 23.3402ZM18.662 10.0335C18.0887 9.9135 17.502 9.8335 16.8887 9.8335C15.022 9.8335 13.302 10.4868 11.942 11.5535L15.0353 16.3002L18.662 10.0335Z" fill="white"/>
</svg>
