<svg xmlns="http://www.w3.org/2000/svg" width="33" height="33" viewBox="0 0 33 33" fill="none">
<path d="M27.6729 11.9868L26.0329 14.4535C26.8238 16.0309 27.211 17.7799 27.1598 19.5438C27.1086 21.3077 26.6206 23.0313 25.7396 24.5602H7.25958C6.11447 22.5736 5.63997 20.271 5.90643 17.9936C6.17289 15.7162 7.16613 13.5853 8.73888 11.9167C10.3116 10.2482 12.3802 9.13089 14.6379 8.73043C16.8956 8.32997 19.2222 8.66768 21.2729 9.6935L23.7396 8.0535C21.2282 6.44312 18.2493 5.72151 15.2794 6.00408C12.3095 6.28666 9.52017 7.5571 7.35757 9.61219C5.19497 11.6673 3.78406 14.3883 3.35054 17.3399C2.91701 20.2916 3.48591 23.3034 4.96625 25.8935C5.19893 26.2965 5.53303 26.6317 5.93535 26.8656C6.33768 27.0995 6.79421 27.224 7.25958 27.2268H25.7262C26.1961 27.2287 26.6582 27.1064 27.0656 26.8722C27.473 26.6381 27.8113 26.3004 28.0462 25.8935C29.2747 23.7654 29.8913 21.3392 29.8277 18.8828C29.7642 16.4264 29.0231 14.0353 27.6862 11.9735L27.6729 11.9868ZM14.6196 21.1068C14.8672 21.3548 15.1613 21.5515 15.4851 21.6857C15.8088 21.8199 16.1558 21.8889 16.5062 21.8889C16.8567 21.8889 17.2037 21.8199 17.5274 21.6857C17.8511 21.5515 18.1453 21.3548 18.3929 21.1068L25.9396 9.78684L14.6196 17.3335C14.3716 17.5812 14.175 17.8753 14.0408 18.199C13.9066 18.5227 13.8375 18.8697 13.8375 19.2202C13.8375 19.5706 13.9066 19.9176 14.0408 20.2413C14.175 20.5651 14.3716 20.8592 14.6196 21.1068Z" fill="#405FF2"/>
<script xmlns=""/></svg>