<svg xmlns="http://www.w3.org/2000/svg" width="33" height="33" viewBox="0 0 33 33" fill="none">
<path d="M20.5 1.5159H12.5V4.18257H20.5V1.5159ZM25.8733 10.0359L27.7667 8.14257C27.1933 7.46257 26.5667 6.82257 25.8867 6.26257L23.9933 8.1559C21.8698 6.447 19.2258 5.51549 16.5 5.5159C9.87333 5.5159 4.5 10.8892 4.5 17.5159C4.5 24.1426 9.86 29.5159 16.5 29.5159C18.7591 29.5171 20.9726 28.8802 22.8855 27.6785C24.7985 26.4768 26.3331 24.7592 27.3126 22.7235C28.2921 20.6879 28.6767 18.4169 28.4221 16.1722C28.1674 13.9276 27.2839 11.8004 25.8733 10.0359ZM16.5 26.8492C11.34 26.8492 7.16667 22.6759 7.16667 17.5159C7.16667 12.3559 11.34 8.18257 16.5 8.18257C21.66 8.18257 25.8333 12.3559 25.8333 17.5159C25.8333 22.6759 21.66 26.8492 16.5 26.8492ZM16.0733 20.1826H8.96667C9.34453 21.251 9.94535 22.2267 10.7293 23.0451C11.5132 23.8635 12.4622 24.5058 13.5133 24.9292L13.3667 24.8492L16.0733 20.1826ZM24.0333 14.8492C23.6611 13.7955 23.0726 12.8313 22.3056 12.0184C21.5387 11.2056 20.6103 10.5621 19.58 10.1292L16.8467 14.8492H24.0333ZM14.6467 25.2892C15.2467 25.4359 15.86 25.5159 16.5 25.5159C18.2867 25.5159 19.9267 24.9159 21.26 23.9292L18.4467 18.7292L14.6467 25.2892ZM10.5667 12.1692C9.23715 13.6326 8.50037 15.5388 8.5 17.5159C8.5 17.9692 8.55333 18.4092 8.62 18.8492H14.9133L10.5667 12.1692ZM22.2867 23.0226C23.7103 21.5433 24.5038 19.5689 24.5 17.5159C24.5 17.0626 24.4467 16.6226 24.38 16.1826H18.5933L22.2867 23.0226ZM18.2733 9.7159C17.7 9.5959 17.1133 9.5159 16.5 9.5159C14.6333 9.5159 12.9133 10.1692 11.5533 11.2359L14.6467 15.9826L18.2733 9.7159Z" fill="#405FF2"/>
<script xmlns=""/></svg>