<svg xmlns="http://www.w3.org/2000/svg" width="29" height="29" viewBox="0 0 29 29" fill="none"><script xmlns=""/>
<rect width="29" height="29" rx="14.5" fill="#3562c7"/>
<path d="M20 17.6875C20 17.6328 20 17.5781 19.9766 17.5234C19.9219 17.3594 19.5391 17.1875 19.3828 17.1094C18.9375 16.8594 18.4844 16.6172 18.0469 16.3594C17.8438 16.2344 17.5938 16 17.3516 16C16.875 16 16.1797 17.4141 15.7578 17.4141C15.5469 17.4141 15.2734 17.2188 15.0859 17.1094C13.6641 16.3203 12.6797 15.3359 11.8906 13.9141C11.7812 13.7266 11.5859 13.4531 11.5859 13.2422C11.5859 12.8203 13 12.125 13 11.6484C13 11.4062 12.7656 11.1562 12.6406 10.9531C12.3828 10.5156 12.1406 10.0625 11.8906 9.61719C11.8125 9.46094 11.6406 9.07813 11.4766 9.02344C11.4219 9 11.3672 9 11.3125 9C11.0313 9 10.4844 9.125 10.2266 9.24219C9.84375 9.40625 9.59375 9.84375 9.39844 10.1953C9.14844 10.6563 9 11.125 9 11.6484C9 12.375 9.29688 13.0312 9.53906 13.6953C9.71094 14.1719 9.92188 14.6328 10.1875 15.0625C11.0078 16.3906 12.6094 17.9922 13.9375 18.8125C14.3672 19.0781 14.8281 19.2891 15.3047 19.4609C15.9688 19.7031 16.625 20 17.3516 20C17.875 20 18.3438 19.8516 18.8047 19.6016C19.1562 19.4063 19.5938 19.1563 19.7578 18.7734C19.875 18.5156 20 17.9688 20 17.6875Z" fill="#ffffff"/>
<script xmlns=""/></svg>