<svg xmlns="http://www.w3.org/2000/svg" width="20" height="20" viewBox="0 0 20 20" fill="none">
<path d="M13.1277 1.60484C13.1277 2.82931 12.9362 4.0316 12.5597 5.17092C12.3693 5.7292 12.544 6.4155 12.8939 6.75623L14.5915 9.00503C13.1994 11.613 11.5934 13.2194 9.00505 14.5926L6.81484 12.9449C6.38734 12.5168 5.76286 12.3633 5.17693 12.5473C4.03161 12.9254 2.8299 13.1175 1.6049 13.1175C0.719948 13.1174 -2.69378e-07 13.8374 -2.30698e-07 14.7223L-7.01498e-08 18.3952C-3.14698e-08 19.2801 0.719948 20 1.60484 20C11.7481 20 20 11.748 20 1.60484C20 0.719945 19.2801 -8.42758e-07 18.3952 -8.04078e-07L14.7325 -6.43978e-07C13.8477 5.08931e-05 13.1277 0.719999 13.1277 1.60484Z" fill="black"/>
<script xmlns=""/></svg>