<svg width="183" height="129" viewBox="0 0 183 129" fill="none" xmlns="http://www.w3.org/2000/svg">
<path d="M177.029 4.98876C182.376 19.0541 184.171 34.221 182.256 49.1459C180.341 64.0708 174.774 78.293 166.05 90.5528C157.325 102.813 145.712 112.731 132.238 119.431C118.764 126.13 103.847 129.403 88.8058 128.96C73.7651 128.517 59.0657 124.372 46.0098 116.891C32.954 109.41 21.9445 98.8246 13.9567 86.0725C5.96892 73.3204 1.24933 58.7952 0.216004 43.7835C-0.81732 28.7717 1.86751 13.7368 8.03269 0.0105629L40.4409 14.5668C36.6695 22.9635 35.0272 32.1607 35.6593 41.3438C36.2914 50.5268 39.1785 59.4123 44.0648 67.213C48.9511 75.0138 55.6859 81.4891 63.6725 86.0654C71.6591 90.6416 80.6511 93.1776 89.8519 93.4486C99.0527 93.7196 108.178 91.7174 116.42 87.6192C124.663 83.521 131.767 77.4533 137.104 69.9537C142.441 62.4541 145.846 53.754 147.018 44.6241C148.189 35.4942 147.091 26.2162 143.82 17.6121L177.029 4.98876Z" fill="url(#paint0_linear_9801_2970)"/>
<defs>
<linearGradient id="paint0_linear_9801_2970" x1="91" y1="38" x2="91.5" y2="129" gradientUnits="userSpaceOnUse">
<stop stop-color="#FE7742"/>
<stop offset="1" stop-color="#DE541E"/>
</linearGradient>
</defs>
</svg>
