<svg width="183" height="129" viewBox="0 0 183 129" fill="none" xmlns="http://www.w3.org/2000/svg">
<mask id="path-1-inside-1_9801_2315" fill="white">
<path d="M176.846 4.51149C182.271 18.5468 184.151 33.7034 182.319 48.6388C180.488 63.5742 175.001 77.8273 166.345 90.1356C157.689 102.444 146.131 112.428 132.695 119.202C119.259 125.977 104.359 129.333 89.3165 128.974C74.2735 128.615 59.5512 124.551 46.4537 117.143C33.3563 109.736 22.2879 99.2119 14.229 86.5046C6.17017 73.7973 1.36958 59.2986 0.252492 44.2928C-0.864594 29.287 1.7363 14.2374 7.8248 0.476887L40.3138 14.852C36.5893 23.2697 34.9982 32.4759 35.6816 41.6553C36.3649 50.8347 39.3016 59.7039 44.2314 67.4773C49.1612 75.2507 55.932 81.6883 63.9441 86.2199C71.9561 90.7515 80.9621 93.2373 90.1643 93.4569C99.3665 93.6766 108.481 91.6234 116.7 87.4792C124.919 83.3351 131.989 77.2278 137.284 69.6985C142.58 62.1692 145.936 53.4502 147.057 44.3139C148.177 35.1775 147.027 25.9059 143.709 17.3201L176.846 4.51149Z"/>
</mask>
<path d="M176.846 4.51149C182.271 18.5468 184.151 33.7034 182.319 48.6388C180.488 63.5742 175.001 77.8273 166.345 90.1356C157.689 102.444 146.131 112.428 132.695 119.202C119.259 125.977 104.359 129.333 89.3165 128.974C74.2735 128.615 59.5512 124.551 46.4537 117.143C33.3563 109.736 22.2879 99.2119 14.229 86.5046C6.17017 73.7973 1.36958 59.2986 0.252492 44.2928C-0.864594 29.287 1.7363 14.2374 7.8248 0.476887L40.3138 14.852C36.5893 23.2697 34.9982 32.4759 35.6816 41.6553C36.3649 50.8347 39.3016 59.7039 44.2314 67.4773C49.1612 75.2507 55.932 81.6883 63.9441 86.2199C71.9561 90.7515 80.9621 93.2373 90.1643 93.4569C99.3665 93.6766 108.481 91.6234 116.7 87.4792C124.919 83.3351 131.989 77.2278 137.284 69.6985C142.58 62.1692 145.936 53.4502 147.057 44.3139C148.177 35.1775 147.027 25.9059 143.709 17.3201L176.846 4.51149Z" fill="url(#paint0_linear_9801_2315)" stroke="url(#paint1_linear_9801_2315)" stroke-width="2" mask="url(#path-1-inside-1_9801_2315)"/>
<defs>
<linearGradient id="paint0_linear_9801_2315" x1="91.5" y1="-54" x2="91.5" y2="129" gradientUnits="userSpaceOnUse">
<stop stop-color="white"/>
<stop offset="1" stop-color="#FAFAF5" stop-opacity="0"/>
</linearGradient>
<linearGradient id="paint1_linear_9801_2315" x1="91.5" y1="-54" x2="91.5" y2="129" gradientUnits="userSpaceOnUse">
<stop stop-color="#D6D6B1"/>
<stop offset="1" stop-color="#D6D6B1" stop-opacity="0"/>
</linearGradient>
</defs>
</svg>
