<svg width="27" height="36" viewBox="0 0 27 36" fill="none" xmlns="http://www.w3.org/2000/svg">
<path d="M19.3838 20.5102C19.7193 20.089 20.431 19.7986 20.965 19.8688C21.499 19.939 22.0905 19.5816 22.2786 19.0768C22.4694 18.5767 23.058 18.0816 23.5858 17.9802C23.8544 17.9181 24.0966 17.7728 24.2779 17.5651C24.4591 17.3573 24.5701 17.0977 24.5952 16.8231C24.6157 16.2845 25.024 15.6332 25.4946 15.3766C25.7317 15.2343 25.9176 15.0205 26.0255 14.7659C26.1335 14.5112 26.1579 14.2289 26.0953 13.9596C26.0329 13.6711 26.0375 13.3722 26.1088 13.0858C26.18 12.7994 26.3159 12.5332 26.5061 12.3075C26.6879 12.099 26.7987 11.8381 26.8226 11.5625C26.8464 11.2869 26.7822 11.0108 26.6391 10.7741C26.3444 10.3234 26.29 9.55893 26.5218 9.07487C26.629 8.82015 26.653 8.53808 26.5903 8.26894C26.5276 7.99979 26.3816 7.75732 26.1729 7.57613C25.9534 7.3782 25.7817 7.13308 25.6706 6.8592C25.5595 6.58532 25.512 6.28982 25.5316 5.99492C25.5552 5.72049 25.4916 5.44561 25.3498 5.20948C25.208 4.97334 24.9952 4.78802 24.7419 4.67994C24.4718 4.56007 24.2326 4.3802 24.0425 4.154C23.8524 3.9278 23.7163 3.66123 23.6447 3.37455C23.5826 3.10547 23.4366 2.86312 23.2277 2.68251C23.0188 2.5019 22.7578 2.39239 22.4826 2.36981C22.1889 2.33902 21.906 2.24168 21.6556 2.08519C21.4051 1.9287 21.1936 1.71718 21.0371 1.4667C20.7778 0.991547 20.1404 0.72354 19.6218 0.866424C19.1033 1.00931 18.3574 0.82383 17.968 0.455166C17.7604 0.271988 17.4998 0.159932 17.2241 0.135355C16.9484 0.110778 16.6721 0.174966 16.4355 0.31855C16.18 0.466836 15.894 0.554811 15.5994 0.575763C15.3047 0.596716 15.0092 0.550092 14.7353 0.439449C14.4817 0.331269 14.2003 0.306504 13.9317 0.368731C13.6632 0.430959 13.4213 0.576956 13.2412 0.785631C12.9048 1.20262 12.1931 1.49304 11.659 1.42283C11.3841 1.39956 11.1088 1.46375 10.8725 1.60622C10.6362 1.74869 10.4509 1.96217 10.3431 2.21619C10.223 2.48608 10.0428 2.72499 9.81634 2.91472C9.58988 3.10444 9.32312 3.23999 9.03636 3.31103C8.76782 3.37422 8.5261 3.52059 8.34567 3.72928C8.16525 3.93797 8.05534 4.19831 8.03162 4.47316C8.00606 5.00851 7.59952 5.66034 7.12851 5.91869C6.6575 6.17705 6.3858 6.81352 6.52777 7.33577C6.67111 7.8525 6.48564 8.59841 6.11697 8.98782C5.93529 9.19675 5.82451 9.4579 5.80054 9.73374C5.77657 10.0096 5.84066 10.2859 5.98358 10.5231C6.28149 10.9687 6.33355 11.7346 6.10448 12.2232C5.99679 12.4767 5.97211 12.7577 6.03396 13.026C6.09582 13.2943 6.24105 13.5362 6.44882 13.7169C6.86949 14.0542 7.15577 14.7669 7.08832 15.2977C7.02179 15.8326 7.37512 16.425 7.87984 16.6131C8.38456 16.8012 8.8769 17.393 8.97837 17.9208C9.04098 18.1889 9.18673 18.4303 9.39478 18.6106C9.60283 18.7909 9.86254 18.9008 10.1368 18.9246C10.674 18.9506 11.3263 19.3553 11.5823 19.8277C11.7249 20.0646 11.9387 20.2503 12.1933 20.3583C12.4479 20.4662 12.73 20.4907 12.9994 20.4285C13.5161 20.2851 14.2621 20.4706 14.6533 20.8397C15.0446 21.2088 15.7342 21.2669 16.1849 20.9722C16.6365 20.6738 17.3982 20.6227 17.885 20.8513C18.1389 20.9597 18.4206 20.985 18.6897 20.9238C18.9589 20.8625 19.2018 20.7177 19.3838 20.5102ZM14.7551 16.9068C13.0944 16.4939 11.6657 15.4381 10.7833 13.9717C9.90101 12.5054 9.63733 10.7486 10.0503 9.08781C10.4633 7.42704 11.5191 5.99834 12.9854 5.11601C14.4518 4.23368 16.2086 3.97 17.8693 4.38297C19.5301 4.79593 20.9588 5.85173 21.8411 7.31808C22.7235 8.78444 22.9871 10.5412 22.5742 12.202C22.1612 13.8628 21.1054 15.2915 19.6391 16.1738C18.1727 17.0561 16.4159 17.3198 14.7551 16.9068ZM6.42158 18.7654L0.904059 31.1786L6.87754 31.7566L11.3097 35.8039L16.8052 23.44C14.8303 23.5205 12.8638 23.14 11.0615 22.3286C9.25921 21.5172 7.67061 20.2973 6.42158 18.7654ZM21.1078 22.5112C20.4287 22.7862 19.7272 23.0024 19.0111 23.1573L15.6935 30.6164L22.7355 28.7926L21.1078 22.5112Z" fill="#F8C304"/>
</svg>
