<svg width="20" height="26" viewBox="0 0 20 26" fill="none" xmlns="http://www.w3.org/2000/svg">
<path d="M13.8967 14.8849C14.1332 14.5881 14.6348 14.3834 15.0111 14.4329C15.3875 14.4824 15.8044 14.2304 15.937 13.8747C16.0715 13.5222 16.4863 13.1733 16.8583 13.1018C17.0476 13.058 17.2183 12.9557 17.346 12.8092C17.4738 12.6628 17.552 12.4798 17.5696 12.2863C17.5841 11.9067 17.8719 11.4476 18.2036 11.2669C18.3707 11.1665 18.5017 11.0158 18.5778 10.8364C18.6538 10.6569 18.6711 10.458 18.6269 10.2681C18.583 10.0648 18.5862 9.85415 18.6364 9.6523C18.6866 9.45045 18.7824 9.2628 18.9165 9.10378C19.0446 8.95679 19.1226 8.77292 19.1395 8.57869C19.1563 8.38445 19.111 8.18989 19.0102 8.02305C18.8025 7.7054 18.7641 7.1666 18.9275 6.82544C19.0031 6.64592 19.02 6.44713 18.9758 6.25744C18.9316 6.06775 18.8287 5.89685 18.6816 5.76916C18.5269 5.62966 18.4059 5.45689 18.3276 5.26387C18.2493 5.07084 18.2158 4.86258 18.2296 4.65473C18.2463 4.46132 18.2014 4.26759 18.1015 4.10117C18.0015 3.93474 17.8516 3.80413 17.673 3.72795C17.4827 3.64348 17.3141 3.51671 17.1801 3.35728C17.0461 3.19786 16.9503 3.00998 16.8998 2.80793C16.856 2.61829 16.7531 2.44748 16.6058 2.32019C16.4586 2.1929 16.2747 2.11572 16.0807 2.09981C15.8737 2.0781 15.6744 2.0095 15.4978 1.89921C15.3213 1.78892 15.1722 1.63984 15.0619 1.46331C14.8792 1.12842 14.43 0.939536 14.0645 1.04024C13.699 1.14094 13.1733 1.01022 12.8989 0.750389C12.7526 0.621288 12.5689 0.542312 12.3746 0.52499C12.1803 0.507669 11.9856 0.552908 11.8188 0.654104C11.6387 0.758614 11.4372 0.820618 11.2295 0.835385C11.0219 0.850152 10.8136 0.817292 10.6205 0.739312C10.4418 0.663068 10.2435 0.645614 10.0542 0.689471C9.86491 0.733328 9.69447 0.836225 9.56749 0.983297C9.33039 1.27719 8.82879 1.48187 8.45242 1.43239C8.25863 1.41599 8.06462 1.46122 7.89807 1.56164C7.73152 1.66205 7.60095 1.81251 7.52499 1.99154C7.4403 2.18175 7.31332 2.35013 7.15372 2.48385C6.99411 2.61757 6.8061 2.7131 6.604 2.76317C6.41473 2.8077 6.24437 2.91086 6.11721 3.05794C5.99005 3.20503 5.91259 3.38851 5.89587 3.58222C5.87786 3.95953 5.59133 4.41893 5.25937 4.60101C4.9274 4.7831 4.73592 5.23167 4.83598 5.59975C4.937 5.96393 4.80628 6.48964 4.54645 6.76409C4.4184 6.91135 4.34032 7.0954 4.32343 7.28981C4.30654 7.48422 4.35171 7.67898 4.45244 7.84611C4.6624 8.1602 4.69909 8.69997 4.53765 9.04437C4.46175 9.22299 4.44435 9.42105 4.48795 9.61016C4.53154 9.79928 4.6339 9.96973 4.78033 10.0971C5.07682 10.3348 5.27859 10.8371 5.23104 11.2112C5.18416 11.5882 5.43318 12.0057 5.7889 12.1383C6.14462 12.2709 6.49161 12.6879 6.56312 13.0599C6.60726 13.2489 6.70998 13.419 6.85661 13.5461C7.00324 13.6732 7.18628 13.7506 7.37958 13.7674C7.75819 13.7858 8.21791 14.071 8.39837 14.4039C8.49883 14.5709 8.64957 14.7018 8.82897 14.7778C9.00838 14.8539 9.20726 14.8712 9.39711 14.8273C9.76129 14.7263 10.287 14.857 10.5628 15.1172C10.8385 15.3773 11.3245 15.4182 11.6422 15.2105C11.9605 15.0002 12.4973 14.9642 12.8404 15.1253C13.0194 15.2017 13.2179 15.2196 13.4076 15.1764C13.5973 15.1332 13.7685 15.0312 13.8967 14.8849ZM10.6345 12.3453C9.46403 12.0543 8.4571 11.3102 7.83525 10.2767C7.21339 9.24322 7.02755 8.00505 7.31861 6.83456C7.60966 5.66407 8.35377 4.65715 9.38724 4.03529C10.4207 3.41344 11.6589 3.2276 12.8294 3.51865C13.9999 3.80971 15.0068 4.55382 15.6286 5.58728C16.2505 6.62075 16.4363 7.85892 16.1453 9.02941C15.8542 10.1999 15.1101 11.2068 14.0766 11.8287C13.0432 12.4505 11.805 12.6364 10.6345 12.3453ZM4.76114 13.6552L0.872456 22.4039L5.08249 22.8112L8.20624 25.6637L12.0794 16.9498C10.6875 17.0065 9.30156 16.7383 8.03131 16.1665C6.76106 15.5947 5.64143 14.7349 4.76114 13.6552ZM15.1118 16.2952C14.6332 16.489 14.1388 16.6414 13.634 16.7506L11.2958 22.0076L16.259 20.7222L15.1118 16.2952Z" fill="#DE541E"/>
</svg>
