<svg width="19" height="19" viewBox="0 0 19 19" fill="none" xmlns="http://www.w3.org/2000/svg">
<path d="M9.46781 18.002C11.1971 18.002 12.8875 17.4893 14.3253 16.5285C15.7631 15.5678 16.8837 14.2023 17.5455 12.6047C18.2072 11.0071 18.3804 9.24914 18.043 7.55312C17.7057 5.8571 16.873 4.29921 15.6502 3.07645C14.4274 1.8537 12.8695 1.02099 11.1735 0.683627C9.47751 0.346269 7.71955 0.519413 6.12193 1.18117C4.52432 1.84292 3.15882 2.96356 2.19811 4.40137C1.23739 5.83918 0.724609 7.52959 0.724609 9.25883C0.724609 11.5777 1.64577 13.8015 3.28543 15.4412C4.9251 17.0809 7.14897 18.002 9.46781 18.002ZM6.80949 10.3613C6.6549 10.3613 6.50664 10.2998 6.39733 10.1905C6.28802 10.0812 6.22661 9.93296 6.22661 9.77837C6.22661 9.62379 6.28802 9.47553 6.39733 9.36622C6.50664 9.25691 6.6549 9.19549 6.80949 9.19549H7.82215V5.41998C7.82215 5.2654 7.88356 5.11714 7.99287 5.00783C8.10218 4.89851 8.25044 4.8371 8.40503 4.8371H9.94655C10.6791 4.8371 11.3816 5.12811 11.8996 5.6461C12.4176 6.16409 12.7086 6.86663 12.7086 7.59918C12.7086 8.33173 12.4176 9.03427 11.8996 9.55226C11.3816 10.0703 10.6791 10.3613 9.94655 10.3613H8.98791V11.0518H11.5565C11.7111 11.0518 11.8593 11.1132 11.9686 11.2225C12.0779 11.3318 12.1393 11.4801 12.1393 11.6347C12.1393 11.7892 12.0779 11.9375 11.9686 12.0468C11.8593 12.1561 11.7111 12.2175 11.5565 12.2175H8.98791V13.1008C8.98791 13.2554 8.9265 13.4036 8.81719 13.513C8.70788 13.6223 8.55962 13.6837 8.40503 13.6837C8.25044 13.6837 8.10218 13.6223 7.99287 13.513C7.88356 13.4036 7.82215 13.2554 7.82215 13.1008V12.2175H6.80949C6.6549 12.2175 6.50664 12.1561 6.39733 12.0468C6.28802 11.9375 6.22661 11.7892 6.22661 11.6347C6.22661 11.4801 6.28802 11.3318 6.39733 11.2225C6.50664 11.1132 6.6549 11.0518 6.80949 11.0518H7.82215V10.3613H6.80949Z" fill="#FE7742"/>
<path d="M11.5431 7.59924C11.5426 7.17597 11.3742 6.77018 11.0749 6.47091C10.7755 6.17164 10.3697 6.00334 9.94644 6.00293H8.98779V9.19556H9.94644C10.3697 9.19515 10.7755 9.02685 11.0749 8.72758C11.3742 8.42831 11.5426 8.02252 11.5431 7.59924Z" fill="#FE7742"/>
</svg>
