<svg width="31" height="30" viewBox="0 0 31 30" fill="none" xmlns="http://www.w3.org/2000/svg">
<path d="M16.8434 4.95189C12.0856 5.62572 7.60321 8.76634 5.55829 12.8503C5.20673 13.5417 5.18915 13.6941 5.43525 13.8581C5.55829 13.9343 5.69892 13.9343 6.80048 13.8288C7.96064 13.7117 8.03095 13.6999 8.15985 13.5593C8.32392 13.3718 8.32392 13.2898 8.154 13.0906L8.01337 12.9324L7.21064 13.0085C6.77118 13.0495 6.39618 13.0671 6.3786 13.0495C6.30243 12.9734 7.02314 11.8191 7.63837 11.0456C8.01923 10.5593 8.904 9.63353 9.29657 9.3054L9.57782 9.07103L10.2224 9.66283C10.5739 9.99095 10.9138 10.2546 10.9782 10.2546C11.1716 10.2546 11.3532 10.0554 11.3532 9.85033C11.3532 9.68626 11.277 9.58665 10.7731 9.1179C10.4567 8.81322 10.2048 8.5554 10.2224 8.53783C10.2399 8.52025 10.5915 8.28001 11.0075 8.00462C11.7341 7.51243 13.0231 6.84447 13.7966 6.54564C14.4352 6.29954 14.3884 6.26439 14.5642 7.03197C14.652 7.40111 14.7399 7.75267 14.7634 7.81126C14.8278 7.96361 15.0505 8.03978 15.2321 7.96947C15.5017 7.864 15.5192 7.71751 15.3259 6.88548C15.2321 6.46361 15.1618 6.1179 15.1735 6.10618C15.2145 6.06517 15.8649 5.90697 16.4919 5.79564C17.3532 5.63743 18.9294 5.5847 19.7731 5.67845C20.113 5.71947 20.4059 5.7722 20.4352 5.79564C20.4587 5.81907 20.3708 6.1179 20.2419 6.46361C20.113 6.80931 20.0075 7.13158 20.0075 7.17845C20.0075 7.32493 20.2302 7.50072 20.4059 7.50072C20.6462 7.50072 20.7282 7.37767 21.0036 6.63353C21.1618 6.21165 21.2849 5.97728 21.3376 5.97728C21.3845 5.97728 21.7009 6.08275 22.0466 6.21165C24.2321 7.03782 25.7731 8.56712 26.4528 10.5945L26.6227 11.1042L26.4411 11.1452C26.3415 11.1628 26.0251 11.198 25.738 11.2214C25.0056 11.28 24.7595 11.5085 25.029 11.8894C25.1227 12.0242 25.1345 12.03 25.7731 11.9831C26.1306 11.9597 26.5056 11.9363 26.5993 11.9304L26.7751 11.9245L26.822 12.4226C26.9157 13.4187 26.6638 15.1003 26.2536 16.1785C26.0251 16.7878 25.738 17.4031 25.6852 17.4031C25.6559 17.4031 25.3102 17.2566 24.9059 17.0808C24.5075 16.905 24.1384 16.7585 24.0856 16.7585C23.8161 16.7585 23.652 17.2331 23.863 17.4206C23.9157 17.4675 24.3962 17.7019 24.9177 17.9363C25.8317 18.3464 25.8845 18.3581 26.0309 18.2761C26.4528 18.0417 27.2673 15.9031 27.5192 14.3562C27.6306 13.6824 27.613 12.0886 27.4899 11.4617C27.1618 9.83275 26.4704 8.50853 25.3571 7.40697C24.1618 6.21751 22.5915 5.41478 20.7341 5.03392C19.9255 4.86986 17.7341 4.82298 16.8434 4.95189Z" fill="black"/>
<path d="M22.8017 9.31105C22.5029 9.46339 21.1845 10.1782 19.872 10.8931L17.4814 12.1939L17.2997 12.0415C16.5263 11.3911 15.3896 11.5318 14.7861 12.3521C14.5341 12.6978 14.4111 13.2544 14.499 13.6704C14.622 14.2857 15.1435 14.8423 15.747 15.0064C16.2919 15.1528 17.0126 14.9419 17.4052 14.52C17.7392 14.1685 17.8622 13.8521 17.8681 13.3306L17.874 12.8618L20.7451 11.3032C23.8212 9.63331 23.8798 9.5923 23.6982 9.28175C23.5341 8.99464 23.3994 9.0005 22.8017 9.31105Z" fill="black"/>
<path d="M9.25586 16.7051C8.62305 16.7812 8.1543 16.9336 7.43945 17.2852C6.70117 17.6426 6.0625 18.1348 6.0625 18.3398C6.0625 18.4805 6.13281 18.4922 7.46875 18.6035C9.6543 18.7852 10.9902 18.832 13.4453 18.832C15.5312 18.832 16.2695 18.8086 17.5059 18.709C18.3438 18.6387 19.0352 18.5684 19.0527 18.5508C19.0938 18.5098 18.4961 18.2227 17.6641 17.8828C15.9297 17.1855 13.9961 16.793 11.9219 16.7285C9.90039 16.6641 9.5957 16.6582 9.25586 16.7051Z" fill="black"/>
<path d="M4.91976 19.3013C3.99398 19.524 3.34945 20.1919 3.0389 21.2408C2.90999 21.6685 2.88655 22.8111 3.00374 23.0103C3.10335 23.1919 3.27913 23.2095 4.79671 23.1919L6.13851 23.1744L6.23812 22.8755C6.45491 22.2076 6.88265 21.7154 7.52132 21.4048C7.82015 21.2583 7.90804 21.2408 8.49398 21.2408C9.09163 21.2408 9.1678 21.2525 9.51937 21.4224C9.7303 21.522 10.0233 21.7271 10.1756 21.8736C10.4451 22.1431 10.8084 22.7759 10.8084 22.9693C10.8084 23.0279 10.8436 23.104 10.8905 23.1392C10.9432 23.1861 11.9627 23.1978 14.5936 23.1919L18.2147 23.1744L18.3494 22.7994C18.6073 22.0845 19.1639 21.5337 19.8846 21.2994C20.3534 21.147 21.1561 21.1939 21.5897 21.4048C22.2108 21.7037 22.6151 22.1548 22.8553 22.8228L22.9842 23.1744L24.8651 23.1919C26.4237 23.2037 26.7518 23.1919 26.7811 23.1216C26.8221 23.0103 26.5936 22.354 26.3592 21.938C25.6209 20.6021 24.1795 19.6646 22.4393 19.3892C21.7127 19.2779 19.7381 19.3072 17.8397 19.4654C16.3807 19.5826 15.8065 19.6001 13.2987 19.6001C10.4217 19.5943 8.76937 19.524 6.61898 19.3072C5.64046 19.2076 5.31234 19.2076 4.91976 19.3013Z" fill="black"/>
<path d="M8.05389 22.0259C7.62616 22.1606 7.20428 22.5356 7.02264 22.9516C6.88788 23.2739 6.89374 23.8774 7.04022 24.2055C7.4035 25.0259 8.3996 25.3833 9.20233 24.9907C10.468 24.3696 10.3625 22.5415 9.03241 22.0493C8.82147 21.9731 8.27655 21.9614 8.05389 22.0259Z" fill="black"/>
<path d="M20.038 22.0605C19.7158 22.1836 19.3935 22.4531 19.2118 22.7695C19.0009 23.127 18.954 23.7305 19.1005 24.123C19.329 24.7266 19.9208 25.1367 20.5595 25.1367C21.0341 25.1367 21.3154 25.0371 21.6318 24.7617C22.4638 24.0293 22.3349 22.7344 21.374 22.166C21.0458 21.9727 20.4072 21.9258 20.038 22.0605Z" fill="black"/>
</svg>
