<svg width="42" height="36" viewBox="0 0 42 36" fill="none" xmlns="http://www.w3.org/2000/svg">
<path fill-rule="evenodd" clip-rule="evenodd" d="M21.7604 0.149899C21.2438 0.486603 21.2073 0.611988 21.1587 2.21775L21.1138 3.70049L20.0357 4.03719C18.6967 4.45544 16.7 5.42662 15.6314 6.17946C14.5391 6.94908 13.7117 7.68461 13.6447 7.94566C13.5324 8.38315 14.0976 8.85947 14.5305 8.69226C14.6417 8.6493 14.9754 8.40846 15.2719 8.15707C15.5685 7.90568 16.2358 7.42374 16.7549 7.08607C22.2886 3.4861 29.6009 3.804 34.8273 7.87177C38.7858 10.9527 41.0094 15.9318 40.5818 20.757C40.2489 24.5125 38.7467 27.6635 35.9605 30.4505C35.4433 30.968 35.3289 31.1336 35.3289 31.3649C35.3289 31.7104 35.6221 31.9714 36.0103 31.9714C36.6843 31.9714 38.9052 29.417 40.0592 27.3145C42.3345 23.1693 42.6282 18.0078 40.8399 13.5926C39.176 9.48455 35.7381 6.10073 31.5207 4.41976C30.9871 4.20713 30.2775 3.96435 29.9439 3.88026L29.3372 3.72738V2.33663C29.3372 0.840616 29.2955 0.663917 28.8444 0.251648L28.604 0.0319825L25.3083 0.00878578C22.2163 -0.0129172 21.997 -0.00421853 21.7604 0.149899ZM27.9891 2.3629V3.41976L27.3825 3.3514C26.5991 3.26309 23.8969 3.26309 23.1135 3.3514L22.5068 3.41976V2.3629V1.30604H25.248H27.9891V2.3629ZM23.3728 7.37761C23.0828 7.41899 22.4661 7.55167 22.0023 7.67231C16.8324 9.01763 13.0899 13.3733 12.6271 18.5835C12.1201 24.2932 15.7527 29.631 21.3494 31.3998C24.4476 32.3791 27.9203 32.1363 30.7901 30.74C33.4426 29.4494 35.3901 27.5172 36.6691 24.9071C37.9955 22.2004 38.2484 19.0753 37.3808 16.1089C37.0805 15.0821 36.2382 13.4055 35.5503 12.4651C33.5992 9.79833 30.5294 7.93389 27.2279 7.41038C26.3497 7.27112 24.2443 7.25319 23.3728 7.37761ZM24.5739 9.65335C24.5739 10.5906 24.5939 10.7272 24.7537 10.8835C24.9942 11.1186 25.4493 11.1113 25.7141 10.8682C25.9087 10.6893 25.922 10.6107 25.922 9.637V8.59684L26.304 8.6493C27.8456 8.86088 28.8909 9.13836 29.9607 9.61987C30.683 9.94497 32.2396 10.9226 32.5224 11.2287L32.6967 11.4174L31.9607 12.1408C31.1498 12.9376 31.0523 13.1971 31.42 13.5797C31.7914 13.9662 32.079 13.8662 32.9044 13.0634L33.6443 12.3439L33.8373 12.5143C34.2002 12.8346 35.2022 14.4044 35.5559 15.2067C35.9559 16.1137 36.3075 17.3185 36.3907 18.0666C36.4215 18.3445 36.4656 18.6607 36.4887 18.7695C36.5302 18.9653 36.5212 18.9672 35.5027 18.9672C34.9373 18.9672 34.4063 18.9928 34.3227 19.0243C33.9225 19.1744 33.8955 19.9959 34.2838 20.1992C34.3742 20.2464 34.9135 20.2852 35.482 20.2852H36.5159L36.4716 20.6147C36.247 22.2826 35.9737 23.2199 35.3426 24.4852C34.9318 25.3088 33.9997 26.675 33.7423 26.8304C33.6793 26.8686 33.3419 26.6111 32.8916 26.1814C32.0792 25.4062 31.8775 25.3314 31.4614 25.6514C31.2873 25.7853 31.2246 25.9138 31.2246 26.1367C31.2246 26.3962 31.3286 26.5458 31.9455 27.1741L32.6664 27.9081L32.3302 28.1967C31.5291 28.8843 29.944 29.7276 28.7204 30.1169C28.1005 30.3142 27.1427 30.5145 26.3939 30.6034L25.922 30.6595V29.6297C25.922 28.6933 25.9043 28.5814 25.7266 28.3965C25.4778 28.1376 25.004 28.1242 24.7537 28.3689C24.5939 28.5251 24.5739 28.6617 24.5739 29.602V30.6595L24.1021 30.6034C21.8193 30.3323 19.706 29.4724 18.0862 28.1553L17.7547 27.8858L18.5131 27.1282C19.3537 26.2883 19.4376 26.0632 19.0507 25.685C18.6582 25.3012 18.4086 25.3855 17.6087 26.1722C17.2156 26.5588 16.8589 26.8751 16.8163 26.8751C16.6212 26.8751 15.6625 25.5244 15.1492 24.5262C14.5543 23.3695 14.1786 22.13 14.0169 20.7904L13.9558 20.2852H15.0126C15.9738 20.2852 16.088 20.268 16.2773 20.0942C16.5438 19.8493 16.5494 19.4407 16.2899 19.1705C16.1069 18.9801 16.0265 18.9672 15.0271 18.9672H13.9599L14.0204 18.418C14.2381 16.4457 15.2679 14.0882 16.5777 12.5638L16.7571 12.3551L17.5178 13.0691C18.3744 13.873 18.6474 13.9618 19.0507 13.5674C19.4381 13.1887 19.3539 12.9643 18.508 12.1191L17.7446 11.3565L18.3598 10.8992C20.1122 9.59667 22.1241 8.8419 24.4616 8.61011C24.5459 8.60176 24.5739 8.86246 24.5739 9.65335ZM11.9856 9.57128C11.3894 10.1542 10.0964 12.3998 9.52683 13.8415C8.35029 16.8198 8.15077 20.5616 8.99828 23.7559C10.5309 29.533 15.2479 34.086 21.2381 35.57C22.6607 35.9225 23.8787 36.0371 25.6973 35.9899C27.6626 35.9388 28.7434 35.7633 30.4747 35.2138C31.6946 34.8266 33.9492 33.7658 34.2769 33.4247C34.6915 32.9934 34.4321 32.2936 33.8577 32.2936C33.7187 32.2936 33.2781 32.4779 32.8787 32.7031C31.4062 33.5335 29.6108 34.1553 27.7195 34.4901C26.6745 34.675 24.0602 34.6991 23.0011 34.5336C17.8923 33.7349 13.6369 30.6822 11.4065 26.2162C8.97248 21.3425 9.38851 15.7221 12.5225 11.1372C13.2013 10.1442 13.2835 9.86203 12.9802 9.56548C12.7388 9.32956 12.2299 9.33246 11.9856 9.57128ZM5.04253 11.614C4.78297 11.8842 4.78854 12.2928 5.05511 12.5376C5.2602 12.7259 5.76442 12.7287 6.29651 12.7287C8.10325 12.7287 9.39636 12.6939 9.49432 12.6426C9.76098 12.5031 9.878 12.0561 9.72395 11.7649C9.65268 11.6301 9.52893 11.4953 9.44885 11.4652C9.36886 11.4353 7.93869 11.4107 6.27072 11.4107C6.27072 11.4107 5.51953 11.4107 5.45245 11.4107C5.34231 11.4107 5.04253 11.614 5.04253 11.614ZM24.8045 14.0768L24.5739 14.3023V17.0238V19.7452L24.8107 19.9273C25.2782 20.2868 25.4018 20.2165 26.93 18.7225C28.2274 17.454 28.3486 17.309 28.3486 17.0245C28.3486 16.6449 28.0462 16.3312 27.6802 16.3312C27.4857 16.3312 27.2556 16.4957 26.675 17.0497L25.922 17.7682V16.049C25.922 14.1352 25.8875 14.0122 25.3213 13.9053C25.0905 13.8617 24.9906 13.8949 24.8045 14.0768ZM2.88555 15.4801C2.62635 15.75 2.63651 16.1109 2.9108 16.3791L3.13135 16.5948H4.8046H8.28889L8.47654 16.3971C8.76854 16.0894 8.77762 15.7239 8.5 15.4525C8.32609 15.2825 8.38941 15.2768 4.79507 15.2768H3.08102L2.88555 15.4801ZM0.177189 19.3352C-0.0724815 19.5972 -0.0567536 19.98 0.214577 20.2452L0.435128 20.4609H2.96577C7.4132 20.4609 7.50073 20.4576 7.73315 20.2788C8.02991 20.0506 8.05786 19.5803 7.79022 19.3186C7.61514 19.1475 7.49067 19.1429 2.98546 19.1429H0.360442L0.177189 19.3352ZM2.9108 22.8733C2.61763 23.1598 2.62222 23.531 2.92213 23.8065L3.15409 24.0195H4.82914C8.43722 24.0195 8.50769 24.0162 8.69211 23.8359C8.97242 23.5617 8.95463 23.1161 8.6531 22.8626L8.40927 22.6576H4.77036H3.13135L2.9108 22.8733ZM5.08396 26.7058C4.78719 26.934 4.75924 27.4043 5.02689 27.6659C5.19963 27.8348 5.79343 27.8417 6.29732 27.8417C9.16709 27.8417 9.40265 27.8301 9.59274 27.6797C9.86739 27.4622 9.8647 27.0316 9.58698 26.7426L9.37659 26.5237H6.34873C6 26.5237 5.31287 26.5297 5.08396 26.7058Z" fill="#15744e"/>
</svg>
