<svg width="42" height="36" viewBox="0 0 42 36" fill="none" xmlns="http://www.w3.org/2000/svg">
<path fill-rule="evenodd" clip-rule="evenodd" d="M18.8694 0.104018C16.6909 0.320991 13.9892 1.05891 12.0208 1.97442C6.59571 4.49783 2.47587 9.19181 0.827251 14.7279C0.0621321 17.2971 -0.189975 20.3043 0.145321 22.8602C0.651686 26.7194 2.29845 30.4668 4.74562 33.3286C5.39216 34.0846 5.81358 34.3083 6.29844 34.153C6.56658 34.0672 10.146 31.2279 11.1214 30.3275C11.449 30.0251 11.6016 29.5707 11.5031 29.1903C11.4723 29.0706 11.1837 28.6542 10.862 28.2646C9.68375 26.8383 8.7979 25.0329 8.3369 23.1187C8.11597 22.2011 8.08 21.8372 8.07736 20.4884C8.07286 18.1824 8.40884 16.7636 9.43653 14.7487C11.2211 11.2495 14.6146 8.785 18.7263 8.00193C19.9019 7.77803 22.1179 7.77898 23.3137 8.00392C25.2802 8.37392 27.1614 9.15623 28.7101 10.2483C29.6772 10.9303 30.0171 11.0156 30.5006 10.6977C31.1603 10.2641 31.2788 9.60526 30.7938 9.06914C30.4344 8.67182 28.8445 7.62993 27.9116 7.18034C26.4153 6.45921 24.3852 5.86522 22.8773 5.70745L22.2419 5.64094L22.2152 3.95696C22.1923 2.51747 22.2096 2.27298 22.3341 2.27298C22.414 2.27298 22.973 2.33977 23.576 2.42136C28.9336 3.14666 33.6214 6.00705 36.6471 10.3972C39.3701 14.3481 40.3601 19.2807 39.3857 24.043C38.8875 26.4779 37.5705 29.3226 35.9623 31.4373C35.9088 31.5078 35.3114 31.0505 33.3107 29.4076C33.2693 29.3737 33.4805 28.9908 33.7798 28.5568C34.7996 27.0779 35.6517 25.0541 36.0443 23.1777C36.3137 21.8905 36.2861 18.695 35.9947 17.4191C35.7015 16.1358 35.4849 15.6909 35.0571 15.4929C34.6052 15.2837 34.0472 15.4324 33.6759 15.8607C33.3747 16.2081 33.3781 16.3155 33.7394 17.8794C34.05 19.2236 34.052 21.5354 33.7439 22.9299C33.3406 24.7554 32.5154 26.5403 31.4398 27.9139C30.4273 29.207 30.3701 29.3418 30.5932 29.9112C30.6656 30.0962 32.8552 31.9571 35.2751 33.8902C35.5176 34.0839 35.707 34.15 36.0195 34.15C36.5486 34.15 36.7753 33.9798 37.5773 32.9805C39.7803 30.2354 41.1987 27.0717 41.8134 23.5327C42.0819 21.9864 42.0563 18.5619 41.7645 17.0081C41.0836 13.3813 39.5294 10.1101 37.1974 7.39551C36.3794 6.44327 34.6379 4.82267 33.6933 4.13475C29.4351 1.03367 24.0999 -0.417019 18.8694 0.104018ZM19.8469 3.96759V5.66219L19.1277 5.72547C17.5673 5.86266 15.4379 6.51187 13.8839 7.32426C13.0299 7.77063 11.5491 8.73472 11.289 9.01374C11.1105 9.20519 11.0989 9.19694 9.8642 8.00126L8.61941 6.79582L9.27211 6.27402C12.0383 4.06303 16.1228 2.48331 19.5781 2.28816L19.8469 2.27298V3.96759ZM8.24022 9.55584C8.87112 10.1698 9.38726 10.7069 9.38726 10.7495C9.38726 10.7921 9.23838 11.0049 9.05637 11.2225C7.56445 13.0053 6.35816 15.6282 5.99931 17.87C5.91495 18.397 5.82804 18.9242 5.80625 19.0416C5.76695 19.2535 5.75346 19.2551 4.04521 19.2551H2.32376L2.39229 18.5673C2.66981 15.7813 3.78577 12.7687 5.42325 10.3845C6.11397 9.37899 6.88828 8.43967 7.02661 8.43967C7.06317 8.43967 7.60932 8.94192 8.24022 9.55584ZM32.7447 11.0276C32.1113 11.3979 25.0933 15.9991 22.3885 17.8173C18.4222 20.4837 17.8892 20.9213 17.4163 21.9001C17.1916 22.365 17.1587 22.555 17.1587 23.384C17.1587 24.2643 17.1822 24.3809 17.4755 24.9594C17.8571 25.7116 18.5563 26.3779 19.3368 26.7329C19.8263 26.9556 20.0173 26.9872 20.8733 26.9872C21.7678 26.9872 21.9048 26.9619 22.4863 26.6904C22.8357 26.5271 23.2791 26.2496 23.4714 26.0737C23.6638 25.8977 24.5911 24.8146 25.5322 23.6666C27.3732 21.4208 33.9549 13.1418 34.3612 12.5607C34.7969 11.9375 34.6257 11.1662 33.9863 10.8717C33.5131 10.6537 33.3488 10.6744 32.7447 11.0276ZM26.5338 18.8431C23.0925 23.1425 21.9024 24.5451 21.5624 24.7017C20.896 25.0085 20.154 24.8216 19.6888 24.2296C19.4609 23.9397 19.407 23.7758 19.407 23.3726C19.407 22.7525 19.5777 22.5108 20.4893 21.8401C21.7553 20.9085 28.1783 16.6071 28.2366 16.6517C28.254 16.6651 27.4878 17.6512 26.5338 18.8431ZM5.82003 21.9827C6.16442 24.5006 6.98164 26.7029 8.25889 28.5549C8.55753 28.9879 8.78852 29.355 8.77229 29.3708C8.5762 29.5611 6.19599 31.4912 6.1562 31.4922C6.12639 31.493 5.80224 31.0559 5.43566 30.5211C3.78626 28.114 2.64674 25.0258 2.39034 22.2673L2.32201 21.532H4.04023H5.75835L5.82003 21.9827ZM16.659 29.7825C16.2883 29.9306 16.0345 30.3457 16.0345 30.8043C16.0345 31.1596 16.0882 31.28 16.3669 31.5505L16.6993 31.8731H21.02H25.3407L25.6731 31.5505C25.9544 31.2775 26.0054 31.1611 26.0054 30.793C26.0054 30.4466 25.9474 30.2951 25.7203 30.0483L25.435 29.7384L21.1503 29.7193C18.7936 29.7087 16.7726 29.7371 16.659 29.7825ZM10.8212 34.0594C10.3073 34.4518 10.3029 35.3053 10.8124 35.7698L11.0648 36H21.02H30.9751L31.2275 35.7698C31.737 35.3053 31.7326 34.4518 31.2187 34.0594C30.9664 33.8668 30.8902 33.8654 21.02 33.8654C11.1498 33.8654 11.0735 33.8668 10.8212 34.0594Z" fill="#15744e"/>
</svg>
