<svg width="20" height="19" viewBox="0 0 20 19" fill="none" xmlns="http://www.w3.org/2000/svg">
<path d="M16.6813 11.8859C15.9712 11.2079 15.0846 11.2079 14.379 11.8859C13.8408 12.4019 13.3025 12.918 12.7733 13.4429C12.6286 13.5872 12.5065 13.6178 12.3301 13.5216C11.9818 13.3379 11.6109 13.1892 11.2762 12.988C9.71572 12.0389 8.40855 10.8187 7.25064 9.44538C6.6762 8.7631 6.1651 8.0327 5.80777 7.21046C5.7354 7.04426 5.74897 6.93492 5.88919 6.79934C6.42743 6.29637 6.95211 5.78029 7.48131 5.2642C8.21858 4.54693 8.21858 3.70719 7.47679 2.98554C7.05614 2.57442 6.6355 2.17205 6.21485 1.76093C5.78063 1.34106 5.35094 0.916821 4.9122 0.501327C4.20207 -0.167836 3.31555 -0.167836 2.60995 0.505701C2.06718 1.02179 1.54702 1.551 0.995204 2.05834C0.484095 2.52631 0.226279 3.09926 0.172002 3.76842C0.0860635 4.85745 0.361972 5.88525 0.750958 6.88681C1.54702 8.95991 2.75921 10.8012 4.22921 12.4894C6.21485 14.7724 8.58495 16.5788 11.3576 17.8821C12.606 18.4682 13.8996 18.9186 15.3063 18.993C16.2742 19.0455 17.1155 18.8093 17.7894 18.0789C18.2508 17.5803 18.7709 17.1255 19.2594 16.6487C19.9831 15.9402 19.9877 15.083 19.2685 14.3832C18.4091 13.5478 17.5452 12.7168 16.6813 11.8859Z" fill="white"/>
</svg>
