<svg width="22" height="22" viewBox="0 0 22 22" fill="none" xmlns="http://www.w3.org/2000/svg">
<path d="M19.2113 3.70391C17.2004 1.43516 14.2742 0 11 0C4.92422 0 0 4.92422 0 11H2.75C2.75 6.44102 6.44102 2.75 11 2.75C13.5137 2.75 15.7437 3.88867 17.252 5.66328L14.6652 8.25H22V0.915234L19.2113 3.70391ZM11 19.25C8.48633 19.25 6.25625 18.1113 4.74805 16.3367L7.33477 13.75H0V21.0848L2.78867 18.2961C4.79961 20.5648 7.73008 22 11 22C17.0758 22 22 17.0758 22 11H19.25C19.25 15.559 15.559 19.25 11 19.25Z" fill="white"/>
</svg>
