<svg width="17" height="24" viewBox="0 0 17 24" fill="none" xmlns="http://www.w3.org/2000/svg">
<path d="M8.5 23.3334C8.5 23.3334 17 15.2782 17 9.16669C17 6.91235 16.1045 4.75034 14.5104 3.15628C12.9163 1.56222 10.7543 0.666687 8.5 0.666687C6.24566 0.666687 4.08365 1.56222 2.48959 3.15628C0.895533 4.75034 3.35923e-08 6.91235 0 9.16669C0 15.2782 8.5 23.3334 8.5 23.3334ZM8.5 13.4167C7.37283 13.4167 6.29183 12.9689 5.4948 12.1719C4.69777 11.3749 4.25 10.2939 4.25 9.16669C4.25 8.03952 4.69777 6.95851 5.4948 6.16148C6.29183 5.36445 7.37283 4.91669 8.5 4.91669C9.62717 4.91669 10.7082 5.36445 11.5052 6.16148C12.3022 6.95851 12.75 8.03952 12.75 9.16669C12.75 10.2939 12.3022 11.3749 11.5052 12.1719C10.7082 12.9689 9.62717 13.4167 8.5 13.4167Z" fill="#334C85"/>
</svg>
