<svg width="30" height="30" viewBox="0 0 30 30" fill="none" xmlns="http://www.w3.org/2000/svg">
<path d="M2.71544 27.2505L5.06477 27.8629C5.6037 28.0033 6.1778 27.7569 6.34827 27.3127L7.46643 24.3928H13.202C13.4873 24.9045 14.112 25.2608 14.8394 25.2608C15.5677 25.2608 16.1932 24.9045 16.4777 24.3928H22.059L21.3701 26.1921C21.1996 26.6366 21.4986 27.1102 22.0375 27.2505L24.3869 27.8629C24.9259 28.0033 25.5008 27.7569 25.6704 27.3127L27.9521 21.3535C28.1226 20.9093 27.8235 20.435 27.2847 20.2947L24.9352 19.6826C24.3963 19.542 23.8222 19.7886 23.6517 20.2329L22.5335 23.1527H16.4784C16.2984 22.8297 15.9832 22.5696 15.5916 22.4212V19.2586H14.0879V22.4212C13.6963 22.5697 13.381 22.8297 13.2011 23.1527H7.94108L8.62995 21.3535C8.79956 20.9093 8.50139 20.435 7.96332 20.2947L5.61307 19.6826C5.07415 19.542 4.50005 19.7886 4.32958 20.2329L2.0479 26.192C1.87743 26.6367 2.17645 27.1102 2.71544 27.2505Z" fill="black"/>
<line x1="15.0031" y1="11.9102" x2="14.1365" y2="17.8951" stroke="black" stroke-width="1.6"/>
<path d="M3.53494 9.83811H5.99916C6.56462 9.83811 7.02217 9.46031 7.02217 8.99451V6.48994H13.1621C13.3334 6.84686 13.6668 7.13524 14.0875 7.29497V10.582H15.5912V7.29497C16.012 7.13524 16.3452 6.84686 16.5166 6.48994H22.6566V8.99451C22.6566 9.46031 23.1141 9.83811 23.6788 9.83811H26.1438C26.7084 9.83811 27.166 9.46031 27.166 8.99451V2.74491C27.166 2.27916 26.7085 1.90131 26.1438 1.90131H23.6787C23.1141 1.90131 22.6565 2.27911 22.6565 2.74491V5.24948H16.4343C16.1318 4.77731 15.532 4.45537 14.8389 4.45537C14.1474 4.45537 13.5468 4.77736 13.2443 5.24948H7.02211V2.74491C7.02211 2.27916 6.56456 1.90131 5.9991 1.90131H3.53488C2.97022 1.90131 2.51181 2.27911 2.51181 2.74491V8.99451C2.51193 9.46031 2.97028 9.83811 3.53494 9.83811Z" fill="black"/>
</svg>
