<svg width="30" height="30" viewBox="0 0 30 30" fill="none" xmlns="http://www.w3.org/2000/svg">
<path d="M6.24028 4.20736C5.8184 4.34212 5.3145 4.85775 5.19145 5.27377C4.99223 5.94759 5.127 6.4808 5.61918 6.97298C5.80668 7.16048 6.04106 7.33627 6.16997 7.37728L6.38676 7.45345L6.39848 10.1722C6.40434 11.6663 6.41606 13.0667 6.41606 13.2835V13.682L6.18168 13.7347C4.75786 14.0394 4.14848 14.2972 3.65043 14.8011C3.27543 15.1878 2.93559 15.8675 2.75981 16.5765C2.60747 17.1917 2.60747 17.3265 2.74809 17.4027C2.92387 17.4906 5.41997 17.4788 5.49028 17.3851C5.51958 17.3499 5.58989 17.1624 5.64262 16.9808C5.91801 16.0843 6.86723 15.3636 7.85747 15.305C8.36723 15.2757 8.73637 15.346 9.15825 15.5628C9.75004 15.8558 10.2364 16.4124 10.4122 16.9808C10.4649 17.1624 10.5352 17.3499 10.5645 17.3851C10.6055 17.4437 10.9864 17.4613 12.1114 17.4613H13.6055L13.5821 17.6253C13.5704 17.7191 12.8086 19.1429 11.9004 20.7894L10.2364 23.7894H8.05668H5.877L5.80668 23.5492C5.70122 23.1976 5.26176 22.7816 4.82817 22.6175C4.02543 22.3187 3.12309 22.6703 2.71879 23.4554C2.57231 23.7367 2.54301 24.4105 2.6602 24.7679C3.11723 26.139 5.08012 26.2679 5.71293 24.9788L5.88872 24.6156H8.17387C9.89067 24.6097 10.4942 24.5921 10.6055 24.5335C10.711 24.4808 11.2325 23.5902 12.5508 21.2113C14.1211 18.3812 14.3555 17.9242 14.3555 17.7074V17.4613H15.6915C17.0625 17.4613 17.168 17.4437 17.168 17.2269C17.168 17.18 17.2559 16.9515 17.3672 16.7288C17.625 16.1898 18.0176 15.8031 18.5684 15.5394C18.9434 15.3578 19.084 15.3226 19.5118 15.305C19.9336 15.2816 20.0801 15.305 20.4317 15.4281C21.2168 15.6976 21.7325 16.2074 22.0254 17.0101L22.1836 17.432L23.6426 17.4437C24.7442 17.4554 25.1426 17.4437 25.254 17.3851C25.4004 17.3089 25.4004 17.3089 25.3946 16.4945C25.3829 15.3519 25.1954 14.6781 24.7911 14.3441C24.6973 14.262 24.1641 14.0042 23.6133 13.7699C23.0567 13.5355 22.4825 13.2601 22.336 13.1605C22.1836 13.0609 21.8848 12.7562 21.6622 12.4808C21.4395 12.2054 21.1055 11.807 20.9122 11.5902L20.5723 11.2035L21.2579 9.96713L21.9434 8.7308H23.0332H24.1231L24.1875 8.95345C24.2872 9.27572 24.6211 9.639 25.0079 9.8265C25.4473 10.0433 26.086 10.055 26.461 9.86166C27.0821 9.53353 27.3692 9.11166 27.4102 8.46713C27.4278 8.1683 27.4102 7.95736 27.3399 7.75228C27.0293 6.8265 25.9043 6.37533 25.0079 6.81478C24.6211 7.00228 24.2872 7.36556 24.1875 7.68783L24.1231 7.91049H22.9161C22.0723 7.91049 21.668 7.93392 21.5684 7.98666C21.4747 8.03353 21.1758 8.50814 20.6778 9.40463C19.9629 10.6937 19.9278 10.7523 19.7637 10.7406C19.6758 10.7347 19.2422 10.6995 18.8086 10.6585C18.2989 10.6175 17.3204 10.5999 16.0665 10.6234C14.9942 10.641 14.1211 10.6292 14.1329 10.6058C14.1446 10.5765 14.6778 9.60385 15.3223 8.44369L16.4942 6.32845H16.9981H17.502L17.6016 6.58041C17.8887 7.33627 18.8321 7.77572 19.6582 7.52962C20.1387 7.389 20.6309 6.90267 20.7715 6.41634C20.959 5.77181 20.7774 5.12142 20.2735 4.67025C19.5821 4.0433 18.6563 4.07845 17.9825 4.74642C17.8008 4.92806 17.625 5.16244 17.584 5.28548L17.5137 5.49642L16.8106 5.51986C16.1778 5.53744 16.0899 5.54916 16.0079 5.66048C15.9493 5.72494 15.2637 6.93783 14.4786 8.3558L13.0547 10.9281L12.6622 11.1742C12.4512 11.3089 11.9707 11.6898 11.6016 12.0179C10.8399 12.6917 10.4707 12.9495 10.0489 13.0902C9.89067 13.1488 9.24614 13.266 8.61333 13.3597C7.98637 13.4535 7.41215 13.5472 7.34184 13.5648L7.20708 13.5941V10.5355V7.47103L7.48833 7.34212C8.26176 6.9847 8.65434 6.12923 8.40825 5.30306C8.33208 5.03353 8.24418 4.89877 7.98051 4.63509C7.47075 4.13119 6.89653 3.99056 6.24028 4.20736Z" fill="black"/>
<path d="M7.45947 16.1602C7.02588 16.3125 6.6626 16.6348 6.46338 17.0391C6.24658 17.4844 6.229 18.1758 6.43408 18.5566C6.62744 18.9316 6.89697 19.207 7.23096 19.3828C7.48877 19.5176 7.6001 19.541 8.02783 19.541C8.45557 19.541 8.56689 19.5176 8.82471 19.3828C9.15869 19.207 9.42822 18.9316 9.62158 18.5566C9.80322 18.2168 9.80908 17.4902 9.6333 17.1035C9.25244 16.2773 8.2915 15.8613 7.45947 16.1602Z" fill="black"/>
<path d="M19.1247 16.1369C18.5388 16.3244 18.0642 16.8342 17.9294 17.4084C17.7302 18.2287 18.1872 19.1135 18.9607 19.4358L19.2185 19.5412V21.8322C19.2185 23.2795 19.2419 24.1877 19.2771 24.299C19.3122 24.3986 19.406 24.5041 19.488 24.5451C19.5876 24.5861 20.2087 24.6096 21.4099 24.6096H23.1853L23.2849 24.8674C23.408 25.1897 23.7654 25.5529 24.1287 25.7346C24.5271 25.9338 25.1716 25.9221 25.5759 25.7111C26.654 25.1486 26.8415 23.7483 25.9451 22.9397C25.1189 22.1955 23.8064 22.4475 23.3376 23.4318L23.1736 23.7834H21.6091L20.0388 23.7893V21.6506C20.0388 19.9631 20.0564 19.5119 20.115 19.5119C20.238 19.5119 20.6423 19.2776 20.8474 19.0783C20.9587 18.9787 21.1169 18.7619 21.199 18.6037C21.3337 18.3518 21.3572 18.2404 21.3572 17.8127C21.3572 17.2678 21.2634 17.0158 20.9119 16.6174C20.5251 16.1779 19.6872 15.9494 19.1247 16.1369Z" fill="black"/>
</svg>
