<svg width="20" height="20" viewBox="0 0 20 20" fill="none" xmlns="http://www.w3.org/2000/svg">
<path d="M5.77912 3.41159C5.27496 3.54432 4.74344 3.88786 4.45423 4.26264C4.36435 4.37975 4.13767 4.80528 3.94617 5.21519C3.60224 5.96864 3.3912 6.35903 3.21533 6.56984L3.12153 6.68695V6.36293C3.12153 6.07014 3.11371 6.0311 3.02382 5.94521L2.93003 5.84762H2.02723H1.12443L1.03063 5.94521C0.936835 6.035 0.932926 6.05452 0.932926 6.62059C0.932926 7.12419 0.940743 7.21788 1.00327 7.29206C1.05799 7.35842 1.18696 7.40136 1.63641 7.49115C1.94906 7.55362 2.21873 7.60827 2.23827 7.61608C2.25781 7.62389 1.98033 7.86202 1.62468 8.14701C1.26513 8.43199 0.893844 8.75601 0.79223 8.86532C0.538196 9.15031 0.299795 9.57193 0.147374 10.017L0.0144944 10.3956L0.00276975 13.3236C-0.00504669 15.5644 0.00276975 16.2944 0.0379437 16.4272C0.104384 16.6575 0.417041 16.9776 0.643718 17.044C0.870395 17.1103 3.49672 17.1103 3.7234 17.044C3.93835 16.9815 4.26273 16.6575 4.32526 16.4428C4.35262 16.353 4.37216 16.1109 4.37216 15.904V15.5293H10H15.6278V15.904C15.6278 16.1109 15.6474 16.353 15.6747 16.4428C15.7373 16.6575 16.0616 16.9815 16.2766 17.044C16.5033 17.1103 19.1296 17.1103 19.3563 17.044C19.583 16.9776 19.8956 16.6575 19.9621 16.4272C19.9972 16.2944 20.005 15.5644 19.9972 13.3236L19.9855 10.3956L19.8526 10.017C19.7002 9.57193 19.4618 9.15031 19.2078 8.86532C19.1062 8.75601 18.7349 8.43199 18.3753 8.14701L17.7266 7.62779L18.3245 7.50677C19.1022 7.34671 19.0671 7.38965 19.0671 6.62059C19.0671 6.05452 19.0632 6.035 18.9694 5.94521L18.8756 5.84762H17.9728H17.07L16.9762 5.94521C16.8863 6.0311 16.8785 6.07014 16.8785 6.36293V6.68695L16.7847 6.56984C16.6088 6.35903 16.3978 5.96864 16.0538 5.21519C15.8623 4.80528 15.6357 4.37975 15.5458 4.26264C15.2526 3.88005 14.7211 3.54432 14.2013 3.40768C13.8613 3.3218 6.11132 3.3218 5.77912 3.41159ZM14.3538 4.1221C14.6547 4.26264 14.9087 4.45783 15.0611 4.65693C15.1354 4.75453 15.7607 6.0272 15.9288 6.42149C15.9444 6.46053 14.7446 6.47224 10 6.47224C5.25542 6.47224 4.0556 6.46053 4.07123 6.42149C4.23928 6.0272 4.8646 4.75453 4.93885 4.65693C5.14208 4.38756 5.59153 4.09477 5.92373 4.01669C6.00971 3.99717 7.82703 3.98156 10.0782 3.98546L14.0841 3.99327L14.3538 4.1221ZM2.49621 6.74942C2.49621 7.01488 2.49231 7.02659 2.41414 7.00707C2.36724 6.99536 2.1562 6.95242 1.94516 6.91338L1.55824 6.84311V6.65963V6.47224H2.02723H2.49621V6.74942ZM18.4418 6.65963V6.84701L18.0822 6.91728C17.8829 6.95632 17.6718 6.99536 17.6132 7.00707L17.5038 7.02659V6.74942V6.47224H17.9728H18.4418V6.65963ZM16.5385 7.28034C16.6909 7.48725 17.324 8.11578 17.5546 8.28755C17.6367 8.34611 17.6875 8.41247 17.6718 8.42809C17.6562 8.4437 17.1481 8.65451 16.5463 8.89265L15.452 9.32598L15.0025 9.77493L14.5531 10.22H12.681H10.809L10.4065 10.6182L10 11.0164L9.59355 10.6182L9.191 10.22H7.31896H5.44692L4.99748 9.77493L4.54803 9.32598L3.45373 8.89265C2.85186 8.65451 2.34379 8.4437 2.32816 8.42809C2.31253 8.41247 2.36334 8.34611 2.44541 8.28755C2.67599 8.11578 3.30912 7.48725 3.46155 7.28034L3.59833 7.09686H10H16.4017L16.5385 7.28034ZM2.9652 9.36502C3.62178 9.62658 4.17284 9.85691 4.19629 9.87253C4.21583 9.89595 4.17284 9.97012 4.07904 10.0638L3.92662 10.22H2.70726C2.03895 10.22 1.43318 10.2083 1.36674 10.1966C1.21041 10.1653 1.02282 9.99355 0.987642 9.8491C0.956376 9.72028 1.02672 9.56022 1.21823 9.32989C1.38237 9.13469 1.66376 8.89265 1.7263 8.89265C1.75365 8.89265 2.30862 9.10736 2.9652 9.36502ZM18.4769 9.02929C18.8365 9.32598 19.0593 9.66562 19.0124 9.8491C18.9772 9.99355 18.7896 10.1653 18.6333 10.1966C18.5668 10.2083 17.961 10.22 17.2927 10.22H16.0734L15.921 10.0638C15.8389 9.97793 15.7842 9.89595 15.7998 9.88034C15.8428 9.83739 18.176 8.90046 18.2542 8.89655C18.2893 8.89265 18.3909 8.95511 18.4769 9.02929ZM4.94276 10.6104L5.18507 10.8446H7.0532H8.92133L9.39423 11.3131C9.8085 11.723 9.88666 11.7815 10 11.7815C10.1133 11.7815 10.1915 11.723 10.6058 11.3131L11.0787 10.8446H12.9468H14.8149L15.0651 10.6026L15.3152 10.3644L15.5692 10.6065L15.8193 10.8485L17.3162 10.8368C18.942 10.8212 18.942 10.8212 19.2156 10.5908L19.3328 10.4932L19.3563 10.583C19.368 10.6299 19.3797 10.9188 19.3797 11.2233V11.7815H18.516C17.5546 11.7815 17.3435 11.8128 16.941 12.0275C16.6088 12.2032 16.4486 12.3671 16.4486 12.5272C16.4486 12.8122 16.7573 12.9332 16.9879 12.738C17.0543 12.6833 17.2107 12.5935 17.3357 12.535C17.5311 12.4413 17.6249 12.4257 18.0079 12.414L18.4496 12.3983L18.4339 12.6755C18.4183 12.9683 18.3597 13.0893 18.1525 13.2416C18.0588 13.3158 17.9728 13.3275 17.3787 13.3431C16.7378 13.3626 16.7104 13.3665 16.6401 13.4563C16.5345 13.5851 16.5463 13.7569 16.6674 13.874L16.7651 13.9755L17.4569 13.9599C18.1174 13.9482 18.1565 13.9404 18.348 13.8428C18.6411 13.6866 18.7661 13.5695 18.9107 13.3001C19.0163 13.101 19.0397 13.0074 19.0593 12.7341L19.0788 12.4062H19.2273H19.3797V13.2494C19.3797 13.7998 19.3641 14.1512 19.3328 14.2566C19.2703 14.4713 18.9459 14.7953 18.731 14.8578C18.6176 14.889 18.1877 14.9046 17.3279 14.9046H16.0851L15.6317 14.4635C15.1432 13.9911 14.8853 13.8233 14.471 13.7179C14.2561 13.6632 13.7245 13.6554 9.92184 13.6554C6.11914 13.6554 5.58762 13.6632 5.37267 13.7179C4.9584 13.8233 4.70045 13.9911 4.21192 14.4635L3.75857 14.9046H2.59392C1.79664 14.9046 1.37846 14.889 1.26903 14.8578C1.05408 14.7953 0.729699 14.4713 0.667167 14.2566C0.635902 14.1512 0.620269 13.7998 0.620269 13.2494V12.4062H0.772689H0.921202L0.940743 12.7302C0.975917 13.2494 1.17914 13.5851 1.60514 13.8155L1.85136 13.9482L2.54311 13.9599L3.23487 13.9755L3.33257 13.874C3.45373 13.7569 3.46545 13.5851 3.35993 13.4563C3.28958 13.3665 3.26223 13.3626 2.62128 13.3431C2.02723 13.3275 1.94125 13.3158 1.84745 13.2416C1.64031 13.0893 1.58169 12.9683 1.56606 12.6755L1.55043 12.3983L1.99205 12.414C2.37506 12.4257 2.46886 12.4413 2.66427 12.535C2.78933 12.5935 2.94566 12.6833 3.0121 12.738C3.23878 12.9293 3.55143 12.8122 3.55143 12.5311C3.55143 12.3632 3.39901 12.2071 3.059 12.0275C2.65645 11.8128 2.44541 11.7815 1.48399 11.7815H0.620269V11.2233C0.620269 10.9188 0.631993 10.6299 0.643718 10.583L0.667167 10.4932L0.784414 10.5908C1.05799 10.8212 1.05799 10.8212 2.68381 10.8368L4.18066 10.8485L4.42297 10.6143C4.55585 10.4854 4.67309 10.3761 4.68091 10.3761C4.68873 10.3761 4.80597 10.4815 4.94276 10.6104ZM14.557 14.4088C14.6938 14.4713 14.8775 14.604 14.9869 14.7134L15.1745 14.9046H9.92184H4.66919L4.84115 14.7251C5.02483 14.5377 5.22415 14.4167 5.486 14.3347C5.61107 14.2956 6.55295 14.2878 9.98046 14.2917L14.3186 14.2995L14.557 14.4088ZM2.46495 15.5215L3.74685 15.5332V15.904C3.74685 16.2437 3.73903 16.2827 3.64914 16.3686L3.55534 16.4662H2.18356H0.811772L0.717974 16.3686C0.624177 16.2788 0.620269 16.2554 0.620269 15.7518V15.2326L0.901661 15.3692L1.18305 15.5097L2.46495 15.5215ZM19.3797 15.744C19.3797 16.2554 19.3758 16.2788 19.282 16.3686L19.1882 16.4662H17.8164H16.4447L16.3509 16.3686C16.261 16.2827 16.2532 16.2437 16.2532 15.904V15.5332L17.5351 15.5215L18.8169 15.5097L19.0866 15.3692C19.239 15.2911 19.3641 15.2248 19.3719 15.2248C19.3758 15.2209 19.3797 15.4551 19.3797 15.744Z" fill="#010101"/>
</svg>
