<svg width="20" height="20" viewBox="0 0 20 20" fill="none" xmlns="http://www.w3.org/2000/svg">
<g clip-path="url(#clip0_21_3258)">
<path d="M1.9619 0.0563438C1.83684 0.111058 0.390817 1.29133 0.207133 1.49064C0.0898879 1.6157 0 1.84238 0 2.01825C0 2.31917 0.105521 2.44814 0.996584 3.18679C1.45775 3.5737 1.89546 3.9098 1.9619 3.94107C2.17294 4.02705 2.51295 3.98015 2.68491 3.84336C2.8217 3.73393 2.93504 3.56197 2.98584 3.38611C3.00538 3.32357 3.25941 3.31967 7.62093 3.31967C12.6273 3.31967 12.342 3.33139 12.6351 3.10863C12.7094 3.05391 12.8188 2.91322 12.8774 2.80379C12.9829 2.61229 12.9947 2.55757 13.0064 2.10423C13.0181 1.72513 13.0064 1.56099 12.9595 1.38903C12.8852 1.13109 12.6898 0.896601 12.4514 0.767631L12.2912 0.681651L7.64438 0.66211L2.99757 0.64257L2.95849 0.525324C2.82561 0.114966 2.3449 -0.111708 1.9619 0.0563438ZM2.3449 0.931774C2.38008 1.36949 1.82512 1.3265 7.33173 1.3265L12.1114 1.3265L12.2208 1.4203C12.3264 1.51409 12.3303 1.52972 12.342 1.95962C12.3576 2.39734 12.3537 2.40906 12.2521 2.53022L12.1466 2.65528L7.3669 2.65528L2.58721 2.65528L2.46606 2.75298C2.36444 2.84287 2.34881 2.88586 2.33709 3.07736C2.32927 3.24541 2.30973 3.30403 2.26283 3.31185C2.19639 3.32357 0.691746 2.0925 0.672205 2.01043C0.656573 1.94399 2.18858 0.658202 2.26674 0.673835C2.30973 0.677743 2.32927 0.751998 2.3449 0.931774Z" fill="#010101"/>
<path d="M17.5794 3.35918C17.3098 3.44125 17.0401 3.72264 17.0401 3.92196C17.0401 3.97667 16.6102 3.98449 12.4011 3.99231L7.75819 4.00403L7.54715 4.12127C7.28921 4.26197 7.12897 4.45347 7.05472 4.70359C6.97655 4.96153 6.97655 5.70408 7.05472 5.96202C7.12897 6.20824 7.3322 6.45054 7.57059 6.56779L7.75819 6.66159L12.4011 6.67331C16.5203 6.68113 17.0401 6.68894 17.0401 6.74366C17.0401 6.77492 17.0753 6.86872 17.1183 6.9547C17.2824 7.27908 17.767 7.41977 18.1031 7.2439C18.1813 7.20482 18.6073 6.86481 19.0528 6.48963C19.9165 5.76271 20.0103 5.65328 20.0103 5.33281C20.0103 5.00843 19.9204 4.90291 19.045 4.16817C18.5955 3.79299 18.1735 3.45689 18.107 3.42171C17.9507 3.34355 17.7162 3.31228 17.5794 3.35918ZM18.5955 4.6606C19.0059 5.00452 19.3459 5.30545 19.3459 5.33281C19.3459 5.36017 18.9942 5.67282 18.5604 6.03237C17.6967 6.75147 17.6654 6.7632 17.6654 6.39974C17.6654 6.24732 17.6459 6.1887 17.5677 6.11444L17.4739 6.01674L12.7489 6.01674C9.3918 6.01674 7.98877 6.00501 7.89888 5.97375C7.71129 5.90731 7.66048 5.76661 7.66048 5.33281C7.66048 4.899 7.71129 4.75831 7.89888 4.69187C7.98877 4.6606 9.39571 4.64888 12.7646 4.64888L17.5052 4.64888L17.5833 4.54727C17.642 4.47692 17.6654 4.38703 17.6654 4.26197C17.6654 4.07438 17.724 3.96886 17.7983 4.01185C17.8217 4.02748 18.1813 4.32059 18.5955 4.6606Z" fill="#010101"/>
<path d="M8.57843 8.36055C8.1329 8.43089 7.80853 8.55986 6.71815 9.10701L5.62386 9.65024H4.45531C3.3024 9.65024 3.28677 9.65024 3.26332 9.56817C3.22033 9.4392 2.97412 9.18517 2.79825 9.09137C2.64583 9.0093 2.59112 9.00539 1.56327 9.00539C0.359552 9.00539 0.340011 9.0093 0.12897 9.28678L0.0195409 9.42748L0.00781634 12.2883L0 15.1451L0.0898879 15.3171C0.152419 15.4343 0.23449 15.5164 0.351735 15.5789C0.51197 15.6649 0.55496 15.6688 1.42648 15.6688H2.33318L2.83733 15.8799L3.34149 16.0909L3.36494 16.3019C3.40792 16.6928 3.63851 17.0171 4.00978 17.1969C4.22864 17.3063 4.3029 17.322 4.55302 17.322L4.84222 17.3181L4.94384 17.5291C5.07281 17.791 5.37373 18.0684 5.62777 18.1505C5.74892 18.1896 5.92088 18.2091 6.08502 18.2052L6.34687 18.1974L6.40158 18.3576C6.47584 18.5843 6.72596 18.8501 6.98781 18.979C7.17149 19.0689 7.26529 19.0885 7.52323 19.0924L7.83588 19.0963L7.86715 19.2135C7.9375 19.448 8.17589 19.706 8.45728 19.8506C8.68005 19.9639 8.75821 19.9834 8.98098 19.9834C9.26237 19.9834 9.5164 19.8936 9.73916 19.7216L9.86032 19.6239L10.0714 19.7724C10.1847 19.8545 10.3723 19.9444 10.4817 19.9678C11.193 20.1398 11.9082 19.6004 11.9316 18.8813L11.9356 18.6547L12.1544 18.5921C12.5452 18.4749 12.854 18.1232 12.94 17.6933L12.9829 17.4783L13.194 17.4549C13.8349 17.3884 14.3352 16.7045 14.1984 16.0792L14.1632 15.9229L14.3977 15.7939L14.6322 15.6688H17.0592L19.49 15.6688L19.6581 15.5789C19.7753 15.5164 19.8574 15.4343 19.9199 15.3171L20.0098 15.1451L20.002 12.2883L19.9903 9.42748L19.8809 9.28678C19.6698 9.0093 19.6503 9.00539 18.4466 9.00539C17.4187 9.00539 17.364 9.0093 17.2116 9.09137C17.0357 9.18517 16.7895 9.4392 16.7465 9.56817C16.7231 9.64633 16.6996 9.65024 16.0704 9.65024H15.4177L14.2648 9.08356C12.9087 8.41526 12.7133 8.35273 12.0176 8.35273C11.5096 8.35273 11.1227 8.42698 10.7201 8.61067L10.513 8.70837L10.2863 8.60676C9.78997 8.3879 9.07477 8.28629 8.57843 8.36055ZM12.6429 9.09137C12.8344 9.13436 13.2057 9.30241 13.874 9.64243C15.2223 10.3303 15.195 10.3185 16.0274 10.3459L16.7152 10.3654L16.9576 12.5775C17.0904 13.7929 17.2077 14.8364 17.2194 14.895L17.2428 15.0044H16.1134H14.9878L14.9839 14.7191C14.9839 14.3674 14.8589 14.086 14.5892 13.8281C14.4055 13.6522 11.1735 11.3737 10.9038 11.2291C10.8061 11.1783 10.6849 11.1588 10.4934 11.1588C10.0205 11.1588 9.96974 11.2018 8.95362 12.425C8.21498 13.3122 8.07037 13.4646 7.88669 13.5623C7.5076 13.7577 6.91746 13.5389 6.91746 13.2028C6.91746 13.0855 6.87838 13.1441 7.87887 11.7177C8.88327 10.2834 8.895 10.2716 10.1143 9.65806C10.6224 9.40012 11.1305 9.16172 11.2438 9.12655C11.6815 8.98195 12.1231 8.97022 12.6429 9.09137ZM9.62973 9.08356C9.68445 9.10701 9.62192 9.1539 9.31708 9.31414C8.82465 9.56817 8.62533 9.70887 8.33613 10.002C8.07037 10.2677 6.36641 12.683 6.29606 12.8901C6.24135 13.0543 6.24135 13.3356 6.29216 13.5271C6.35078 13.7343 6.63607 14.0313 6.90574 14.1642C7.19885 14.3088 7.66783 14.344 7.98048 14.2463C8.36739 14.1212 8.51981 13.9766 9.4226 12.9018C9.91894 12.3117 10.3293 11.8584 10.384 11.8349C10.4387 11.8154 10.5208 11.8076 10.5677 11.8232C10.6654 11.8545 14.0616 14.2228 14.1554 14.3283C14.2492 14.4299 14.343 14.6683 14.343 14.7973C14.343 15.0396 14.085 15.278 13.8232 15.278C13.7724 15.278 13.6473 15.235 13.5457 15.1803C13.4441 15.1256 13.319 15.0826 13.2643 15.0826C13.1275 15.0826 12.9751 15.2467 12.9751 15.3953C12.9751 15.5672 13.0259 15.6415 13.2448 15.8017C13.3816 15.9033 13.4558 15.9932 13.5066 16.1183C13.5692 16.2824 13.5692 16.3059 13.5066 16.47C13.3659 16.8374 12.9869 16.9038 12.6351 16.6302C12.4124 16.4544 12.3107 16.427 12.1661 16.4974C11.9434 16.6029 11.9082 16.8804 12.0958 17.0445C12.3029 17.2243 12.3498 17.5447 12.2013 17.7714C12.0684 17.9746 11.7245 18.0372 11.5096 17.8965C11.3337 17.7792 11.1656 17.7949 11.0445 17.9395C10.9116 18.0958 10.9155 18.213 11.0562 18.3733C11.2165 18.5609 11.2555 18.6508 11.2555 18.8462C11.2555 19.0416 11.1617 19.1901 10.982 19.2839C10.8022 19.3777 10.6576 19.3542 10.427 19.2018L10.2121 19.0611L10.2668 18.8774C10.3488 18.6195 10.3137 18.2365 10.1886 17.9903C10.087 17.7871 9.85641 17.5526 9.66491 17.4509C9.51249 17.3767 9.16075 17.3181 8.96534 17.3376C8.80902 17.3572 8.80511 17.3532 8.73867 17.1813C8.64878 16.9429 8.44947 16.724 8.20325 16.5872C8.01566 16.4817 7.95704 16.47 7.6522 16.47C7.32 16.47 7.31219 16.4661 7.28874 16.3723C7.24575 16.2003 7.04252 15.9189 6.87056 15.8017C6.61263 15.618 6.4563 15.5711 6.13583 15.5711L5.83881 15.575L5.74892 15.3679C5.57305 14.9654 5.14315 14.684 4.71325 14.6801C4.25991 14.6761 3.86909 14.8911 3.65023 15.2624C3.59552 15.3562 3.53689 15.4343 3.52126 15.4343C3.47827 15.4343 2.83733 15.1569 2.80216 15.1256C2.78653 15.11 2.88814 14.0274 3.03274 12.726L3.2985 10.3537H4.29508C5.74501 10.3537 5.63558 10.3772 6.99563 9.70887C7.62875 9.40012 8.24624 9.11873 8.36349 9.08747C8.59016 9.02493 9.48513 9.02103 9.62973 9.08356ZM2.59112 9.75967C2.62629 9.79094 2.65756 9.87301 2.65756 9.94335C2.65756 10.0098 2.5364 11.1705 2.38398 12.5227C2.23547 13.875 2.11041 14.9849 2.11041 14.9927C2.11041 15.0005 1.78603 15.0044 1.3874 15.0044H0.664389L0.664389 12.3547C0.664389 10.8969 0.676114 9.68932 0.695654 9.67369C0.711287 9.65806 1.12946 9.65415 1.62189 9.66978C2.3449 9.69323 2.53249 9.70887 2.59112 9.75967ZM19.3376 12.3352L19.3454 15.0044H18.6224C18.2238 15.0044 17.8994 15.0005 17.8994 14.9927C17.8994 14.9849 17.7783 13.875 17.6259 12.5227C17.4773 11.1705 17.3523 10.0098 17.3523 9.94335C17.3523 9.7245 17.4304 9.69323 17.9971 9.6776C18.2785 9.67369 18.6889 9.66587 18.9155 9.66978H19.3259L19.3376 12.3352ZM4.97901 15.4382C5.11189 15.5438 5.19787 15.7118 5.19787 15.872C5.19787 16.1495 4.84613 16.6381 4.639 16.6498C4.25209 16.6693 4.01369 16.4661 4.01369 16.1183C4.01369 15.9189 4.24818 15.5047 4.40842 15.4148C4.56865 15.3288 4.85395 15.3405 4.97901 15.4382ZM6.43676 16.3137C6.6009 16.4231 6.69079 16.6068 6.67125 16.8022C6.65171 17.0211 6.46802 17.3376 6.28825 17.4588C5.90525 17.7206 5.38546 17.3337 5.51052 16.8804C5.56914 16.6654 5.788 16.3606 5.94042 16.2824C6.09284 16.2042 6.28434 16.216 6.43676 16.3137ZM7.92186 17.2008C8.07428 17.2907 8.16808 17.4744 8.16808 17.6698C8.16808 17.8261 7.94922 18.2326 7.80853 18.3381C7.47633 18.5843 6.9839 18.3264 6.9839 17.9043C6.9839 17.6659 7.24966 17.2282 7.44116 17.1539C7.58576 17.0953 7.78508 17.1148 7.92186 17.2008ZM9.38352 18.0723C9.53985 18.1544 9.65318 18.3498 9.65318 18.5374C9.65318 18.7328 9.41869 19.1471 9.25064 19.2448C8.895 19.4558 8.45728 19.1823 8.4651 18.7485C8.47291 18.5726 8.71913 18.1544 8.86373 18.0723C9.00443 17.9981 9.23892 17.9981 9.38352 18.0723Z" fill="#010101"/>
</g>
<defs>
<clipPath id="clip0_21_3258">
<rect width="20" height="20" fill="white"/>
</clipPath>
</defs>
</svg>
