<svg width="20" height="20" viewBox="0 0 20 20" fill="none" xmlns="http://www.w3.org/2000/svg">
<path d="M4.74779 0.092176C4.23671 0.266589 3.84327 0.599191 3.61207 1.05348C3.41738 1.44286 3.3687 1.67001 3.3687 2.23786L3.3687 2.75705H3.0645C2.81302 2.75705 2.74406 2.77327 2.67916 2.83817C2.58587 2.93146 2.58182 2.98419 2.65077 3.10587C2.74406 3.26406 4.15154 4.95546 4.21238 4.97574C4.24483 4.99197 4.31378 4.98386 4.36651 4.96358C4.50847 4.90679 5.96462 3.11399 5.96462 2.9923C5.96462 2.81789 5.85105 2.75705 5.52656 2.75705H5.23452V2.46501C5.23452 1.97016 5.45355 1.67812 5.88755 1.60105C6.26883 1.5321 6.6501 1.80386 6.73934 2.21758C6.76773 2.34738 6.81641 2.48529 6.84886 2.52179C6.92998 2.61508 7.07194 2.61508 7.15306 2.52179C7.25852 2.40822 7.25041 1.67406 7.1409 1.32524C6.99082 0.838502 6.62982 0.41261 6.16743 0.181411C5.76993 -0.0213952 5.18585 -0.0579004 4.74779 0.092176ZM5.64419 0.501844C6.02141 0.587023 6.41079 0.870951 6.57304 1.1711C6.62577 1.27251 6.62982 1.27251 6.41079 1.19544C5.81049 0.984523 5.12095 1.28062 4.85324 1.86064C4.7924 2.00261 4.76807 2.15674 4.7559 2.50557C4.74779 2.75299 4.74779 3.00447 4.76401 3.05314C4.78835 3.1586 4.93842 3.24378 5.09256 3.24378C5.14934 3.24378 5.19396 3.25189 5.19396 3.26406C5.19396 3.27623 4.99115 3.53177 4.74373 3.83192L4.2935 4.37949L3.83516 3.82381L3.37276 3.26406L3.53501 3.23972C3.82299 3.19916 3.8311 3.17483 3.85544 2.31899C3.87978 1.5686 3.87978 1.55644 4.00552 1.31712C4.13937 1.05753 4.43952 0.745212 4.67072 0.623528C4.82485 0.546462 5.15745 0.453171 5.31564 0.449115C5.37243 0.449115 5.51845 0.469395 5.64419 0.501844Z" fill="#010101"/>
<path d="M8.21234 2.03474C8.13933 2.10775 7.78239 2.5377 7.40923 2.99199C6.97522 3.52334 6.73591 3.84783 6.73591 3.90867C6.73591 4.07091 6.85354 4.13176 7.18209 4.14392L7.48629 4.15609L7.47818 4.45624C7.46601 4.8213 7.38084 5.00382 7.14558 5.17012C6.99956 5.27558 6.93466 5.29181 6.71969 5.29181C6.50877 5.29181 6.43576 5.27152 6.2938 5.17823C6.11533 5.06061 5.98959 4.84158 5.94497 4.57387C5.91658 4.3954 5.8314 4.29806 5.70566 4.29806C5.52313 4.29806 5.47852 4.41163 5.47852 4.84969C5.47852 5.49867 5.64076 5.94484 6.00987 6.32206C6.39925 6.72767 6.88193 6.91425 7.47818 6.88586C7.80673 6.87369 7.89191 6.85341 8.16367 6.72362C8.52872 6.5492 8.80048 6.318 9.01545 5.9854C9.26288 5.60413 9.33183 5.31614 9.33183 4.67933V4.13581H9.65226C9.94025 4.13581 9.98486 4.1277 10.0376 4.04658C10.0741 3.9979 10.1025 3.92489 10.1025 3.88839C10.1025 3.85188 9.74961 3.39354 9.31966 2.87436C8.45165 1.81977 8.43137 1.80354 8.21234 2.03474ZM8.8816 3.08122L9.33589 3.6288L9.16553 3.65719C8.88566 3.70586 8.88566 3.70992 8.88566 4.3954C8.88566 5.07278 8.83293 5.37293 8.65446 5.67308C8.42731 6.06247 7.97709 6.36668 7.54714 6.42752C7.31594 6.45997 6.94683 6.39101 6.72374 6.27744C6.52905 6.1801 6.25323 5.92862 6.15589 5.76232C6.07071 5.61629 6.06665 5.62035 6.28974 5.69742C6.51688 5.77854 6.91844 5.77448 7.16586 5.68931C7.44979 5.59196 7.7905 5.24313 7.88379 4.95109C7.96897 4.68339 7.98114 3.86811 7.90408 3.75859C7.87568 3.71803 7.77022 3.67341 7.67693 3.65719L7.49846 3.6288L7.9568 3.07311C8.20828 2.76484 8.4192 2.51742 8.42326 2.52553C8.42731 2.52959 8.63418 2.78107 8.8816 3.08122Z" fill="#010101"/>
<path d="M10.1961 6.20889C9.95278 6.27784 9.82298 6.58611 9.81893 7.10935C9.81893 7.5758 9.90816 7.92868 10.3097 8.98327L10.403 9.2307L9.41331 10.4759C8.86979 11.1574 8.41956 11.7171 8.41551 11.709C8.41145 11.7049 8.20865 11.4494 7.96122 11.1411L7.51505 10.5773L7.65296 10.2366C7.90849 9.60791 8.00178 9.22258 8.00584 8.80075C8.01395 8.36269 7.95717 8.15177 7.80303 8.03008C7.62051 7.88812 7.41365 7.92057 6.99992 8.15582C6.46046 8.46003 6.29416 8.52493 6.04673 8.53304C5.77903 8.5371 5.6614 8.49248 5.13005 8.18422C4.65143 7.9084 4.52975 7.87595 4.331 7.96924C4.11197 8.07065 4.03895 8.28156 4.04301 8.78047C4.04707 9.23475 4.10385 9.48623 4.35128 10.1514C4.46079 10.4475 4.50135 10.6017 4.47702 10.6382C4.45268 10.6625 4.06329 11.1614 3.60901 11.7414C2.02306 13.7695 1.45521 14.6416 1.12666 15.5866C1.00092 15.9436 0.996865 15.9841 1.00092 16.5277C1.00498 16.9657 1.02526 17.1685 1.09421 17.4159C1.56067 19.156 3.1101 19.9551 6.00617 19.9551C6.9553 19.9551 7.70569 19.874 8.35467 19.7036C8.61426 19.6387 8.85357 19.5819 8.88602 19.5819C8.91847 19.5779 9.12127 19.6265 9.33625 19.6833C10.0947 19.8861 11.486 20.0281 11.6239 19.9145C11.701 19.8496 11.705 19.6144 11.628 19.5535C11.5996 19.5292 11.3278 19.4886 11.0317 19.4683C10.2083 19.4034 9.41737 19.2615 9.11316 19.1236C9.04421 19.0952 8.85763 19.0141 8.69538 18.9451C7.69352 18.5273 7.0851 17.8175 6.88229 16.8197C6.79306 16.3938 6.789 15.6678 6.87418 15.3473C7.02832 14.7592 7.35686 14.1143 7.96122 13.2219C8.58587 12.2971 8.77245 12.0416 9.49038 11.133C10.7113 9.58764 10.764 9.53085 10.8086 9.56735C10.91 9.65253 11.4819 9.81072 11.7659 9.83506C12.1269 9.86751 12.6744 9.78638 13.0922 9.63631C13.2423 9.57952 13.3802 9.54707 13.3924 9.5633C13.5262 9.71337 15.2095 11.8631 15.4975 12.2525C16.3939 13.4491 16.9942 14.4753 17.2376 15.2297C17.3268 15.5096 17.3755 15.6069 17.4566 15.6515C17.5458 15.7043 17.5702 15.7043 17.6635 15.6434C17.7973 15.5542 17.8014 15.4366 17.6675 15.0269C17.3106 13.9399 16.544 12.7676 14.5321 10.2407C14.1062 9.70526 13.7534 9.24286 13.7534 9.21042C13.7534 9.17797 13.8264 8.96705 13.9116 8.74396C14.3821 7.53929 14.447 6.68751 14.0941 6.33463C13.8832 6.12371 13.6885 6.15616 13.0922 6.50093C12.5406 6.82542 12.354 6.89437 12.066 6.89437C11.7943 6.89437 11.5509 6.80514 11.1128 6.54149C10.5287 6.19266 10.4152 6.14804 10.1961 6.20889ZM10.8654 6.94304C11.4292 7.2797 11.6482 7.35677 12.0701 7.35677C12.5 7.35677 12.6704 7.29593 13.291 6.93088C13.5141 6.80108 13.7169 6.69156 13.7412 6.69156C13.8101 6.69156 13.8345 6.79702 13.8345 7.11746C13.8345 7.48656 13.7006 8.02197 13.4573 8.61822L13.2747 9.06439L12.8813 9.19825C12.208 9.42945 11.6117 9.42133 11.0844 9.17797C10.833 9.06034 10.7802 8.96299 10.5004 8.13149C10.3665 7.73804 10.33 7.57174 10.3138 7.25131C10.3057 7.03633 10.3057 6.81325 10.3219 6.75646C10.3543 6.63072 10.3341 6.62667 10.8654 6.94304ZM4.95564 8.63445C5.78714 9.12929 6.24548 9.12929 7.10133 8.63445C7.30413 8.51682 7.4826 8.43975 7.51099 8.45598C7.54344 8.48031 7.55155 8.58983 7.53533 8.83725C7.51505 9.20636 7.36092 9.75394 7.14189 10.2407L7.02426 10.5003L6.6876 10.6098C6.09135 10.8045 5.44237 10.7599 5.06921 10.5003C4.94753 10.4151 4.67577 9.76205 4.57031 9.29965C4.47702 8.88187 4.48513 8.35863 4.58247 8.41136C4.59464 8.41947 4.765 8.51682 4.95564 8.63445ZM4.97592 10.987C5.05298 11.056 5.38559 11.1574 5.6614 11.1898C6.01429 11.2304 6.44018 11.1817 6.86607 11.0478C7.13783 10.9627 7.20273 10.9545 7.24329 10.9992C7.37714 11.1492 8.11536 12.0862 8.11536 12.1065C8.11536 12.1227 7.95311 12.3661 7.75436 12.6459C7.06076 13.6356 6.63487 14.4266 6.42395 15.1161C6.32661 15.4366 6.31444 15.5339 6.31849 16.0612C6.31849 16.556 6.33877 16.7102 6.42395 17.0468C6.66326 17.9595 7.11755 18.5882 7.90444 19.0952C8.04235 19.1844 8.14375 19.2696 8.12347 19.2818C8.04235 19.3304 7.30413 19.4318 6.71194 19.4724C5.98184 19.5211 4.92319 19.4765 4.26204 19.3629C3.77936 19.2818 3.10199 19.0627 2.76939 18.8762C2.4449 18.6936 2.0109 18.284 1.84054 18C1.6134 17.6188 1.49577 17.1969 1.47143 16.6656C1.44709 16.0531 1.51605 15.757 1.84459 15.1121C2.28266 14.2441 2.94786 13.3152 4.69605 11.1208C4.83395 10.9505 4.89885 10.918 4.97592 10.987Z" fill="#010101"/>
<path d="M13.3262 14.8444C12.7583 14.9255 12.3081 15.0918 12.0769 15.3068C11.8498 15.5177 11.8457 15.5461 11.8457 17.347C11.8457 18.361 11.8619 19.0587 11.8863 19.152C11.9796 19.4765 12.3365 19.7239 12.9327 19.8618C13.3627 19.9632 14.5917 19.9632 14.9486 19.8659C15.1717 19.805 15.2123 19.805 15.4151 19.8618C15.5489 19.8983 15.8856 19.9308 16.2669 19.9429C16.9848 19.9673 17.4837 19.8902 17.9258 19.6914C18.1814 19.5738 18.4369 19.3386 18.4775 19.1763C18.4896 19.1236 18.4977 18.5354 18.4896 17.8621L18.4775 16.6412L18.372 16.5033C18.1205 16.1748 17.5202 15.9841 16.6441 15.9517L16.0641 15.9274V15.8097C16.0641 15.396 15.6585 15.0715 14.9284 14.9052C14.5795 14.8282 13.6872 14.7916 13.3262 14.8444ZM14.9486 15.392C15.3502 15.5055 15.5895 15.6515 15.5489 15.7611C15.5165 15.8462 15.1717 16.0125 14.8797 16.0815C14.0725 16.2762 12.8232 16.1504 12.4298 15.8381C12.3284 15.757 12.3203 15.7367 12.373 15.6759C12.4825 15.542 12.9003 15.3838 13.3262 15.3189C13.5979 15.2743 14.7053 15.3271 14.9486 15.392ZM12.8922 16.552C13.5858 16.7345 14.7621 16.6859 15.3461 16.4465L15.5854 16.3492L15.5692 16.5966C15.553 16.7994 15.5327 16.8603 15.4435 16.9373C15.1636 17.1766 14.5268 17.2983 13.7196 17.2659C13.1396 17.2415 12.8597 17.1848 12.5434 17.0266L12.3527 16.9333L12.3405 16.6372L12.3284 16.3411L12.4541 16.406C12.5231 16.4425 12.7218 16.5074 12.8922 16.552ZM17.5324 16.5439C17.6825 16.5926 17.8569 16.6737 17.9177 16.7264C18.0151 16.8116 18.0232 16.8319 17.9704 16.8927C17.8974 16.9779 17.7271 17.0671 17.4918 17.1361C17.2403 17.2132 16.5833 17.2862 16.3074 17.2699L16.0843 17.2578L16.0722 16.8359L16.06 16.4182L16.6603 16.4344C17.1227 16.4506 17.3215 16.4749 17.5324 16.5439ZM15.5692 17.6837C15.5571 17.8459 15.5246 17.9514 15.4719 18.0122C15.2772 18.2312 14.6566 18.3773 13.9143 18.3773C13.3302 18.3773 12.9003 18.3002 12.5758 18.1379L12.3527 18.0284L12.3405 17.7486C12.3324 17.5214 12.3405 17.4727 12.3852 17.493C13.2572 17.8256 14.5106 17.85 15.2975 17.5458C15.4394 17.493 15.5652 17.4443 15.5733 17.4443C15.5814 17.4403 15.5773 17.5498 15.5692 17.6837ZM18.0029 17.7526L17.9907 18.0284L17.7676 18.142C17.4269 18.3083 16.8631 18.3975 16.2182 18.3773L16.0641 18.3732V18.073V17.777L16.5833 17.7526C17.0862 17.7323 17.5729 17.6472 17.8244 17.5376C17.8934 17.5092 17.9664 17.4849 17.9826 17.4809C17.9988 17.4809 18.011 17.6025 18.0029 17.7526ZM15.5287 19.0911C15.4475 19.1885 14.9973 19.3791 14.7174 19.4318C14.3848 19.4967 13.5209 19.4967 13.1883 19.4318C12.8516 19.367 12.5312 19.2453 12.4217 19.1439C12.3487 19.0749 12.3324 19.0141 12.3324 18.8153C12.3324 18.6328 12.3446 18.576 12.3852 18.5922C13.1883 18.9248 14.4538 18.9492 15.2975 18.649L15.5571 18.5557L15.5692 18.791C15.5773 18.9451 15.5611 19.0506 15.5287 19.0911ZM18.011 18.8397C18.011 19.0952 18.0069 19.1074 17.8812 19.1844C17.5446 19.3913 16.7171 19.5373 16.1574 19.4846L15.8613 19.4602L15.9424 19.3467C15.987 19.2818 16.0357 19.1479 16.0478 19.0465L16.0762 18.8599H16.4332C16.8996 18.8599 17.3336 18.7991 17.6743 18.6815C17.8244 18.6287 17.9623 18.5841 17.9826 18.5801C17.9988 18.5801 18.011 18.6936 18.011 18.8397Z" fill="#010101"/>
</svg>
