<svg width="20" height="20" viewBox="0 0 20 20" fill="none" xmlns="http://www.w3.org/2000/svg">
<g clip-path="url(#clip0_21_3338)">
<path d="M5.36333 0.540922C5.17192 0.622954 5.15629 0.740143 5.15629 2.16984V3.4511H3.82816C2.74612 3.4511 2.47658 3.46282 2.39065 3.50579C2.33205 3.53704 1.76955 4.08001 1.14063 4.70893L0 5.85347L0.234377 6.08784L0.468754 6.32222L1.57423 5.21674L2.6758 4.11517H3.918H5.15629V5.11127V6.10738H4.33597H3.51175L3.52347 6.42769L3.53519 6.75191L5.80083 6.77144L8.06648 6.79097L8.19929 6.88473C8.34382 6.9902 8.47273 7.23629 8.47663 7.41207C8.47663 7.61129 8.3282 7.85739 8.14851 7.96286L7.98054 8.06052H6.74225C5.76958 8.06052 5.47661 8.07224 5.37895 8.1152C5.30864 8.14645 5.0352 8.39255 4.76567 8.66208L4.27738 9.15428L4.51176 9.38865L4.74223 9.62303L4.94926 9.4199L5.15629 9.21678V10.123V11.0293H2.69534H0.234377V11.3613V11.6934H9.17586H18.1213L18.2306 11.5996L18.34 11.5059V6.09175V0.681549L18.2502 0.591704L18.1603 0.50186L11.8243 0.494047C6.48834 0.486235 5.4688 0.494047 5.36333 0.540922ZM17.6955 1.47843V1.81046H11.7579H5.82036V1.47843V1.1464H11.7579H17.6955V1.47843ZM17.6955 2.80657V3.1386L11.7696 3.13079L5.83989 3.11907L5.82818 2.79485L5.81646 2.47453H11.7579H17.6955V2.80657ZM6.75787 3.84954C6.75787 3.95501 6.51959 4.30658 6.34771 4.45892C6.25005 4.54486 6.0899 4.64252 5.99224 4.67768L5.82036 4.73627V4.26752V3.80267H6.28912C6.63678 3.80267 6.75787 3.81439 6.75787 3.84954ZM16.133 3.98626C16.2033 4.27142 16.3986 4.60736 16.629 4.83783C16.8791 5.08784 17.09 5.21674 17.4376 5.33003L17.6955 5.41596V7.41598V9.4199L17.5158 9.46287C16.9064 9.61912 16.3595 10.1348 16.1642 10.748L16.0744 11.0293L11.7657 11.0176L7.4571 11.0098L7.37116 10.7559C7.15631 10.1152 6.63287 9.62303 6.00396 9.46287L5.82036 9.4199V9.07224V8.72849L6.98444 8.71677C8.09773 8.70505 8.15241 8.70115 8.33992 8.61521C8.44929 8.56443 8.61336 8.45114 8.7032 8.3613C9.37508 7.71286 9.1993 6.623 8.35945 6.22847C8.14851 6.12691 8.13288 6.12691 6.99225 6.10738L5.83989 6.08784L5.82818 5.7519L5.81646 5.41206L6.0899 5.33003C6.74615 5.1308 7.19928 4.63861 7.43756 3.86908C7.4571 3.80657 7.69929 3.80267 11.7696 3.80267H16.0861L16.133 3.98626ZM17.6955 4.26752V4.73627L17.5744 4.6933C17.258 4.58393 16.8634 4.18548 16.7775 3.88861C16.754 3.80267 16.754 3.80267 17.2228 3.80267H17.6955V4.26752ZM6.10943 10.1973C6.37115 10.3301 6.75787 10.8027 6.75787 10.9902C6.75787 11.0137 6.58599 11.0293 6.28912 11.0293H5.82036V10.5566C5.82036 10.0332 5.80864 10.0449 6.10943 10.1973ZM17.6955 10.5605V11.0293H17.2228C16.754 11.0293 16.754 11.0293 16.7775 10.9394C16.8283 10.7715 16.9884 10.5332 17.1525 10.3887C17.2931 10.2598 17.5783 10.0957 17.6681 10.0918C17.6837 10.0918 17.6955 10.3027 17.6955 10.5605Z" fill="#010101"/>
<path d="M11.2149 5.52117C10.3711 5.77118 9.80469 6.5329 9.80469 7.41963C9.80469 8.32588 10.4102 9.09542 11.3086 9.32589C12.6875 9.68527 14.0391 8.3376 13.6758 6.96259C13.5782 6.57978 13.4102 6.2829 13.1446 6.01727C12.6446 5.51727 11.8906 5.32195 11.2149 5.52117ZM12.3242 6.22821C12.8633 6.48993 13.1602 7.07587 13.0469 7.64619C12.9883 7.95088 12.8985 8.12276 12.6875 8.3337C12.4219 8.59932 12.1602 8.70479 11.7578 8.70479C11.3633 8.70479 11.1563 8.62667 10.8789 8.36885C10.1719 7.7165 10.3828 6.57587 11.2734 6.20087C11.582 6.07196 12.0313 6.08368 12.3242 6.22821Z" fill="#010101"/>
<path d="M18.2189 12.7243C18.1407 12.7594 18.0821 12.8258 18.0548 12.9001L18.0118 13.0211H16.3009H14.5938L13.6134 13.9938L12.6368 14.9665L9.4141 14.4001C7.64065 14.0915 6.07814 13.8337 5.93751 13.8337C5.32422 13.8219 4.86719 14.2633 4.86719 14.8766C4.86719 15.2009 4.96094 15.443 5.16797 15.6423C5.26953 15.7438 12.1485 19.7946 12.6446 20.0485C12.836 20.1462 13.129 20.1736 13.3634 20.111C13.4884 20.0798 14.379 19.6579 15.3477 19.1735L17.1095 18.2946H17.5782C18.0157 18.2946 18.047 18.2985 18.047 18.3688C18.047 18.4118 18.0939 18.4821 18.1485 18.5251C18.2462 18.6032 18.3009 18.6071 19.0196 18.6071C19.8204 18.6032 19.8634 18.5954 19.9533 18.4235C19.9884 18.361 20.0001 17.611 20.0001 15.6227V12.9079L19.9064 12.7985L19.8126 12.6891L19.0743 12.6774C18.5118 12.6735 18.3126 12.6813 18.2189 12.7243ZM19.3361 15.6384V17.9431H19.004H18.672V15.6384V13.3336H19.004H19.3361V15.6384ZM18.0079 15.6579V17.6306H17.4806H16.9532L15.0704 18.572C13.5235 19.3454 13.1641 19.5095 13.0665 19.4939C13.004 19.4821 11.3047 18.5134 9.29691 17.3415C6.66017 15.8024 5.62501 15.1813 5.57813 15.1032C5.53907 15.0446 5.50782 14.9391 5.50782 14.8688C5.50782 14.7165 5.66407 14.5212 5.81251 14.486C5.87501 14.4743 7.16799 14.6813 8.95316 14.9938C10.625 15.2829 12.0079 15.5212 12.0352 15.5212C12.0587 15.5212 11.9727 15.6344 11.8438 15.7712C11.6876 15.9391 11.5821 16.0954 11.5274 16.2438C11.2071 17.0954 11.8477 17.9821 12.754 17.9353C13.2227 17.9118 13.336 17.8337 14.3751 16.7907L15.2931 15.8727L15.0782 15.6579C14.961 15.5407 14.8477 15.443 14.8243 15.443C14.8048 15.443 14.3985 15.8298 13.9259 16.3063C13.4532 16.779 13.0196 17.1931 12.961 17.2243C12.7071 17.3571 12.3438 17.2517 12.1876 16.9977C12.1016 16.8532 12.0821 16.5837 12.1524 16.447C12.1758 16.4001 12.7969 15.7595 13.5274 15.0212L14.8634 13.6852H16.4337H18.0079V15.6579Z" fill="#010101"/>
</g>
<defs>
<clipPath id="clip0_21_3338">
<rect width="20" height="20" fill="white"/>
</clipPath>
</defs>
</svg>
