<svg width="20" height="20" viewBox="0 0 20 20" fill="none" xmlns="http://www.w3.org/2000/svg">
<g clip-path="url(#clip0_21_3249)">
<path d="M2.69531 7.91406V17.6863C2.69531 17.862 2.76527 18.0305 2.8898 18.1548C3.01433 18.279 3.18323 18.3488 3.35934 18.3488H7.34353V12.7174C7.34353 12.4538 7.44847 12.201 7.63527 12.0147C7.82206 11.8283 8.07541 11.7236 8.33958 11.7236H11.6597C11.9239 11.7236 12.1773 11.8283 12.364 12.0147C12.5508 12.201 12.6558 12.4538 12.6558 12.7174V18.3488H16.64C16.8161 18.3488 16.985 18.279 17.1095 18.1548C17.234 18.0305 17.304 17.862 17.304 17.6863V7.91406" stroke="#010101" stroke-linecap="round" stroke-linejoin="round"/>
<path d="M19.392 10.0004L10.4572 1.3007C10.2476 1.07553 9.75751 1.07297 9.54411 1.3007L0.609375 10.0004M16.0379 6.7167V1.81245H14.0255V4.755" stroke="#010101" stroke-linecap="round" stroke-linejoin="round"/>
</g>
<defs>
<clipPath id="clip0_21_3249">
<rect width="20" height="20" fill="white"/>
</clipPath>
</defs>
</svg>
