<svg width="20" height="20" viewBox="0 0 20 20" fill="none" xmlns="http://www.w3.org/2000/svg">
<g clip-path="url(#clip0_21_3306)">
<path d="M4.3327 11.834C3.41371 11.834 2.66602 12.5816 2.66602 13.5007C2.66602 14.4196 3.41367 15.1673 4.3327 15.1673C5.25168 15.1673 5.99937 14.4197 5.99937 13.5007C5.99937 12.5817 5.25172 11.834 4.3327 11.834ZM4.3327 14.5007C3.78137 14.5007 3.3327 14.052 3.3327 13.5007C3.3327 12.9493 3.78137 12.5007 4.3327 12.5007C4.88402 12.5007 5.3327 12.9493 5.3327 13.5007C5.3327 14.052 4.88402 14.5007 4.3327 14.5007Z" fill="#010101"/>
<path d="M9.49937 11.5H8.8327C8.7407 11.5 8.66602 11.5746 8.66602 11.6667V12.3334C8.66602 12.4254 8.74066 12.5 8.8327 12.5H9.49937C9.59137 12.5 9.66605 12.4254 9.66605 12.3334V11.6667C9.66605 11.5746 9.59137 11.5 9.49937 11.5Z" fill="#010101"/>
<path d="M11.4994 11.5H10.8327C10.7407 11.5 10.666 11.5746 10.666 11.6667V12.3334C10.666 12.4254 10.7407 12.5 10.8327 12.5H11.4994C11.5914 12.5 11.6661 12.4254 11.6661 12.3334V11.6667C11.6661 11.5746 11.5914 11.5 11.4994 11.5Z" fill="#010101"/>
<path d="M12.4994 10.166H11.8327C11.7407 10.166 11.666 10.2407 11.666 10.3327V10.9993C11.666 11.0913 11.7407 11.166 11.8327 11.166H12.4994C12.5914 11.166 12.6661 11.0914 12.6661 10.9993V10.3327C12.6661 10.2407 12.5914 10.166 12.4994 10.166Z" fill="#010101"/>
<path d="M10.4994 10.166H9.8327C9.7407 10.166 9.66602 10.2407 9.66602 10.3327V10.9993C9.66602 11.0913 9.74066 11.166 9.8327 11.166H10.4994C10.5914 11.166 10.6661 11.0914 10.6661 10.9993V10.3327C10.6661 10.2407 10.5914 10.166 10.4994 10.166Z" fill="#010101"/>
<path d="M8.49937 10.166H7.8327C7.7407 10.166 7.66602 10.2407 7.66602 10.3327V10.9993C7.66602 11.0913 7.74066 11.166 7.8327 11.166H8.49937C8.59137 11.166 8.66605 11.0914 8.66605 10.9993V10.3327C8.66605 10.2407 8.59137 10.166 8.49937 10.166Z" fill="#010101"/>
<path d="M19.6667 11.834V9.83398C19.6667 9.69031 19.575 9.56297 19.4387 9.51766L17.557 8.89066C16.7363 7.52398 15.581 6.67266 13.9416 6.22766L13.6566 5.08633C13.6193 4.93832 13.4863 4.83398 13.3333 4.83398H9.66664C9.51363 4.83398 9.38062 4.93832 9.34332 5.08633L9.01 6.41965C9.00965 6.42031 9.01 6.42133 9.01 6.42199C7.21832 6.82301 5.855 7.62031 4.84398 8.83699C2.62832 8.86832 0.33332 9.56465 0.33332 10.834V11.834C0.148984 11.834 0 11.9833 0 12.1673V13.5007C0 13.6846 0.148984 13.834 0.33332 13.834H1.66664C1.85098 13.834 1.99996 13.6846 1.99996 13.5007C1.99996 12.214 3.04695 11.1673 4.33328 11.1673C5.61961 11.1673 6.6666 12.214 6.6666 13.5007C6.6666 13.6846 6.81559 13.834 6.99992 13.834H12.9999C13.1843 13.834 13.3332 13.6846 13.3332 13.5007C13.3332 12.214 14.3802 11.1673 15.6666 11.1673C16.9529 11.1673 17.9999 12.214 17.9999 13.5007C17.9999 13.6846 18.1489 13.834 18.3332 13.834H19.6665C19.8509 13.834 19.9998 13.6846 19.9998 13.5007V12.1673C20 11.9833 19.851 11.834 19.6667 11.834ZM15.5827 7.69699C16.02 8.00598 16.398 8.37867 16.724 8.83398H15.3933L15.5827 7.69699ZM13.6113 6.83133C14.1153 6.95699 14.5653 7.12 14.9693 7.32434L14.7177 8.83398H11.0937L11.6047 6.78898C12.215 6.77066 12.881 6.78199 13.6113 6.83133ZM9.92699 5.50066H13.073L13.234 6.14398C11.9287 6.07766 10.7647 6.12398 9.7307 6.28633L9.92699 5.50066ZM10.909 6.82367L10.4066 8.83402H5.73965C6.62434 7.94266 8.09601 7.03168 10.909 6.82367ZM19.3333 13.1673H18.648C18.4817 11.6693 17.2084 10.5007 15.6667 10.5007C14.125 10.5007 12.8517 11.6693 12.6854 13.1673H7.31465C7.14832 11.6693 5.875 10.5007 4.33332 10.5007C2.79164 10.5007 1.51832 11.6693 1.35199 13.1673H0.66668V12.5007C0.851016 12.5007 1 12.3513 1 12.1673V11.1673H1.33332C1.51766 11.1673 1.66664 11.018 1.66664 10.834C1.66664 10.65 1.51766 10.5007 1.33332 10.5007H1.16C1.61102 10.011 2.99102 9.50066 5 9.50066H17.2793L19 10.0743V10.5007H18.6667C18.4823 10.5007 18.3334 10.65 18.3334 10.834C18.3334 11.018 18.4823 11.1673 18.6667 11.1673H19V12.1673C19 12.3513 19.149 12.5006 19.3333 12.5006V13.1673Z" fill="#010101"/>
<path d="M15.6667 11.834C14.7477 11.834 14 12.5816 14 13.5007C14 14.4196 14.7477 15.1673 15.6667 15.1673C16.5857 15.1673 17.3334 14.4197 17.3334 13.5007C17.3333 12.5817 16.5857 11.834 15.6667 11.834ZM15.6667 14.5007C15.1154 14.5007 14.6667 14.052 14.6667 13.5007C14.6667 12.9493 15.1154 12.5007 15.6667 12.5007C16.218 12.5007 16.6667 12.9493 16.6667 13.5007C16.6667 14.052 16.218 14.5007 15.6667 14.5007Z" fill="#010101"/>
</g>
<defs>
<clipPath id="clip0_21_3306">
<rect width="20" height="20" fill="white"/>
</clipPath>
</defs>
</svg>
