<svg width="20" height="20" viewBox="0 0 20 20" fill="none" xmlns="http://www.w3.org/2000/svg">
<g clip-path="url(#clip0_21_3281)">
<g clip-path="url(#clip1_21_3281)">
<path d="M10.6661 7.66602H9.99942C9.81525 7.66602 9.66602 7.81525 9.66602 7.99942C9.66602 8.18344 9.81525 8.33267 9.99942 8.33267H10.6661C10.8501 8.33267 10.9993 8.18344 10.9993 7.99942C10.9993 7.81525 10.8501 7.66602 10.6661 7.66602Z" fill="#010101"/>
<path d="M7.66608 8.66797H6.99942C6.81525 8.66797 6.66602 8.8172 6.66602 9.00137C6.66602 9.18539 6.81525 9.33462 6.99942 9.33462H7.66608C7.85025 9.33462 7.99948 9.18539 7.99948 9.00137C7.99948 8.8172 7.85025 8.66797 7.66608 8.66797Z" fill="#010101"/>
<path d="M19.3334 13.9934H15.803L13.3333 11.5244C13.2085 11.3984 13.0382 11.3277 12.8606 11.3283H11.6666V10.6521C13.1414 10.5326 14.4004 9.53972 14.8603 8.13348C14.8603 8.13012 14.8627 8.12646 14.8644 8.1231C14.9816 7.76025 15.0414 7.38138 15.0417 7.00007C15.0417 6.63188 14.7432 6.33342 14.375 6.33342H14.3416C14.3189 5.44429 13.8489 4.62689 13.0921 4.15982L15.2857 0.505219C15.3765 0.347749 15.3244 0.14664 15.1686 0.0529519C15.0129 -0.0407363 14.8107 0.00778629 14.7144 0.161899L12.8496 3.26948C12.6737 2.87123 12.397 2.52577 12.047 2.26683L12.65 0.437775C12.7076 0.262911 12.6125 0.0744666 12.4376 0.0167889C12.2628 -0.0407363 12.0743 0.0543252 12.0166 0.229189L11.4667 1.89589C10.7009 1.51473 9.85523 1.32201 8.99997 1.33346C6.84101 1.33346 5.13736 2.41988 5.01194 3.83344C4.48551 3.96665 4.00959 4.25122 3.64307 4.65176C3.24176 5.12371 3.01288 5.71803 2.99427 6.33708C2.64621 6.36195 2.37598 6.6511 2.37507 7.00007C2.37537 7.79321 2.63446 8.56438 3.11298 9.1967C3.1229 9.21196 3.13404 9.22646 3.1464 9.23973C3.68747 9.94148 4.4643 10.4235 5.33329 10.5967V11.33H4.56668C4.28852 11.3309 4.0398 11.5034 3.94138 11.7634L3.10474 13.9968H1.13666C0.960423 13.9963 0.791508 14.0673 0.668369 14.1935L0.188023 14.6668C0.0677835 14.7924 0.000339696 14.9594 3.45186e-05 15.1334V17.3334C-0.00301724 17.6328 0.196568 17.8963 0.485722 17.9744L1.56574 18.3177C1.59839 18.3281 1.63242 18.3333 1.6666 18.3333H2.69764C2.76111 18.7039 2.9285 19.0489 3.17997 19.3283H2C1.81583 19.3283 1.6666 19.4775 1.6666 19.6617C1.6666 19.8457 1.81583 19.995 2 19.995H4.66663C5.63984 19.9939 6.47098 19.2924 6.63562 18.3333H13.3643C13.4279 18.7039 13.5952 19.0489 13.8466 19.3283H12.6667C12.4826 19.3283 12.3334 19.4775 12.3334 19.6617C12.3334 19.8457 12.4826 19.995 12.6667 19.995H15.3333C16.3065 19.9939 17.1376 19.2924 17.3023 18.3333H17.3334C17.3516 18.3334 17.3697 18.3319 17.3877 18.329L19.4229 17.9933C19.7541 17.945 19.9996 17.6613 20 17.3267V14.6601C20 14.4832 19.9297 14.3137 19.8047 14.1886C19.6798 14.0636 19.5101 13.9934 19.3334 13.9934ZM19.3306 15.3287H18.5939L18.4273 14.6595H19.3334L19.3306 15.3287ZM5.64167 11.9954C5.65036 11.9954 5.65769 12.0003 5.66669 12.0003C5.67569 12.0003 5.68302 11.9961 5.69172 11.9954H8.66672V13.9934H5.37769L5.62763 11.9951L5.64167 11.9954ZM14.8603 13.9934H9.33338V11.9951H11.3083C11.317 11.9951 11.3243 12 11.3333 12C11.3424 12 11.3497 11.9958 11.3584 11.9951H12.8614L14.8603 13.9934ZM14.2977 7.66672H12C11.8158 7.66672 11.6666 7.81595 11.6666 8.00012C11.6666 8.18414 11.8158 8.33337 12 8.33337H14.0583C13.5524 9.35295 12.5132 9.99855 11.375 10.0001H6.0416C5.35663 10.0004 4.69242 9.76494 4.16034 9.33342H5.66669C5.85071 9.33342 5.99994 9.18419 5.99994 9.00017C5.99994 8.816 5.85071 8.66677 5.66669 8.66677H3.54908C3.21781 8.17407 3.04111 7.59378 3.04172 7.00007H14.375C14.3743 7.22452 14.3483 7.44821 14.2977 7.66672ZM6.33335 4.33346C6.51737 4.33346 6.6666 4.18423 6.6666 4.00021C6.6666 3.81604 6.51737 3.66681 6.33335 3.66681C6.12476 3.66742 5.91648 3.67963 5.70926 3.70343C5.95707 2.75419 7.36133 2.00011 8.99997 2.00011C9.78504 1.98561 10.5608 2.17085 11.2546 2.53813L10.591 4.54907C10.5536 4.66229 10.5796 4.7868 10.6589 4.8756C10.7381 4.96456 10.8588 5.00439 10.9755 4.98013C11.0921 4.95586 11.187 4.87133 11.2244 4.75811L11.8219 2.94721C12.1312 3.21195 12.3165 3.59342 12.3334 4.00021C12.3326 4.05087 12.3284 4.10168 12.3203 4.15173L11.7144 5.16186C11.6504 5.26394 11.6466 5.39272 11.7044 5.49846C11.7621 5.6042 11.8726 5.67058 11.9931 5.67195C12.1135 5.67333 12.2255 5.60955 12.2856 5.50518L12.7523 4.73049C13.3101 5.07519 13.6563 5.6779 13.673 6.33342H3.66108C3.67954 5.87825 3.84906 5.44216 4.14264 5.0938C4.58835 4.5895 5.32535 4.33346 6.33335 4.33346ZM5.99994 10.6647C6.01398 10.6647 6.02771 10.6667 6.0416 10.6667H10.9999V11.3283H5.99994V10.6647ZM4.56668 11.9951H4.95731L4.70768 13.9934H3.81504L4.56668 11.9951ZM1.13666 14.6601H1.33335V15.1618L0.666691 15.6616V15.1334L1.13666 14.6601ZM4.66663 19.3283C3.93024 19.3283 3.33332 18.7314 3.33332 17.995C3.33332 17.2586 3.93024 16.6617 4.66663 16.6617C5.40302 16.6617 5.99994 17.2586 5.99994 17.995C5.99994 18.7314 5.40302 19.3283 4.66663 19.3283ZM4.66663 15.995C3.68961 15.9961 2.85633 16.7029 2.69596 17.6666H1.71833L0.666691 17.3334V16.4954L1.73328 15.6954C1.90067 15.569 1.99939 15.3717 2 15.1621V14.6601H3.32004C3.32462 14.6601 3.32874 14.6617 3.33332 14.6617H8.79398L9.63337 16.337C9.65641 16.3831 9.66831 16.4339 9.66831 16.4853V17.6666H6.6373C6.47693 16.7029 5.64365 15.9961 4.66663 15.995ZM15.3333 19.3283C14.5969 19.3283 14 18.7314 14 17.995C14 17.2586 14.5969 16.6617 15.3333 16.6617C16.0697 16.6617 16.6666 17.2586 16.6666 17.995C16.6666 18.7314 16.0697 19.3283 15.3333 19.3283ZM17.3059 17.6666H17.304C17.1448 16.7021 16.3109 15.9946 15.3333 15.9946C14.3558 15.9946 13.5219 16.7021 13.3626 17.6666H10.3333V16.4853C10.3333 16.3303 10.2971 16.1774 10.228 16.0387L9.53937 14.6617H15.6667C15.6704 14.6617 15.6737 14.6601 15.6777 14.6601H17.7393L17.947 15.4911C18.0208 15.7874 18.2872 15.9954 18.5927 15.995H19.328L19.3224 17.3334L17.3059 17.6666Z" fill="#010101"/>
<path d="M0.666656 19.334H0.333252C0.149231 19.334 0 19.4832 0 19.6674C0 19.8514 0.149231 20.0006 0.333252 20.0006H0.666656C0.850677 20.0006 0.999908 19.8514 0.999908 19.6674C0.999908 19.4832 0.850677 19.334 0.666656 19.334Z" fill="#010101"/>
<path d="M11.3327 19.334H10.9993C10.8152 19.334 10.666 19.4832 10.666 19.6674C10.666 19.8514 10.8152 20.0006 10.9993 20.0006H11.3327C11.5167 20.0006 11.6659 19.8514 11.6659 19.6674C11.6659 19.4832 11.5167 19.334 11.3327 19.334Z" fill="#010101"/>
</g>
</g>
<defs>
<clipPath id="clip0_21_3281">
<rect width="20" height="20" fill="white"/>
</clipPath>
<clipPath id="clip1_21_3281">
<rect width="20" height="20" fill="white"/>
</clipPath>
</defs>
</svg>
