<svg width="20" height="20" viewBox="0 0 20 20" fill="none" xmlns="http://www.w3.org/2000/svg">
<g clip-path="url(#clip0_21_3289)">
<path d="M16.25 1.25H13.125C13.1247 1.25 13.1245 1.25004 13.1242 1.25004C12.8388 0.870781 12.3851 0.625 11.875 0.625H11.0785C10.858 0.243828 10.4485 0 10 0C9.55152 0 9.14195 0.243828 8.92148 0.625H8.125C7.61488 0.625 7.16117 0.870781 6.87582 1.25004C6.87555 1.25004 6.87527 1.25 6.875 1.25H3.75C2.88844 1.25 2.1875 1.95094 2.1875 2.8125V18.4375C2.1875 19.2991 2.88844 20 3.75 20H16.25C17.1116 20 17.8125 19.2991 17.8125 18.4375V2.8125C17.8125 1.95094 17.1116 1.25 16.25 1.25ZM7.1875 2.1875C7.1875 1.67059 7.60809 1.25 8.125 1.25H9.11992C9.25215 1.25 9.37008 1.16676 9.41437 1.04219C9.50305 0.792656 9.7384 0.625 10 0.625C10.2616 0.625 10.497 0.792656 10.5856 1.04219C10.6299 1.16676 10.7479 1.25 10.8801 1.25H11.875C12.3919 1.25 12.8125 1.67059 12.8125 2.1875V3.125H7.1875V2.1875ZM17.1875 18.4375C17.1875 18.9544 16.7669 19.375 16.25 19.375H3.75C3.23309 19.375 2.8125 18.9544 2.8125 18.4375V2.8125C2.8125 2.29559 3.23309 1.875 3.75 1.875H6.59395C6.57336 1.97602 6.5625 2.08051 6.5625 2.1875V3.4375C6.5625 3.61008 6.70242 3.75 6.875 3.75H13.125C13.2976 3.75 13.4375 3.61008 13.4375 3.4375V2.1875C13.4375 2.08051 13.4266 1.97602 13.4061 1.875H16.25C16.7669 1.875 17.1875 2.29559 17.1875 2.8125V18.4375Z" fill="#010101"/>
<path d="M16.25 2.5H14.375C14.2024 2.5 14.0625 2.63992 14.0625 2.8125C14.0625 2.98508 14.2024 3.125 14.375 3.125H15.9375V14.0625H12.8125C12.2956 14.0625 11.875 14.4831 11.875 15V16.875C11.875 17.0475 12.0149 17.1875 12.1875 17.1875C12.3601 17.1875 12.5 17.0475 12.5 16.875V15C12.5 14.8277 12.6402 14.6875 12.8125 14.6875H15.4955L12.058 18.125H4.0625V3.125H5.625C5.79758 3.125 5.9375 2.98508 5.9375 2.8125C5.9375 2.63992 5.79758 2.5 5.625 2.5H3.75C3.57742 2.5 3.4375 2.63992 3.4375 2.8125V18.4375C3.4375 18.6101 3.57742 18.75 3.75 18.75H12.1875C12.1879 18.75 12.1882 18.75 12.1885 18.75C12.1984 18.7499 12.2084 18.7495 12.2183 18.7485C12.2233 18.748 12.2282 18.7471 12.2332 18.7463C12.2383 18.7456 12.2434 18.745 12.2484 18.744C12.2542 18.7429 12.2598 18.7413 12.2655 18.7398C12.2696 18.7388 12.2739 18.7379 12.278 18.7366C12.2837 18.7349 12.2891 18.7328 12.2947 18.7308C12.2987 18.7293 12.3028 18.728 12.3068 18.7264C12.3121 18.7241 12.3173 18.7216 12.3225 18.7191C12.3265 18.7171 12.3305 18.7154 12.3344 18.7133C12.3398 18.7105 12.3449 18.7072 12.3501 18.7041C12.3536 18.7019 12.3571 18.7 12.3606 18.6977C12.3668 18.6935 12.3728 18.6889 12.3787 18.6844C12.3808 18.6827 12.383 18.6813 12.3852 18.6796C12.3936 18.6727 12.4016 18.6655 12.4092 18.6578L16.4709 14.5961C16.4714 14.5956 16.4717 14.595 16.4722 14.5945C16.4814 14.5852 16.4897 14.5752 16.4977 14.5649C16.4998 14.5621 16.502 14.5593 16.504 14.5564C16.5118 14.5455 16.5191 14.5343 16.5254 14.5224C16.5261 14.5212 16.5266 14.5199 16.5272 14.5186C16.533 14.5076 16.5379 14.4961 16.5423 14.4843C16.5434 14.4816 16.5444 14.4789 16.5454 14.4761C16.5498 14.4632 16.5536 14.4501 16.5563 14.4365C16.5564 14.4357 16.5565 14.435 16.5566 14.4342C16.559 14.4219 16.5605 14.4093 16.5613 14.3966C16.5616 14.3928 16.5618 14.3891 16.5619 14.3854C16.562 14.3819 16.5624 14.3785 16.5624 14.375V2.8125C16.5625 2.63992 16.4226 2.5 16.25 2.5Z" fill="#010101"/>
<path d="M10 1.25C9.91758 1.25 9.83711 1.2832 9.77891 1.34141C9.7207 1.39961 9.6875 1.48008 9.6875 1.5625C9.6875 1.64492 9.7207 1.72539 9.77891 1.78359C9.83711 1.8418 9.91758 1.875 10 1.875C10.082 1.875 10.1629 1.8418 10.2211 1.78359C10.2793 1.72539 10.3125 1.64492 10.3125 1.5625C10.3125 1.48008 10.2793 1.39961 10.2211 1.34141C10.1629 1.2832 10.082 1.25 10 1.25Z" fill="#010101"/>
<path d="M11.25 5.9375H14.375C14.5476 5.9375 14.6875 5.79758 14.6875 5.625C14.6875 5.45242 14.5476 5.3125 14.375 5.3125H11.25C11.0774 5.3125 10.9375 5.45242 10.9375 5.625C10.9375 5.79758 11.0774 5.9375 11.25 5.9375Z" fill="#010101"/>
<path d="M8.75 7.1875H14.375C14.5476 7.1875 14.6875 7.04758 14.6875 6.875C14.6875 6.70242 14.5476 6.5625 14.375 6.5625H8.75C8.57742 6.5625 8.4375 6.70242 8.4375 6.875C8.4375 7.04758 8.57742 7.1875 8.75 7.1875Z" fill="#010101"/>
<path d="M14.375 9.0625H5.625C5.45242 9.0625 5.3125 9.20242 5.3125 9.375C5.3125 9.54758 5.45242 9.6875 5.625 9.6875H14.375C14.5476 9.6875 14.6875 9.54758 14.6875 9.375C14.6875 9.20242 14.5476 9.0625 14.375 9.0625Z" fill="#010101"/>
<path d="M14.375 10.3125H5.625C5.45242 10.3125 5.3125 10.4524 5.3125 10.625C5.3125 10.7976 5.45242 10.9375 5.625 10.9375H14.375C14.5476 10.9375 14.6875 10.7976 14.6875 10.625C14.6875 10.4524 14.5476 10.3125 14.375 10.3125Z" fill="#010101"/>
<path d="M14.375 11.5625H5.625C5.45242 11.5625 5.3125 11.7024 5.3125 11.875C5.3125 12.0476 5.45242 12.1875 5.625 12.1875H14.375C14.5476 12.1875 14.6875 12.0476 14.6875 11.875C14.6875 11.7024 14.5476 11.5625 14.375 11.5625Z" fill="#010101"/>
<path d="M14.6875 13.125C14.6875 12.9524 14.5476 12.8125 14.375 12.8125H5.625C5.45242 12.8125 5.3125 12.9524 5.3125 13.125C5.3125 13.2976 5.45242 13.4375 5.625 13.4375H14.375C14.5476 13.4375 14.6875 13.2976 14.6875 13.125Z" fill="#010101"/>
<path d="M10.9375 14.0625H8.4375C8.26492 14.0625 8.125 14.2024 8.125 14.375C8.125 14.5476 8.26492 14.6875 8.4375 14.6875H10.9375C11.1101 14.6875 11.25 14.5476 11.25 14.375C11.25 14.2024 11.1101 14.0625 10.9375 14.0625Z" fill="#010101"/>
<path d="M10.9375 15.3125H8.4375C8.26492 15.3125 8.125 15.4524 8.125 15.625C8.125 15.7976 8.26492 15.9375 8.4375 15.9375H10.9375C11.1101 15.9375 11.25 15.7976 11.25 15.625C11.25 15.4524 11.1101 15.3125 10.9375 15.3125Z" fill="#010101"/>
<path d="M5.3125 5.625C5.3125 5.79758 5.45242 5.9375 5.625 5.9375H7.1875C7.36008 5.9375 7.5 5.79758 7.5 5.625C7.5 5.45242 7.36008 5.3125 7.1875 5.3125H5.625C5.45242 5.3125 5.3125 5.45242 5.3125 5.625Z" fill="#010101"/>
<path d="M4.6875 15.4688C4.6875 16.2442 5.31832 16.875 6.09375 16.875C6.86918 16.875 7.5 16.2442 7.5 15.4688C7.5 14.6933 6.86918 14.0625 6.09375 14.0625C5.31832 14.0625 4.6875 14.6933 4.6875 15.4688ZM6.875 15.4688C6.875 15.8995 6.52453 16.25 6.09375 16.25C5.66297 16.25 5.3125 15.8995 5.3125 15.4688C5.3125 15.038 5.66297 14.6875 6.09375 14.6875C6.52453 14.6875 6.875 15.038 6.875 15.4688Z" fill="#010101"/>
</g>
<defs>
<clipPath id="clip0_21_3289">
<rect width="20" height="20" fill="white"/>
</clipPath>
</defs>
</svg>
