<svg width="20" height="20" viewBox="0 0 20 20" fill="none" xmlns="http://www.w3.org/2000/svg">
<path d="M4.63667 0.575432C4.33727 0.647869 3.89783 0.903809 3.68535 1.1356C3.57911 1.2515 3.41975 1.49296 3.33765 1.67163L3.18312 1.99518L3.16864 2.9948L3.14932 3.99924H2.69539C2.27526 3.99924 2.22697 4.0089 2.12073 4.11997C1.96137 4.2745 1.96137 4.49664 2.12073 4.65117C2.22697 4.76224 2.27526 4.7719 2.70022 4.7719H3.15898V6.3172V7.8625H2.70022C2.27526 7.8625 2.22697 7.87216 2.12073 7.98323C2.04346 8.05566 2 8.15707 2 8.24883C2 8.34058 2.04346 8.44199 2.12073 8.51443C2.22697 8.62549 2.27526 8.63515 2.70022 8.63515H3.15898V10.1805V11.7258H2.70022C2.27526 11.7258 2.22697 11.7354 2.12073 11.8465C1.96137 12.001 1.96137 12.2232 2.12073 12.3777C2.22697 12.4888 2.27526 12.4984 2.70022 12.4984H3.15898V14.0437V15.589H2.70022C2.27526 15.589 2.22697 15.5987 2.12073 15.7097C1.96137 15.8643 1.96137 16.0864 2.12073 16.2409C2.22697 16.352 2.27526 16.3617 2.69539 16.3617H3.14932L3.16864 17.3661L3.18312 18.3706L3.3618 18.7376C3.57911 19.177 3.85919 19.4474 4.3083 19.6599L4.63184 19.8145H11.0787H17.5255L17.849 19.6599C18.2981 19.4474 18.5782 19.177 18.7955 18.7376C18.9694 18.3754 18.9742 18.3657 18.9935 17.6848C19.008 16.9991 19.008 16.9943 18.8873 16.8735C18.7231 16.7094 18.5009 16.7094 18.3464 16.8687C18.2305 16.9798 18.2257 17.0184 18.2257 17.5255C18.2257 17.82 18.2015 18.1533 18.1677 18.2643C18.0905 18.5299 17.6897 18.9307 17.4241 19.008C17.1343 19.0901 5.023 19.0901 4.73325 19.008C4.46766 18.9307 4.06684 18.5299 3.98958 18.2643C3.95577 18.1388 3.93163 17.7428 3.93163 17.2116V16.3617H4.31795C4.63184 16.3617 4.70428 16.3762 4.70428 16.4341C4.70428 16.4776 4.7574 16.5645 4.82501 16.6273C4.97954 16.7866 5.20167 16.7866 5.3562 16.6273C5.4721 16.5162 5.47693 16.4776 5.47693 15.9753C5.47693 15.4731 5.4721 15.4345 5.3562 15.3234C5.20167 15.1641 4.97954 15.1641 4.82501 15.3234C4.7574 15.3862 4.70428 15.4731 4.70428 15.5166C4.70428 15.5745 4.63184 15.589 4.31795 15.589H3.93163V14.0437V12.4984H4.31795C4.63184 12.4984 4.70428 12.5129 4.70428 12.5708C4.70428 12.6143 4.7574 12.7012 4.82501 12.764C4.97954 12.9234 5.20167 12.9234 5.3562 12.764C5.4721 12.6529 5.47693 12.6143 5.47693 12.1121C5.47693 11.6099 5.4721 11.5712 5.3562 11.4602C5.20167 11.3008 4.97954 11.3008 4.82501 11.4602C4.7574 11.5229 4.70428 11.6099 4.70428 11.6533C4.70428 11.7113 4.63184 11.7258 4.31795 11.7258H3.93163V10.1805V8.63515H4.31795C4.63184 8.63515 4.70428 8.64964 4.70428 8.70759C4.70428 8.83797 4.93125 9.02148 5.09061 9.02148C5.18236 9.02148 5.28377 8.97802 5.3562 8.90075C5.4721 8.78968 5.47693 8.75105 5.47693 8.24883C5.47693 7.7466 5.4721 7.70797 5.3562 7.5969C5.28377 7.51964 5.18236 7.47618 5.09061 7.47618C4.93125 7.47618 4.70428 7.65968 4.70428 7.79006C4.70428 7.84801 4.63184 7.8625 4.31795 7.8625H3.93163V6.3172V4.7719H4.31795C4.63184 4.7719 4.70428 4.78638 4.70428 4.84433C4.70428 4.97472 4.93125 5.15822 5.09061 5.15822C5.18236 5.15822 5.28377 5.11476 5.3562 5.03749C5.4721 4.92643 5.47693 4.88779 5.47693 4.38557C5.47693 3.88335 5.4721 3.84471 5.3562 3.73364C5.28377 3.65638 5.18236 3.61292 5.09061 3.61292C4.93125 3.61292 4.70428 3.79642 4.70428 3.92681C4.70428 3.98476 4.63184 3.99924 4.31795 3.99924H3.93163V3.14933C3.93163 2.61813 3.95577 2.22215 3.98958 2.09659C4.06684 1.83099 4.46766 1.43018 4.73325 1.35291C5.023 1.27082 17.1343 1.27082 17.4241 1.35291C17.6897 1.43018 18.0905 1.83099 18.1677 2.09659C18.2112 2.25112 18.2257 3.79642 18.2257 8.63032V14.9661L18.3464 15.082C18.5009 15.2413 18.7231 15.2413 18.8824 15.082L18.9983 14.9661L18.9887 8.48062L18.9742 1.99518L18.8197 1.67163C18.6072 1.22253 18.3368 0.942442 17.8973 0.725134L17.5303 0.546457L11.1801 0.5368C7.44719 0.531971 4.74774 0.551287 4.63667 0.575432Z" fill="#010101"/>
<path d="M8.3985 3.7134C8.1329 3.77618 7.85765 3.979 7.72243 4.2108C7.48098 4.6261 7.26367 5.95409 7.26367 7.06478C7.26367 8.19961 7.40854 9.12197 7.75141 10.1554C8.76551 13.2074 11.2042 15.6074 14.2417 16.5298C14.9178 16.7374 15.2799 16.694 15.6325 16.3656C15.8498 16.1676 15.927 15.9696 16.1975 14.941C16.492 13.8207 16.5017 13.5937 16.2651 13.2557C16.0719 12.9852 15.8739 12.8597 15.4055 12.7196C15.053 12.6086 14.4831 12.3478 13.9568 12.0532C13.7298 11.9277 13.329 11.8842 13.0875 11.9663C12.991 11.9953 12.7012 12.1498 12.4453 12.3092L11.9768 12.5941L11.7402 12.3671C11.1704 11.8118 10.5185 10.8363 10.1901 10.0491C10.0162 9.63385 9.75064 8.83222 9.78445 8.80325C9.78928 8.79842 10.0211 8.66803 10.2867 8.51833C11.1221 8.05474 11.2235 7.89538 11.2477 6.99717C11.2621 6.66397 11.3056 6.21486 11.3491 6.00239C11.465 5.46153 11.4843 5.12349 11.4167 4.90619C11.3587 4.69853 11.0835 4.36533 10.8903 4.26875C10.7647 4.20114 9.0118 3.73272 8.73654 3.68926C8.65927 3.6796 8.50474 3.68926 8.3985 3.7134ZM9.69752 4.72268C10.6006 4.96896 10.6344 4.98345 10.673 5.13798C10.6923 5.20559 10.6682 5.42772 10.6247 5.63055C10.5764 5.8382 10.5185 6.32593 10.4895 6.72675C10.4653 7.12273 10.4267 7.48008 10.4074 7.51871C10.3881 7.55735 10.079 7.74568 9.72167 7.94367C9.36432 8.13683 9.0456 8.33483 9.0118 8.37829C8.87658 8.55213 9.08906 9.4262 9.48504 10.3485C9.91 11.3433 10.4509 12.1498 11.2235 12.9418C11.6485 13.3764 11.7595 13.4633 11.8803 13.4633C11.9768 13.4633 12.2424 13.3329 12.6674 13.077C13.0248 12.8645 13.3531 12.6906 13.4063 12.6906C13.4545 12.6906 13.7201 12.8065 13.9906 12.9514C14.261 13.0963 14.7101 13.2943 14.9902 13.3909C15.5359 13.5792 15.6663 13.6613 15.6663 13.8207C15.6663 13.9076 15.3137 15.2983 15.2027 15.646C15.1157 15.9261 14.8888 15.9406 14.2079 15.704C10.9386 14.5836 8.60132 11.7442 8.10876 8.29136C7.9156 6.91508 8.15222 4.67922 8.50957 4.50054C8.63996 4.43777 8.71239 4.44742 9.69752 4.72268Z" fill="#010101"/>
</svg>
