<svg width="26" height="24" viewBox="0 0 26 24" fill="none" xmlns="http://www.w3.org/2000/svg">
<path d="M11.5355 0.310449C7.0355 0.867089 3.24449 3.97842 1.8148 8.2792C1.41636 9.48037 1.27574 10.2772 1.24058 11.5956C1.223 12.3163 1.23472 12.9667 1.27574 13.3417C1.31675 13.6757 1.33433 13.9569 1.32261 13.9745C1.30503 13.9862 1.15855 13.8808 0.994486 13.7343C0.660501 13.4354 0.473001 13.3944 0.285501 13.5819C0.139017 13.7284 0.133158 13.9394 0.273783 14.0976C0.496439 14.3612 1.84409 15.5214 1.96714 15.5507C2.03159 15.5683 2.14878 15.5565 2.21324 15.5155C2.36558 15.4394 3.27378 13.5761 3.27378 13.3476C3.27378 13.078 2.99839 12.9257 2.71714 13.0312C2.66441 13.0546 2.52964 13.2538 2.41831 13.4823C2.30113 13.7108 2.1898 13.869 2.1605 13.8397C2.05503 13.7284 1.96714 12.5448 2.0023 11.619C2.04331 10.4765 2.1898 9.63272 2.5355 8.57803C3.10972 6.82607 4.01206 5.39639 5.33042 4.11904C7.24644 2.26748 9.48472 1.26553 12.1976 1.03115C14.4769 0.843652 16.9671 1.48232 18.9476 2.76553C19.2406 2.95303 19.6449 3.246 19.8558 3.41006C20.3128 3.7792 20.4007 3.81436 20.5882 3.72647C20.7523 3.65615 20.8226 3.46279 20.7699 3.25185C20.6996 2.96475 19.2875 1.98623 18.1332 1.41787C16.1117 0.427636 13.7679 0.035058 11.5355 0.310449Z" fill="black"/>
<path d="M13.2754 5.40234C11.8984 5.76562 10.709 6.09375 10.6387 6.13477C10.5625 6.17578 10.4746 6.25781 10.4336 6.32227C10.2988 6.53906 8.89844 10.1367 8.89844 10.2656C8.89844 10.3418 8.94531 10.4414 9.00391 10.4941C9.12695 10.6055 19.9082 14.8711 20.0723 14.8711C20.1367 14.8711 20.2363 14.8184 20.2891 14.7598C20.3945 14.6484 22.9961 8.12695 23.0547 7.83984C23.0781 7.74023 23.0488 7.64648 22.9785 7.56445C22.9199 7.49414 22.3633 7.24219 21.6719 6.97266C21.0098 6.71484 19.4629 6.10547 18.2324 5.61914C16.9961 5.13281 15.9414 4.73438 15.8887 4.74023C15.8301 4.74023 14.6523 5.03906 13.2754 5.40234ZM17.7461 6.57422C18.7598 6.97852 19.5918 7.32422 19.5918 7.35352C19.5918 7.44141 19.123 8.60156 19.0879 8.60156C19.0352 8.60156 13.75 6.49805 13.7148 6.46289C13.6973 6.44531 13.6973 6.42188 13.709 6.41016C13.7441 6.38086 15.707 5.86523 15.8125 5.85352C15.8594 5.85352 16.7324 6.17578 17.7461 6.57422Z" fill="black"/>
<path d="M7.87367 7.37109C7.68617 7.44141 7.62171 7.55273 7.34046 8.26172C7.05921 8.97656 7.02406 9.22852 7.18812 9.41016C7.28187 9.52734 7.9557 9.83203 8.1139 9.83203C8.20179 9.83203 9.03968 7.72266 8.97523 7.66406C8.9225 7.61719 8.09046 7.3125 8.03187 7.31836C8.00843 7.31836 7.93812 7.3418 7.87367 7.37109Z" fill="black"/>
<path d="M7.25781 11.56C6.73047 12.7846 6.50781 13.1654 5.41211 14.7533C4.43945 16.1537 4.09961 16.7279 3.8418 17.4018C3.66602 17.8588 3.66016 17.935 3.6543 18.6791C3.6543 19.3881 3.67188 19.5111 3.8125 19.8978C4.03516 20.5189 4.29883 20.9291 4.77344 21.4096C5.62891 22.2768 6.92383 22.6635 8.07812 22.3998C9.2207 22.1361 10.1113 21.4154 10.627 20.349C11.1953 19.1713 11.1719 18.0639 10.5566 16.8393C10.2812 16.2885 10 15.8549 9.17383 14.6654C8.16016 13.2123 7.85547 12.6791 7.38086 11.5014C7.33398 11.3959 7.32227 11.3959 7.25781 11.56ZM6.00977 16.599C6.21484 16.7396 6.20898 16.8978 5.99219 17.3021C5.44727 18.3393 5.42969 19.0307 5.93359 19.8451C6.17383 20.2377 6.19141 20.39 6.02734 20.5541C5.75781 20.8236 5.42969 20.6186 5.11914 19.9799C4.89062 19.517 4.79688 19.1303 4.79688 18.6439C4.79688 18.1635 4.9082 17.7533 5.18945 17.1908C5.50586 16.558 5.72266 16.3998 6.00977 16.599Z" fill="black"/>
<path d="M24.209 11.6654C23.9922 11.7826 22.668 13.3529 22.668 13.4936C22.668 13.7104 22.832 13.8744 23.0488 13.8744C23.2129 13.8744 23.2891 13.8217 23.541 13.5404C23.7051 13.3588 23.8574 13.2299 23.8809 13.2533C23.9043 13.2709 23.8633 13.6107 23.793 13.9975C23.2598 16.892 21.5605 19.4818 19.123 21.1107C17.1719 22.4174 14.7168 23.1147 12.5137 22.9857C11.6934 22.9389 11.5352 22.9975 11.5352 23.3314C11.5352 23.6772 11.6523 23.724 12.6016 23.7592C15.3613 23.8647 18.0625 22.974 20.2949 21.2279C20.8926 20.765 21.959 19.6635 22.3984 19.0717C23.1836 18.0111 23.7344 16.9506 24.1387 15.7436C24.373 15.0463 24.6602 13.8158 24.6602 13.5053C24.6602 13.265 24.7539 13.3119 24.9941 13.6811C25.1816 13.9682 25.252 14.0268 25.416 14.0385C25.6504 14.0619 25.832 13.9213 25.832 13.7104C25.832 13.4994 24.6777 11.7123 24.502 11.642C24.332 11.5775 24.3672 11.5775 24.209 11.6654Z" fill="black"/>
</svg>
