<svg width="28" height="24" viewBox="0 0 28 24" fill="none" xmlns="http://www.w3.org/2000/svg">
<path d="M7.61328 0.222656C7.49609 0.339844 7.49609 0.416016 7.49609 3.70898C7.49609 7.00195 7.49609 7.07812 7.61328 7.19531C7.74805 7.33008 8.01172 7.34766 8.17578 7.23047C8.27539 7.1543 8.28711 7.04883 8.31641 6.04102L8.3457 4.93945H15.875H23.4043L23.7383 5.10352C24.1133 5.28516 24.4531 5.63086 24.6055 5.98828C24.8164 6.46289 24.9043 8.71289 24.7812 10.4648C24.6992 11.5957 24.6406 11.8418 24.377 12.1348C24.0312 12.5215 23.8203 12.5859 22.8945 12.5859H22.0859V13.8223V15.0645L23.0996 15.0293C23.8203 15.0117 24.2012 14.9707 24.4297 14.9004C25.707 14.502 26.7207 13.459 27.0312 12.2285C27.1777 11.6367 27.2656 10.3594 27.2656 8.71875C27.2598 5.72461 27.0547 4.88672 26.0527 3.82031C25.5371 3.26367 25.0391 2.95312 24.1074 2.60156C23.9844 2.55469 21.7051 2.53125 16.1387 2.50781L8.3457 2.47852L8.31641 1.41211C8.29297 0.509766 8.26953 0.322266 8.1875 0.222656C8.05273 0.0703125 7.76562 0.0703125 7.61328 0.222656Z" fill="black"/>
<path d="M13.0039 10.8281C12.8926 10.9395 12.8867 11.0215 12.8867 13.7637C12.8867 16.5703 12.8984 16.752 13.0859 16.875C13.1211 16.8984 14.9258 16.9219 17.0938 16.9219C20.9551 16.9219 21.0312 16.9219 21.1484 16.8047C21.2598 16.6934 21.2656 16.6113 21.2656 13.8281C21.2656 11.3379 21.2539 10.957 21.1719 10.8398L21.084 10.7109H17.0996C13.1973 10.7109 13.1211 10.7109 13.0039 10.8281Z" fill="black"/>
<path d="M8.35214 12.6798C7.99472 12.7911 7.67245 12.9962 7.40878 13.2774C7.02792 13.6876 4.86581 16.5411 4.90683 16.5821C4.9537 16.6231 8.62167 18.6095 8.75058 18.6563C8.80917 18.6798 9.09628 18.2462 9.75253 17.1446C10.2623 16.295 10.7603 15.5157 10.86 15.4044C11.1002 15.1466 11.3463 15.047 11.7447 15.047H12.067V13.8165V12.586L10.356 12.5919C9.00839 12.5919 8.58065 12.6153 8.35214 12.6798Z" fill="black"/>
<path d="M2.15261 17.3379C1.81863 17.5078 1.20925 18.1113 1.03347 18.4336C0.500269 19.418 0.676051 20.4316 1.46707 20.9355C1.58425 21.0117 1.78933 21.1055 1.91824 21.1465L2.16433 21.2168V21.6738C2.16433 22.5059 2.56277 23.1797 3.26589 23.5254C3.55886 23.6719 3.66433 23.6895 4.15652 23.6895C4.73074 23.6895 4.98269 23.6074 5.38113 23.3027C5.52175 23.1914 5.52175 23.1914 5.76785 23.4199C6.17214 23.7891 6.34793 23.8594 6.88113 23.8652C7.25613 23.8652 7.40261 23.8359 7.63113 23.7305C8.38113 23.3555 8.96121 22.3242 8.96121 21.3457C8.96121 21.0645 8.77957 20.8477 8.53933 20.8477C8.2991 20.8477 8.18191 21.041 8.12918 21.5098C8.09988 21.7969 8.02957 22.043 7.8948 22.3066C7.64871 22.7988 7.36746 23.0215 6.96902 23.0625C6.57058 23.0977 6.29519 22.916 6.05496 22.4648C5.76785 21.9141 5.48074 21.8789 5.12918 22.3711C5.01199 22.5293 4.81863 22.7109 4.68972 22.7812C4.41433 22.9219 3.95144 22.9395 3.67019 22.8164C3.44168 22.7168 3.13113 22.4004 3.0491 22.1777C2.94363 21.8965 2.97293 21.4688 3.12527 21.1406C3.34207 20.666 3.19558 20.4082 2.71511 20.4258C2.1116 20.4492 1.63113 20.1562 1.54324 19.7051C1.46121 19.248 1.79519 18.5859 2.28738 18.2402C2.89089 17.8125 2.98464 17.6191 2.72097 17.3613C2.55105 17.1855 2.43972 17.1797 2.15261 17.3379Z" fill="black"/>
<path d="M4.08008 18.5508C3.54688 19.084 3.45312 19.207 3.45312 19.3652C3.45312 19.582 3.62305 19.7344 3.86328 19.7344C4.07422 19.7344 5.26953 18.5391 5.26953 18.3281C5.26953 18.0879 5.11133 17.918 4.90039 17.918C4.73633 17.918 4.61914 18.0059 4.08008 18.5508Z" fill="black"/>
<path d="M6.83984 19.1893C6.7168 19.3299 6.03125 20.7069 6.03125 20.8065C6.03125 20.8534 6.08398 20.9588 6.1543 21.0467C6.30664 21.2401 6.55273 21.246 6.7168 21.0643C6.89844 20.871 7.49609 19.6405 7.49609 19.4706C7.49609 19.1542 7.03906 18.9608 6.83984 19.1893Z" fill="black"/>
</svg>
